<?xml version="1.0" encoding="UTF-8"?>
<svg xmlns="http://www.w3.org/2000/svg" xmlns:xlink="http://www.w3.org/1999/xlink" width="864pt" height="216pt" viewBox="0 0 864 216" version="1.1">
<defs>
<clipPath id="clip1">
  <path d="M 13.449219 8.964844 L 855.035156 8.964844 L 855.035156 202.550781 L 13.449219 202.550781 Z M 13.449219 8.964844 "/>
</clipPath>
<clipPath id="clip2">
  <path d="M 13.449219 8.964844 L 855.035156 8.964844 L 855.035156 202.550781 L 13.449219 202.550781 Z M 13.449219 8.964844 "/>
</clipPath>
</defs>
<g id="surface3125">
<rect x="0" y="0" width="864" height="216" style="fill:rgb(100%,100%,100%);fill-opacity:1;stroke:none;"/>
<rect x="0" y="0" width="864" height="216" style="fill:rgb(100%,100%,100%);fill-opacity:1;stroke:none;"/>
<path style="fill:none;stroke-width:1.745965;stroke-linecap:round;stroke-linejoin:round;stroke:rgb(100%,100%,100%);stroke-opacity:1;stroke-miterlimit:10;" d="M 0 216 L 864 216 L 864 0 L 0 0 Z M 0 216 "/>
<g clip-path="url(#clip1)" clip-rule="nonzero">
<path style=" stroke:none;fill-rule:nonzero;fill:rgb(100%,100%,100%);fill-opacity:1;" d="M 13.449219 202.550781 L 855.035156 202.550781 L 855.035156 8.964844 L 13.449219 8.964844 Z M 13.449219 202.550781 "/>
</g>
<path style="fill:none;stroke-width:1.707165;stroke-linecap:butt;stroke-linejoin:round;stroke:rgb(82.745098%,82.745098%,82.745098%);stroke-opacity:1;stroke-miterlimit:1;" d="M 51.703125 17.765625 L 51.703125 193.75 "/>
<path style="fill:none;stroke-width:1.707165;stroke-linecap:butt;stroke-linejoin:round;stroke:rgb(82.745098%,82.745098%,82.745098%);stroke-opacity:1;stroke-miterlimit:1;" d="M 204.71875 17.765625 L 204.71875 193.75 "/>
<path style="fill:none;stroke-width:1.707165;stroke-linecap:butt;stroke-linejoin:round;stroke:rgb(82.745098%,82.745098%,82.745098%);stroke-opacity:1;stroke-miterlimit:1;" d="M 204.71875 17.765625 L 206.265625 19.542969 L 207.808594 21.320312 L 210.902344 24.875 L 212.445312 26.652344 L 213.992188 28.429688 L 215.539062 30.210938 L 217.082031 31.988281 L 220.175781 35.542969 L 221.71875 37.320312 L 224.8125 40.875 L 226.355469 42.652344 L 229.449219 46.207031 L 230.992188 47.984375 L 234.085938 51.539062 L 235.628906 53.316406 L 237.175781 55.097656 L 240.269531 58.652344 L 241.8125 60.429688 L 244.90625 63.984375 L 246.449219 65.761719 L 249.542969 69.316406 L 251.085938 71.09375 L 254.179688 74.648438 L 255.722656 76.425781 L 257.269531 78.207031 L 258.816406 79.984375 L 260.359375 81.761719 L 263.453125 85.316406 L 264.996094 87.09375 L 268.089844 90.648438 L 269.632812 92.425781 L 272.726562 95.980469 L 274.269531 97.757812 L 277.363281 101.3125 L 278.90625 103.09375 L 282 106.648438 L 283.542969 108.425781 L 286.636719 111.980469 L 288.179688 113.757812 L 292.820312 119.089844 L 294.363281 120.867188 L 297.457031 124.421875 L 299 126.199219 L 300.546875 127.980469 L 302.09375 129.757812 L 303.636719 131.535156 L 306.730469 135.089844 L 308.273438 136.867188 L 311.367188 140.421875 L 312.910156 142.199219 L 316.003906 145.753906 L 317.546875 147.53125 L 319.09375 149.308594 L 320.640625 151.089844 L 322.183594 152.867188 L 325.277344 156.421875 L 326.820312 158.199219 L 329.914062 161.753906 L 331.457031 163.53125 L 334.550781 167.085938 L 336.09375 168.863281 L 339.1875 172.417969 L 340.730469 174.195312 L 342.277344 175.976562 L 343.824219 177.753906 L 345.367188 179.53125 L 350.007812 184.863281 L 351.550781 186.640625 L 354.644531 190.195312 L 356.1875 191.972656 L 357.734375 193.75 "/>
<path style="fill:none;stroke-width:1.707165;stroke-linecap:butt;stroke-linejoin:round;stroke:rgb(82.745098%,82.745098%,82.745098%);stroke-opacity:1;stroke-miterlimit:1;" d="M 357.734375 17.765625 L 359.28125 19.542969 L 360.824219 21.320312 L 363.917969 24.875 L 365.460938 26.652344 L 367.007812 28.429688 L 368.554688 30.210938 L 370.097656 31.988281 L 373.191406 35.542969 L 374.734375 37.320312 L 377.828125 40.875 L 379.371094 42.652344 L 382.464844 46.207031 L 384.007812 47.984375 L 387.101562 51.539062 L 388.644531 53.316406 L 390.191406 55.097656 L 391.738281 56.875 L 393.28125 58.652344 L 396.375 62.207031 L 397.917969 63.984375 L 401.011719 67.539062 L 402.554688 69.316406 L 407.195312 74.648438 L 408.738281 76.425781 L 410.285156 78.207031 L 411.832031 79.984375 L 413.375 81.761719 L 416.46875 85.316406 L 418.011719 87.09375 L 421.105469 90.648438 L 422.648438 92.425781 L 425.742188 95.980469 L 427.285156 97.757812 L 430.378906 101.3125 L 431.921875 103.09375 L 435.015625 106.648438 L 436.558594 108.425781 L 439.652344 111.980469 L 441.195312 113.757812 L 444.289062 117.3125 L 445.832031 119.089844 L 448.925781 122.644531 L 450.46875 124.421875 L 452.015625 126.199219 L 453.5625 127.980469 L 455.105469 129.757812 L 459.746094 135.089844 L 461.289062 136.867188 L 464.382812 140.421875 L 465.925781 142.199219 L 469.019531 145.753906 L 470.5625 147.53125 L 472.109375 149.308594 L 473.65625 151.089844 L 475.199219 152.867188 L 478.292969 156.421875 L 479.835938 158.199219 L 482.929688 161.753906 L 484.472656 163.53125 L 487.566406 167.085938 L 489.109375 168.863281 L 492.203125 172.417969 L 493.746094 174.195312 L 495.292969 175.976562 L 496.839844 177.753906 L 498.382812 179.53125 L 501.476562 183.085938 L 503.019531 184.863281 L 506.113281 188.417969 L 507.65625 190.195312 L 510.75 193.75 "/>
<path style="fill:none;stroke-width:1.707165;stroke-linecap:butt;stroke-linejoin:round;stroke:rgb(82.745098%,82.745098%,82.745098%);stroke-opacity:1;stroke-miterlimit:1;" d="M 510.75 17.765625 L 512.292969 19.542969 L 516.933594 24.875 L 518.476562 26.652344 L 520.023438 28.429688 L 521.570312 30.210938 L 523.113281 31.988281 L 526.207031 35.542969 L 527.75 37.320312 L 530.84375 40.875 L 532.386719 42.652344 L 535.480469 46.207031 L 537.023438 47.984375 L 540.117188 51.539062 L 541.660156 53.316406 L 543.207031 55.097656 L 544.753906 56.875 L 546.296875 58.652344 L 549.390625 62.207031 L 550.933594 63.984375 L 554.027344 67.539062 L 555.570312 69.316406 L 558.664062 72.871094 L 560.207031 74.648438 L 561.753906 76.425781 L 563.300781 78.207031 L 564.84375 79.984375 L 567.9375 83.539062 L 569.480469 85.316406 L 574.121094 90.648438 L 575.664062 92.425781 L 578.757812 95.980469 L 580.300781 97.757812 L 583.394531 101.3125 L 584.9375 103.09375 L 588.03125 106.648438 L 589.574219 108.425781 L 592.667969 111.980469 L 594.210938 113.757812 L 597.304688 117.3125 L 598.847656 119.089844 L 601.941406 122.644531 L 603.484375 124.421875 L 605.03125 126.199219 L 606.578125 127.980469 L 608.121094 129.757812 L 611.214844 133.3125 L 612.757812 135.089844 L 615.851562 138.644531 L 617.394531 140.421875 L 620.488281 143.976562 L 622.03125 145.753906 L 625.125 149.308594 L 626.667969 151.089844 L 631.308594 156.421875 L 632.851562 158.199219 L 635.945312 161.753906 L 637.488281 163.53125 L 640.582031 167.085938 L 642.125 168.863281 L 645.21875 172.417969 L 646.761719 174.195312 L 648.308594 175.976562 L 649.855469 177.753906 L 651.398438 179.53125 L 654.492188 183.085938 L 656.035156 184.863281 L 659.128906 188.417969 L 660.671875 190.195312 L 663.765625 193.75 "/>
<path style="fill:none;stroke-width:1.707165;stroke-linecap:butt;stroke-linejoin:round;stroke:rgb(82.745098%,82.745098%,82.745098%);stroke-opacity:1;stroke-miterlimit:1;" d="M 663.765625 17.765625 L 665.308594 19.542969 L 668.402344 23.097656 L 669.945312 24.875 L 673.039062 28.429688 L 674.582031 30.210938 L 677.675781 33.765625 L 679.21875 35.542969 L 683.859375 40.875 L 685.402344 42.652344 L 688.496094 46.207031 L 690.039062 47.984375 L 693.132812 51.539062 L 694.675781 53.316406 L 696.222656 55.097656 L 697.769531 56.875 L 699.3125 58.652344 L 702.40625 62.207031 L 703.949219 63.984375 L 707.042969 67.539062 L 708.585938 69.316406 L 711.679688 72.871094 L 713.222656 74.648438 L 714.769531 76.425781 L 716.316406 78.207031 L 717.859375 79.984375 L 720.953125 83.539062 L 722.496094 85.316406 L 725.589844 88.871094 L 727.132812 90.648438 L 730.226562 94.203125 L 731.769531 95.980469 L 734.863281 99.535156 L 736.40625 101.3125 L 737.953125 103.09375 L 741.046875 106.648438 L 742.589844 108.425781 L 745.683594 111.980469 L 747.226562 113.757812 L 750.320312 117.3125 L 751.863281 119.089844 L 754.957031 122.644531 L 756.5 124.421875 L 758.046875 126.199219 L 759.59375 127.980469 L 761.136719 129.757812 L 764.230469 133.3125 L 765.773438 135.089844 L 768.867188 138.644531 L 770.410156 140.421875 L 773.503906 143.976562 L 775.046875 145.753906 L 778.140625 149.308594 L 779.683594 151.089844 L 782.777344 154.644531 L 784.320312 156.421875 L 787.414062 159.976562 L 788.957031 161.753906 L 792.050781 165.308594 L 793.59375 167.085938 L 798.234375 172.417969 L 799.777344 174.195312 L 801.324219 175.976562 L 802.871094 177.753906 L 804.414062 179.53125 L 807.507812 183.085938 L 809.050781 184.863281 L 812.144531 188.417969 L 813.6875 190.195312 L 816.78125 193.75 "/>
<path style="fill-rule:nonzero;fill:rgb(100%,100%,100%);fill-opacity:1;stroke-width:0.708661;stroke-linecap:round;stroke-linejoin:round;stroke:rgb(0%,0%,0%);stroke-opacity:1;stroke-miterlimit:10;" d="M 58.460938 17.765625 C 58.460938 21.496094 55.433594 24.523438 51.703125 24.523438 C 47.972656 24.523438 44.945312 21.496094 44.945312 17.765625 C 44.945312 14.035156 47.972656 11.007812 51.703125 11.007812 C 55.433594 11.007812 58.460938 14.035156 58.460938 17.765625 "/>
<path style="fill-rule:nonzero;fill:rgb(100%,100%,100%);fill-opacity:1;stroke-width:0.708661;stroke-linecap:round;stroke-linejoin:round;stroke:rgb(0%,0%,0%);stroke-opacity:1;stroke-miterlimit:10;" d="M 211.476562 17.765625 C 211.476562 21.496094 208.449219 24.523438 204.71875 24.523438 C 200.988281 24.523438 197.960938 21.496094 197.960938 17.765625 C 197.960938 14.035156 200.988281 11.007812 204.71875 11.007812 C 208.449219 11.007812 211.476562 14.035156 211.476562 17.765625 "/>
<path style="fill-rule:nonzero;fill:rgb(100%,100%,100%);fill-opacity:1;stroke-width:0.708661;stroke-linecap:round;stroke-linejoin:round;stroke:rgb(0%,0%,0%);stroke-opacity:1;stroke-miterlimit:10;" d="M 364.488281 17.765625 C 364.488281 21.496094 361.464844 24.523438 357.734375 24.523438 C 354.003906 24.523438 350.976562 21.496094 350.976562 17.765625 C 350.976562 14.035156 354.003906 11.007812 357.734375 11.007812 C 361.464844 11.007812 364.488281 14.035156 364.488281 17.765625 "/>
<path style="fill-rule:nonzero;fill:rgb(100%,100%,100%);fill-opacity:1;stroke-width:0.708661;stroke-linecap:round;stroke-linejoin:round;stroke:rgb(0%,0%,0%);stroke-opacity:1;stroke-miterlimit:10;" d="M 517.503906 17.765625 C 517.503906 21.496094 514.480469 24.523438 510.75 24.523438 C 507.019531 24.523438 503.992188 21.496094 503.992188 17.765625 C 503.992188 14.035156 507.019531 11.007812 510.75 11.007812 C 514.480469 11.007812 517.503906 14.035156 517.503906 17.765625 "/>
<path style="fill-rule:nonzero;fill:rgb(100%,100%,100%);fill-opacity:1;stroke-width:0.708661;stroke-linecap:round;stroke-linejoin:round;stroke:rgb(0%,0%,0%);stroke-opacity:1;stroke-miterlimit:10;" d="M 670.519531 17.765625 C 670.519531 21.496094 667.496094 24.523438 663.765625 24.523438 C 660.03125 24.523438 657.007812 21.496094 657.007812 17.765625 C 657.007812 14.035156 660.03125 11.007812 663.765625 11.007812 C 667.496094 11.007812 670.519531 14.035156 670.519531 17.765625 "/>
<path style="fill-rule:nonzero;fill:rgb(100%,100%,100%);fill-opacity:1;stroke-width:0.708661;stroke-linecap:round;stroke-linejoin:round;stroke:rgb(0%,0%,0%);stroke-opacity:1;stroke-miterlimit:10;" d="M 823.535156 17.765625 C 823.535156 21.496094 820.511719 24.523438 816.78125 24.523438 C 813.046875 24.523438 810.023438 21.496094 810.023438 17.765625 C 810.023438 14.035156 813.046875 11.007812 816.78125 11.007812 C 820.511719 11.007812 823.535156 14.035156 823.535156 17.765625 "/>
<path style="fill-rule:nonzero;fill:rgb(100%,100%,100%);fill-opacity:1;stroke-width:0.708661;stroke-linecap:round;stroke-linejoin:round;stroke:rgb(0%,0%,0%);stroke-opacity:1;stroke-miterlimit:10;" d="M 58.460938 193.75 C 58.460938 197.484375 55.433594 200.507812 51.703125 200.507812 C 47.972656 200.507812 44.945312 197.484375 44.945312 193.75 C 44.945312 190.019531 47.972656 186.996094 51.703125 186.996094 C 55.433594 186.996094 58.460938 190.019531 58.460938 193.75 "/>
<path style="fill-rule:nonzero;fill:rgb(100%,100%,100%);fill-opacity:1;stroke-width:0.708661;stroke-linecap:round;stroke-linejoin:round;stroke:rgb(0%,0%,0%);stroke-opacity:1;stroke-miterlimit:10;" d="M 211.476562 193.75 C 211.476562 197.484375 208.449219 200.507812 204.71875 200.507812 C 200.988281 200.507812 197.960938 197.484375 197.960938 193.75 C 197.960938 190.019531 200.988281 186.996094 204.71875 186.996094 C 208.449219 186.996094 211.476562 190.019531 211.476562 193.75 "/>
<path style="fill-rule:nonzero;fill:rgb(100%,100%,100%);fill-opacity:1;stroke-width:0.708661;stroke-linecap:round;stroke-linejoin:round;stroke:rgb(0%,0%,0%);stroke-opacity:1;stroke-miterlimit:10;" d="M 364.488281 193.75 C 364.488281 197.484375 361.464844 200.507812 357.734375 200.507812 C 354.003906 200.507812 350.976562 197.484375 350.976562 193.75 C 350.976562 190.019531 354.003906 186.996094 357.734375 186.996094 C 361.464844 186.996094 364.488281 190.019531 364.488281 193.75 "/>
<path style="fill-rule:nonzero;fill:rgb(100%,100%,100%);fill-opacity:1;stroke-width:0.708661;stroke-linecap:round;stroke-linejoin:round;stroke:rgb(0%,0%,0%);stroke-opacity:1;stroke-miterlimit:10;" d="M 517.503906 193.75 C 517.503906 197.484375 514.480469 200.507812 510.75 200.507812 C 507.019531 200.507812 503.992188 197.484375 503.992188 193.75 C 503.992188 190.019531 507.019531 186.996094 510.75 186.996094 C 514.480469 186.996094 517.503906 190.019531 517.503906 193.75 "/>
<path style="fill-rule:nonzero;fill:rgb(100%,100%,100%);fill-opacity:1;stroke-width:0.708661;stroke-linecap:round;stroke-linejoin:round;stroke:rgb(0%,0%,0%);stroke-opacity:1;stroke-miterlimit:10;" d="M 670.519531 193.75 C 670.519531 197.484375 667.496094 200.507812 663.765625 200.507812 C 660.03125 200.507812 657.007812 197.484375 657.007812 193.75 C 657.007812 190.019531 660.03125 186.996094 663.765625 186.996094 C 667.496094 186.996094 670.519531 190.019531 670.519531 193.75 "/>
<path style="fill-rule:nonzero;fill:rgb(0%,0%,0%);fill-opacity:1;stroke-width:0.708661;stroke-linecap:round;stroke-linejoin:round;stroke:rgb(0%,0%,0%);stroke-opacity:1;stroke-miterlimit:10;" d="M 823.535156 193.75 C 823.535156 197.484375 820.511719 200.507812 816.78125 200.507812 C 813.046875 200.507812 810.023438 197.484375 810.023438 193.75 C 810.023438 190.019531 813.046875 186.996094 816.78125 186.996094 C 820.511719 186.996094 823.535156 190.019531 823.535156 193.75 "/>
<g clip-path="url(#clip2)" clip-rule="nonzero">
<path style="fill:none;stroke-width:1.745965;stroke-linecap:round;stroke-linejoin:round;stroke:rgb(20%,20%,20%);stroke-opacity:1;stroke-miterlimit:10;" d="M 13.449219 202.550781 L 855.035156 202.550781 L 855.035156 8.964844 L 13.449219 8.964844 Z M 13.449219 202.550781 "/>
</g>
</g>
</svg>
