<?xml version="1.0" encoding="UTF-8"?>
<svg xmlns="http://www.w3.org/2000/svg" xmlns:xlink="http://www.w3.org/1999/xlink" width="864pt" height="216pt" viewBox="0 0 864 216" version="1.1">
<defs>
<clipPath id="clip1">
  <path d="M 13.449219 8.964844 L 855.035156 8.964844 L 855.035156 202.550781 L 13.449219 202.550781 Z M 13.449219 8.964844 "/>
</clipPath>
<clipPath id="clip2">
  <path d="M 13.449219 8.964844 L 855.035156 8.964844 L 855.035156 202.550781 L 13.449219 202.550781 Z M 13.449219 8.964844 "/>
</clipPath>
</defs>
<g id="surface311">
<rect x="0" y="0" width="864" height="216" style="fill:rgb(100%,100%,100%);fill-opacity:1;stroke:none;"/>
<rect x="0" y="0" width="864" height="216" style="fill:rgb(100%,100%,100%);fill-opacity:1;stroke:none;"/>
<path style="fill:none;stroke-width:1.745965;stroke-linecap:round;stroke-linejoin:round;stroke:rgb(100%,100%,100%);stroke-opacity:1;stroke-miterlimit:10;" d="M 0 216 L 864 216 L 864 0 L 0 0 Z M 0 216 "/>
<g clip-path="url(#clip1)" clip-rule="nonzero">
<path style=" stroke:none;fill-rule:nonzero;fill:rgb(100%,100%,100%);fill-opacity:1;" d="M 13.449219 202.550781 L 855.035156 202.550781 L 855.035156 8.964844 L 13.449219 8.964844 Z M 13.449219 202.550781 "/>
</g>
<path style="fill:none;stroke-width:1.707165;stroke-linecap:butt;stroke-linejoin:round;stroke:rgb(82.745098%,82.745098%,82.745098%);stroke-opacity:1;stroke-miterlimit:1;" d="M 51.703125 17.765625 L 51.703125 193.75 "/>
<path style="fill:none;stroke-width:1.707165;stroke-linecap:butt;stroke-linejoin:round;stroke:rgb(82.745098%,82.745098%,82.745098%);stroke-opacity:1;stroke-miterlimit:1;" d="M 333.574219 17.765625 L 335.199219 21.320312 L 336.015625 23.097656 L 338.453125 28.429688 L 339.269531 30.210938 L 341.707031 35.542969 L 342.523438 37.320312 L 344.960938 42.652344 L 345.777344 44.429688 L 348.214844 49.761719 L 349.03125 51.539062 L 349.84375 53.316406 L 350.65625 55.097656 L 351.46875 56.875 L 352.285156 58.652344 L 354.722656 63.984375 L 355.539062 65.761719 L 357.976562 71.09375 L 358.792969 72.871094 L 360.417969 76.425781 L 361.230469 78.207031 L 362.046875 79.984375 L 364.484375 85.316406 L 365.300781 87.09375 L 367.738281 92.425781 L 368.554688 94.203125 L 370.992188 99.535156 L 371.808594 101.3125 L 372.621094 103.09375 L 374.246094 106.648438 L 375.0625 108.425781 L 377.5 113.757812 L 378.316406 115.535156 L 380.753906 120.867188 L 381.570312 122.644531 L 383.195312 126.199219 L 384.007812 127.980469 L 384.824219 129.757812 L 387.261719 135.089844 L 388.078125 136.867188 L 390.515625 142.199219 L 391.332031 143.976562 L 393.769531 149.308594 L 394.585938 151.089844 L 397.023438 156.421875 L 397.839844 158.199219 L 400.277344 163.53125 L 401.09375 165.308594 L 403.53125 170.640625 L 404.347656 172.417969 L 405.160156 174.195312 L 405.972656 175.976562 L 406.785156 177.753906 L 407.601562 179.53125 L 410.039062 184.863281 L 410.855469 186.640625 L 413.292969 191.972656 L 414.109375 193.75 "/>
<path style="fill:none;stroke-width:1.707165;stroke-linecap:butt;stroke-linejoin:round;stroke:rgb(82.745098%,82.745098%,82.745098%);stroke-opacity:1;stroke-miterlimit:1;" d="M 414.109375 17.765625 L 416.546875 28.429688 L 416.957031 30.210938 L 419.800781 42.652344 L 420.210938 44.429688 L 422.242188 53.316406 L 422.648438 55.097656 L 423.054688 56.875 L 423.464844 58.652344 L 426.308594 71.09375 L 426.71875 72.871094 L 427.53125 76.425781 L 427.9375 78.207031 L 429.5625 85.316406 L 429.972656 87.09375 L 432.816406 99.535156 L 433.226562 101.3125 L 433.632812 103.09375 L 436.070312 113.757812 L 436.480469 115.535156 L 438.917969 126.199219 L 439.324219 127.980469 L 439.734375 129.757812 L 442.578125 142.199219 L 442.988281 143.976562 L 444.207031 149.308594 L 444.613281 151.089844 L 445.832031 156.421875 L 446.242188 158.199219 L 449.085938 170.640625 L 449.496094 172.417969 L 449.902344 174.195312 L 450.308594 175.976562 L 452.339844 184.863281 L 452.75 186.640625 L 454.375 193.75 "/>
<path style="fill:none;stroke-width:1.707165;stroke-linecap:butt;stroke-linejoin:round;stroke:rgb(82.745098%,82.745098%,82.745098%);stroke-opacity:1;stroke-miterlimit:1;" d="M 534.910156 17.765625 L 534.097656 21.320312 L 533.6875 23.097656 L 532.46875 28.429688 L 532.0625 30.210938 L 530.84375 35.542969 L 530.433594 37.320312 L 527.589844 49.761719 L 527.179688 51.539062 L 526.773438 53.316406 L 526.367188 55.097656 L 524.335938 63.984375 L 523.925781 65.761719 L 521.488281 76.425781 L 521.082031 78.207031 L 520.671875 79.984375 L 517.828125 92.425781 L 517.417969 94.203125 L 515.792969 101.3125 L 515.386719 103.09375 L 514.574219 106.648438 L 514.164062 108.425781 L 511.320312 120.867188 L 510.910156 122.644531 L 510.097656 126.199219 L 509.691406 127.980469 L 508.066406 135.089844 L 507.65625 136.867188 L 504.8125 149.308594 L 504.402344 151.089844 L 501.558594 163.53125 L 501.148438 165.308594 L 499.117188 174.195312 L 498.710938 175.976562 L 498.304688 177.753906 L 497.894531 179.53125 L 495.050781 191.972656 L 494.640625 193.75 "/>
<path style="fill:none;stroke-width:1.707165;stroke-linecap:butt;stroke-linejoin:round;stroke:rgb(82.745098%,82.745098%,82.745098%);stroke-opacity:1;stroke-miterlimit:1;" d="M 575.175781 17.765625 L 573.144531 26.652344 L 572.734375 28.429688 L 572.328125 30.210938 L 569.890625 40.875 L 569.480469 42.652344 L 567.042969 53.316406 L 566.636719 55.097656 L 566.226562 56.875 L 563.382812 69.316406 L 562.972656 71.09375 L 561.753906 76.425781 L 561.347656 78.207031 L 560.128906 83.539062 L 559.71875 85.316406 L 556.875 97.757812 L 556.464844 99.535156 L 556.058594 101.3125 L 555.652344 103.09375 L 553.621094 111.980469 L 553.210938 113.757812 L 550.367188 126.199219 L 549.957031 127.980469 L 547.113281 140.421875 L 546.703125 142.199219 L 545.078125 149.308594 L 544.671875 151.089844 L 543.859375 154.644531 L 543.449219 156.421875 L 540.605469 168.863281 L 540.195312 170.640625 L 539.382812 174.195312 L 538.976562 175.976562 L 537.351562 183.085938 L 536.941406 184.863281 L 534.910156 193.75 "/>
<path style="fill:none;stroke-width:1.707165;stroke-linecap:butt;stroke-linejoin:round;stroke:rgb(82.745098%,82.745098%,82.745098%);stroke-opacity:1;stroke-miterlimit:1;" d="M 575.175781 17.765625 L 575.175781 193.75 "/>
<path style="fill:none;stroke-width:1.707165;stroke-linecap:butt;stroke-linejoin:round;stroke:rgb(82.745098%,82.745098%,82.745098%);stroke-opacity:1;stroke-miterlimit:1;" d="M 575.175781 17.765625 L 575.988281 21.320312 L 576.398438 23.097656 L 577.617188 28.429688 L 578.023438 30.210938 L 579.242188 35.542969 L 579.652344 37.320312 L 582.496094 49.761719 L 582.90625 51.539062 L 583.3125 53.316406 L 583.71875 55.097656 L 585.75 63.984375 L 586.160156 65.761719 L 588.597656 76.425781 L 589.003906 78.207031 L 589.414062 79.984375 L 591.851562 90.648438 L 592.261719 92.425781 L 594.292969 101.3125 L 594.699219 103.09375 L 595.105469 104.871094 L 595.515625 106.648438 L 598.359375 119.089844 L 598.769531 120.867188 L 599.988281 126.199219 L 600.394531 127.980469 L 601.613281 133.3125 L 602.023438 135.089844 L 604.867188 147.53125 L 605.277344 149.308594 L 605.683594 151.089844 L 608.121094 161.753906 L 608.53125 163.53125 L 610.96875 174.195312 L 611.375 175.976562 L 611.785156 177.753906 L 614.628906 190.195312 L 615.039062 191.972656 L 615.445312 193.75 "/>
<path style="fill:none;stroke-width:1.707165;stroke-linecap:butt;stroke-linejoin:round;stroke:rgb(82.745098%,82.745098%,82.745098%);stroke-opacity:1;stroke-miterlimit:1;" d="M 615.445312 17.765625 L 617.882812 28.429688 L 618.292969 30.210938 L 621.136719 42.652344 L 621.546875 44.429688 L 623.578125 53.316406 L 623.984375 55.097656 L 624.390625 56.875 L 624.800781 58.652344 L 627.644531 71.09375 L 628.054688 72.871094 L 628.867188 76.425781 L 629.273438 78.207031 L 630.898438 85.316406 L 631.308594 87.09375 L 634.152344 99.535156 L 634.5625 101.3125 L 634.96875 103.09375 L 637.40625 113.757812 L 637.816406 115.535156 L 640.253906 126.199219 L 640.660156 127.980469 L 641.070312 129.757812 L 643.914062 142.199219 L 644.324219 143.976562 L 645.542969 149.308594 L 645.949219 151.089844 L 647.167969 156.421875 L 647.578125 158.199219 L 650.421875 170.640625 L 650.832031 172.417969 L 651.238281 174.195312 L 651.644531 175.976562 L 653.675781 184.863281 L 654.085938 186.640625 L 655.710938 193.75 "/>
<path style="fill:none;stroke-width:1.707165;stroke-linecap:butt;stroke-linejoin:round;stroke:rgb(82.745098%,82.745098%,82.745098%);stroke-opacity:1;stroke-miterlimit:1;" d="M 736.246094 17.765625 L 735.433594 21.320312 L 735.023438 23.097656 L 733.804688 28.429688 L 733.398438 30.210938 L 732.179688 35.542969 L 731.769531 37.320312 L 728.925781 49.761719 L 728.515625 51.539062 L 728.109375 53.316406 L 727.703125 55.097656 L 725.671875 63.984375 L 725.261719 65.761719 L 722.824219 76.425781 L 722.417969 78.207031 L 722.007812 79.984375 L 719.164062 92.425781 L 718.753906 94.203125 L 717.128906 101.3125 L 716.722656 103.09375 L 715.910156 106.648438 L 715.5 108.425781 L 712.65625 120.867188 L 712.246094 122.644531 L 711.433594 126.199219 L 711.027344 127.980469 L 709.402344 135.089844 L 708.992188 136.867188 L 706.148438 149.308594 L 705.738281 151.089844 L 702.894531 163.53125 L 702.484375 165.308594 L 700.453125 174.195312 L 700.046875 175.976562 L 699.640625 177.753906 L 699.230469 179.53125 L 696.386719 191.972656 L 695.976562 193.75 "/>
<path style="fill:none;stroke-width:1.707165;stroke-linecap:butt;stroke-linejoin:round;stroke:rgb(82.745098%,82.745098%,82.745098%);stroke-opacity:1;stroke-miterlimit:1;" d="M 736.246094 17.765625 L 736.246094 193.75 "/>
<path style="fill:none;stroke-width:1.707165;stroke-linecap:butt;stroke-linejoin:round;stroke:rgb(82.745098%,82.745098%,82.745098%);stroke-opacity:1;stroke-miterlimit:1;" d="M 736.246094 17.765625 L 738.277344 26.652344 L 738.6875 28.429688 L 739.09375 30.210938 L 741.53125 40.875 L 741.941406 42.652344 L 744.378906 53.316406 L 744.785156 55.097656 L 745.195312 56.875 L 748.039062 69.316406 L 748.449219 71.09375 L 749.667969 76.425781 L 750.074219 78.207031 L 751.292969 83.539062 L 751.703125 85.316406 L 754.546875 97.757812 L 754.957031 99.535156 L 755.363281 101.3125 L 755.769531 103.09375 L 757.800781 111.980469 L 758.210938 113.757812 L 761.054688 126.199219 L 761.464844 127.980469 L 764.308594 140.421875 L 764.71875 142.199219 L 766.34375 149.308594 L 766.75 151.089844 L 767.5625 154.644531 L 767.972656 156.421875 L 770.816406 168.863281 L 771.226562 170.640625 L 772.039062 174.195312 L 772.445312 175.976562 L 774.070312 183.085938 L 774.480469 184.863281 L 776.511719 193.75 "/>
<path style="fill:none;stroke-width:1.707165;stroke-linecap:butt;stroke-linejoin:round;stroke:rgb(82.745098%,82.745098%,82.745098%);stroke-opacity:1;stroke-miterlimit:1;" d="M 51.703125 17.765625 L 52.921875 23.097656 L 53.332031 24.875 L 54.144531 28.429688 L 54.550781 30.210938 L 56.175781 37.320312 L 56.585938 39.097656 L 59.429688 51.539062 L 59.839844 53.316406 L 60.246094 55.097656 L 62.683594 65.761719 L 63.09375 67.539062 L 65.125 76.425781 L 65.53125 78.207031 L 65.9375 79.984375 L 66.347656 81.761719 L 69.191406 94.203125 L 69.601562 95.980469 L 70.820312 101.3125 L 71.226562 103.09375 L 72.445312 108.425781 L 72.855469 110.203125 L 75.699219 122.644531 L 76.109375 124.421875 L 76.515625 126.199219 L 76.921875 127.980469 L 78.953125 136.867188 L 79.363281 138.644531 L 81.800781 149.308594 L 82.207031 151.089844 L 82.617188 152.867188 L 85.460938 165.308594 L 85.871094 167.085938 L 87.496094 174.195312 L 87.902344 175.976562 L 88.714844 179.53125 L 89.125 181.308594 L 91.96875 193.75 "/>
<path style="fill:none;stroke-width:1.707165;stroke-linecap:butt;stroke-linejoin:round;stroke:rgb(82.745098%,82.745098%,82.745098%);stroke-opacity:1;stroke-miterlimit:1;" d="M 776.511719 17.765625 L 777.324219 21.320312 L 777.734375 23.097656 L 778.953125 28.429688 L 779.359375 30.210938 L 780.578125 35.542969 L 780.988281 37.320312 L 783.832031 49.761719 L 784.242188 51.539062 L 784.648438 53.316406 L 785.054688 55.097656 L 787.085938 63.984375 L 787.496094 65.761719 L 789.933594 76.425781 L 790.339844 78.207031 L 790.75 79.984375 L 793.59375 92.425781 L 794.003906 94.203125 L 795.628906 101.3125 L 796.035156 103.09375 L 796.847656 106.648438 L 797.257812 108.425781 L 800.101562 120.867188 L 800.511719 122.644531 L 801.324219 126.199219 L 801.730469 127.980469 L 803.355469 135.089844 L 803.765625 136.867188 L 806.609375 149.308594 L 807.019531 151.089844 L 809.457031 161.753906 L 809.867188 163.53125 L 812.304688 174.195312 L 812.710938 175.976562 L 813.121094 177.753906 L 815.964844 190.195312 L 816.375 191.972656 L 816.78125 193.75 "/>
<path style="fill:none;stroke-width:1.707165;stroke-linecap:butt;stroke-linejoin:round;stroke:rgb(82.745098%,82.745098%,82.745098%);stroke-opacity:1;stroke-miterlimit:1;" d="M 51.703125 17.765625 L 52.515625 19.542969 L 53.332031 21.320312 L 55.769531 26.652344 L 56.585938 28.429688 L 57.398438 30.210938 L 59.023438 33.765625 L 59.839844 35.542969 L 62.277344 40.875 L 63.09375 42.652344 L 65.53125 47.984375 L 66.347656 49.761719 L 67.972656 53.316406 L 68.785156 55.097656 L 69.601562 56.875 L 72.039062 62.207031 L 72.855469 63.984375 L 75.292969 69.316406 L 76.109375 71.09375 L 78.546875 76.425781 L 79.363281 78.207031 L 81.800781 83.539062 L 82.617188 85.316406 L 85.054688 90.648438 L 85.871094 92.425781 L 88.308594 97.757812 L 89.125 99.535156 L 89.9375 101.3125 L 90.75 103.09375 L 91.5625 104.871094 L 92.378906 106.648438 L 94.816406 111.980469 L 95.632812 113.757812 L 98.070312 119.089844 L 98.886719 120.867188 L 101.324219 126.199219 L 102.140625 127.980469 L 104.578125 133.3125 L 105.394531 135.089844 L 107.832031 140.421875 L 108.648438 142.199219 L 111.085938 147.53125 L 111.902344 149.308594 L 112.714844 151.089844 L 114.339844 154.644531 L 115.15625 156.421875 L 117.59375 161.753906 L 118.410156 163.53125 L 120.847656 168.863281 L 121.664062 170.640625 L 123.289062 174.195312 L 124.101562 175.976562 L 124.917969 177.753906 L 127.355469 183.085938 L 128.171875 184.863281 L 130.609375 190.195312 L 131.425781 191.972656 L 132.238281 193.75 "/>
<path style="fill:none;stroke-width:1.707165;stroke-linecap:butt;stroke-linejoin:round;stroke:rgb(82.745098%,82.745098%,82.745098%);stroke-opacity:1;stroke-miterlimit:1;" d="M 91.96875 17.765625 L 92.785156 19.542969 L 95.222656 24.875 L 96.039062 26.652344 L 96.851562 28.429688 L 97.664062 30.210938 L 98.476562 31.988281 L 99.292969 33.765625 L 101.730469 39.097656 L 102.546875 40.875 L 104.984375 46.207031 L 105.800781 47.984375 L 108.238281 53.316406 L 109.054688 55.097656 L 111.492188 60.429688 L 112.308594 62.207031 L 114.746094 67.539062 L 115.5625 69.316406 L 118 74.648438 L 118.816406 76.425781 L 119.628906 78.207031 L 121.253906 81.761719 L 122.070312 83.539062 L 124.507812 88.871094 L 125.324219 90.648438 L 127.761719 95.980469 L 128.578125 97.757812 L 130.203125 101.3125 L 131.015625 103.09375 L 131.832031 104.871094 L 134.269531 110.203125 L 135.085938 111.980469 L 137.523438 117.3125 L 138.339844 119.089844 L 140.777344 124.421875 L 141.59375 126.199219 L 142.40625 127.980469 L 144.03125 131.535156 L 144.847656 133.3125 L 147.285156 138.644531 L 148.101562 140.421875 L 150.539062 145.753906 L 151.355469 147.53125 L 152.167969 149.308594 L 152.980469 151.089844 L 153.796875 152.867188 L 156.234375 158.199219 L 157.050781 159.976562 L 159.488281 165.308594 L 160.304688 167.085938 L 162.742188 172.417969 L 163.558594 174.195312 L 164.371094 175.976562 L 165.996094 179.53125 L 166.8125 181.308594 L 169.25 186.640625 L 170.066406 188.417969 L 172.503906 193.75 "/>
<path style="fill:none;stroke-width:1.707165;stroke-linecap:butt;stroke-linejoin:round;stroke:rgb(82.745098%,82.745098%,82.745098%);stroke-opacity:1;stroke-miterlimit:1;" d="M 132.238281 17.765625 L 133.863281 21.320312 L 134.679688 23.097656 L 137.117188 28.429688 L 137.933594 30.210938 L 140.371094 35.542969 L 141.1875 37.320312 L 143.625 42.652344 L 144.441406 44.429688 L 146.878906 49.761719 L 147.695312 51.539062 L 148.507812 53.316406 L 149.320312 55.097656 L 150.132812 56.875 L 150.949219 58.652344 L 153.386719 63.984375 L 154.203125 65.761719 L 156.640625 71.09375 L 157.457031 72.871094 L 159.082031 76.425781 L 159.894531 78.207031 L 160.710938 79.984375 L 163.148438 85.316406 L 163.964844 87.09375 L 166.402344 92.425781 L 167.21875 94.203125 L 169.65625 99.535156 L 170.472656 101.3125 L 171.285156 103.09375 L 172.910156 106.648438 L 173.726562 108.425781 L 176.164062 113.757812 L 176.980469 115.535156 L 179.417969 120.867188 L 180.234375 122.644531 L 181.859375 126.199219 L 182.671875 127.980469 L 183.488281 129.757812 L 185.925781 135.089844 L 186.742188 136.867188 L 189.179688 142.199219 L 189.996094 143.976562 L 192.433594 149.308594 L 193.25 151.089844 L 195.6875 156.421875 L 196.503906 158.199219 L 198.941406 163.53125 L 199.757812 165.308594 L 202.195312 170.640625 L 203.011719 172.417969 L 203.824219 174.195312 L 204.636719 175.976562 L 205.449219 177.753906 L 206.265625 179.53125 L 208.703125 184.863281 L 209.519531 186.640625 L 211.957031 191.972656 L 212.773438 193.75 "/>
<path style="fill:none;stroke-width:1.707165;stroke-linecap:butt;stroke-linejoin:round;stroke:rgb(82.745098%,82.745098%,82.745098%);stroke-opacity:1;stroke-miterlimit:1;" d="M 253.039062 17.765625 L 253.039062 193.75 "/>
<path style="fill:none;stroke-width:1.707165;stroke-linecap:butt;stroke-linejoin:round;stroke:rgb(82.745098%,82.745098%,82.745098%);stroke-opacity:1;stroke-miterlimit:1;" d="M 253.039062 17.765625 L 254.257812 23.097656 L 254.667969 24.875 L 255.480469 28.429688 L 255.886719 30.210938 L 257.511719 37.320312 L 257.921875 39.097656 L 260.765625 51.539062 L 261.175781 53.316406 L 261.582031 55.097656 L 264.019531 65.761719 L 264.429688 67.539062 L 266.460938 76.425781 L 266.867188 78.207031 L 267.273438 79.984375 L 267.683594 81.761719 L 270.527344 94.203125 L 270.9375 95.980469 L 272.15625 101.3125 L 272.5625 103.09375 L 273.78125 108.425781 L 274.191406 110.203125 L 277.035156 122.644531 L 277.445312 124.421875 L 277.851562 126.199219 L 278.257812 127.980469 L 280.289062 136.867188 L 280.699219 138.644531 L 283.136719 149.308594 L 283.542969 151.089844 L 283.953125 152.867188 L 286.796875 165.308594 L 287.207031 167.085938 L 288.832031 174.195312 L 289.238281 175.976562 L 290.050781 179.53125 L 290.460938 181.308594 L 293.304688 193.75 "/>
<path style="fill:none;stroke-width:1.707165;stroke-linecap:butt;stroke-linejoin:round;stroke:rgb(82.745098%,82.745098%,82.745098%);stroke-opacity:1;stroke-miterlimit:1;" d="M 293.304688 17.765625 L 293.714844 19.542969 L 295.746094 28.429688 L 296.152344 30.210938 L 296.558594 31.988281 L 296.96875 33.765625 L 299.8125 46.207031 L 300.222656 47.984375 L 301.441406 53.316406 L 301.847656 55.097656 L 303.066406 60.429688 L 303.476562 62.207031 L 306.320312 74.648438 L 306.730469 76.425781 L 307.136719 78.207031 L 309.574219 88.871094 L 309.984375 90.648438 L 312.421875 101.3125 L 312.828125 103.09375 L 313.238281 104.871094 L 316.082031 117.3125 L 316.492188 119.089844 L 318.117188 126.199219 L 318.523438 127.980469 L 319.335938 131.535156 L 319.746094 133.3125 L 322.589844 145.753906 L 323 147.53125 L 323.40625 149.308594 L 323.8125 151.089844 L 325.84375 159.976562 L 326.253906 161.753906 L 329.097656 174.195312 L 329.507812 175.976562 L 332.351562 188.417969 L 332.761719 190.195312 L 333.574219 193.75 "/>
<path style="fill:none;stroke-width:1.707165;stroke-linecap:butt;stroke-linejoin:round;stroke:rgb(82.745098%,82.745098%,82.745098%);stroke-opacity:1;stroke-miterlimit:1;" d="M 333.574219 17.765625 L 335.605469 26.652344 L 336.015625 28.429688 L 336.421875 30.210938 L 338.859375 40.875 L 339.269531 42.652344 L 341.707031 53.316406 L 342.113281 55.097656 L 342.523438 56.875 L 345.367188 69.316406 L 345.777344 71.09375 L 346.996094 76.425781 L 347.402344 78.207031 L 348.621094 83.539062 L 349.03125 85.316406 L 351.875 97.757812 L 352.285156 99.535156 L 352.691406 101.3125 L 353.097656 103.09375 L 355.128906 111.980469 L 355.539062 113.757812 L 358.382812 126.199219 L 358.792969 127.980469 L 361.636719 140.421875 L 362.046875 142.199219 L 363.671875 149.308594 L 364.078125 151.089844 L 364.890625 154.644531 L 365.300781 156.421875 L 368.144531 168.863281 L 368.554688 170.640625 L 369.367188 174.195312 L 369.773438 175.976562 L 371.398438 183.085938 L 371.808594 184.863281 L 373.839844 193.75 "/>
<path style="fill-rule:nonzero;fill:rgb(100%,100%,100%);fill-opacity:1;stroke-width:0.708661;stroke-linecap:round;stroke-linejoin:round;stroke:rgb(0%,0%,0%);stroke-opacity:1;stroke-miterlimit:10;" d="M 55.257812 17.765625 C 55.257812 22.507812 48.148438 22.507812 48.148438 17.765625 C 48.148438 13.023438 55.257812 13.023438 55.257812 17.765625 "/>
<path style="fill-rule:nonzero;fill:rgb(100%,100%,100%);fill-opacity:1;stroke-width:0.708661;stroke-linecap:round;stroke-linejoin:round;stroke:rgb(0%,0%,0%);stroke-opacity:1;stroke-miterlimit:10;" d="M 95.527344 17.765625 C 95.527344 22.507812 88.414062 22.507812 88.414062 17.765625 C 88.414062 13.023438 95.527344 13.023438 95.527344 17.765625 "/>
<path style="fill-rule:nonzero;fill:rgb(0%,0%,0%);fill-opacity:1;stroke-width:0.708661;stroke-linecap:round;stroke-linejoin:round;stroke:rgb(0%,0%,0%);stroke-opacity:1;stroke-miterlimit:10;" d="M 135.792969 17.765625 C 135.792969 22.507812 128.683594 22.507812 128.683594 17.765625 C 128.683594 13.023438 135.792969 13.023438 135.792969 17.765625 "/>
<path style="fill-rule:nonzero;fill:rgb(100%,100%,100%);fill-opacity:1;stroke-width:0.708661;stroke-linecap:round;stroke-linejoin:round;stroke:rgb(0%,0%,0%);stroke-opacity:1;stroke-miterlimit:10;" d="M 176.058594 17.765625 C 176.058594 22.507812 168.949219 22.507812 168.949219 17.765625 C 168.949219 13.023438 176.058594 13.023438 176.058594 17.765625 "/>
<path style="fill-rule:nonzero;fill:rgb(0%,0%,0%);fill-opacity:1;stroke-width:0.708661;stroke-linecap:round;stroke-linejoin:round;stroke:rgb(0%,0%,0%);stroke-opacity:1;stroke-miterlimit:10;" d="M 216.328125 17.765625 C 216.328125 22.507812 209.21875 22.507812 209.21875 17.765625 C 209.21875 13.023438 216.328125 13.023438 216.328125 17.765625 "/>
<path style="fill-rule:nonzero;fill:rgb(0%,0%,0%);fill-opacity:1;stroke-width:0.708661;stroke-linecap:round;stroke-linejoin:round;stroke:rgb(0%,0%,0%);stroke-opacity:1;stroke-miterlimit:10;" d="M 256.59375 17.765625 C 256.59375 22.507812 249.484375 22.507812 249.484375 17.765625 C 249.484375 13.023438 256.59375 13.023438 256.59375 17.765625 "/>
<path style="fill-rule:nonzero;fill:rgb(100%,100%,100%);fill-opacity:1;stroke-width:0.708661;stroke-linecap:round;stroke-linejoin:round;stroke:rgb(0%,0%,0%);stroke-opacity:1;stroke-miterlimit:10;" d="M 296.863281 17.765625 C 296.863281 22.507812 289.75 22.507812 289.75 17.765625 C 289.75 13.023438 296.863281 13.023438 296.863281 17.765625 "/>
<path style="fill-rule:nonzero;fill:rgb(100%,100%,100%);fill-opacity:1;stroke-width:0.708661;stroke-linecap:round;stroke-linejoin:round;stroke:rgb(0%,0%,0%);stroke-opacity:1;stroke-miterlimit:10;" d="M 337.128906 17.765625 C 337.128906 22.507812 330.019531 22.507812 330.019531 17.765625 C 330.019531 13.023438 337.128906 13.023438 337.128906 17.765625 "/>
<path style="fill-rule:nonzero;fill:rgb(100%,100%,100%);fill-opacity:1;stroke-width:0.708661;stroke-linecap:round;stroke-linejoin:round;stroke:rgb(0%,0%,0%);stroke-opacity:1;stroke-miterlimit:10;" d="M 377.394531 17.765625 C 377.394531 22.507812 370.285156 22.507812 370.285156 17.765625 C 370.285156 13.023438 377.394531 13.023438 377.394531 17.765625 "/>
<path style="fill-rule:nonzero;fill:rgb(100%,100%,100%);fill-opacity:1;stroke-width:0.708661;stroke-linecap:round;stroke-linejoin:round;stroke:rgb(0%,0%,0%);stroke-opacity:1;stroke-miterlimit:10;" d="M 417.664062 17.765625 C 417.664062 22.507812 410.554688 22.507812 410.554688 17.765625 C 410.554688 13.023438 417.664062 13.023438 417.664062 17.765625 "/>
<path style="fill-rule:nonzero;fill:rgb(100%,100%,100%);fill-opacity:1;stroke-width:0.708661;stroke-linecap:round;stroke-linejoin:round;stroke:rgb(0%,0%,0%);stroke-opacity:1;stroke-miterlimit:10;" d="M 457.929688 17.765625 C 457.929688 22.507812 450.820312 22.507812 450.820312 17.765625 C 450.820312 13.023438 457.929688 13.023438 457.929688 17.765625 "/>
<path style="fill-rule:nonzero;fill:rgb(0%,0%,0%);fill-opacity:1;stroke-width:0.708661;stroke-linecap:round;stroke-linejoin:round;stroke:rgb(0%,0%,0%);stroke-opacity:1;stroke-miterlimit:10;" d="M 498.199219 17.765625 C 498.199219 22.507812 491.085938 22.507812 491.085938 17.765625 C 491.085938 13.023438 498.199219 13.023438 498.199219 17.765625 "/>
<path style="fill-rule:nonzero;fill:rgb(100%,100%,100%);fill-opacity:1;stroke-width:0.708661;stroke-linecap:round;stroke-linejoin:round;stroke:rgb(0%,0%,0%);stroke-opacity:1;stroke-miterlimit:10;" d="M 538.464844 17.765625 C 538.464844 22.507812 531.355469 22.507812 531.355469 17.765625 C 531.355469 13.023438 538.464844 13.023438 538.464844 17.765625 "/>
<path style="fill-rule:nonzero;fill:rgb(100%,100%,100%);fill-opacity:1;stroke-width:0.708661;stroke-linecap:round;stroke-linejoin:round;stroke:rgb(0%,0%,0%);stroke-opacity:1;stroke-miterlimit:10;" d="M 578.730469 17.765625 C 578.730469 22.507812 571.621094 22.507812 571.621094 17.765625 C 571.621094 13.023438 578.730469 13.023438 578.730469 17.765625 "/>
<path style="fill-rule:nonzero;fill:rgb(100%,100%,100%);fill-opacity:1;stroke-width:0.708661;stroke-linecap:round;stroke-linejoin:round;stroke:rgb(0%,0%,0%);stroke-opacity:1;stroke-miterlimit:10;" d="M 619 17.765625 C 619 22.507812 611.886719 22.507812 611.886719 17.765625 C 611.886719 13.023438 619 13.023438 619 17.765625 "/>
<path style="fill-rule:nonzero;fill:rgb(100%,100%,100%);fill-opacity:1;stroke-width:0.708661;stroke-linecap:round;stroke-linejoin:round;stroke:rgb(0%,0%,0%);stroke-opacity:1;stroke-miterlimit:10;" d="M 659.265625 17.765625 C 659.265625 22.507812 652.15625 22.507812 652.15625 17.765625 C 652.15625 13.023438 659.265625 13.023438 659.265625 17.765625 "/>
<path style="fill-rule:nonzero;fill:rgb(100%,100%,100%);fill-opacity:1;stroke-width:0.708661;stroke-linecap:round;stroke-linejoin:round;stroke:rgb(0%,0%,0%);stroke-opacity:1;stroke-miterlimit:10;" d="M 699.535156 17.765625 C 699.535156 22.507812 692.421875 22.507812 692.421875 17.765625 C 692.421875 13.023438 699.535156 13.023438 699.535156 17.765625 "/>
<path style="fill-rule:nonzero;fill:rgb(0%,0%,0%);fill-opacity:1;stroke-width:0.708661;stroke-linecap:round;stroke-linejoin:round;stroke:rgb(0%,0%,0%);stroke-opacity:1;stroke-miterlimit:10;" d="M 739.800781 17.765625 C 739.800781 22.507812 732.691406 22.507812 732.691406 17.765625 C 732.691406 13.023438 739.800781 13.023438 739.800781 17.765625 "/>
<path style="fill-rule:nonzero;fill:rgb(0%,0%,0%);fill-opacity:1;stroke-width:0.708661;stroke-linecap:round;stroke-linejoin:round;stroke:rgb(0%,0%,0%);stroke-opacity:1;stroke-miterlimit:10;" d="M 780.066406 17.765625 C 780.066406 22.507812 772.957031 22.507812 772.957031 17.765625 C 772.957031 13.023438 780.066406 13.023438 780.066406 17.765625 "/>
<path style="fill-rule:nonzero;fill:rgb(100%,100%,100%);fill-opacity:1;stroke-width:0.708661;stroke-linecap:round;stroke-linejoin:round;stroke:rgb(0%,0%,0%);stroke-opacity:1;stroke-miterlimit:10;" d="M 820.335938 17.765625 C 820.335938 22.507812 813.222656 22.507812 813.222656 17.765625 C 813.222656 13.023438 820.335938 13.023438 820.335938 17.765625 "/>
<path style="fill-rule:nonzero;fill:rgb(100%,100%,100%);fill-opacity:1;stroke-width:0.708661;stroke-linecap:round;stroke-linejoin:round;stroke:rgb(0%,0%,0%);stroke-opacity:1;stroke-miterlimit:10;" d="M 55.257812 193.75 C 55.257812 198.492188 48.148438 198.492188 48.148438 193.75 C 48.148438 189.011719 55.257812 189.011719 55.257812 193.75 "/>
<path style="fill-rule:nonzero;fill:rgb(100%,100%,100%);fill-opacity:1;stroke-width:0.708661;stroke-linecap:round;stroke-linejoin:round;stroke:rgb(0%,0%,0%);stroke-opacity:1;stroke-miterlimit:10;" d="M 95.527344 193.75 C 95.527344 198.492188 88.414062 198.492188 88.414062 193.75 C 88.414062 189.011719 95.527344 189.011719 95.527344 193.75 "/>
<path style="fill-rule:nonzero;fill:rgb(100%,100%,100%);fill-opacity:1;stroke-width:0.708661;stroke-linecap:round;stroke-linejoin:round;stroke:rgb(0%,0%,0%);stroke-opacity:1;stroke-miterlimit:10;" d="M 135.792969 193.75 C 135.792969 198.492188 128.683594 198.492188 128.683594 193.75 C 128.683594 189.011719 135.792969 189.011719 135.792969 193.75 "/>
<path style="fill-rule:nonzero;fill:rgb(100%,100%,100%);fill-opacity:1;stroke-width:0.708661;stroke-linecap:round;stroke-linejoin:round;stroke:rgb(0%,0%,0%);stroke-opacity:1;stroke-miterlimit:10;" d="M 176.058594 193.75 C 176.058594 198.492188 168.949219 198.492188 168.949219 193.75 C 168.949219 189.011719 176.058594 189.011719 176.058594 193.75 "/>
<path style="fill-rule:nonzero;fill:rgb(0%,0%,0%);fill-opacity:1;stroke-width:0.708661;stroke-linecap:round;stroke-linejoin:round;stroke:rgb(0%,0%,0%);stroke-opacity:1;stroke-miterlimit:10;" d="M 216.328125 193.75 C 216.328125 198.492188 209.21875 198.492188 209.21875 193.75 C 209.21875 189.011719 216.328125 189.011719 216.328125 193.75 "/>
<path style="fill-rule:nonzero;fill:rgb(0%,0%,0%);fill-opacity:1;stroke-width:0.708661;stroke-linecap:round;stroke-linejoin:round;stroke:rgb(0%,0%,0%);stroke-opacity:1;stroke-miterlimit:10;" d="M 256.59375 193.75 C 256.59375 198.492188 249.484375 198.492188 249.484375 193.75 C 249.484375 189.011719 256.59375 189.011719 256.59375 193.75 "/>
<path style="fill-rule:nonzero;fill:rgb(0%,0%,0%);fill-opacity:1;stroke-width:0.708661;stroke-linecap:round;stroke-linejoin:round;stroke:rgb(0%,0%,0%);stroke-opacity:1;stroke-miterlimit:10;" d="M 296.863281 193.75 C 296.863281 198.492188 289.75 198.492188 289.75 193.75 C 289.75 189.011719 296.863281 189.011719 296.863281 193.75 "/>
<path style="fill-rule:nonzero;fill:rgb(100%,100%,100%);fill-opacity:1;stroke-width:0.708661;stroke-linecap:round;stroke-linejoin:round;stroke:rgb(0%,0%,0%);stroke-opacity:1;stroke-miterlimit:10;" d="M 337.128906 193.75 C 337.128906 198.492188 330.019531 198.492188 330.019531 193.75 C 330.019531 189.011719 337.128906 189.011719 337.128906 193.75 "/>
<path style="fill-rule:nonzero;fill:rgb(100%,100%,100%);fill-opacity:1;stroke-width:0.708661;stroke-linecap:round;stroke-linejoin:round;stroke:rgb(0%,0%,0%);stroke-opacity:1;stroke-miterlimit:10;" d="M 377.394531 193.75 C 377.394531 198.492188 370.285156 198.492188 370.285156 193.75 C 370.285156 189.011719 377.394531 189.011719 377.394531 193.75 "/>
<path style="fill-rule:nonzero;fill:rgb(100%,100%,100%);fill-opacity:1;stroke-width:0.708661;stroke-linecap:round;stroke-linejoin:round;stroke:rgb(0%,0%,0%);stroke-opacity:1;stroke-miterlimit:10;" d="M 417.664062 193.75 C 417.664062 198.492188 410.554688 198.492188 410.554688 193.75 C 410.554688 189.011719 417.664062 189.011719 417.664062 193.75 "/>
<path style="fill-rule:nonzero;fill:rgb(100%,100%,100%);fill-opacity:1;stroke-width:0.708661;stroke-linecap:round;stroke-linejoin:round;stroke:rgb(0%,0%,0%);stroke-opacity:1;stroke-miterlimit:10;" d="M 457.929688 193.75 C 457.929688 198.492188 450.820312 198.492188 450.820312 193.75 C 450.820312 189.011719 457.929688 189.011719 457.929688 193.75 "/>
<path style="fill-rule:nonzero;fill:rgb(100%,100%,100%);fill-opacity:1;stroke-width:0.708661;stroke-linecap:round;stroke-linejoin:round;stroke:rgb(0%,0%,0%);stroke-opacity:1;stroke-miterlimit:10;" d="M 498.199219 193.75 C 498.199219 198.492188 491.085938 198.492188 491.085938 193.75 C 491.085938 189.011719 498.199219 189.011719 498.199219 193.75 "/>
<path style="fill-rule:nonzero;fill:rgb(100%,100%,100%);fill-opacity:1;stroke-width:0.708661;stroke-linecap:round;stroke-linejoin:round;stroke:rgb(0%,0%,0%);stroke-opacity:1;stroke-miterlimit:10;" d="M 538.464844 193.75 C 538.464844 198.492188 531.355469 198.492188 531.355469 193.75 C 531.355469 189.011719 538.464844 189.011719 538.464844 193.75 "/>
<path style="fill-rule:nonzero;fill:rgb(100%,100%,100%);fill-opacity:1;stroke-width:0.708661;stroke-linecap:round;stroke-linejoin:round;stroke:rgb(0%,0%,0%);stroke-opacity:1;stroke-miterlimit:10;" d="M 578.730469 193.75 C 578.730469 198.492188 571.621094 198.492188 571.621094 193.75 C 571.621094 189.011719 578.730469 189.011719 578.730469 193.75 "/>
<path style="fill-rule:nonzero;fill:rgb(100%,100%,100%);fill-opacity:1;stroke-width:0.708661;stroke-linecap:round;stroke-linejoin:round;stroke:rgb(0%,0%,0%);stroke-opacity:1;stroke-miterlimit:10;" d="M 619 193.75 C 619 198.492188 611.886719 198.492188 611.886719 193.75 C 611.886719 189.011719 619 189.011719 619 193.75 "/>
<path style="fill-rule:nonzero;fill:rgb(100%,100%,100%);fill-opacity:1;stroke-width:0.708661;stroke-linecap:round;stroke-linejoin:round;stroke:rgb(0%,0%,0%);stroke-opacity:1;stroke-miterlimit:10;" d="M 659.265625 193.75 C 659.265625 198.492188 652.15625 198.492188 652.15625 193.75 C 652.15625 189.011719 659.265625 189.011719 659.265625 193.75 "/>
<path style="fill-rule:nonzero;fill:rgb(0%,0%,0%);fill-opacity:1;stroke-width:0.708661;stroke-linecap:round;stroke-linejoin:round;stroke:rgb(0%,0%,0%);stroke-opacity:1;stroke-miterlimit:10;" d="M 699.535156 193.75 C 699.535156 198.492188 692.421875 198.492188 692.421875 193.75 C 692.421875 189.011719 699.535156 189.011719 699.535156 193.75 "/>
<path style="fill-rule:nonzero;fill:rgb(0%,0%,0%);fill-opacity:1;stroke-width:0.708661;stroke-linecap:round;stroke-linejoin:round;stroke:rgb(0%,0%,0%);stroke-opacity:1;stroke-miterlimit:10;" d="M 739.800781 193.75 C 739.800781 198.492188 732.691406 198.492188 732.691406 193.75 C 732.691406 189.011719 739.800781 189.011719 739.800781 193.75 "/>
<path style="fill-rule:nonzero;fill:rgb(0%,0%,0%);fill-opacity:1;stroke-width:0.708661;stroke-linecap:round;stroke-linejoin:round;stroke:rgb(0%,0%,0%);stroke-opacity:1;stroke-miterlimit:10;" d="M 780.066406 193.75 C 780.066406 198.492188 772.957031 198.492188 772.957031 193.75 C 772.957031 189.011719 780.066406 189.011719 780.066406 193.75 "/>
<path style="fill-rule:nonzero;fill:rgb(0%,0%,0%);fill-opacity:1;stroke-width:0.708661;stroke-linecap:round;stroke-linejoin:round;stroke:rgb(0%,0%,0%);stroke-opacity:1;stroke-miterlimit:10;" d="M 820.335938 193.75 C 820.335938 198.492188 813.222656 198.492188 813.222656 193.75 C 813.222656 189.011719 820.335938 189.011719 820.335938 193.75 "/>
<g clip-path="url(#clip2)" clip-rule="nonzero">
<path style="fill:none;stroke-width:1.745965;stroke-linecap:round;stroke-linejoin:round;stroke:rgb(20%,20%,20%);stroke-opacity:1;stroke-miterlimit:10;" d="M 13.449219 202.550781 L 855.035156 202.550781 L 855.035156 8.964844 L 13.449219 8.964844 Z M 13.449219 202.550781 "/>
</g>
</g>
</svg>
