<?xml version="1.0" encoding="UTF-8"?>
<svg xmlns="http://www.w3.org/2000/svg" xmlns:xlink="http://www.w3.org/1999/xlink" width="720pt" height="864pt" viewBox="0 0 720 864" version="1.1">
<defs>
<clipPath id="clip1">
  <path d="M 17.933594 11.957031 L 708.046875 11.957031 L 708.046875 846.070312 L 17.933594 846.070312 Z M 17.933594 11.957031 "/>
</clipPath>
<clipPath id="clip2">
  <path d="M 17.933594 11.957031 L 708.046875 11.957031 L 708.046875 846.070312 L 17.933594 846.070312 Z M 17.933594 11.957031 "/>
</clipPath>
</defs>
<g id="surface125">
<rect x="0" y="0" width="720" height="864" style="fill:rgb(100%,100%,100%);fill-opacity:1;stroke:none;"/>
<rect x="0" y="0" width="720" height="864" style="fill:rgb(100%,100%,100%);fill-opacity:1;stroke:none;"/>
<path style="fill:none;stroke-width:2.327953;stroke-linecap:round;stroke-linejoin:round;stroke:rgb(100%,100%,100%);stroke-opacity:1;stroke-miterlimit:10;" d="M 0 864 L 720 864 L 720 0 L 0 0 Z M 0 864 "/>
<g clip-path="url(#clip1)" clip-rule="nonzero">
<path style=" stroke:none;fill-rule:nonzero;fill:rgb(100%,100%,100%);fill-opacity:1;" d="M 17.933594 846.066406 L 708.046875 846.066406 L 708.046875 11.953125 L 17.933594 11.953125 Z M 17.933594 846.066406 "/>
</g>
<path style="fill:none;stroke-width:4.054518;stroke-linecap:butt;stroke-linejoin:round;stroke:rgb(0%,0%,0%);stroke-opacity:1;stroke-miterlimit:1;" d="M 606.96875 49.871094 L 608.375 51.402344 L 609.082031 52.167969 L 611.191406 54.464844 L 611.898438 55.230469 L 614.007812 57.527344 L 614.714844 58.292969 L 615.417969 59.0625 L 616.824219 60.59375 L 617.53125 61.359375 L 619.640625 63.65625 L 620.347656 64.421875 L 622.457031 66.71875 L 623.164062 67.484375 L 623.867188 68.253906 L 625.273438 69.785156 L 625.980469 70.550781 L 628.089844 72.847656 L 628.796875 73.613281 L 630.90625 75.910156 L 631.613281 76.675781 L 632.316406 77.441406 L 633.019531 78.210938 L 633.722656 78.976562 L 634.429688 79.742188 L 635.835938 81.273438 L 636.542969 82.039062 L 638.652344 84.335938 L 639.359375 85.101562 L 640.765625 86.632812 L 641.46875 87.402344 L 642.175781 88.167969 L 644.285156 90.464844 L 644.992188 91.230469 L 647.101562 93.527344 L 647.808594 94.292969 L 649.214844 95.824219 L 649.917969 96.59375 L 650.625 97.359375 L 652.734375 99.65625 L 653.441406 100.421875 L 655.550781 102.71875 L 656.257812 103.484375 L 658.367188 105.78125 L 659.074219 106.550781 L 661.183594 108.847656 L 661.890625 109.613281 L 664 111.910156 L 664.707031 112.675781 L 666.113281 114.207031 L 666.820312 114.972656 L 667.523438 115.742188 L 668.929688 117.273438 L 669.636719 118.039062 L 671.746094 120.335938 L 672.453125 121.101562 L 674.5625 123.398438 L 675.269531 124.164062 L 675.972656 124.933594 L 676.675781 125.699219 "/>
<path style="fill:none;stroke-width:4.054518;stroke-linecap:butt;stroke-linejoin:round;stroke:rgb(0%,0%,0%);stroke-opacity:1;stroke-miterlimit:1;" d="M 676.675781 732.324219 L 676.675781 808.152344 "/>
<path style="fill:none;stroke-width:4.054518;stroke-linecap:butt;stroke-linejoin:round;stroke:rgb(0%,0%,0%);stroke-opacity:1;stroke-miterlimit:1;" d="M 676.675781 125.699219 L 648.511719 133.355469 L 645.695312 134.125 L 611.898438 143.3125 L 609.082031 144.082031 L 606.265625 144.847656 L 603.445312 145.613281 L 578.097656 152.503906 L 575.28125 153.273438 L 544.300781 161.695312 L 541.484375 162.464844 L 510.503906 170.886719 L 507.6875 171.65625 L 485.15625 177.78125 L 482.335938 178.546875 L 473.886719 180.84375 L 471.070312 181.613281 L 440.089844 190.035156 L 437.273438 190.804688 L 406.292969 199.226562 L 403.476562 199.996094 L 397.84375 201.527344 "/>
<path style="fill:none;stroke-width:4.054518;stroke-linecap:butt;stroke-linejoin:round;stroke:rgb(0%,0%,0%);stroke-opacity:1;stroke-miterlimit:1;" d="M 676.675781 125.699219 L 675.269531 127.230469 L 674.5625 127.996094 L 672.453125 130.292969 L 671.746094 131.058594 L 669.636719 133.355469 L 668.929688 134.125 L 666.820312 136.421875 L 666.113281 137.1875 L 664.707031 138.71875 L 664 139.484375 L 661.890625 141.78125 L 661.183594 142.546875 L 660.480469 143.3125 L 659.777344 144.082031 L 659.074219 144.847656 L 658.367188 145.613281 L 656.257812 147.910156 L 655.550781 148.675781 L 653.441406 150.972656 L 652.734375 151.738281 L 652.03125 152.503906 L 651.328125 153.273438 L 650.625 154.039062 L 649.917969 154.804688 L 647.808594 157.101562 L 647.101562 157.867188 L 644.992188 160.164062 L 644.285156 160.929688 L 643.582031 161.695312 L 642.878906 162.464844 L 642.175781 163.230469 L 641.46875 163.996094 L 639.359375 166.292969 L 638.652344 167.058594 L 636.542969 169.355469 L 635.835938 170.121094 L 635.132812 170.886719 L 634.429688 171.65625 L 633.722656 172.421875 L 631.613281 174.71875 L 630.90625 175.484375 L 628.796875 177.78125 L 628.089844 178.546875 L 625.980469 180.84375 L 625.273438 181.613281 L 623.164062 183.910156 L 622.457031 184.675781 L 620.347656 186.972656 L 619.640625 187.738281 L 617.53125 190.035156 L 616.824219 190.804688 L 614.714844 193.101562 L 614.007812 193.867188 L 611.898438 196.164062 L 611.191406 196.929688 L 609.082031 199.226562 L 608.375 199.996094 L 606.96875 201.527344 "/>
<path style="fill:none;stroke-width:4.054518;stroke-linecap:butt;stroke-linejoin:round;stroke:rgb(0%,0%,0%);stroke-opacity:1;stroke-miterlimit:1;" d="M 397.84375 201.527344 L 396.433594 202.292969 L 395.027344 203.058594 L 393.617188 203.824219 L 392.210938 204.589844 L 390.800781 205.355469 L 389.394531 206.121094 L 387.984375 206.886719 L 386.578125 207.652344 L 385.167969 208.417969 L 383.761719 209.183594 L 382.351562 209.953125 L 380.945312 210.71875 L 379.535156 211.484375 L 378.128906 212.25 L 376.71875 213.015625 L 375.3125 213.78125 L 373.902344 214.546875 L 372.496094 215.3125 L 371.085938 216.078125 L 369.679688 216.84375 L 368.269531 217.609375 L 366.863281 218.375 L 365.453125 219.144531 L 364.046875 219.910156 L 361.226562 221.441406 L 359.820312 222.207031 L 358.410156 222.972656 L 357.003906 223.738281 L 355.59375 224.503906 L 354.1875 225.269531 L 352.777344 226.035156 L 351.371094 226.800781 L 349.960938 227.566406 L 348.554688 228.335938 L 347.144531 229.101562 L 345.738281 229.867188 L 344.328125 230.632812 L 342.921875 231.398438 L 341.511719 232.164062 L 340.105469 232.929688 L 338.695312 233.695312 L 337.289062 234.460938 L 335.878906 235.226562 L 334.472656 235.992188 L 333.0625 236.757812 L 331.65625 237.527344 L 330.246094 238.292969 L 328.839844 239.058594 L 327.429688 239.824219 L 326.023438 240.589844 L 324.613281 241.355469 L 323.207031 242.121094 L 321.796875 242.886719 L 320.390625 243.652344 L 318.980469 244.417969 L 317.574219 245.183594 L 316.164062 245.949219 L 314.757812 246.714844 L 313.347656 247.484375 L 311.941406 248.25 L 310.53125 249.015625 L 309.125 249.78125 L 307.714844 250.546875 L 306.308594 251.3125 L 304.898438 252.078125 L 303.492188 252.84375 L 300.671875 254.375 L 299.265625 255.140625 L 297.855469 255.90625 L 296.449219 256.675781 L 295.039062 257.441406 L 293.632812 258.207031 L 292.222656 258.972656 L 290.816406 259.738281 L 289.40625 260.503906 L 288 261.269531 L 286.589844 262.035156 L 285.183594 262.800781 L 283.773438 263.566406 L 282.367188 264.332031 L 280.957031 265.097656 L 279.550781 265.867188 L 278.140625 266.632812 L 276.734375 267.398438 L 275.324219 268.164062 L 273.917969 268.929688 L 272.507812 269.695312 L 271.101562 270.460938 L 269.691406 271.226562 L 268.285156 271.992188 L 266.875 272.757812 L 265.46875 273.523438 L 264.058594 274.289062 L 262.652344 275.054688 L 261.242188 275.824219 L 259.835938 276.589844 L 258.425781 277.355469 "/>
<path style="fill:none;stroke-width:4.054518;stroke-linecap:butt;stroke-linejoin:round;stroke:rgb(0%,0%,0%);stroke-opacity:1;stroke-miterlimit:1;" d="M 606.96875 201.527344 L 606.265625 202.292969 L 605.558594 203.058594 L 604.152344 204.589844 L 603.445312 205.355469 L 601.335938 207.652344 L 600.628906 208.417969 L 599.925781 209.183594 L 599.222656 209.953125 L 598.519531 210.71875 L 597.8125 211.484375 L 595.703125 213.78125 L 594.996094 214.546875 L 592.886719 216.84375 L 592.179688 217.609375 L 591.476562 218.375 L 590.773438 219.144531 L 590.070312 219.910156 L 589.363281 220.675781 L 587.253906 222.972656 L 586.546875 223.738281 L 584.4375 226.035156 L 583.730469 226.800781 L 583.027344 227.566406 L 582.324219 228.335938 L 581.621094 229.101562 L 580.914062 229.867188 L 578.804688 232.164062 L 578.097656 232.929688 L 575.988281 235.226562 L 575.28125 235.992188 L 574.578125 236.757812 L 573.875 237.527344 L 573.167969 238.292969 L 571.058594 240.589844 L 570.351562 241.355469 L 568.242188 243.652344 L 567.535156 244.417969 L 565.425781 246.714844 L 564.71875 247.484375 L 562.609375 249.78125 L 561.902344 250.546875 L 559.792969 252.84375 L 559.085938 253.609375 L 556.976562 255.90625 L 556.269531 256.675781 L 554.160156 258.972656 L 553.453125 259.738281 L 551.34375 262.035156 L 550.636719 262.800781 L 548.527344 265.097656 L 547.820312 265.867188 L 545.710938 268.164062 L 545.003906 268.929688 L 543.597656 270.460938 L 542.890625 271.226562 L 540.78125 273.523438 L 540.074219 274.289062 L 539.371094 275.054688 L 538.667969 275.824219 L 537.964844 276.589844 L 537.257812 277.355469 "/>
<path style="fill:none;stroke-width:4.054518;stroke-linecap:butt;stroke-linejoin:round;stroke:rgb(0%,0%,0%);stroke-opacity:1;stroke-miterlimit:1;" d="M 258.425781 277.355469 L 257.019531 278.121094 L 255.609375 278.886719 L 254.203125 279.652344 L 252.792969 280.417969 L 251.386719 281.183594 L 249.976562 281.949219 L 248.570312 282.714844 L 247.160156 283.480469 L 245.753906 284.246094 L 244.34375 285.015625 L 242.9375 285.78125 L 240.117188 287.3125 L 238.710938 288.078125 L 237.300781 288.84375 L 235.894531 289.609375 L 234.484375 290.375 L 233.078125 291.140625 L 231.667969 291.90625 L 230.261719 292.671875 L 228.851562 293.4375 L 227.445312 294.207031 L 226.035156 294.972656 L 224.628906 295.738281 L 223.21875 296.503906 L 221.8125 297.269531 L 220.402344 298.035156 L 218.996094 298.800781 L 217.585938 299.566406 L 216.179688 300.332031 L 214.769531 301.097656 L 213.363281 301.863281 L 211.953125 302.628906 L 210.546875 303.398438 L 209.136719 304.164062 L 207.730469 304.929688 L 206.320312 305.695312 L 204.914062 306.460938 L 203.503906 307.226562 L 202.097656 307.992188 L 200.6875 308.757812 L 199.28125 309.523438 L 197.871094 310.289062 L 196.464844 311.054688 L 195.054688 311.820312 L 193.648438 312.585938 L 192.238281 313.355469 L 190.832031 314.121094 L 189.421875 314.886719 L 188.015625 315.652344 L 186.605469 316.417969 L 185.199219 317.183594 L 183.789062 317.949219 L 182.382812 318.714844 L 179.5625 320.246094 L 178.15625 321.011719 L 176.746094 321.777344 L 175.339844 322.546875 L 173.929688 323.3125 L 172.523438 324.078125 L 171.113281 324.84375 L 169.707031 325.609375 L 168.296875 326.375 L 166.890625 327.140625 L 165.480469 327.90625 L 164.074219 328.671875 L 162.664062 329.4375 L 161.257812 330.203125 L 159.847656 330.96875 L 158.441406 331.738281 L 157.03125 332.503906 L 155.625 333.269531 L 154.214844 334.035156 L 152.808594 334.800781 L 151.398438 335.566406 L 149.992188 336.332031 L 148.582031 337.097656 L 147.175781 337.863281 L 145.765625 338.628906 L 144.359375 339.394531 L 142.949219 340.160156 L 141.542969 340.929688 L 140.132812 341.695312 L 138.726562 342.460938 L 137.316406 343.226562 L 135.910156 343.992188 L 134.5 344.757812 L 133.09375 345.523438 L 131.683594 346.289062 L 130.277344 347.054688 L 128.867188 347.820312 L 127.460938 348.585938 L 126.050781 349.351562 L 124.644531 350.117188 L 123.234375 350.886719 L 121.828125 351.652344 L 120.417969 352.417969 L 119.011719 353.183594 "/>
<path style="fill:none;stroke-width:4.054518;stroke-linecap:butt;stroke-linejoin:round;stroke:rgb(0%,0%,0%);stroke-opacity:1;stroke-miterlimit:1;" d="M 537.257812 277.355469 L 537.257812 353.183594 "/>
<path style="fill:none;stroke-width:4.054518;stroke-linecap:butt;stroke-linejoin:round;stroke:rgb(0%,0%,0%);stroke-opacity:1;stroke-miterlimit:1;" d="M 119.011719 353.183594 L 120.417969 353.949219 L 121.828125 354.714844 L 123.234375 355.480469 L 124.644531 356.246094 L 126.050781 357.011719 L 127.460938 357.777344 L 128.867188 358.542969 L 130.277344 359.308594 L 131.683594 360.078125 L 133.09375 360.84375 L 134.5 361.609375 L 135.910156 362.375 L 137.316406 363.140625 L 138.726562 363.90625 L 140.132812 364.671875 L 141.542969 365.4375 L 142.949219 366.203125 L 144.359375 366.96875 L 145.765625 367.734375 L 147.175781 368.5 L 148.582031 369.269531 L 149.992188 370.035156 L 151.398438 370.800781 L 152.808594 371.566406 L 154.214844 372.332031 L 155.625 373.097656 L 157.03125 373.863281 L 158.441406 374.628906 L 159.847656 375.394531 L 161.257812 376.160156 L 162.664062 376.925781 L 164.074219 377.691406 L 165.480469 378.457031 L 166.890625 379.226562 L 168.296875 379.992188 L 169.707031 380.757812 L 171.113281 381.523438 L 172.523438 382.289062 L 173.929688 383.054688 L 175.339844 383.820312 L 176.746094 384.585938 L 178.15625 385.351562 L 179.5625 386.117188 L 182.382812 387.648438 L 183.789062 388.417969 L 185.199219 389.183594 L 186.605469 389.949219 L 188.015625 390.714844 L 189.421875 391.480469 L 190.832031 392.246094 L 192.238281 393.011719 L 193.648438 393.777344 L 195.054688 394.542969 L 196.464844 395.308594 L 197.871094 396.074219 L 199.28125 396.839844 L 200.6875 397.609375 L 202.097656 398.375 L 203.503906 399.140625 L 204.914062 399.90625 L 206.320312 400.671875 L 207.730469 401.4375 L 209.136719 402.203125 L 210.546875 402.96875 L 211.953125 403.734375 L 213.363281 404.5 L 214.769531 405.265625 L 216.179688 406.03125 L 217.585938 406.800781 L 218.996094 407.566406 L 220.402344 408.332031 L 221.8125 409.097656 L 223.21875 409.863281 L 224.628906 410.628906 L 226.035156 411.394531 L 227.445312 412.160156 L 228.851562 412.925781 L 230.261719 413.691406 L 231.667969 414.457031 L 233.078125 415.222656 L 234.484375 415.988281 L 235.894531 416.757812 L 237.300781 417.523438 L 238.710938 418.289062 L 240.117188 419.054688 L 242.9375 420.585938 L 244.34375 421.351562 L 245.753906 422.117188 L 247.160156 422.882812 L 248.570312 423.648438 L 249.976562 424.414062 L 251.386719 425.179688 L 252.792969 425.949219 L 254.203125 426.714844 L 255.609375 427.480469 L 257.019531 428.246094 L 258.425781 429.011719 "/>
<path style="fill:none;stroke-width:4.054518;stroke-linecap:butt;stroke-linejoin:round;stroke:rgb(0%,0%,0%);stroke-opacity:1;stroke-miterlimit:1;" d="M 537.257812 353.183594 L 537.964844 353.949219 L 540.074219 356.246094 L 540.78125 357.011719 L 542.890625 359.308594 L 543.597656 360.078125 L 545.003906 361.609375 L 545.710938 362.375 L 547.820312 364.671875 L 548.527344 365.4375 L 550.636719 367.734375 L 551.34375 368.5 L 552.046875 369.269531 L 553.453125 370.800781 L 554.160156 371.566406 L 556.269531 373.863281 L 556.976562 374.628906 L 559.085938 376.925781 L 559.792969 377.691406 L 560.496094 378.457031 L 561.199219 379.226562 L 561.902344 379.992188 L 562.609375 380.757812 L 564.71875 383.054688 L 565.425781 383.820312 L 567.535156 386.117188 L 568.242188 386.882812 L 568.945312 387.648438 L 569.648438 388.417969 L 570.351562 389.183594 L 571.058594 389.949219 L 573.167969 392.246094 L 573.875 393.011719 L 575.28125 394.542969 L 575.988281 395.308594 L 577.394531 396.839844 L 578.097656 397.609375 L 578.804688 398.375 L 580.914062 400.671875 L 581.621094 401.4375 L 583.730469 403.734375 L 584.4375 404.5 L 585.84375 406.03125 L 586.546875 406.800781 L 587.253906 407.566406 L 589.363281 409.863281 L 590.070312 410.628906 L 592.179688 412.925781 L 592.886719 413.691406 L 594.996094 415.988281 L 595.703125 416.757812 L 597.8125 419.054688 L 598.519531 419.820312 L 600.628906 422.117188 L 601.335938 422.882812 L 603.445312 425.179688 L 604.152344 425.949219 L 605.558594 427.480469 L 606.265625 428.246094 L 606.96875 429.011719 "/>
<path style="fill:none;stroke-width:4.054518;stroke-linecap:butt;stroke-linejoin:round;stroke:rgb(0%,0%,0%);stroke-opacity:1;stroke-miterlimit:1;" d="M 258.425781 429.011719 L 259.835938 429.777344 L 261.242188 430.542969 L 262.652344 431.308594 L 264.058594 432.074219 L 265.46875 432.839844 L 266.875 433.605469 L 268.285156 434.371094 L 269.691406 435.140625 L 271.101562 435.90625 L 272.507812 436.671875 L 273.917969 437.4375 L 275.324219 438.203125 L 276.734375 438.96875 L 278.140625 439.734375 L 279.550781 440.5 L 280.957031 441.265625 L 282.367188 442.03125 L 283.773438 442.796875 L 285.183594 443.5625 L 286.589844 444.328125 L 288 445.097656 L 289.40625 445.863281 L 290.816406 446.628906 L 292.222656 447.394531 L 293.632812 448.160156 L 295.039062 448.925781 L 296.449219 449.691406 L 297.855469 450.457031 L 299.265625 451.222656 L 300.671875 451.988281 L 303.492188 453.519531 L 304.898438 454.289062 L 306.308594 455.054688 L 307.714844 455.820312 L 309.125 456.585938 L 310.53125 457.351562 L 311.941406 458.117188 L 313.347656 458.882812 L 314.757812 459.648438 L 316.164062 460.414062 L 317.574219 461.179688 L 318.980469 461.945312 L 320.390625 462.710938 L 321.796875 463.480469 L 323.207031 464.246094 L 324.613281 465.011719 L 326.023438 465.777344 L 327.429688 466.542969 L 328.839844 467.308594 L 330.246094 468.074219 L 331.65625 468.839844 L 333.0625 469.605469 L 334.472656 470.371094 L 335.878906 471.136719 L 337.289062 471.902344 L 338.695312 472.671875 L 340.105469 473.4375 L 341.511719 474.203125 L 342.921875 474.96875 L 344.328125 475.734375 L 345.738281 476.5 L 347.144531 477.265625 L 348.554688 478.03125 L 349.960938 478.796875 L 351.371094 479.5625 L 352.777344 480.328125 L 354.1875 481.09375 L 355.59375 481.859375 L 357.003906 482.628906 L 358.410156 483.394531 L 359.820312 484.160156 L 361.226562 484.925781 L 364.046875 486.457031 L 365.453125 487.222656 L 366.863281 487.988281 L 368.269531 488.753906 L 369.679688 489.519531 L 371.085938 490.285156 L 372.496094 491.050781 L 373.902344 491.820312 L 375.3125 492.585938 L 376.71875 493.351562 L 378.128906 494.117188 L 379.535156 494.882812 L 380.945312 495.648438 L 382.351562 496.414062 L 383.761719 497.179688 L 385.167969 497.945312 L 386.578125 498.710938 L 387.984375 499.476562 L 389.394531 500.242188 L 390.800781 501.011719 L 392.210938 501.777344 L 393.617188 502.542969 L 395.027344 503.308594 L 396.433594 504.074219 L 397.84375 504.839844 "/>
<path style="fill:none;stroke-width:4.054518;stroke-linecap:butt;stroke-linejoin:round;stroke:rgb(0%,0%,0%);stroke-opacity:1;stroke-miterlimit:1;" d="M 606.96875 429.011719 L 606.96875 504.839844 "/>
<path style="fill:none;stroke-width:4.054518;stroke-linecap:butt;stroke-linejoin:round;stroke:rgb(0%,0%,0%);stroke-opacity:1;stroke-miterlimit:1;" d="M 397.84375 504.839844 L 397.84375 580.667969 "/>
<path style="fill:none;stroke-width:4.054518;stroke-linecap:butt;stroke-linejoin:round;stroke:rgb(0%,0%,0%);stroke-opacity:1;stroke-miterlimit:1;" d="M 397.84375 504.839844 L 399.25 506.371094 L 399.957031 507.136719 L 402.066406 509.433594 L 402.773438 510.203125 L 404.882812 512.5 L 405.589844 513.265625 L 407.699219 515.5625 L 408.40625 516.328125 L 410.515625 518.625 L 411.222656 519.390625 L 411.925781 520.160156 L 413.332031 521.691406 L 414.039062 522.457031 L 416.148438 524.753906 L 416.855469 525.519531 L 418.964844 527.816406 L 419.671875 528.582031 L 420.375 529.351562 L 421.78125 530.882812 L 422.488281 531.648438 L 423.894531 533.179688 L 424.601562 533.945312 L 426.710938 536.242188 L 427.417969 537.007812 L 428.121094 537.773438 L 428.824219 538.542969 L 429.527344 539.308594 L 430.234375 540.074219 L 432.34375 542.371094 L 433.050781 543.136719 L 435.160156 545.433594 L 435.867188 546.199219 L 437.273438 547.730469 L 437.976562 548.5 L 438.683594 549.265625 L 440.792969 551.5625 L 441.5 552.328125 L 443.609375 554.625 L 444.316406 555.390625 L 445.722656 556.921875 L 446.425781 557.691406 L 447.132812 558.457031 L 449.242188 560.753906 L 449.949219 561.519531 L 452.058594 563.816406 L 452.765625 564.582031 L 454.171875 566.113281 L 454.878906 566.882812 L 456.988281 569.179688 L 457.695312 569.945312 L 459.804688 572.242188 L 460.511719 573.007812 L 462.621094 575.304688 L 463.328125 576.074219 L 465.4375 578.371094 L 466.144531 579.136719 L 467.550781 580.667969 "/>
<path style="fill:none;stroke-width:4.054518;stroke-linecap:butt;stroke-linejoin:round;stroke:rgb(0%,0%,0%);stroke-opacity:1;stroke-miterlimit:1;" d="M 397.84375 504.839844 L 399.25 505.605469 L 400.660156 506.371094 L 402.066406 507.136719 L 403.476562 507.902344 L 404.882812 508.667969 L 406.292969 509.433594 L 407.699219 510.203125 L 409.109375 510.96875 L 410.515625 511.734375 L 411.925781 512.5 L 413.332031 513.265625 L 414.742188 514.03125 L 416.148438 514.796875 L 417.558594 515.5625 L 418.964844 516.328125 L 420.375 517.09375 L 421.78125 517.859375 L 424.601562 519.390625 L 426.007812 520.160156 L 427.417969 520.925781 L 428.824219 521.691406 L 430.234375 522.457031 L 431.640625 523.222656 L 433.050781 523.988281 L 434.457031 524.753906 L 435.867188 525.519531 L 437.273438 526.285156 L 438.683594 527.050781 L 440.089844 527.816406 L 441.5 528.582031 L 442.90625 529.351562 L 444.316406 530.117188 L 445.722656 530.882812 L 447.132812 531.648438 L 448.539062 532.414062 L 449.949219 533.179688 L 451.355469 533.945312 L 452.765625 534.710938 L 454.171875 535.476562 L 455.582031 536.242188 L 456.988281 537.007812 L 458.398438 537.773438 L 459.804688 538.542969 L 461.214844 539.308594 L 462.621094 540.074219 L 464.03125 540.839844 L 465.4375 541.605469 L 466.847656 542.371094 L 468.253906 543.136719 L 469.664062 543.902344 L 471.070312 544.667969 L 472.480469 545.433594 L 473.886719 546.199219 L 475.296875 546.964844 L 476.703125 547.730469 L 478.113281 548.5 L 479.519531 549.265625 L 480.929688 550.03125 L 482.335938 550.796875 L 485.15625 552.328125 L 486.5625 553.09375 L 487.972656 553.859375 L 489.378906 554.625 L 490.789062 555.390625 L 492.195312 556.15625 L 493.605469 556.921875 L 495.011719 557.691406 L 496.421875 558.457031 L 497.828125 559.222656 L 499.238281 559.988281 L 500.644531 560.753906 L 502.054688 561.519531 L 503.460938 562.285156 L 504.871094 563.050781 L 506.277344 563.816406 L 507.6875 564.582031 L 509.09375 565.347656 L 510.503906 566.113281 L 511.910156 566.882812 L 513.320312 567.648438 L 514.726562 568.414062 L 516.136719 569.179688 L 517.542969 569.945312 L 518.953125 570.710938 L 520.359375 571.476562 L 521.769531 572.242188 L 523.175781 573.007812 L 524.585938 573.773438 L 525.992188 574.539062 L 527.402344 575.304688 L 528.808594 576.074219 L 530.21875 576.839844 L 531.625 577.605469 L 533.035156 578.371094 L 534.441406 579.136719 L 535.851562 579.902344 L 537.257812 580.667969 "/>
<path style="fill:none;stroke-width:4.054518;stroke-linecap:butt;stroke-linejoin:round;stroke:rgb(0%,0%,0%);stroke-opacity:1;stroke-miterlimit:1;" d="M 606.96875 504.839844 L 606.96875 580.667969 "/>
<path style="fill:none;stroke-width:4.054518;stroke-linecap:butt;stroke-linejoin:round;stroke:rgb(0%,0%,0%);stroke-opacity:1;stroke-miterlimit:1;" d="M 397.84375 580.667969 L 396.433594 581.433594 L 395.027344 582.199219 L 393.617188 582.964844 L 392.210938 583.730469 L 390.800781 584.496094 L 389.394531 585.261719 L 387.984375 586.03125 L 386.578125 586.796875 L 385.167969 587.5625 L 383.761719 588.328125 L 382.351562 589.09375 L 380.945312 589.859375 L 379.535156 590.625 L 378.128906 591.390625 L 376.71875 592.15625 L 375.3125 592.921875 L 373.902344 593.6875 L 372.496094 594.453125 L 371.085938 595.222656 L 369.679688 595.988281 L 368.269531 596.753906 L 366.863281 597.519531 L 365.453125 598.285156 L 364.046875 599.050781 L 361.226562 600.582031 L 359.820312 601.347656 L 358.410156 602.113281 L 357.003906 602.878906 L 355.59375 603.644531 L 354.1875 604.414062 L 352.777344 605.179688 L 351.371094 605.945312 L 349.960938 606.710938 L 348.554688 607.476562 L 347.144531 608.242188 L 345.738281 609.007812 L 344.328125 609.773438 L 342.921875 610.539062 L 341.511719 611.304688 L 340.105469 612.070312 L 338.695312 612.835938 L 337.289062 613.601562 L 335.878906 614.371094 L 334.472656 615.136719 L 333.0625 615.902344 L 331.65625 616.667969 L 330.246094 617.433594 L 328.839844 618.199219 L 327.429688 618.964844 L 326.023438 619.730469 L 324.613281 620.496094 L 323.207031 621.261719 L 321.796875 622.027344 L 320.390625 622.792969 L 318.980469 623.5625 L 317.574219 624.328125 L 316.164062 625.09375 L 314.757812 625.859375 L 313.347656 626.625 L 311.941406 627.390625 L 310.53125 628.15625 L 309.125 628.921875 L 307.714844 629.6875 L 306.308594 630.453125 L 304.898438 631.21875 L 303.492188 631.984375 L 302.082031 632.753906 L 300.671875 633.519531 L 299.265625 634.285156 L 297.855469 635.050781 L 296.449219 635.816406 L 295.039062 636.582031 L 293.632812 637.347656 L 292.222656 638.113281 L 290.816406 638.878906 L 289.40625 639.644531 L 288 640.410156 L 286.589844 641.175781 L 285.183594 641.945312 L 283.773438 642.710938 L 282.367188 643.476562 L 280.957031 644.242188 L 279.550781 645.007812 L 278.140625 645.773438 L 276.734375 646.539062 L 275.324219 647.304688 L 273.917969 648.070312 L 272.507812 648.835938 L 271.101562 649.601562 L 269.691406 650.367188 L 268.285156 651.132812 L 266.875 651.902344 L 265.46875 652.667969 L 264.058594 653.433594 L 262.652344 654.199219 L 261.242188 654.964844 L 259.835938 655.730469 L 258.425781 656.496094 "/>
<path style="fill:none;stroke-width:4.054518;stroke-linecap:butt;stroke-linejoin:round;stroke:rgb(0%,0%,0%);stroke-opacity:1;stroke-miterlimit:1;" d="M 467.550781 580.667969 L 466.144531 581.433594 L 464.734375 582.199219 L 463.328125 582.964844 L 461.917969 583.730469 L 460.511719 584.496094 L 459.101562 585.261719 L 457.695312 586.03125 L 456.285156 586.796875 L 454.878906 587.5625 L 452.058594 589.09375 L 450.652344 589.859375 L 449.242188 590.625 L 447.835938 591.390625 L 446.425781 592.15625 L 445.019531 592.921875 L 443.609375 593.6875 L 442.203125 594.453125 L 440.792969 595.222656 L 439.386719 595.988281 L 437.976562 596.753906 L 436.570312 597.519531 L 435.160156 598.285156 L 433.753906 599.050781 L 432.34375 599.816406 L 430.9375 600.582031 L 429.527344 601.347656 L 428.121094 602.113281 L 426.710938 602.878906 L 425.304688 603.644531 L 423.894531 604.414062 L 422.488281 605.179688 L 421.078125 605.945312 L 419.671875 606.710938 L 418.261719 607.476562 L 416.855469 608.242188 L 415.445312 609.007812 L 414.039062 609.773438 L 412.628906 610.539062 L 411.222656 611.304688 L 409.8125 612.070312 L 408.40625 612.835938 L 406.996094 613.601562 L 405.589844 614.371094 L 404.179688 615.136719 L 402.773438 615.902344 L 401.363281 616.667969 L 399.957031 617.433594 L 398.546875 618.199219 L 397.140625 618.964844 L 395.730469 619.730469 L 394.324219 620.496094 L 391.503906 622.027344 L 390.097656 622.792969 L 388.6875 623.5625 L 387.28125 624.328125 L 385.871094 625.09375 L 384.464844 625.859375 L 383.054688 626.625 L 381.648438 627.390625 L 380.238281 628.15625 L 378.832031 628.921875 L 377.421875 629.6875 L 376.015625 630.453125 L 374.605469 631.21875 L 373.199219 631.984375 L 371.789062 632.753906 L 370.382812 633.519531 L 368.972656 634.285156 L 367.566406 635.050781 L 366.15625 635.816406 L 364.75 636.582031 L 363.339844 637.347656 L 361.933594 638.113281 L 360.523438 638.878906 L 359.117188 639.644531 L 357.707031 640.410156 L 356.300781 641.175781 L 354.890625 641.945312 L 353.484375 642.710938 L 352.074219 643.476562 L 350.667969 644.242188 L 349.257812 645.007812 L 347.851562 645.773438 L 346.441406 646.539062 L 345.035156 647.304688 L 343.625 648.070312 L 342.21875 648.835938 L 340.808594 649.601562 L 339.402344 650.367188 L 337.992188 651.132812 L 336.585938 651.902344 L 335.175781 652.667969 L 333.769531 653.433594 L 330.949219 654.964844 L 329.542969 655.730469 L 328.132812 656.496094 "/>
<path style="fill:none;stroke-width:4.054518;stroke-linecap:butt;stroke-linejoin:round;stroke:rgb(0%,0%,0%);stroke-opacity:1;stroke-miterlimit:1;" d="M 537.257812 580.667969 L 535.148438 582.964844 L 534.441406 583.730469 L 533.035156 585.261719 L 532.332031 586.03125 L 531.625 586.796875 L 529.515625 589.09375 L 528.808594 589.859375 L 526.699219 592.15625 L 525.992188 592.921875 L 524.585938 594.453125 L 523.882812 595.222656 L 523.175781 595.988281 L 521.066406 598.285156 L 520.359375 599.050781 L 518.25 601.347656 L 517.542969 602.113281 L 516.136719 603.644531 L 515.433594 604.414062 L 514.726562 605.179688 L 513.320312 606.710938 L 512.613281 607.476562 L 510.503906 609.773438 L 509.796875 610.539062 L 507.6875 612.835938 L 506.980469 613.601562 L 506.277344 614.371094 L 504.871094 615.902344 L 504.164062 616.667969 L 502.054688 618.964844 L 501.347656 619.730469 L 499.238281 622.027344 L 498.53125 622.792969 L 497.828125 623.5625 L 496.421875 625.09375 L 495.714844 625.859375 L 493.605469 628.15625 L 492.898438 628.921875 L 490.789062 631.21875 L 490.082031 631.984375 L 489.378906 632.753906 L 487.972656 634.285156 L 487.265625 635.050781 L 485.15625 637.347656 L 484.449219 638.113281 L 483.042969 639.644531 L 482.335938 640.410156 L 481.632812 641.175781 L 480.929688 641.945312 L 480.226562 642.710938 L 479.519531 643.476562 L 477.410156 645.773438 L 476.703125 646.539062 L 474.59375 648.835938 L 473.886719 649.601562 L 472.480469 651.132812 L 471.777344 651.902344 L 471.070312 652.667969 L 468.960938 654.964844 L 468.253906 655.730469 L 467.550781 656.496094 "/>
<path style="fill:none;stroke-width:4.054518;stroke-linecap:butt;stroke-linejoin:round;stroke:rgb(0%,0%,0%);stroke-opacity:1;stroke-miterlimit:1;" d="M 537.257812 580.667969 L 537.964844 581.433594 L 540.074219 583.730469 L 540.78125 584.496094 L 541.484375 585.261719 L 542.1875 586.03125 L 542.890625 586.796875 L 543.597656 587.5625 L 545.003906 589.09375 L 545.710938 589.859375 L 547.820312 592.15625 L 548.527344 592.921875 L 549.933594 594.453125 L 550.636719 595.222656 L 551.34375 595.988281 L 553.453125 598.285156 L 554.160156 599.050781 L 556.269531 601.347656 L 556.976562 602.113281 L 558.382812 603.644531 L 559.085938 604.414062 L 559.792969 605.179688 L 561.902344 607.476562 L 562.609375 608.242188 L 564.71875 610.539062 L 565.425781 611.304688 L 567.535156 613.601562 L 568.242188 614.371094 L 570.351562 616.667969 L 571.058594 617.433594 L 573.167969 619.730469 L 573.875 620.496094 L 575.28125 622.027344 L 575.988281 622.792969 L 576.691406 623.5625 L 578.097656 625.09375 L 578.804688 625.859375 L 580.914062 628.15625 L 581.621094 628.921875 L 583.730469 631.21875 L 584.4375 631.984375 L 585.140625 632.753906 L 586.546875 634.285156 L 587.253906 635.050781 L 589.363281 637.347656 L 590.070312 638.113281 L 592.179688 640.410156 L 592.886719 641.175781 L 593.589844 641.945312 L 594.996094 643.476562 L 595.703125 644.242188 L 597.8125 646.539062 L 598.519531 647.304688 L 600.628906 649.601562 L 601.335938 650.367188 L 602.039062 651.132812 L 602.742188 651.902344 L 603.445312 652.667969 L 604.152344 653.433594 L 605.558594 654.964844 L 606.265625 655.730469 L 606.96875 656.496094 "/>
<path style="fill:none;stroke-width:4.054518;stroke-linecap:butt;stroke-linejoin:round;stroke:rgb(0%,0%,0%);stroke-opacity:1;stroke-miterlimit:1;" d="M 606.96875 580.667969 L 608.375 582.199219 L 609.082031 582.964844 L 611.191406 585.261719 L 611.898438 586.03125 L 614.007812 588.328125 L 614.714844 589.09375 L 616.824219 591.390625 L 617.53125 592.15625 L 619.640625 594.453125 L 620.347656 595.222656 L 622.457031 597.519531 L 623.164062 598.285156 L 625.273438 600.582031 L 625.980469 601.347656 L 628.089844 603.644531 L 628.796875 604.414062 L 630.90625 606.710938 L 631.613281 607.476562 L 633.722656 609.773438 L 634.429688 610.539062 L 635.835938 612.070312 L 636.542969 612.835938 L 637.246094 613.601562 L 637.949219 614.371094 L 638.652344 615.136719 L 639.359375 615.902344 L 641.46875 618.199219 L 642.175781 618.964844 L 644.285156 621.261719 L 644.992188 622.027344 L 645.695312 622.792969 L 646.398438 623.5625 L 647.101562 624.328125 L 647.808594 625.09375 L 649.917969 627.390625 L 650.625 628.15625 L 652.734375 630.453125 L 653.441406 631.21875 L 654.144531 631.984375 L 654.847656 632.753906 L 655.550781 633.519531 L 656.257812 634.285156 L 658.367188 636.582031 L 659.074219 637.347656 L 661.183594 639.644531 L 661.890625 640.410156 L 662.59375 641.175781 L 663.296875 641.945312 L 664 642.710938 L 664.707031 643.476562 L 666.113281 645.007812 L 666.820312 645.773438 L 668.929688 648.070312 L 669.636719 648.835938 L 671.746094 651.132812 L 672.453125 651.902344 L 674.5625 654.199219 L 675.269531 654.964844 L 676.675781 656.496094 "/>
<path style="fill:none;stroke-width:4.054518;stroke-linecap:butt;stroke-linejoin:round;stroke:rgb(0%,0%,0%);stroke-opacity:1;stroke-miterlimit:1;" d="M 258.425781 656.496094 L 257.019531 657.261719 L 255.609375 658.027344 L 254.203125 658.792969 L 252.792969 659.558594 L 251.386719 660.324219 L 249.976562 661.09375 L 248.570312 661.859375 L 247.160156 662.625 L 245.753906 663.390625 L 244.34375 664.15625 L 242.9375 664.921875 L 240.117188 666.453125 L 238.710938 667.21875 L 237.300781 667.984375 L 235.894531 668.75 L 234.484375 669.515625 L 233.078125 670.285156 L 231.667969 671.050781 L 230.261719 671.816406 L 228.851562 672.582031 L 227.445312 673.347656 L 226.035156 674.113281 L 224.628906 674.878906 L 223.21875 675.644531 L 221.8125 676.410156 L 220.402344 677.175781 L 218.996094 677.941406 L 217.585938 678.707031 L 216.179688 679.476562 L 214.769531 680.242188 L 213.363281 681.007812 L 211.953125 681.773438 L 210.546875 682.539062 L 209.136719 683.304688 L 207.730469 684.070312 L 206.320312 684.835938 L 204.914062 685.601562 L 203.503906 686.367188 L 202.097656 687.132812 L 200.6875 687.898438 L 199.28125 688.664062 L 197.871094 689.433594 L 196.464844 690.199219 L 195.054688 690.964844 L 193.648438 691.730469 L 192.238281 692.496094 L 190.832031 693.261719 L 189.421875 694.027344 L 188.015625 694.792969 L 186.605469 695.558594 L 185.199219 696.324219 L 183.789062 697.089844 L 182.382812 697.855469 L 180.972656 698.625 L 179.5625 699.390625 L 178.15625 700.15625 L 176.746094 700.921875 L 175.339844 701.6875 L 173.929688 702.453125 L 172.523438 703.21875 L 171.113281 703.984375 L 169.707031 704.75 L 168.296875 705.515625 L 166.890625 706.28125 L 165.480469 707.046875 L 164.074219 707.816406 L 162.664062 708.582031 L 161.257812 709.347656 L 159.847656 710.113281 L 158.441406 710.878906 L 157.03125 711.644531 L 155.625 712.410156 L 154.214844 713.175781 L 152.808594 713.941406 L 151.398438 714.707031 L 149.992188 715.472656 L 148.582031 716.238281 L 147.175781 717.003906 L 145.765625 717.773438 L 144.359375 718.539062 L 142.949219 719.304688 L 141.542969 720.070312 L 140.132812 720.835938 L 138.726562 721.601562 L 137.316406 722.367188 L 135.910156 723.132812 L 134.5 723.898438 L 133.09375 724.664062 L 131.683594 725.429688 L 130.277344 726.195312 L 128.867188 726.964844 L 127.460938 727.730469 L 126.050781 728.496094 L 124.644531 729.261719 L 123.234375 730.027344 L 121.828125 730.792969 L 120.417969 731.558594 L 119.011719 732.324219 "/>
<path style="fill:none;stroke-width:4.054518;stroke-linecap:butt;stroke-linejoin:round;stroke:rgb(0%,0%,0%);stroke-opacity:1;stroke-miterlimit:1;" d="M 328.132812 656.496094 L 326.726562 657.261719 L 325.316406 658.027344 L 323.910156 658.792969 L 322.5 659.558594 L 321.09375 660.324219 L 319.683594 661.09375 L 318.277344 661.859375 L 316.867188 662.625 L 315.460938 663.390625 L 314.050781 664.15625 L 312.644531 664.921875 L 311.234375 665.6875 L 309.828125 666.453125 L 308.417969 667.21875 L 307.011719 667.984375 L 305.601562 668.75 L 304.195312 669.515625 L 302.785156 670.285156 L 301.378906 671.050781 L 299.96875 671.816406 L 298.5625 672.582031 L 297.152344 673.347656 L 295.746094 674.113281 L 294.335938 674.878906 L 292.929688 675.644531 L 291.519531 676.410156 L 290.113281 677.175781 L 288.703125 677.941406 L 287.296875 678.707031 L 285.886719 679.476562 L 284.480469 680.242188 L 283.070312 681.007812 L 281.664062 681.773438 L 280.253906 682.539062 L 278.847656 683.304688 L 277.4375 684.070312 L 276.03125 684.835938 L 274.621094 685.601562 L 273.214844 686.367188 L 270.394531 687.898438 L 268.988281 688.664062 L 267.578125 689.433594 L 266.171875 690.199219 L 264.761719 690.964844 L 263.355469 691.730469 L 261.945312 692.496094 L 260.539062 693.261719 L 259.128906 694.027344 L 257.722656 694.792969 L 256.3125 695.558594 L 254.90625 696.324219 L 253.496094 697.089844 L 252.089844 697.855469 L 250.679688 698.625 L 249.273438 699.390625 L 247.863281 700.15625 L 246.457031 700.921875 L 245.046875 701.6875 L 243.640625 702.453125 L 242.230469 703.21875 L 240.824219 703.984375 L 239.414062 704.75 L 238.007812 705.515625 L 236.597656 706.28125 L 235.191406 707.046875 L 233.78125 707.816406 L 232.375 708.582031 L 230.964844 709.347656 L 229.558594 710.113281 L 228.148438 710.878906 L 226.742188 711.644531 L 225.332031 712.410156 L 223.925781 713.175781 L 222.515625 713.941406 L 221.109375 714.707031 L 219.699219 715.472656 L 218.292969 716.238281 L 216.882812 717.003906 L 215.476562 717.773438 L 214.066406 718.539062 L 212.660156 719.304688 L 209.839844 720.835938 L 208.433594 721.601562 L 207.023438 722.367188 L 205.617188 723.132812 L 204.207031 723.898438 L 202.800781 724.664062 L 201.390625 725.429688 L 199.984375 726.195312 L 198.574219 726.964844 L 197.167969 727.730469 L 195.757812 728.496094 L 194.351562 729.261719 L 192.941406 730.027344 L 191.535156 730.792969 L 190.125 731.558594 L 188.71875 732.324219 "/>
<path style="fill:none;stroke-width:4.054518;stroke-linecap:butt;stroke-linejoin:round;stroke:rgb(0%,0%,0%);stroke-opacity:1;stroke-miterlimit:1;" d="M 328.132812 656.496094 L 326.023438 658.792969 L 325.316406 659.558594 L 324.613281 660.324219 L 323.910156 661.09375 L 323.207031 661.859375 L 322.5 662.625 L 320.390625 664.921875 L 319.683594 665.6875 L 317.574219 667.984375 L 316.867188 668.75 L 316.164062 669.515625 L 315.460938 670.285156 L 314.757812 671.050781 L 314.050781 671.816406 L 311.941406 674.113281 L 311.234375 674.878906 L 309.125 677.175781 L 308.417969 677.941406 L 307.714844 678.707031 L 307.011719 679.476562 L 306.308594 680.242188 L 305.601562 681.007812 L 303.492188 683.304688 L 302.785156 684.070312 L 301.378906 685.601562 L 300.671875 686.367188 L 298.5625 688.664062 L 297.855469 689.433594 L 295.746094 691.730469 L 295.039062 692.496094 L 292.929688 694.792969 L 292.222656 695.558594 L 290.113281 697.855469 L 289.40625 698.625 L 287.296875 700.921875 L 286.589844 701.6875 L 284.480469 703.984375 L 283.773438 704.75 L 281.664062 707.046875 L 280.957031 707.816406 L 278.847656 710.113281 L 278.140625 710.878906 L 276.03125 713.175781 L 275.324219 713.941406 L 273.214844 716.238281 L 272.507812 717.003906 L 271.804688 717.773438 L 271.101562 718.539062 L 270.394531 719.304688 L 268.285156 721.601562 L 267.578125 722.367188 L 265.46875 724.664062 L 264.761719 725.429688 L 264.058594 726.195312 L 263.355469 726.964844 L 262.652344 727.730469 L 261.945312 728.496094 L 259.835938 730.792969 L 259.128906 731.558594 L 258.425781 732.324219 "/>
<path style="fill:none;stroke-width:4.054518;stroke-linecap:butt;stroke-linejoin:round;stroke:rgb(0%,0%,0%);stroke-opacity:1;stroke-miterlimit:1;" d="M 467.550781 656.496094 L 466.144531 658.027344 L 465.4375 658.792969 L 464.03125 660.324219 L 463.328125 661.09375 L 462.621094 661.859375 L 460.511719 664.15625 L 459.804688 664.921875 L 457.695312 667.21875 L 456.988281 667.984375 L 455.582031 669.515625 L 454.878906 670.285156 L 454.171875 671.050781 L 452.765625 672.582031 L 452.058594 673.347656 L 449.949219 675.644531 L 449.242188 676.410156 L 447.132812 678.707031 L 446.425781 679.476562 L 444.316406 681.773438 L 443.609375 682.539062 L 441.5 684.835938 L 440.792969 685.601562 L 438.683594 687.898438 L 437.976562 688.664062 L 437.273438 689.433594 L 435.867188 690.964844 L 435.160156 691.730469 L 433.050781 694.027344 L 432.34375 694.792969 L 430.234375 697.089844 L 429.527344 697.855469 L 428.824219 698.625 L 427.417969 700.15625 L 426.710938 700.921875 L 424.601562 703.21875 L 423.894531 703.984375 L 422.488281 705.515625 L 421.78125 706.28125 L 421.078125 707.046875 L 420.375 707.816406 L 419.671875 708.582031 L 418.964844 709.347656 L 416.855469 711.644531 L 416.148438 712.410156 L 414.039062 714.707031 L 413.332031 715.472656 L 411.925781 717.003906 L 411.222656 717.773438 L 410.515625 718.539062 L 408.40625 720.835938 L 407.699219 721.601562 L 405.589844 723.898438 L 404.882812 724.664062 L 403.476562 726.195312 L 402.773438 726.964844 L 402.066406 727.730469 L 399.957031 730.027344 L 399.25 730.792969 L 397.84375 732.324219 "/>
<path style="fill:none;stroke-width:4.054518;stroke-linecap:butt;stroke-linejoin:round;stroke:rgb(0%,0%,0%);stroke-opacity:1;stroke-miterlimit:1;" d="M 606.96875 656.496094 L 606.265625 657.261719 L 605.558594 658.027344 L 604.152344 659.558594 L 603.445312 660.324219 L 602.742188 661.09375 L 601.335938 662.625 L 600.628906 663.390625 L 598.519531 665.6875 L 597.8125 666.453125 L 595.703125 668.75 L 594.996094 669.515625 L 594.292969 670.285156 L 592.886719 671.816406 L 592.179688 672.582031 L 590.070312 674.878906 L 589.363281 675.644531 L 587.253906 677.941406 L 586.546875 678.707031 L 585.84375 679.476562 L 584.4375 681.007812 L 583.730469 681.773438 L 581.621094 684.070312 L 580.914062 684.835938 L 578.804688 687.132812 L 578.097656 687.898438 L 577.394531 688.664062 L 576.691406 689.433594 L 575.988281 690.199219 L 575.28125 690.964844 L 573.875 692.496094 L 573.167969 693.261719 L 571.058594 695.558594 L 570.351562 696.324219 L 568.945312 697.855469 L 568.242188 698.625 L 567.535156 699.390625 L 565.425781 701.6875 L 564.71875 702.453125 L 562.609375 704.75 L 561.902344 705.515625 L 560.496094 707.046875 L 559.792969 707.816406 L 559.085938 708.582031 L 556.976562 710.878906 L 556.269531 711.644531 L 554.160156 713.941406 L 553.453125 714.707031 L 551.34375 717.003906 L 550.636719 717.773438 L 548.527344 720.070312 L 547.820312 720.835938 L 545.710938 723.132812 L 545.003906 723.898438 L 543.597656 725.429688 L 542.890625 726.195312 L 542.1875 726.964844 L 540.78125 728.496094 L 540.074219 729.261719 L 537.964844 731.558594 L 537.257812 732.324219 "/>
<path style="fill:none;stroke-width:4.054518;stroke-linecap:butt;stroke-linejoin:round;stroke:rgb(0%,0%,0%);stroke-opacity:1;stroke-miterlimit:1;" d="M 676.675781 656.496094 L 675.269531 658.027344 L 674.5625 658.792969 L 673.15625 660.324219 L 672.453125 661.09375 L 671.746094 661.859375 L 669.636719 664.15625 L 668.929688 664.921875 L 666.820312 667.21875 L 666.113281 667.984375 L 664.707031 669.515625 L 664 670.285156 L 661.890625 672.582031 L 661.183594 673.347656 L 659.074219 675.644531 L 658.367188 676.410156 L 656.257812 678.707031 L 655.550781 679.476562 L 653.441406 681.773438 L 652.734375 682.539062 L 650.625 684.835938 L 649.917969 685.601562 L 647.808594 687.898438 L 647.101562 688.664062 L 646.398438 689.433594 L 644.992188 690.964844 L 644.285156 691.730469 L 642.175781 694.027344 L 641.46875 694.792969 L 639.359375 697.089844 L 638.652344 697.855469 L 637.949219 698.625 L 636.542969 700.15625 L 635.835938 700.921875 L 634.429688 702.453125 L 633.722656 703.21875 L 631.613281 705.515625 L 630.90625 706.28125 L 630.203125 707.046875 L 629.5 707.816406 L 628.796875 708.582031 L 628.089844 709.347656 L 625.980469 711.644531 L 625.273438 712.410156 L 623.164062 714.707031 L 622.457031 715.472656 L 621.050781 717.003906 L 620.347656 717.773438 L 619.640625 718.539062 L 617.53125 720.835938 L 616.824219 721.601562 L 614.714844 723.898438 L 614.007812 724.664062 L 612.601562 726.195312 L 611.898438 726.964844 L 611.191406 727.730469 L 609.082031 730.027344 L 608.375 730.792969 L 606.96875 732.324219 "/>
<path style="fill:none;stroke-width:4.054518;stroke-linecap:butt;stroke-linejoin:round;stroke:rgb(0%,0%,0%);stroke-opacity:1;stroke-miterlimit:1;" d="M 676.675781 656.496094 L 676.675781 732.324219 "/>
<path style="fill:none;stroke-width:4.054518;stroke-linecap:butt;stroke-linejoin:round;stroke:rgb(0%,0%,0%);stroke-opacity:1;stroke-miterlimit:1;" d="M 119.011719 732.324219 L 118.304688 733.089844 L 116.898438 734.621094 L 116.191406 735.386719 L 115.488281 736.15625 L 114.082031 737.6875 L 113.375 738.453125 L 111.265625 740.75 L 110.558594 741.515625 L 108.449219 743.8125 L 107.742188 744.578125 L 107.039062 745.347656 L 105.632812 746.878906 L 104.925781 747.644531 L 102.816406 749.941406 L 102.109375 750.707031 L 100 753.003906 L 99.292969 753.769531 L 98.589844 754.535156 L 97.886719 755.304688 L 97.183594 756.070312 L 96.476562 756.835938 L 94.367188 759.132812 L 93.660156 759.898438 L 91.550781 762.195312 L 90.84375 762.960938 L 90.140625 763.726562 L 89.4375 764.496094 L 88.734375 765.261719 L 88.027344 766.027344 L 86.621094 767.558594 L 85.914062 768.324219 L 83.804688 770.621094 L 83.097656 771.386719 L 81.691406 772.917969 L 80.988281 773.6875 L 80.28125 774.453125 L 78.171875 776.75 L 77.464844 777.515625 L 75.355469 779.8125 L 74.648438 780.578125 L 72.539062 782.875 L 71.832031 783.644531 L 69.722656 785.941406 L 69.015625 786.707031 L 66.90625 789.003906 L 66.199219 789.769531 L 64.089844 792.066406 L 63.382812 792.835938 L 61.273438 795.132812 L 60.566406 795.898438 L 58.457031 798.195312 L 57.75 798.960938 L 56.34375 800.492188 L 55.636719 801.257812 L 54.933594 802.027344 L 53.527344 803.558594 L 52.820312 804.324219 L 50.710938 806.621094 L 50.003906 807.386719 L 49.300781 808.152344 "/>
<path style="fill:none;stroke-width:4.054518;stroke-linecap:butt;stroke-linejoin:round;stroke:rgb(0%,0%,0%);stroke-opacity:1;stroke-miterlimit:1;" d="M 188.71875 732.324219 L 188.015625 733.089844 L 187.308594 733.855469 L 185.902344 735.386719 L 185.199219 736.15625 L 184.492188 736.921875 L 182.382812 739.21875 L 181.675781 739.984375 L 180.269531 741.515625 L 179.5625 742.28125 L 177.453125 744.578125 L 176.746094 745.347656 L 174.636719 747.644531 L 173.929688 748.410156 L 171.820312 750.707031 L 171.113281 751.472656 L 169.003906 753.769531 L 168.296875 754.535156 L 167.59375 755.304688 L 166.1875 756.835938 L 165.480469 757.601562 L 163.371094 759.898438 L 162.664062 760.664062 L 160.554688 762.960938 L 159.847656 763.726562 L 159.144531 764.496094 L 157.738281 766.027344 L 157.03125 766.792969 L 154.921875 769.089844 L 154.214844 769.855469 L 152.105469 772.152344 L 151.398438 772.917969 L 150.695312 773.6875 L 149.289062 775.21875 L 148.582031 775.984375 L 147.175781 777.515625 L 146.46875 778.28125 L 144.359375 780.578125 L 143.652344 781.34375 L 142.246094 782.875 L 141.542969 783.644531 L 140.835938 784.410156 L 138.726562 786.707031 L 138.019531 787.472656 L 135.910156 789.769531 L 135.203125 790.535156 L 133.796875 792.066406 L 133.09375 792.835938 L 132.386719 793.601562 L 130.277344 795.898438 L 129.570312 796.664062 L 127.460938 798.960938 L 126.753906 799.726562 L 125.347656 801.257812 L 124.644531 802.027344 L 123.9375 802.792969 L 121.828125 805.089844 L 121.121094 805.855469 L 119.011719 808.152344 "/>
<path style="fill:none;stroke-width:4.054518;stroke-linecap:butt;stroke-linejoin:round;stroke:rgb(0%,0%,0%);stroke-opacity:1;stroke-miterlimit:1;" d="M 258.425781 732.324219 L 257.019531 733.855469 L 256.3125 734.621094 L 255.609375 735.386719 L 254.90625 736.15625 L 254.203125 736.921875 L 253.496094 737.6875 L 251.386719 739.984375 L 250.679688 740.75 L 248.570312 743.046875 L 247.863281 743.8125 L 247.160156 744.578125 L 246.457031 745.347656 L 245.753906 746.113281 L 245.046875 746.878906 L 242.9375 749.175781 L 242.230469 749.941406 L 240.824219 751.472656 L 240.117188 752.238281 L 238.007812 754.535156 L 237.300781 755.304688 L 235.191406 757.601562 L 234.484375 758.367188 L 232.375 760.664062 L 231.667969 761.429688 L 229.558594 763.726562 L 228.851562 764.496094 L 226.742188 766.792969 L 226.035156 767.558594 L 223.925781 769.855469 L 223.21875 770.621094 L 221.109375 772.917969 L 220.402344 773.6875 L 218.292969 775.984375 L 217.585938 776.75 L 215.476562 779.046875 L 214.769531 779.8125 L 212.660156 782.109375 L 211.953125 782.875 L 211.25 783.644531 L 210.546875 784.410156 L 209.839844 785.175781 L 207.730469 787.472656 L 207.023438 788.238281 L 204.914062 790.535156 L 204.207031 791.300781 L 203.503906 792.066406 L 202.800781 792.835938 L 202.097656 793.601562 L 201.390625 794.367188 L 199.28125 796.664062 L 198.574219 797.429688 L 196.464844 799.726562 L 195.757812 800.492188 L 195.054688 801.257812 L 194.351562 802.027344 L 193.648438 802.792969 L 192.941406 803.558594 L 190.832031 805.855469 L 190.125 806.621094 L 188.71875 808.152344 "/>
<path style="fill:none;stroke-width:4.054518;stroke-linecap:butt;stroke-linejoin:round;stroke:rgb(0%,0%,0%);stroke-opacity:1;stroke-miterlimit:1;" d="M 258.425781 732.324219 L 258.425781 808.152344 "/>
<path style="fill:none;stroke-width:4.054518;stroke-linecap:butt;stroke-linejoin:round;stroke:rgb(0%,0%,0%);stroke-opacity:1;stroke-miterlimit:1;" d="M 397.84375 732.324219 L 397.140625 733.089844 L 396.433594 733.855469 L 395.027344 735.386719 L 394.324219 736.15625 L 393.617188 736.921875 L 392.210938 738.453125 L 391.503906 739.21875 L 389.394531 741.515625 L 388.6875 742.28125 L 386.578125 744.578125 L 385.871094 745.347656 L 383.761719 747.644531 L 383.054688 748.410156 L 380.945312 750.707031 L 380.238281 751.472656 L 378.128906 753.769531 L 377.421875 754.535156 L 376.71875 755.304688 L 375.3125 756.835938 L 374.605469 757.601562 L 372.496094 759.898438 L 371.789062 760.664062 L 369.679688 762.960938 L 368.972656 763.726562 L 368.269531 764.496094 L 366.863281 766.027344 L 366.15625 766.792969 L 364.046875 769.089844 L 363.339844 769.855469 L 361.933594 771.386719 L 361.226562 772.152344 L 360.523438 772.917969 L 359.820312 773.6875 L 359.117188 774.453125 L 358.410156 775.21875 L 356.300781 777.515625 L 355.59375 778.28125 L 353.484375 780.578125 L 352.777344 781.34375 L 351.371094 782.875 L 350.667969 783.644531 L 349.960938 784.410156 L 347.851562 786.707031 L 347.144531 787.472656 L 345.035156 789.769531 L 344.328125 790.535156 L 342.921875 792.066406 L 342.21875 792.835938 L 341.511719 793.601562 L 339.402344 795.898438 L 338.695312 796.664062 L 336.585938 798.960938 L 335.878906 799.726562 L 334.472656 801.257812 L 333.769531 802.027344 L 333.0625 802.792969 L 331.65625 804.324219 L 330.949219 805.089844 L 328.839844 807.386719 L 328.132812 808.152344 "/>
<path style="fill:none;stroke-width:4.054518;stroke-linecap:butt;stroke-linejoin:round;stroke:rgb(0%,0%,0%);stroke-opacity:1;stroke-miterlimit:1;" d="M 537.257812 732.324219 L 535.851562 733.089844 L 534.441406 733.855469 L 533.035156 734.621094 L 531.625 735.386719 L 530.21875 736.15625 L 528.808594 736.921875 L 527.402344 737.6875 L 525.992188 738.453125 L 524.585938 739.21875 L 523.175781 739.984375 L 521.769531 740.75 L 520.359375 741.515625 L 518.953125 742.28125 L 517.542969 743.046875 L 516.136719 743.8125 L 514.726562 744.578125 L 513.320312 745.347656 L 511.910156 746.113281 L 510.503906 746.878906 L 509.09375 747.644531 L 507.6875 748.410156 L 506.277344 749.175781 L 504.871094 749.941406 L 503.460938 750.707031 L 502.054688 751.472656 L 500.644531 752.238281 L 499.238281 753.003906 L 497.828125 753.769531 L 496.421875 754.535156 L 495.011719 755.304688 L 493.605469 756.070312 L 492.195312 756.835938 L 490.789062 757.601562 L 489.378906 758.367188 L 487.972656 759.132812 L 486.5625 759.898438 L 485.15625 760.664062 L 482.335938 762.195312 L 480.929688 762.960938 L 479.519531 763.726562 L 478.113281 764.496094 L 476.703125 765.261719 L 475.296875 766.027344 L 473.886719 766.792969 L 472.480469 767.558594 L 471.070312 768.324219 L 469.664062 769.089844 L 468.253906 769.855469 L 466.847656 770.621094 L 465.4375 771.386719 L 464.03125 772.152344 L 462.621094 772.917969 L 461.214844 773.6875 L 459.804688 774.453125 L 458.398438 775.21875 L 456.988281 775.984375 L 455.582031 776.75 L 454.171875 777.515625 L 452.765625 778.28125 L 451.355469 779.046875 L 449.949219 779.8125 L 448.539062 780.578125 L 447.132812 781.34375 L 445.722656 782.109375 L 444.316406 782.875 L 442.90625 783.644531 L 441.5 784.410156 L 440.089844 785.175781 L 438.683594 785.941406 L 437.273438 786.707031 L 435.867188 787.472656 L 434.457031 788.238281 L 433.050781 789.003906 L 431.640625 789.769531 L 430.234375 790.535156 L 428.824219 791.300781 L 427.417969 792.066406 L 426.007812 792.835938 L 424.601562 793.601562 L 421.78125 795.132812 L 420.375 795.898438 L 418.964844 796.664062 L 417.558594 797.429688 L 416.148438 798.195312 L 414.742188 798.960938 L 413.332031 799.726562 L 411.925781 800.492188 L 410.515625 801.257812 L 409.109375 802.027344 L 407.699219 802.792969 L 406.292969 803.558594 L 404.882812 804.324219 L 403.476562 805.089844 L 402.066406 805.855469 L 400.660156 806.621094 L 399.25 807.386719 L 397.84375 808.152344 "/>
<path style="fill:none;stroke-width:4.054518;stroke-linecap:butt;stroke-linejoin:round;stroke:rgb(0%,0%,0%);stroke-opacity:1;stroke-miterlimit:1;" d="M 606.96875 732.324219 L 605.558594 733.089844 L 604.152344 733.855469 L 602.742188 734.621094 L 601.335938 735.386719 L 599.925781 736.15625 L 598.519531 736.921875 L 597.109375 737.6875 L 595.703125 738.453125 L 594.292969 739.21875 L 592.886719 739.984375 L 591.476562 740.75 L 590.070312 741.515625 L 588.660156 742.28125 L 587.253906 743.046875 L 585.84375 743.8125 L 584.4375 744.578125 L 583.027344 745.347656 L 581.621094 746.113281 L 580.210938 746.878906 L 578.804688 747.644531 L 577.394531 748.410156 L 575.988281 749.175781 L 573.167969 750.707031 L 571.761719 751.472656 L 570.351562 752.238281 L 568.945312 753.003906 L 567.535156 753.769531 L 566.128906 754.535156 L 564.71875 755.304688 L 563.3125 756.070312 L 561.902344 756.835938 L 560.496094 757.601562 L 559.085938 758.367188 L 557.679688 759.132812 L 556.269531 759.898438 L 554.863281 760.664062 L 553.453125 761.429688 L 552.046875 762.195312 L 550.636719 762.960938 L 549.230469 763.726562 L 547.820312 764.496094 L 546.414062 765.261719 L 545.003906 766.027344 L 543.597656 766.792969 L 542.1875 767.558594 L 540.78125 768.324219 L 539.371094 769.089844 L 537.964844 769.855469 L 536.554688 770.621094 L 535.148438 771.386719 L 533.738281 772.152344 L 532.332031 772.917969 L 530.921875 773.6875 L 529.515625 774.453125 L 528.105469 775.21875 L 526.699219 775.984375 L 525.289062 776.75 L 523.882812 777.515625 L 522.472656 778.28125 L 521.066406 779.046875 L 519.65625 779.8125 L 518.25 780.578125 L 516.839844 781.34375 L 515.433594 782.109375 L 514.023438 782.875 L 512.613281 783.644531 L 511.207031 784.410156 L 509.796875 785.175781 L 508.390625 785.941406 L 506.980469 786.707031 L 505.574219 787.472656 L 504.164062 788.238281 L 502.757812 789.003906 L 501.347656 789.769531 L 499.941406 790.535156 L 498.53125 791.300781 L 497.125 792.066406 L 495.714844 792.835938 L 494.308594 793.601562 L 492.898438 794.367188 L 491.492188 795.132812 L 490.082031 795.898438 L 488.675781 796.664062 L 487.265625 797.429688 L 485.859375 798.195312 L 484.449219 798.960938 L 483.042969 799.726562 L 481.632812 800.492188 L 480.226562 801.257812 L 478.816406 802.027344 L 477.410156 802.792969 L 476 803.558594 L 474.59375 804.324219 L 473.183594 805.089844 L 471.777344 805.855469 L 470.367188 806.621094 L 468.960938 807.386719 L 467.550781 808.152344 "/>
<path style="fill:none;stroke-width:4.054518;stroke-linecap:butt;stroke-linejoin:round;stroke:rgb(0%,0%,0%);stroke-opacity:1;stroke-miterlimit:1;" d="M 606.96875 732.324219 L 606.265625 733.089844 L 605.558594 733.855469 L 604.152344 735.386719 L 603.445312 736.15625 L 601.335938 738.453125 L 600.628906 739.21875 L 598.519531 741.515625 L 597.8125 742.28125 L 595.703125 744.578125 L 594.996094 745.347656 L 592.886719 747.644531 L 592.179688 748.410156 L 590.070312 750.707031 L 589.363281 751.472656 L 587.253906 753.769531 L 586.546875 754.535156 L 585.84375 755.304688 L 584.4375 756.835938 L 583.730469 757.601562 L 581.621094 759.898438 L 580.914062 760.664062 L 578.804688 762.960938 L 578.097656 763.726562 L 577.394531 764.496094 L 575.988281 766.027344 L 575.28125 766.792969 L 573.875 768.324219 L 573.167969 769.089844 L 571.058594 771.386719 L 570.351562 772.152344 L 569.648438 772.917969 L 568.945312 773.6875 L 568.242188 774.453125 L 567.535156 775.21875 L 565.425781 777.515625 L 564.71875 778.28125 L 562.609375 780.578125 L 561.902344 781.34375 L 560.496094 782.875 L 559.792969 783.644531 L 559.085938 784.410156 L 556.976562 786.707031 L 556.269531 787.472656 L 554.160156 789.769531 L 553.453125 790.535156 L 552.046875 792.066406 L 551.34375 792.835938 L 550.636719 793.601562 L 548.527344 795.898438 L 547.820312 796.664062 L 545.710938 798.960938 L 545.003906 799.726562 L 543.597656 801.257812 L 542.890625 802.027344 L 540.78125 804.324219 L 540.074219 805.089844 L 537.964844 807.386719 L 537.257812 808.152344 "/>
<path style="fill:none;stroke-width:4.054518;stroke-linecap:butt;stroke-linejoin:round;stroke:rgb(0%,0%,0%);stroke-opacity:1;stroke-miterlimit:1;" d="M 676.675781 732.324219 L 675.269531 733.855469 L 674.5625 734.621094 L 673.859375 735.386719 L 673.15625 736.15625 L 672.453125 736.921875 L 671.746094 737.6875 L 669.636719 739.984375 L 668.929688 740.75 L 666.820312 743.046875 L 666.113281 743.8125 L 665.410156 744.578125 L 664.707031 745.347656 L 664 746.113281 L 661.890625 748.410156 L 661.183594 749.175781 L 659.074219 751.472656 L 658.367188 752.238281 L 656.257812 754.535156 L 655.550781 755.304688 L 653.441406 757.601562 L 652.734375 758.367188 L 650.625 760.664062 L 649.917969 761.429688 L 647.808594 763.726562 L 647.101562 764.496094 L 644.992188 766.792969 L 644.285156 767.558594 L 642.175781 769.855469 L 641.46875 770.621094 L 639.359375 772.917969 L 638.652344 773.6875 L 636.542969 775.984375 L 635.835938 776.75 L 634.429688 778.28125 L 633.722656 779.046875 L 631.613281 781.34375 L 630.90625 782.109375 L 630.203125 782.875 L 629.5 783.644531 L 628.796875 784.410156 L 628.089844 785.175781 L 625.980469 787.472656 L 625.273438 788.238281 L 623.164062 790.535156 L 622.457031 791.300781 L 621.753906 792.066406 L 621.050781 792.835938 L 620.347656 793.601562 L 619.640625 794.367188 L 617.53125 796.664062 L 616.824219 797.429688 L 614.714844 799.726562 L 614.007812 800.492188 L 613.304688 801.257812 L 612.601562 802.027344 L 611.898438 802.792969 L 611.191406 803.558594 L 609.082031 805.855469 L 608.375 806.621094 L 606.96875 808.152344 "/>
<path style="fill-rule:nonzero;fill:rgb(0%,0%,0%);fill-opacity:1;stroke-width:0.708661;stroke-linecap:round;stroke-linejoin:round;stroke:rgb(0%,0%,0%);stroke-opacity:1;stroke-miterlimit:10;" d="M 52.855469 49.871094 C 52.855469 54.609375 45.746094 54.609375 45.746094 49.871094 C 45.746094 45.128906 52.855469 45.128906 52.855469 49.871094 "/>
<path style="fill-rule:nonzero;fill:rgb(0%,0%,0%);fill-opacity:1;stroke-width:0.708661;stroke-linecap:round;stroke-linejoin:round;stroke:rgb(0%,0%,0%);stroke-opacity:1;stroke-miterlimit:10;" d="M 122.566406 49.871094 C 122.566406 54.609375 115.453125 54.609375 115.453125 49.871094 C 115.453125 45.128906 122.566406 45.128906 122.566406 49.871094 "/>
<path style="fill-rule:nonzero;fill:rgb(0%,0%,0%);fill-opacity:1;stroke-width:0.708661;stroke-linecap:round;stroke-linejoin:round;stroke:rgb(0%,0%,0%);stroke-opacity:1;stroke-miterlimit:10;" d="M 192.273438 49.871094 C 192.273438 54.609375 185.164062 54.609375 185.164062 49.871094 C 185.164062 45.128906 192.273438 45.128906 192.273438 49.871094 "/>
<path style="fill-rule:nonzero;fill:rgb(0%,0%,0%);fill-opacity:1;stroke-width:0.708661;stroke-linecap:round;stroke-linejoin:round;stroke:rgb(0%,0%,0%);stroke-opacity:1;stroke-miterlimit:10;" d="M 261.980469 49.871094 C 261.980469 54.609375 254.871094 54.609375 254.871094 49.871094 C 254.871094 45.128906 261.980469 45.128906 261.980469 49.871094 "/>
<path style="fill-rule:nonzero;fill:rgb(0%,0%,0%);fill-opacity:1;stroke-width:0.708661;stroke-linecap:round;stroke-linejoin:round;stroke:rgb(0%,0%,0%);stroke-opacity:1;stroke-miterlimit:10;" d="M 331.691406 49.871094 C 331.691406 54.609375 324.578125 54.609375 324.578125 49.871094 C 324.578125 45.128906 331.691406 45.128906 331.691406 49.871094 "/>
<path style="fill-rule:nonzero;fill:rgb(0%,0%,0%);fill-opacity:1;stroke-width:0.708661;stroke-linecap:round;stroke-linejoin:round;stroke:rgb(0%,0%,0%);stroke-opacity:1;stroke-miterlimit:10;" d="M 401.398438 49.871094 C 401.398438 54.609375 394.289062 54.609375 394.289062 49.871094 C 394.289062 45.128906 401.398438 45.128906 401.398438 49.871094 "/>
<path style="fill-rule:nonzero;fill:rgb(0%,0%,0%);fill-opacity:1;stroke-width:0.708661;stroke-linecap:round;stroke-linejoin:round;stroke:rgb(0%,0%,0%);stroke-opacity:1;stroke-miterlimit:10;" d="M 471.105469 49.871094 C 471.105469 54.609375 463.996094 54.609375 463.996094 49.871094 C 463.996094 45.128906 471.105469 45.128906 471.105469 49.871094 "/>
<path style="fill-rule:nonzero;fill:rgb(0%,0%,0%);fill-opacity:1;stroke-width:0.708661;stroke-linecap:round;stroke-linejoin:round;stroke:rgb(0%,0%,0%);stroke-opacity:1;stroke-miterlimit:10;" d="M 540.816406 49.871094 C 540.816406 54.609375 533.703125 54.609375 533.703125 49.871094 C 533.703125 45.128906 540.816406 45.128906 540.816406 49.871094 "/>
<path style="fill-rule:nonzero;fill:rgb(0%,0%,0%);fill-opacity:1;stroke-width:0.708661;stroke-linecap:round;stroke-linejoin:round;stroke:rgb(0%,0%,0%);stroke-opacity:1;stroke-miterlimit:10;" d="M 610.523438 49.871094 C 610.523438 54.609375 603.414062 54.609375 603.414062 49.871094 C 603.414062 45.128906 610.523438 45.128906 610.523438 49.871094 "/>
<path style="fill-rule:nonzero;fill:rgb(0%,0%,0%);fill-opacity:1;stroke-width:0.708661;stroke-linecap:round;stroke-linejoin:round;stroke:rgb(0%,0%,0%);stroke-opacity:1;stroke-miterlimit:10;" d="M 680.230469 49.871094 C 680.230469 54.609375 673.121094 54.609375 673.121094 49.871094 C 673.121094 45.128906 680.230469 45.128906 680.230469 49.871094 "/>
<path style="fill-rule:nonzero;fill:rgb(0%,0%,0%);fill-opacity:1;stroke-width:0.708661;stroke-linecap:round;stroke-linejoin:round;stroke:rgb(0%,0%,0%);stroke-opacity:1;stroke-miterlimit:10;" d="M 52.855469 125.699219 C 52.855469 130.4375 45.746094 130.4375 45.746094 125.699219 C 45.746094 120.957031 52.855469 120.957031 52.855469 125.699219 "/>
<path style="fill-rule:nonzero;fill:rgb(0%,0%,0%);fill-opacity:1;stroke-width:0.708661;stroke-linecap:round;stroke-linejoin:round;stroke:rgb(0%,0%,0%);stroke-opacity:1;stroke-miterlimit:10;" d="M 122.566406 125.699219 C 122.566406 130.4375 115.453125 130.4375 115.453125 125.699219 C 115.453125 120.957031 122.566406 120.957031 122.566406 125.699219 "/>
<path style="fill-rule:nonzero;fill:rgb(0%,0%,0%);fill-opacity:1;stroke-width:0.708661;stroke-linecap:round;stroke-linejoin:round;stroke:rgb(0%,0%,0%);stroke-opacity:1;stroke-miterlimit:10;" d="M 192.273438 125.699219 C 192.273438 130.4375 185.164062 130.4375 185.164062 125.699219 C 185.164062 120.957031 192.273438 120.957031 192.273438 125.699219 "/>
<path style="fill-rule:nonzero;fill:rgb(0%,0%,0%);fill-opacity:1;stroke-width:0.708661;stroke-linecap:round;stroke-linejoin:round;stroke:rgb(0%,0%,0%);stroke-opacity:1;stroke-miterlimit:10;" d="M 261.980469 125.699219 C 261.980469 130.4375 254.871094 130.4375 254.871094 125.699219 C 254.871094 120.957031 261.980469 120.957031 261.980469 125.699219 "/>
<path style="fill-rule:nonzero;fill:rgb(0%,0%,0%);fill-opacity:1;stroke-width:0.708661;stroke-linecap:round;stroke-linejoin:round;stroke:rgb(0%,0%,0%);stroke-opacity:1;stroke-miterlimit:10;" d="M 331.691406 125.699219 C 331.691406 130.4375 324.578125 130.4375 324.578125 125.699219 C 324.578125 120.957031 331.691406 120.957031 331.691406 125.699219 "/>
<path style="fill-rule:nonzero;fill:rgb(0%,0%,0%);fill-opacity:1;stroke-width:0.708661;stroke-linecap:round;stroke-linejoin:round;stroke:rgb(0%,0%,0%);stroke-opacity:1;stroke-miterlimit:10;" d="M 401.398438 125.699219 C 401.398438 130.4375 394.289062 130.4375 394.289062 125.699219 C 394.289062 120.957031 401.398438 120.957031 401.398438 125.699219 "/>
<path style="fill-rule:nonzero;fill:rgb(0%,0%,0%);fill-opacity:1;stroke-width:0.708661;stroke-linecap:round;stroke-linejoin:round;stroke:rgb(0%,0%,0%);stroke-opacity:1;stroke-miterlimit:10;" d="M 471.105469 125.699219 C 471.105469 130.4375 463.996094 130.4375 463.996094 125.699219 C 463.996094 120.957031 471.105469 120.957031 471.105469 125.699219 "/>
<path style="fill-rule:nonzero;fill:rgb(0%,0%,0%);fill-opacity:1;stroke-width:0.708661;stroke-linecap:round;stroke-linejoin:round;stroke:rgb(0%,0%,0%);stroke-opacity:1;stroke-miterlimit:10;" d="M 540.816406 125.699219 C 540.816406 130.4375 533.703125 130.4375 533.703125 125.699219 C 533.703125 120.957031 540.816406 120.957031 540.816406 125.699219 "/>
<path style="fill-rule:nonzero;fill:rgb(0%,0%,0%);fill-opacity:1;stroke-width:0.708661;stroke-linecap:round;stroke-linejoin:round;stroke:rgb(0%,0%,0%);stroke-opacity:1;stroke-miterlimit:10;" d="M 610.523438 125.699219 C 610.523438 130.4375 603.414062 130.4375 603.414062 125.699219 C 603.414062 120.957031 610.523438 120.957031 610.523438 125.699219 "/>
<path style="fill-rule:nonzero;fill:rgb(0%,0%,0%);fill-opacity:1;stroke-width:0.708661;stroke-linecap:round;stroke-linejoin:round;stroke:rgb(0%,0%,0%);stroke-opacity:1;stroke-miterlimit:10;" d="M 680.230469 125.699219 C 680.230469 130.4375 673.121094 130.4375 673.121094 125.699219 C 673.121094 120.957031 680.230469 120.957031 680.230469 125.699219 "/>
<path style="fill-rule:nonzero;fill:rgb(0%,0%,0%);fill-opacity:1;stroke-width:0.708661;stroke-linecap:round;stroke-linejoin:round;stroke:rgb(0%,0%,0%);stroke-opacity:1;stroke-miterlimit:10;" d="M 52.855469 201.527344 C 52.855469 206.265625 45.746094 206.265625 45.746094 201.527344 C 45.746094 196.785156 52.855469 196.785156 52.855469 201.527344 "/>
<path style="fill-rule:nonzero;fill:rgb(0%,0%,0%);fill-opacity:1;stroke-width:0.708661;stroke-linecap:round;stroke-linejoin:round;stroke:rgb(0%,0%,0%);stroke-opacity:1;stroke-miterlimit:10;" d="M 122.566406 201.527344 C 122.566406 206.265625 115.453125 206.265625 115.453125 201.527344 C 115.453125 196.785156 122.566406 196.785156 122.566406 201.527344 "/>
<path style="fill-rule:nonzero;fill:rgb(0%,0%,0%);fill-opacity:1;stroke-width:0.708661;stroke-linecap:round;stroke-linejoin:round;stroke:rgb(0%,0%,0%);stroke-opacity:1;stroke-miterlimit:10;" d="M 192.273438 201.527344 C 192.273438 206.265625 185.164062 206.265625 185.164062 201.527344 C 185.164062 196.785156 192.273438 196.785156 192.273438 201.527344 "/>
<path style="fill-rule:nonzero;fill:rgb(0%,0%,0%);fill-opacity:1;stroke-width:0.708661;stroke-linecap:round;stroke-linejoin:round;stroke:rgb(0%,0%,0%);stroke-opacity:1;stroke-miterlimit:10;" d="M 261.980469 201.527344 C 261.980469 206.265625 254.871094 206.265625 254.871094 201.527344 C 254.871094 196.785156 261.980469 196.785156 261.980469 201.527344 "/>
<path style="fill-rule:nonzero;fill:rgb(0%,0%,0%);fill-opacity:1;stroke-width:0.708661;stroke-linecap:round;stroke-linejoin:round;stroke:rgb(0%,0%,0%);stroke-opacity:1;stroke-miterlimit:10;" d="M 331.691406 201.527344 C 331.691406 206.265625 324.578125 206.265625 324.578125 201.527344 C 324.578125 196.785156 331.691406 196.785156 331.691406 201.527344 "/>
<path style="fill-rule:nonzero;fill:rgb(0%,0%,0%);fill-opacity:1;stroke-width:0.708661;stroke-linecap:round;stroke-linejoin:round;stroke:rgb(0%,0%,0%);stroke-opacity:1;stroke-miterlimit:10;" d="M 401.398438 201.527344 C 401.398438 206.265625 394.289062 206.265625 394.289062 201.527344 C 394.289062 196.785156 401.398438 196.785156 401.398438 201.527344 "/>
<path style="fill-rule:nonzero;fill:rgb(0%,0%,0%);fill-opacity:1;stroke-width:0.708661;stroke-linecap:round;stroke-linejoin:round;stroke:rgb(0%,0%,0%);stroke-opacity:1;stroke-miterlimit:10;" d="M 471.105469 201.527344 C 471.105469 206.265625 463.996094 206.265625 463.996094 201.527344 C 463.996094 196.785156 471.105469 196.785156 471.105469 201.527344 "/>
<path style="fill-rule:nonzero;fill:rgb(0%,0%,0%);fill-opacity:1;stroke-width:0.708661;stroke-linecap:round;stroke-linejoin:round;stroke:rgb(0%,0%,0%);stroke-opacity:1;stroke-miterlimit:10;" d="M 540.816406 201.527344 C 540.816406 206.265625 533.703125 206.265625 533.703125 201.527344 C 533.703125 196.785156 540.816406 196.785156 540.816406 201.527344 "/>
<path style="fill-rule:nonzero;fill:rgb(0%,0%,0%);fill-opacity:1;stroke-width:0.708661;stroke-linecap:round;stroke-linejoin:round;stroke:rgb(0%,0%,0%);stroke-opacity:1;stroke-miterlimit:10;" d="M 610.523438 201.527344 C 610.523438 206.265625 603.414062 206.265625 603.414062 201.527344 C 603.414062 196.785156 610.523438 196.785156 610.523438 201.527344 "/>
<path style="fill-rule:nonzero;fill:rgb(0%,0%,0%);fill-opacity:1;stroke-width:0.708661;stroke-linecap:round;stroke-linejoin:round;stroke:rgb(0%,0%,0%);stroke-opacity:1;stroke-miterlimit:10;" d="M 680.230469 201.527344 C 680.230469 206.265625 673.121094 206.265625 673.121094 201.527344 C 673.121094 196.785156 680.230469 196.785156 680.230469 201.527344 "/>
<path style="fill-rule:nonzero;fill:rgb(0%,0%,0%);fill-opacity:1;stroke-width:0.708661;stroke-linecap:round;stroke-linejoin:round;stroke:rgb(0%,0%,0%);stroke-opacity:1;stroke-miterlimit:10;" d="M 52.855469 277.355469 C 52.855469 282.09375 45.746094 282.09375 45.746094 277.355469 C 45.746094 272.613281 52.855469 272.613281 52.855469 277.355469 "/>
<path style="fill-rule:nonzero;fill:rgb(0%,0%,0%);fill-opacity:1;stroke-width:0.708661;stroke-linecap:round;stroke-linejoin:round;stroke:rgb(0%,0%,0%);stroke-opacity:1;stroke-miterlimit:10;" d="M 122.566406 277.355469 C 122.566406 282.09375 115.453125 282.09375 115.453125 277.355469 C 115.453125 272.613281 122.566406 272.613281 122.566406 277.355469 "/>
<path style="fill-rule:nonzero;fill:rgb(0%,0%,0%);fill-opacity:1;stroke-width:0.708661;stroke-linecap:round;stroke-linejoin:round;stroke:rgb(0%,0%,0%);stroke-opacity:1;stroke-miterlimit:10;" d="M 192.273438 277.355469 C 192.273438 282.09375 185.164062 282.09375 185.164062 277.355469 C 185.164062 272.613281 192.273438 272.613281 192.273438 277.355469 "/>
<path style="fill-rule:nonzero;fill:rgb(0%,0%,0%);fill-opacity:1;stroke-width:0.708661;stroke-linecap:round;stroke-linejoin:round;stroke:rgb(0%,0%,0%);stroke-opacity:1;stroke-miterlimit:10;" d="M 261.980469 277.355469 C 261.980469 282.09375 254.871094 282.09375 254.871094 277.355469 C 254.871094 272.613281 261.980469 272.613281 261.980469 277.355469 "/>
<path style="fill-rule:nonzero;fill:rgb(0%,0%,0%);fill-opacity:1;stroke-width:0.708661;stroke-linecap:round;stroke-linejoin:round;stroke:rgb(0%,0%,0%);stroke-opacity:1;stroke-miterlimit:10;" d="M 331.691406 277.355469 C 331.691406 282.09375 324.578125 282.09375 324.578125 277.355469 C 324.578125 272.613281 331.691406 272.613281 331.691406 277.355469 "/>
<path style="fill-rule:nonzero;fill:rgb(0%,0%,0%);fill-opacity:1;stroke-width:0.708661;stroke-linecap:round;stroke-linejoin:round;stroke:rgb(0%,0%,0%);stroke-opacity:1;stroke-miterlimit:10;" d="M 401.398438 277.355469 C 401.398438 282.09375 394.289062 282.09375 394.289062 277.355469 C 394.289062 272.613281 401.398438 272.613281 401.398438 277.355469 "/>
<path style="fill-rule:nonzero;fill:rgb(0%,0%,0%);fill-opacity:1;stroke-width:0.708661;stroke-linecap:round;stroke-linejoin:round;stroke:rgb(0%,0%,0%);stroke-opacity:1;stroke-miterlimit:10;" d="M 471.105469 277.355469 C 471.105469 282.09375 463.996094 282.09375 463.996094 277.355469 C 463.996094 272.613281 471.105469 272.613281 471.105469 277.355469 "/>
<path style="fill-rule:nonzero;fill:rgb(0%,0%,0%);fill-opacity:1;stroke-width:0.708661;stroke-linecap:round;stroke-linejoin:round;stroke:rgb(0%,0%,0%);stroke-opacity:1;stroke-miterlimit:10;" d="M 540.816406 277.355469 C 540.816406 282.09375 533.703125 282.09375 533.703125 277.355469 C 533.703125 272.613281 540.816406 272.613281 540.816406 277.355469 "/>
<path style="fill-rule:nonzero;fill:rgb(0%,0%,0%);fill-opacity:1;stroke-width:0.708661;stroke-linecap:round;stroke-linejoin:round;stroke:rgb(0%,0%,0%);stroke-opacity:1;stroke-miterlimit:10;" d="M 610.523438 277.355469 C 610.523438 282.09375 603.414062 282.09375 603.414062 277.355469 C 603.414062 272.613281 610.523438 272.613281 610.523438 277.355469 "/>
<path style="fill-rule:nonzero;fill:rgb(0%,0%,0%);fill-opacity:1;stroke-width:0.708661;stroke-linecap:round;stroke-linejoin:round;stroke:rgb(0%,0%,0%);stroke-opacity:1;stroke-miterlimit:10;" d="M 680.230469 277.355469 C 680.230469 282.09375 673.121094 282.09375 673.121094 277.355469 C 673.121094 272.613281 680.230469 272.613281 680.230469 277.355469 "/>
<path style="fill-rule:nonzero;fill:rgb(0%,0%,0%);fill-opacity:1;stroke-width:0.708661;stroke-linecap:round;stroke-linejoin:round;stroke:rgb(0%,0%,0%);stroke-opacity:1;stroke-miterlimit:10;" d="M 52.855469 353.183594 C 52.855469 357.921875 45.746094 357.921875 45.746094 353.183594 C 45.746094 348.441406 52.855469 348.441406 52.855469 353.183594 "/>
<path style="fill-rule:nonzero;fill:rgb(0%,0%,0%);fill-opacity:1;stroke-width:0.708661;stroke-linecap:round;stroke-linejoin:round;stroke:rgb(0%,0%,0%);stroke-opacity:1;stroke-miterlimit:10;" d="M 122.566406 353.183594 C 122.566406 357.921875 115.453125 357.921875 115.453125 353.183594 C 115.453125 348.441406 122.566406 348.441406 122.566406 353.183594 "/>
<path style="fill-rule:nonzero;fill:rgb(0%,0%,0%);fill-opacity:1;stroke-width:0.708661;stroke-linecap:round;stroke-linejoin:round;stroke:rgb(0%,0%,0%);stroke-opacity:1;stroke-miterlimit:10;" d="M 192.273438 353.183594 C 192.273438 357.921875 185.164062 357.921875 185.164062 353.183594 C 185.164062 348.441406 192.273438 348.441406 192.273438 353.183594 "/>
<path style="fill-rule:nonzero;fill:rgb(0%,0%,0%);fill-opacity:1;stroke-width:0.708661;stroke-linecap:round;stroke-linejoin:round;stroke:rgb(0%,0%,0%);stroke-opacity:1;stroke-miterlimit:10;" d="M 261.980469 353.183594 C 261.980469 357.921875 254.871094 357.921875 254.871094 353.183594 C 254.871094 348.441406 261.980469 348.441406 261.980469 353.183594 "/>
<path style="fill-rule:nonzero;fill:rgb(0%,0%,0%);fill-opacity:1;stroke-width:0.708661;stroke-linecap:round;stroke-linejoin:round;stroke:rgb(0%,0%,0%);stroke-opacity:1;stroke-miterlimit:10;" d="M 331.691406 353.183594 C 331.691406 357.921875 324.578125 357.921875 324.578125 353.183594 C 324.578125 348.441406 331.691406 348.441406 331.691406 353.183594 "/>
<path style="fill-rule:nonzero;fill:rgb(0%,0%,0%);fill-opacity:1;stroke-width:0.708661;stroke-linecap:round;stroke-linejoin:round;stroke:rgb(0%,0%,0%);stroke-opacity:1;stroke-miterlimit:10;" d="M 401.398438 353.183594 C 401.398438 357.921875 394.289062 357.921875 394.289062 353.183594 C 394.289062 348.441406 401.398438 348.441406 401.398438 353.183594 "/>
<path style="fill-rule:nonzero;fill:rgb(0%,0%,0%);fill-opacity:1;stroke-width:0.708661;stroke-linecap:round;stroke-linejoin:round;stroke:rgb(0%,0%,0%);stroke-opacity:1;stroke-miterlimit:10;" d="M 471.105469 353.183594 C 471.105469 357.921875 463.996094 357.921875 463.996094 353.183594 C 463.996094 348.441406 471.105469 348.441406 471.105469 353.183594 "/>
<path style="fill-rule:nonzero;fill:rgb(0%,0%,0%);fill-opacity:1;stroke-width:0.708661;stroke-linecap:round;stroke-linejoin:round;stroke:rgb(0%,0%,0%);stroke-opacity:1;stroke-miterlimit:10;" d="M 540.816406 353.183594 C 540.816406 357.921875 533.703125 357.921875 533.703125 353.183594 C 533.703125 348.441406 540.816406 348.441406 540.816406 353.183594 "/>
<path style="fill-rule:nonzero;fill:rgb(0%,0%,0%);fill-opacity:1;stroke-width:0.708661;stroke-linecap:round;stroke-linejoin:round;stroke:rgb(0%,0%,0%);stroke-opacity:1;stroke-miterlimit:10;" d="M 610.523438 353.183594 C 610.523438 357.921875 603.414062 357.921875 603.414062 353.183594 C 603.414062 348.441406 610.523438 348.441406 610.523438 353.183594 "/>
<path style="fill-rule:nonzero;fill:rgb(0%,0%,0%);fill-opacity:1;stroke-width:0.708661;stroke-linecap:round;stroke-linejoin:round;stroke:rgb(0%,0%,0%);stroke-opacity:1;stroke-miterlimit:10;" d="M 680.230469 353.183594 C 680.230469 357.921875 673.121094 357.921875 673.121094 353.183594 C 673.121094 348.441406 680.230469 348.441406 680.230469 353.183594 "/>
<path style="fill-rule:nonzero;fill:rgb(0%,0%,0%);fill-opacity:1;stroke-width:0.708661;stroke-linecap:round;stroke-linejoin:round;stroke:rgb(0%,0%,0%);stroke-opacity:1;stroke-miterlimit:10;" d="M 52.855469 429.011719 C 52.855469 433.75 45.746094 433.75 45.746094 429.011719 C 45.746094 424.269531 52.855469 424.269531 52.855469 429.011719 "/>
<path style="fill-rule:nonzero;fill:rgb(0%,0%,0%);fill-opacity:1;stroke-width:0.708661;stroke-linecap:round;stroke-linejoin:round;stroke:rgb(0%,0%,0%);stroke-opacity:1;stroke-miterlimit:10;" d="M 122.566406 429.011719 C 122.566406 433.75 115.453125 433.75 115.453125 429.011719 C 115.453125 424.269531 122.566406 424.269531 122.566406 429.011719 "/>
<path style="fill-rule:nonzero;fill:rgb(0%,0%,0%);fill-opacity:1;stroke-width:0.708661;stroke-linecap:round;stroke-linejoin:round;stroke:rgb(0%,0%,0%);stroke-opacity:1;stroke-miterlimit:10;" d="M 192.273438 429.011719 C 192.273438 433.75 185.164062 433.75 185.164062 429.011719 C 185.164062 424.269531 192.273438 424.269531 192.273438 429.011719 "/>
<path style="fill-rule:nonzero;fill:rgb(0%,0%,0%);fill-opacity:1;stroke-width:0.708661;stroke-linecap:round;stroke-linejoin:round;stroke:rgb(0%,0%,0%);stroke-opacity:1;stroke-miterlimit:10;" d="M 261.980469 429.011719 C 261.980469 433.75 254.871094 433.75 254.871094 429.011719 C 254.871094 424.269531 261.980469 424.269531 261.980469 429.011719 "/>
<path style="fill-rule:nonzero;fill:rgb(0%,0%,0%);fill-opacity:1;stroke-width:0.708661;stroke-linecap:round;stroke-linejoin:round;stroke:rgb(0%,0%,0%);stroke-opacity:1;stroke-miterlimit:10;" d="M 331.691406 429.011719 C 331.691406 433.75 324.578125 433.75 324.578125 429.011719 C 324.578125 424.269531 331.691406 424.269531 331.691406 429.011719 "/>
<path style="fill-rule:nonzero;fill:rgb(0%,0%,0%);fill-opacity:1;stroke-width:0.708661;stroke-linecap:round;stroke-linejoin:round;stroke:rgb(0%,0%,0%);stroke-opacity:1;stroke-miterlimit:10;" d="M 401.398438 429.011719 C 401.398438 433.75 394.289062 433.75 394.289062 429.011719 C 394.289062 424.269531 401.398438 424.269531 401.398438 429.011719 "/>
<path style="fill-rule:nonzero;fill:rgb(0%,0%,0%);fill-opacity:1;stroke-width:0.708661;stroke-linecap:round;stroke-linejoin:round;stroke:rgb(0%,0%,0%);stroke-opacity:1;stroke-miterlimit:10;" d="M 471.105469 429.011719 C 471.105469 433.75 463.996094 433.75 463.996094 429.011719 C 463.996094 424.269531 471.105469 424.269531 471.105469 429.011719 "/>
<path style="fill-rule:nonzero;fill:rgb(0%,0%,0%);fill-opacity:1;stroke-width:0.708661;stroke-linecap:round;stroke-linejoin:round;stroke:rgb(0%,0%,0%);stroke-opacity:1;stroke-miterlimit:10;" d="M 540.816406 429.011719 C 540.816406 433.75 533.703125 433.75 533.703125 429.011719 C 533.703125 424.269531 540.816406 424.269531 540.816406 429.011719 "/>
<path style="fill-rule:nonzero;fill:rgb(0%,0%,0%);fill-opacity:1;stroke-width:0.708661;stroke-linecap:round;stroke-linejoin:round;stroke:rgb(0%,0%,0%);stroke-opacity:1;stroke-miterlimit:10;" d="M 610.523438 429.011719 C 610.523438 433.75 603.414062 433.75 603.414062 429.011719 C 603.414062 424.269531 610.523438 424.269531 610.523438 429.011719 "/>
<path style="fill-rule:nonzero;fill:rgb(0%,0%,0%);fill-opacity:1;stroke-width:0.708661;stroke-linecap:round;stroke-linejoin:round;stroke:rgb(0%,0%,0%);stroke-opacity:1;stroke-miterlimit:10;" d="M 680.230469 429.011719 C 680.230469 433.75 673.121094 433.75 673.121094 429.011719 C 673.121094 424.269531 680.230469 424.269531 680.230469 429.011719 "/>
<path style="fill-rule:nonzero;fill:rgb(0%,0%,0%);fill-opacity:1;stroke-width:0.708661;stroke-linecap:round;stroke-linejoin:round;stroke:rgb(0%,0%,0%);stroke-opacity:1;stroke-miterlimit:10;" d="M 52.855469 504.839844 C 52.855469 509.578125 45.746094 509.578125 45.746094 504.839844 C 45.746094 500.097656 52.855469 500.097656 52.855469 504.839844 "/>
<path style="fill-rule:nonzero;fill:rgb(0%,0%,0%);fill-opacity:1;stroke-width:0.708661;stroke-linecap:round;stroke-linejoin:round;stroke:rgb(0%,0%,0%);stroke-opacity:1;stroke-miterlimit:10;" d="M 122.566406 504.839844 C 122.566406 509.578125 115.453125 509.578125 115.453125 504.839844 C 115.453125 500.097656 122.566406 500.097656 122.566406 504.839844 "/>
<path style="fill-rule:nonzero;fill:rgb(0%,0%,0%);fill-opacity:1;stroke-width:0.708661;stroke-linecap:round;stroke-linejoin:round;stroke:rgb(0%,0%,0%);stroke-opacity:1;stroke-miterlimit:10;" d="M 192.273438 504.839844 C 192.273438 509.578125 185.164062 509.578125 185.164062 504.839844 C 185.164062 500.097656 192.273438 500.097656 192.273438 504.839844 "/>
<path style="fill-rule:nonzero;fill:rgb(0%,0%,0%);fill-opacity:1;stroke-width:0.708661;stroke-linecap:round;stroke-linejoin:round;stroke:rgb(0%,0%,0%);stroke-opacity:1;stroke-miterlimit:10;" d="M 261.980469 504.839844 C 261.980469 509.578125 254.871094 509.578125 254.871094 504.839844 C 254.871094 500.097656 261.980469 500.097656 261.980469 504.839844 "/>
<path style="fill-rule:nonzero;fill:rgb(0%,0%,0%);fill-opacity:1;stroke-width:0.708661;stroke-linecap:round;stroke-linejoin:round;stroke:rgb(0%,0%,0%);stroke-opacity:1;stroke-miterlimit:10;" d="M 331.691406 504.839844 C 331.691406 509.578125 324.578125 509.578125 324.578125 504.839844 C 324.578125 500.097656 331.691406 500.097656 331.691406 504.839844 "/>
<path style="fill-rule:nonzero;fill:rgb(0%,0%,0%);fill-opacity:1;stroke-width:0.708661;stroke-linecap:round;stroke-linejoin:round;stroke:rgb(0%,0%,0%);stroke-opacity:1;stroke-miterlimit:10;" d="M 401.398438 504.839844 C 401.398438 509.578125 394.289062 509.578125 394.289062 504.839844 C 394.289062 500.097656 401.398438 500.097656 401.398438 504.839844 "/>
<path style="fill-rule:nonzero;fill:rgb(0%,0%,0%);fill-opacity:1;stroke-width:0.708661;stroke-linecap:round;stroke-linejoin:round;stroke:rgb(0%,0%,0%);stroke-opacity:1;stroke-miterlimit:10;" d="M 471.105469 504.839844 C 471.105469 509.578125 463.996094 509.578125 463.996094 504.839844 C 463.996094 500.097656 471.105469 500.097656 471.105469 504.839844 "/>
<path style="fill-rule:nonzero;fill:rgb(0%,0%,0%);fill-opacity:1;stroke-width:0.708661;stroke-linecap:round;stroke-linejoin:round;stroke:rgb(0%,0%,0%);stroke-opacity:1;stroke-miterlimit:10;" d="M 540.816406 504.839844 C 540.816406 509.578125 533.703125 509.578125 533.703125 504.839844 C 533.703125 500.097656 540.816406 500.097656 540.816406 504.839844 "/>
<path style="fill-rule:nonzero;fill:rgb(0%,0%,0%);fill-opacity:1;stroke-width:0.708661;stroke-linecap:round;stroke-linejoin:round;stroke:rgb(0%,0%,0%);stroke-opacity:1;stroke-miterlimit:10;" d="M 610.523438 504.839844 C 610.523438 509.578125 603.414062 509.578125 603.414062 504.839844 C 603.414062 500.097656 610.523438 500.097656 610.523438 504.839844 "/>
<path style="fill-rule:nonzero;fill:rgb(0%,0%,0%);fill-opacity:1;stroke-width:0.708661;stroke-linecap:round;stroke-linejoin:round;stroke:rgb(0%,0%,0%);stroke-opacity:1;stroke-miterlimit:10;" d="M 680.230469 504.839844 C 680.230469 509.578125 673.121094 509.578125 673.121094 504.839844 C 673.121094 500.097656 680.230469 500.097656 680.230469 504.839844 "/>
<path style="fill-rule:nonzero;fill:rgb(0%,0%,0%);fill-opacity:1;stroke-width:0.708661;stroke-linecap:round;stroke-linejoin:round;stroke:rgb(0%,0%,0%);stroke-opacity:1;stroke-miterlimit:10;" d="M 52.855469 580.667969 C 52.855469 585.410156 45.746094 585.410156 45.746094 580.667969 C 45.746094 575.925781 52.855469 575.925781 52.855469 580.667969 "/>
<path style="fill-rule:nonzero;fill:rgb(0%,0%,0%);fill-opacity:1;stroke-width:0.708661;stroke-linecap:round;stroke-linejoin:round;stroke:rgb(0%,0%,0%);stroke-opacity:1;stroke-miterlimit:10;" d="M 122.566406 580.667969 C 122.566406 585.410156 115.453125 585.410156 115.453125 580.667969 C 115.453125 575.925781 122.566406 575.925781 122.566406 580.667969 "/>
<path style="fill-rule:nonzero;fill:rgb(0%,0%,0%);fill-opacity:1;stroke-width:0.708661;stroke-linecap:round;stroke-linejoin:round;stroke:rgb(0%,0%,0%);stroke-opacity:1;stroke-miterlimit:10;" d="M 192.273438 580.667969 C 192.273438 585.410156 185.164062 585.410156 185.164062 580.667969 C 185.164062 575.925781 192.273438 575.925781 192.273438 580.667969 "/>
<path style="fill-rule:nonzero;fill:rgb(0%,0%,0%);fill-opacity:1;stroke-width:0.708661;stroke-linecap:round;stroke-linejoin:round;stroke:rgb(0%,0%,0%);stroke-opacity:1;stroke-miterlimit:10;" d="M 261.980469 580.667969 C 261.980469 585.410156 254.871094 585.410156 254.871094 580.667969 C 254.871094 575.925781 261.980469 575.925781 261.980469 580.667969 "/>
<path style="fill-rule:nonzero;fill:rgb(0%,0%,0%);fill-opacity:1;stroke-width:0.708661;stroke-linecap:round;stroke-linejoin:round;stroke:rgb(0%,0%,0%);stroke-opacity:1;stroke-miterlimit:10;" d="M 331.691406 580.667969 C 331.691406 585.410156 324.578125 585.410156 324.578125 580.667969 C 324.578125 575.925781 331.691406 575.925781 331.691406 580.667969 "/>
<path style="fill-rule:nonzero;fill:rgb(0%,0%,0%);fill-opacity:1;stroke-width:0.708661;stroke-linecap:round;stroke-linejoin:round;stroke:rgb(0%,0%,0%);stroke-opacity:1;stroke-miterlimit:10;" d="M 401.398438 580.667969 C 401.398438 585.410156 394.289062 585.410156 394.289062 580.667969 C 394.289062 575.925781 401.398438 575.925781 401.398438 580.667969 "/>
<path style="fill-rule:nonzero;fill:rgb(0%,0%,0%);fill-opacity:1;stroke-width:0.708661;stroke-linecap:round;stroke-linejoin:round;stroke:rgb(0%,0%,0%);stroke-opacity:1;stroke-miterlimit:10;" d="M 471.105469 580.667969 C 471.105469 585.410156 463.996094 585.410156 463.996094 580.667969 C 463.996094 575.925781 471.105469 575.925781 471.105469 580.667969 "/>
<path style="fill-rule:nonzero;fill:rgb(0%,0%,0%);fill-opacity:1;stroke-width:0.708661;stroke-linecap:round;stroke-linejoin:round;stroke:rgb(0%,0%,0%);stroke-opacity:1;stroke-miterlimit:10;" d="M 540.816406 580.667969 C 540.816406 585.410156 533.703125 585.410156 533.703125 580.667969 C 533.703125 575.925781 540.816406 575.925781 540.816406 580.667969 "/>
<path style="fill-rule:nonzero;fill:rgb(0%,0%,0%);fill-opacity:1;stroke-width:0.708661;stroke-linecap:round;stroke-linejoin:round;stroke:rgb(0%,0%,0%);stroke-opacity:1;stroke-miterlimit:10;" d="M 610.523438 580.667969 C 610.523438 585.410156 603.414062 585.410156 603.414062 580.667969 C 603.414062 575.925781 610.523438 575.925781 610.523438 580.667969 "/>
<path style="fill-rule:nonzero;fill:rgb(0%,0%,0%);fill-opacity:1;stroke-width:0.708661;stroke-linecap:round;stroke-linejoin:round;stroke:rgb(0%,0%,0%);stroke-opacity:1;stroke-miterlimit:10;" d="M 680.230469 580.667969 C 680.230469 585.410156 673.121094 585.410156 673.121094 580.667969 C 673.121094 575.925781 680.230469 575.925781 680.230469 580.667969 "/>
<path style="fill-rule:nonzero;fill:rgb(0%,0%,0%);fill-opacity:1;stroke-width:0.708661;stroke-linecap:round;stroke-linejoin:round;stroke:rgb(0%,0%,0%);stroke-opacity:1;stroke-miterlimit:10;" d="M 52.855469 656.496094 C 52.855469 661.238281 45.746094 661.238281 45.746094 656.496094 C 45.746094 651.757812 52.855469 651.757812 52.855469 656.496094 "/>
<path style="fill-rule:nonzero;fill:rgb(0%,0%,0%);fill-opacity:1;stroke-width:0.708661;stroke-linecap:round;stroke-linejoin:round;stroke:rgb(0%,0%,0%);stroke-opacity:1;stroke-miterlimit:10;" d="M 122.566406 656.496094 C 122.566406 661.238281 115.453125 661.238281 115.453125 656.496094 C 115.453125 651.757812 122.566406 651.757812 122.566406 656.496094 "/>
<path style="fill-rule:nonzero;fill:rgb(0%,0%,0%);fill-opacity:1;stroke-width:0.708661;stroke-linecap:round;stroke-linejoin:round;stroke:rgb(0%,0%,0%);stroke-opacity:1;stroke-miterlimit:10;" d="M 192.273438 656.496094 C 192.273438 661.238281 185.164062 661.238281 185.164062 656.496094 C 185.164062 651.757812 192.273438 651.757812 192.273438 656.496094 "/>
<path style="fill-rule:nonzero;fill:rgb(0%,0%,0%);fill-opacity:1;stroke-width:0.708661;stroke-linecap:round;stroke-linejoin:round;stroke:rgb(0%,0%,0%);stroke-opacity:1;stroke-miterlimit:10;" d="M 261.980469 656.496094 C 261.980469 661.238281 254.871094 661.238281 254.871094 656.496094 C 254.871094 651.757812 261.980469 651.757812 261.980469 656.496094 "/>
<path style="fill-rule:nonzero;fill:rgb(0%,0%,0%);fill-opacity:1;stroke-width:0.708661;stroke-linecap:round;stroke-linejoin:round;stroke:rgb(0%,0%,0%);stroke-opacity:1;stroke-miterlimit:10;" d="M 331.691406 656.496094 C 331.691406 661.238281 324.578125 661.238281 324.578125 656.496094 C 324.578125 651.757812 331.691406 651.757812 331.691406 656.496094 "/>
<path style="fill-rule:nonzero;fill:rgb(0%,0%,0%);fill-opacity:1;stroke-width:0.708661;stroke-linecap:round;stroke-linejoin:round;stroke:rgb(0%,0%,0%);stroke-opacity:1;stroke-miterlimit:10;" d="M 401.398438 656.496094 C 401.398438 661.238281 394.289062 661.238281 394.289062 656.496094 C 394.289062 651.757812 401.398438 651.757812 401.398438 656.496094 "/>
<path style="fill-rule:nonzero;fill:rgb(0%,0%,0%);fill-opacity:1;stroke-width:0.708661;stroke-linecap:round;stroke-linejoin:round;stroke:rgb(0%,0%,0%);stroke-opacity:1;stroke-miterlimit:10;" d="M 471.105469 656.496094 C 471.105469 661.238281 463.996094 661.238281 463.996094 656.496094 C 463.996094 651.757812 471.105469 651.757812 471.105469 656.496094 "/>
<path style="fill-rule:nonzero;fill:rgb(0%,0%,0%);fill-opacity:1;stroke-width:0.708661;stroke-linecap:round;stroke-linejoin:round;stroke:rgb(0%,0%,0%);stroke-opacity:1;stroke-miterlimit:10;" d="M 540.816406 656.496094 C 540.816406 661.238281 533.703125 661.238281 533.703125 656.496094 C 533.703125 651.757812 540.816406 651.757812 540.816406 656.496094 "/>
<path style="fill-rule:nonzero;fill:rgb(0%,0%,0%);fill-opacity:1;stroke-width:0.708661;stroke-linecap:round;stroke-linejoin:round;stroke:rgb(0%,0%,0%);stroke-opacity:1;stroke-miterlimit:10;" d="M 610.523438 656.496094 C 610.523438 661.238281 603.414062 661.238281 603.414062 656.496094 C 603.414062 651.757812 610.523438 651.757812 610.523438 656.496094 "/>
<path style="fill-rule:nonzero;fill:rgb(0%,0%,0%);fill-opacity:1;stroke-width:0.708661;stroke-linecap:round;stroke-linejoin:round;stroke:rgb(0%,0%,0%);stroke-opacity:1;stroke-miterlimit:10;" d="M 680.230469 656.496094 C 680.230469 661.238281 673.121094 661.238281 673.121094 656.496094 C 673.121094 651.757812 680.230469 651.757812 680.230469 656.496094 "/>
<path style="fill-rule:nonzero;fill:rgb(0%,0%,0%);fill-opacity:1;stroke-width:0.708661;stroke-linecap:round;stroke-linejoin:round;stroke:rgb(0%,0%,0%);stroke-opacity:1;stroke-miterlimit:10;" d="M 52.855469 732.324219 C 52.855469 737.066406 45.746094 737.066406 45.746094 732.324219 C 45.746094 727.585938 52.855469 727.585938 52.855469 732.324219 "/>
<path style="fill-rule:nonzero;fill:rgb(0%,0%,0%);fill-opacity:1;stroke-width:0.708661;stroke-linecap:round;stroke-linejoin:round;stroke:rgb(0%,0%,0%);stroke-opacity:1;stroke-miterlimit:10;" d="M 122.566406 732.324219 C 122.566406 737.066406 115.453125 737.066406 115.453125 732.324219 C 115.453125 727.585938 122.566406 727.585938 122.566406 732.324219 "/>
<path style="fill-rule:nonzero;fill:rgb(0%,0%,0%);fill-opacity:1;stroke-width:0.708661;stroke-linecap:round;stroke-linejoin:round;stroke:rgb(0%,0%,0%);stroke-opacity:1;stroke-miterlimit:10;" d="M 192.273438 732.324219 C 192.273438 737.066406 185.164062 737.066406 185.164062 732.324219 C 185.164062 727.585938 192.273438 727.585938 192.273438 732.324219 "/>
<path style="fill-rule:nonzero;fill:rgb(0%,0%,0%);fill-opacity:1;stroke-width:0.708661;stroke-linecap:round;stroke-linejoin:round;stroke:rgb(0%,0%,0%);stroke-opacity:1;stroke-miterlimit:10;" d="M 261.980469 732.324219 C 261.980469 737.066406 254.871094 737.066406 254.871094 732.324219 C 254.871094 727.585938 261.980469 727.585938 261.980469 732.324219 "/>
<path style="fill-rule:nonzero;fill:rgb(0%,0%,0%);fill-opacity:1;stroke-width:0.708661;stroke-linecap:round;stroke-linejoin:round;stroke:rgb(0%,0%,0%);stroke-opacity:1;stroke-miterlimit:10;" d="M 331.691406 732.324219 C 331.691406 737.066406 324.578125 737.066406 324.578125 732.324219 C 324.578125 727.585938 331.691406 727.585938 331.691406 732.324219 "/>
<path style="fill-rule:nonzero;fill:rgb(0%,0%,0%);fill-opacity:1;stroke-width:0.708661;stroke-linecap:round;stroke-linejoin:round;stroke:rgb(0%,0%,0%);stroke-opacity:1;stroke-miterlimit:10;" d="M 401.398438 732.324219 C 401.398438 737.066406 394.289062 737.066406 394.289062 732.324219 C 394.289062 727.585938 401.398438 727.585938 401.398438 732.324219 "/>
<path style="fill-rule:nonzero;fill:rgb(0%,0%,0%);fill-opacity:1;stroke-width:0.708661;stroke-linecap:round;stroke-linejoin:round;stroke:rgb(0%,0%,0%);stroke-opacity:1;stroke-miterlimit:10;" d="M 471.105469 732.324219 C 471.105469 737.066406 463.996094 737.066406 463.996094 732.324219 C 463.996094 727.585938 471.105469 727.585938 471.105469 732.324219 "/>
<path style="fill-rule:nonzero;fill:rgb(0%,0%,0%);fill-opacity:1;stroke-width:0.708661;stroke-linecap:round;stroke-linejoin:round;stroke:rgb(0%,0%,0%);stroke-opacity:1;stroke-miterlimit:10;" d="M 540.816406 732.324219 C 540.816406 737.066406 533.703125 737.066406 533.703125 732.324219 C 533.703125 727.585938 540.816406 727.585938 540.816406 732.324219 "/>
<path style="fill-rule:nonzero;fill:rgb(0%,0%,0%);fill-opacity:1;stroke-width:0.708661;stroke-linecap:round;stroke-linejoin:round;stroke:rgb(0%,0%,0%);stroke-opacity:1;stroke-miterlimit:10;" d="M 610.523438 732.324219 C 610.523438 737.066406 603.414062 737.066406 603.414062 732.324219 C 603.414062 727.585938 610.523438 727.585938 610.523438 732.324219 "/>
<path style="fill-rule:nonzero;fill:rgb(0%,0%,0%);fill-opacity:1;stroke-width:0.708661;stroke-linecap:round;stroke-linejoin:round;stroke:rgb(0%,0%,0%);stroke-opacity:1;stroke-miterlimit:10;" d="M 680.230469 732.324219 C 680.230469 737.066406 673.121094 737.066406 673.121094 732.324219 C 673.121094 727.585938 680.230469 727.585938 680.230469 732.324219 "/>
<path style="fill-rule:nonzero;fill:rgb(0%,0%,0%);fill-opacity:1;stroke-width:0.708661;stroke-linecap:round;stroke-linejoin:round;stroke:rgb(0%,0%,0%);stroke-opacity:1;stroke-miterlimit:10;" d="M 52.855469 808.152344 C 52.855469 812.894531 45.746094 812.894531 45.746094 808.152344 C 45.746094 803.414062 52.855469 803.414062 52.855469 808.152344 "/>
<path style="fill-rule:nonzero;fill:rgb(0%,0%,0%);fill-opacity:1;stroke-width:0.708661;stroke-linecap:round;stroke-linejoin:round;stroke:rgb(0%,0%,0%);stroke-opacity:1;stroke-miterlimit:10;" d="M 122.566406 808.152344 C 122.566406 812.894531 115.453125 812.894531 115.453125 808.152344 C 115.453125 803.414062 122.566406 803.414062 122.566406 808.152344 "/>
<path style="fill-rule:nonzero;fill:rgb(0%,0%,0%);fill-opacity:1;stroke-width:0.708661;stroke-linecap:round;stroke-linejoin:round;stroke:rgb(0%,0%,0%);stroke-opacity:1;stroke-miterlimit:10;" d="M 192.273438 808.152344 C 192.273438 812.894531 185.164062 812.894531 185.164062 808.152344 C 185.164062 803.414062 192.273438 803.414062 192.273438 808.152344 "/>
<path style="fill-rule:nonzero;fill:rgb(0%,0%,0%);fill-opacity:1;stroke-width:0.708661;stroke-linecap:round;stroke-linejoin:round;stroke:rgb(0%,0%,0%);stroke-opacity:1;stroke-miterlimit:10;" d="M 261.980469 808.152344 C 261.980469 812.894531 254.871094 812.894531 254.871094 808.152344 C 254.871094 803.414062 261.980469 803.414062 261.980469 808.152344 "/>
<path style="fill-rule:nonzero;fill:rgb(0%,0%,0%);fill-opacity:1;stroke-width:0.708661;stroke-linecap:round;stroke-linejoin:round;stroke:rgb(0%,0%,0%);stroke-opacity:1;stroke-miterlimit:10;" d="M 331.691406 808.152344 C 331.691406 812.894531 324.578125 812.894531 324.578125 808.152344 C 324.578125 803.414062 331.691406 803.414062 331.691406 808.152344 "/>
<path style="fill-rule:nonzero;fill:rgb(0%,0%,0%);fill-opacity:1;stroke-width:0.708661;stroke-linecap:round;stroke-linejoin:round;stroke:rgb(0%,0%,0%);stroke-opacity:1;stroke-miterlimit:10;" d="M 401.398438 808.152344 C 401.398438 812.894531 394.289062 812.894531 394.289062 808.152344 C 394.289062 803.414062 401.398438 803.414062 401.398438 808.152344 "/>
<path style="fill-rule:nonzero;fill:rgb(0%,0%,0%);fill-opacity:1;stroke-width:0.708661;stroke-linecap:round;stroke-linejoin:round;stroke:rgb(0%,0%,0%);stroke-opacity:1;stroke-miterlimit:10;" d="M 471.105469 808.152344 C 471.105469 812.894531 463.996094 812.894531 463.996094 808.152344 C 463.996094 803.414062 471.105469 803.414062 471.105469 808.152344 "/>
<path style="fill-rule:nonzero;fill:rgb(0%,0%,0%);fill-opacity:1;stroke-width:0.708661;stroke-linecap:round;stroke-linejoin:round;stroke:rgb(0%,0%,0%);stroke-opacity:1;stroke-miterlimit:10;" d="M 540.816406 808.152344 C 540.816406 812.894531 533.703125 812.894531 533.703125 808.152344 C 533.703125 803.414062 540.816406 803.414062 540.816406 808.152344 "/>
<path style="fill-rule:nonzero;fill:rgb(0%,0%,0%);fill-opacity:1;stroke-width:0.708661;stroke-linecap:round;stroke-linejoin:round;stroke:rgb(0%,0%,0%);stroke-opacity:1;stroke-miterlimit:10;" d="M 610.523438 808.152344 C 610.523438 812.894531 603.414062 812.894531 603.414062 808.152344 C 603.414062 803.414062 610.523438 803.414062 610.523438 808.152344 "/>
<path style="fill-rule:nonzero;fill:rgb(0%,0%,0%);fill-opacity:1;stroke-width:0.708661;stroke-linecap:round;stroke-linejoin:round;stroke:rgb(0%,0%,0%);stroke-opacity:1;stroke-miterlimit:10;" d="M 680.230469 808.152344 C 680.230469 812.894531 673.121094 812.894531 673.121094 808.152344 C 673.121094 803.414062 680.230469 803.414062 680.230469 808.152344 "/>
<g clip-path="url(#clip2)" clip-rule="nonzero">
<path style="fill:none;stroke-width:2.327953;stroke-linecap:round;stroke-linejoin:round;stroke:rgb(20%,20%,20%);stroke-opacity:1;stroke-miterlimit:10;" d="M 17.933594 846.066406 L 708.046875 846.066406 L 708.046875 11.953125 L 17.933594 11.953125 Z M 17.933594 846.066406 "/>
</g>
</g>
</svg>
