<?xml version="1.0" encoding="UTF-8"?>
<svg xmlns="http://www.w3.org/2000/svg" xmlns:xlink="http://www.w3.org/1999/xlink" width="720pt" height="864pt" viewBox="0 0 720 864" version="1.1">
<defs>
<clipPath id="clip1">
  <path d="M 13.449219 8.964844 L 711.035156 8.964844 L 711.035156 850.550781 L 13.449219 850.550781 Z M 13.449219 8.964844 "/>
</clipPath>
<clipPath id="clip2">
  <path d="M 13.449219 8.964844 L 711.035156 8.964844 L 711.035156 850.550781 L 13.449219 850.550781 Z M 13.449219 8.964844 "/>
</clipPath>
</defs>
<g id="surface125">
<rect x="0" y="0" width="720" height="864" style="fill:rgb(100%,100%,100%);fill-opacity:1;stroke:none;"/>
<rect x="0" y="0" width="720" height="864" style="fill:rgb(100%,100%,100%);fill-opacity:1;stroke:none;"/>
<path style="fill:none;stroke-width:1.745965;stroke-linecap:round;stroke-linejoin:round;stroke:rgb(100%,100%,100%);stroke-opacity:1;stroke-miterlimit:10;" d="M 0 864 L 720 864 L 720 0 L 0 0 Z M 0 864 "/>
<g clip-path="url(#clip1)" clip-rule="nonzero">
<path style=" stroke:none;fill-rule:nonzero;fill:rgb(100%,100%,100%);fill-opacity:1;" d="M 13.449219 850.550781 L 711.035156 850.550781 L 711.035156 8.964844 L 13.449219 8.964844 Z M 13.449219 850.550781 "/>
</g>
<path style="fill:none;stroke-width:4.054518;stroke-linecap:butt;stroke-linejoin:round;stroke:rgb(0%,0%,0%);stroke-opacity:1;stroke-miterlimit:1;" d="M 608.863281 47.21875 L 610.996094 49.539062 L 611.710938 50.3125 L 612.421875 51.085938 L 613.132812 51.855469 L 614.554688 53.402344 L 615.269531 54.175781 L 616.691406 55.722656 L 617.402344 56.492188 L 618.113281 57.265625 L 618.828125 58.039062 L 620.960938 60.359375 L 621.671875 61.128906 L 622.386719 61.902344 L 625.230469 64.996094 L 625.945312 65.765625 L 628.078125 68.085938 L 628.792969 68.859375 L 630.214844 70.40625 L 630.925781 71.175781 L 631.636719 71.949219 L 632.351562 72.722656 L 634.484375 75.042969 L 635.195312 75.8125 L 635.910156 76.585938 L 638.753906 79.679688 L 639.46875 80.449219 L 642.3125 83.542969 L 643.027344 84.316406 L 643.738281 85.085938 L 645.160156 86.632812 L 645.875 87.40625 L 647.296875 88.953125 L 648.007812 89.722656 L 648.71875 90.496094 L 649.433594 91.269531 L 651.566406 93.589844 L 652.277344 94.359375 L 652.992188 95.132812 L 655.835938 98.226562 L 656.550781 99 L 657.261719 99.769531 L 659.394531 102.089844 L 660.109375 102.863281 L 660.820312 103.636719 L 661.53125 104.40625 L 662.953125 105.953125 L 663.667969 106.726562 L 665.089844 108.273438 L 665.800781 109.042969 L 666.515625 109.816406 L 669.359375 112.910156 L 670.074219 113.679688 L 672.917969 116.773438 L 673.632812 117.546875 L 674.34375 118.316406 L 676.476562 120.636719 L 677.191406 121.410156 L 677.902344 122.183594 L 678.613281 122.953125 L 679.324219 123.726562 "/>
<path style="fill:none;stroke-width:4.054518;stroke-linecap:butt;stroke-linejoin:round;stroke:rgb(0%,0%,0%);stroke-opacity:1;stroke-miterlimit:1;" d="M 679.324219 735.789062 L 679.324219 812.296875 "/>
<path style="fill:none;stroke-width:4.054518;stroke-linecap:butt;stroke-linejoin:round;stroke:rgb(0%,0%,0%);stroke-opacity:1;stroke-miterlimit:1;" d="M 679.324219 123.726562 L 676.476562 124.5 L 673.632812 125.273438 L 665.089844 127.59375 L 662.242188 128.363281 L 659.394531 129.136719 L 656.550781 129.910156 L 648.007812 132.230469 L 645.160156 133 L 642.3125 133.773438 L 639.46875 134.546875 L 630.925781 136.867188 L 628.078125 137.636719 L 625.230469 138.410156 L 622.386719 139.183594 L 613.84375 141.503906 L 610.996094 142.273438 L 608.152344 143.046875 L 596.761719 146.140625 L 593.914062 146.910156 L 591.070312 147.683594 L 579.679688 150.777344 L 576.832031 151.546875 L 573.988281 152.320312 L 559.75 156.1875 L 556.90625 156.957031 L 542.667969 160.824219 L 539.824219 161.59375 L 525.585938 165.460938 L 522.742188 166.230469 L 508.503906 170.097656 L 505.660156 170.867188 L 491.421875 174.734375 L 488.578125 175.503906 L 477.1875 178.597656 L 474.34375 179.371094 L 471.496094 180.140625 L 460.105469 183.234375 L 457.261719 184.007812 L 454.414062 184.78125 L 451.566406 185.550781 L 443.023438 187.871094 L 440.179688 188.644531 L 437.332031 189.417969 L 434.484375 190.1875 L 425.941406 192.507812 L 423.097656 193.28125 L 420.25 194.054688 L 417.402344 194.824219 L 408.859375 197.144531 L 406.015625 197.917969 L 403.167969 198.691406 L 400.320312 199.460938 L 397.472656 200.234375 "/>
<path style="fill:none;stroke-width:4.054518;stroke-linecap:butt;stroke-linejoin:round;stroke:rgb(0%,0%,0%);stroke-opacity:1;stroke-miterlimit:1;" d="M 679.324219 123.726562 L 677.191406 126.046875 L 676.476562 126.820312 L 675.765625 127.59375 L 675.054688 128.363281 L 673.632812 129.910156 L 672.917969 130.683594 L 671.496094 132.230469 L 670.785156 133 L 670.074219 133.773438 L 669.359375 134.546875 L 667.226562 136.867188 L 666.515625 137.636719 L 665.800781 138.410156 L 663.667969 140.730469 L 662.953125 141.503906 L 662.242188 142.273438 L 660.109375 144.59375 L 659.394531 145.367188 L 658.683594 146.140625 L 657.972656 146.910156 L 656.550781 148.457031 L 655.835938 149.230469 L 654.414062 150.777344 L 653.703125 151.546875 L 652.992188 152.320312 L 652.277344 153.09375 L 649.433594 156.1875 L 648.71875 156.957031 L 645.875 160.050781 L 645.160156 160.824219 L 644.449219 161.59375 L 643.027344 163.140625 L 642.3125 163.914062 L 640.890625 165.460938 L 640.179688 166.230469 L 639.46875 167.003906 L 638.753906 167.777344 L 636.621094 170.097656 L 635.910156 170.867188 L 635.195312 171.640625 L 632.351562 174.734375 L 631.636719 175.503906 L 628.792969 178.597656 L 628.078125 179.371094 L 627.367188 180.140625 L 625.945312 181.6875 L 625.230469 182.460938 L 623.097656 184.78125 L 622.386719 185.550781 L 621.671875 186.324219 L 618.828125 189.417969 L 618.113281 190.1875 L 615.269531 193.28125 L 614.554688 194.054688 L 613.84375 194.824219 L 611.710938 197.144531 L 610.996094 197.917969 L 610.285156 198.691406 L 609.574219 199.460938 L 608.863281 200.234375 "/>
<path style="fill:none;stroke-width:4.054518;stroke-linecap:butt;stroke-linejoin:round;stroke:rgb(0%,0%,0%);stroke-opacity:1;stroke-miterlimit:1;" d="M 397.472656 200.234375 L 396.050781 201.007812 L 394.625 201.78125 L 393.203125 202.554688 L 391.777344 203.328125 L 390.355469 204.097656 L 388.933594 204.871094 L 387.507812 205.644531 L 386.085938 206.417969 L 384.660156 207.191406 L 381.816406 208.738281 L 380.390625 209.507812 L 378.96875 210.28125 L 377.542969 211.054688 L 376.121094 211.828125 L 374.695312 212.601562 L 373.273438 213.375 L 371.851562 214.144531 L 370.425781 214.917969 L 369.003906 215.691406 L 367.578125 216.464844 L 364.734375 218.011719 L 363.308594 218.78125 L 361.886719 219.554688 L 360.460938 220.328125 L 359.039062 221.101562 L 357.613281 221.875 L 356.191406 222.648438 L 354.769531 223.417969 L 353.34375 224.191406 L 351.921875 224.964844 L 350.496094 225.738281 L 347.652344 227.285156 L 346.226562 228.054688 L 344.804688 228.828125 L 343.378906 229.601562 L 340.535156 231.148438 L 339.109375 231.921875 L 337.6875 232.691406 L 336.261719 233.464844 L 334.839844 234.238281 L 333.414062 235.011719 L 330.570312 236.558594 L 329.144531 237.332031 L 327.722656 238.101562 L 326.296875 238.875 L 323.453125 240.421875 L 322.027344 241.195312 L 320.605469 241.96875 L 319.179688 242.738281 L 317.757812 243.511719 L 316.332031 244.285156 L 313.488281 245.832031 L 312.0625 246.605469 L 310.640625 247.375 L 309.214844 248.148438 L 306.371094 249.695312 L 304.945312 250.46875 L 303.523438 251.242188 L 302.097656 252.011719 L 300.675781 252.785156 L 299.25 253.558594 L 296.40625 255.105469 L 294.980469 255.878906 L 293.558594 256.648438 L 292.132812 257.421875 L 289.289062 258.96875 L 287.863281 259.742188 L 286.441406 260.515625 L 285.015625 261.285156 L 282.171875 262.832031 L 280.746094 263.605469 L 279.324219 264.378906 L 277.898438 265.152344 L 276.476562 265.925781 L 275.050781 266.695312 L 272.207031 268.242188 L 270.78125 269.015625 L 269.359375 269.789062 L 267.933594 270.5625 L 266.511719 271.332031 L 265.089844 272.105469 L 263.664062 272.878906 L 262.242188 273.652344 L 260.816406 274.425781 L 259.394531 275.199219 L 257.96875 275.96875 L 256.546875 276.742188 "/>
<path style="fill:none;stroke-width:4.054518;stroke-linecap:butt;stroke-linejoin:round;stroke:rgb(0%,0%,0%);stroke-opacity:1;stroke-miterlimit:1;" d="M 608.863281 200.234375 L 608.152344 201.007812 L 607.4375 201.78125 L 606.015625 203.328125 L 605.304688 204.097656 L 604.589844 204.871094 L 601.746094 207.964844 L 601.03125 208.738281 L 600.320312 209.507812 L 598.1875 211.828125 L 597.472656 212.601562 L 596.761719 213.375 L 596.050781 214.144531 L 594.628906 215.691406 L 593.914062 216.464844 L 592.492188 218.011719 L 591.78125 218.78125 L 591.070312 219.554688 L 590.355469 220.328125 L 588.222656 222.648438 L 587.511719 223.417969 L 586.796875 224.191406 L 584.664062 226.511719 L 583.949219 227.285156 L 583.238281 228.054688 L 581.105469 230.375 L 580.390625 231.148438 L 579.679688 231.921875 L 578.96875 232.691406 L 577.546875 234.238281 L 576.832031 235.011719 L 574.699219 237.332031 L 573.988281 238.101562 L 573.273438 238.875 L 570.429688 241.96875 L 569.714844 242.738281 L 567.582031 245.058594 L 566.867188 245.832031 L 566.15625 246.605469 L 565.445312 247.375 L 564.023438 248.921875 L 563.308594 249.695312 L 561.886719 251.242188 L 561.175781 252.011719 L 560.464844 252.785156 L 559.75 253.558594 L 557.617188 255.878906 L 556.90625 256.648438 L 556.191406 257.421875 L 553.347656 260.515625 L 552.632812 261.285156 L 549.789062 264.378906 L 549.074219 265.152344 L 548.363281 265.925781 L 547.652344 266.695312 L 546.941406 267.46875 L 546.226562 268.242188 L 544.09375 270.5625 L 543.382812 271.332031 L 542.667969 272.105469 L 539.824219 275.199219 L 539.109375 275.96875 L 538.398438 276.742188 "/>
<path style="fill:none;stroke-width:4.054518;stroke-linecap:butt;stroke-linejoin:round;stroke:rgb(0%,0%,0%);stroke-opacity:1;stroke-miterlimit:1;" d="M 256.546875 276.742188 L 255.125 277.515625 L 253.699219 278.289062 L 252.277344 279.0625 L 250.851562 279.835938 L 249.429688 280.605469 L 248.007812 281.378906 L 246.582031 282.152344 L 245.160156 282.925781 L 243.734375 283.699219 L 242.3125 284.472656 L 240.886719 285.242188 L 238.042969 286.789062 L 236.617188 287.5625 L 235.195312 288.335938 L 233.769531 289.109375 L 232.347656 289.878906 L 230.925781 290.652344 L 229.5 291.425781 L 228.078125 292.199219 L 226.652344 292.972656 L 225.230469 293.746094 L 223.804688 294.519531 L 222.382812 295.289062 L 220.960938 296.0625 L 219.535156 296.835938 L 218.113281 297.609375 L 216.6875 298.382812 L 215.265625 299.15625 L 213.84375 299.925781 L 212.417969 300.699219 L 210.996094 301.472656 L 209.570312 302.246094 L 206.726562 303.792969 L 205.300781 304.5625 L 203.878906 305.335938 L 202.453125 306.109375 L 201.03125 306.882812 L 199.605469 307.65625 L 198.183594 308.429688 L 196.761719 309.199219 L 195.335938 309.972656 L 193.914062 310.746094 L 192.488281 311.519531 L 189.644531 313.066406 L 188.21875 313.835938 L 186.796875 314.609375 L 185.371094 315.382812 L 183.949219 316.15625 L 182.523438 316.929688 L 181.101562 317.703125 L 179.679688 318.472656 L 178.253906 319.246094 L 176.832031 320.019531 L 175.40625 320.792969 L 172.5625 322.339844 L 171.136719 323.113281 L 169.714844 323.882812 L 168.289062 324.65625 L 166.867188 325.429688 L 165.441406 326.203125 L 162.597656 327.75 L 161.171875 328.519531 L 159.75 329.292969 L 158.324219 330.066406 L 155.480469 331.613281 L 154.054688 332.386719 L 152.632812 333.15625 L 151.207031 333.929688 L 148.363281 335.476562 L 146.9375 336.25 L 145.515625 337.023438 L 144.089844 337.792969 L 142.667969 338.566406 L 141.242188 339.339844 L 138.398438 340.886719 L 136.972656 341.660156 L 135.550781 342.429688 L 134.125 343.203125 L 131.28125 344.75 L 129.855469 345.523438 L 128.433594 346.296875 L 127.007812 347.066406 L 125.585938 347.839844 L 124.160156 348.613281 L 121.316406 350.160156 L 119.890625 350.933594 L 118.46875 351.707031 L 117.042969 352.476562 L 115.621094 353.25 "/>
<path style="fill:none;stroke-width:4.054518;stroke-linecap:butt;stroke-linejoin:round;stroke:rgb(0%,0%,0%);stroke-opacity:1;stroke-miterlimit:1;" d="M 538.398438 276.742188 L 538.398438 353.25 "/>
<path style="fill:none;stroke-width:4.054518;stroke-linecap:butt;stroke-linejoin:round;stroke:rgb(0%,0%,0%);stroke-opacity:1;stroke-miterlimit:1;" d="M 115.621094 353.25 L 117.042969 354.023438 L 118.46875 354.796875 L 119.890625 355.570312 L 121.316406 356.34375 L 122.738281 357.113281 L 124.160156 357.886719 L 125.585938 358.660156 L 127.007812 359.433594 L 128.433594 360.207031 L 129.855469 360.980469 L 131.28125 361.75 L 134.125 363.296875 L 135.550781 364.070312 L 136.972656 364.84375 L 138.398438 365.617188 L 139.820312 366.386719 L 141.242188 367.160156 L 142.667969 367.933594 L 144.089844 368.707031 L 145.515625 369.480469 L 146.9375 370.253906 L 148.363281 371.023438 L 151.207031 372.570312 L 152.632812 373.34375 L 154.054688 374.117188 L 155.480469 374.890625 L 156.902344 375.660156 L 158.324219 376.433594 L 159.75 377.207031 L 161.171875 377.980469 L 162.597656 378.753906 L 165.441406 380.300781 L 166.867188 381.070312 L 168.289062 381.84375 L 169.714844 382.617188 L 171.136719 383.390625 L 172.5625 384.164062 L 173.984375 384.9375 L 175.40625 385.707031 L 176.832031 386.480469 L 178.253906 387.253906 L 179.679688 388.027344 L 182.523438 389.574219 L 183.949219 390.34375 L 185.371094 391.117188 L 186.796875 391.890625 L 188.21875 392.664062 L 189.644531 393.4375 L 191.066406 394.210938 L 192.488281 394.980469 L 193.914062 395.753906 L 195.335938 396.527344 L 196.761719 397.300781 L 199.605469 398.847656 L 201.03125 399.617188 L 202.453125 400.390625 L 203.878906 401.164062 L 205.300781 401.9375 L 206.726562 402.710938 L 208.148438 403.484375 L 209.570312 404.253906 L 210.996094 405.027344 L 212.417969 405.800781 L 213.84375 406.574219 L 216.6875 408.121094 L 218.113281 408.894531 L 219.535156 409.664062 L 220.960938 410.4375 L 223.804688 411.984375 L 225.230469 412.757812 L 226.652344 413.53125 L 228.078125 414.300781 L 229.5 415.074219 L 230.925781 415.847656 L 233.769531 417.394531 L 235.195312 418.167969 L 236.617188 418.9375 L 238.042969 419.710938 L 240.886719 421.257812 L 242.3125 422.03125 L 243.734375 422.804688 L 245.160156 423.574219 L 246.582031 424.347656 L 248.007812 425.121094 L 250.851562 426.667969 L 252.277344 427.441406 L 253.699219 428.210938 L 255.125 428.984375 L 256.546875 429.757812 "/>
<path style="fill:none;stroke-width:4.054518;stroke-linecap:butt;stroke-linejoin:round;stroke:rgb(0%,0%,0%);stroke-opacity:1;stroke-miterlimit:1;" d="M 538.398438 353.25 L 539.109375 354.023438 L 539.824219 354.796875 L 541.246094 356.34375 L 541.957031 357.113281 L 542.667969 357.886719 L 543.382812 358.660156 L 545.515625 360.980469 L 546.226562 361.75 L 546.941406 362.523438 L 549.074219 364.84375 L 549.789062 365.617188 L 550.5 366.386719 L 552.632812 368.707031 L 553.347656 369.480469 L 554.058594 370.253906 L 554.769531 371.023438 L 556.191406 372.570312 L 556.90625 373.34375 L 558.328125 374.890625 L 559.039062 375.660156 L 559.75 376.433594 L 560.464844 377.207031 L 563.308594 380.300781 L 564.023438 381.070312 L 566.867188 384.164062 L 567.582031 384.9375 L 568.292969 385.707031 L 569.714844 387.253906 L 570.429688 388.027344 L 571.851562 389.574219 L 572.5625 390.34375 L 573.273438 391.117188 L 573.988281 391.890625 L 576.121094 394.210938 L 576.832031 394.980469 L 577.546875 395.753906 L 580.390625 398.847656 L 581.105469 399.617188 L 583.949219 402.710938 L 584.664062 403.484375 L 585.375 404.253906 L 586.796875 405.800781 L 587.511719 406.574219 L 589.644531 408.894531 L 590.355469 409.664062 L 591.070312 410.4375 L 593.914062 413.53125 L 594.628906 414.300781 L 597.472656 417.394531 L 598.1875 418.167969 L 598.898438 418.9375 L 601.03125 421.257812 L 601.746094 422.03125 L 602.457031 422.804688 L 603.167969 423.574219 L 604.589844 425.121094 L 605.304688 425.894531 L 606.726562 427.441406 L 607.4375 428.210938 L 608.152344 428.984375 L 608.863281 429.757812 "/>
<path style="fill:none;stroke-width:4.054518;stroke-linecap:butt;stroke-linejoin:round;stroke:rgb(0%,0%,0%);stroke-opacity:1;stroke-miterlimit:1;" d="M 256.546875 429.757812 L 257.96875 430.53125 L 259.394531 431.304688 L 260.816406 432.078125 L 262.242188 432.851562 L 263.664062 433.621094 L 265.089844 434.394531 L 267.933594 435.941406 L 269.359375 436.714844 L 270.78125 437.488281 L 272.207031 438.257812 L 275.050781 439.804688 L 276.476562 440.578125 L 277.898438 441.351562 L 279.324219 442.125 L 280.746094 442.894531 L 282.171875 443.667969 L 285.015625 445.214844 L 286.441406 445.988281 L 287.863281 446.761719 L 289.289062 447.53125 L 292.132812 449.078125 L 293.558594 449.851562 L 294.980469 450.625 L 296.40625 451.398438 L 297.828125 452.167969 L 299.25 452.941406 L 300.675781 453.714844 L 302.097656 454.488281 L 303.523438 455.261719 L 304.945312 456.035156 L 306.371094 456.804688 L 309.214844 458.351562 L 310.640625 459.125 L 312.0625 459.898438 L 313.488281 460.671875 L 314.910156 461.445312 L 316.332031 462.214844 L 317.757812 462.988281 L 319.179688 463.761719 L 320.605469 464.535156 L 322.027344 465.308594 L 323.453125 466.082031 L 324.875 466.851562 L 326.296875 467.625 L 327.722656 468.398438 L 329.144531 469.171875 L 330.570312 469.945312 L 331.992188 470.71875 L 333.414062 471.488281 L 334.839844 472.261719 L 336.261719 473.035156 L 337.6875 473.808594 L 339.109375 474.582031 L 340.535156 475.355469 L 341.957031 476.125 L 343.378906 476.898438 L 344.804688 477.671875 L 346.226562 478.445312 L 347.652344 479.21875 L 349.074219 479.992188 L 350.496094 480.761719 L 351.921875 481.535156 L 353.34375 482.308594 L 354.769531 483.082031 L 357.613281 484.628906 L 359.039062 485.398438 L 360.460938 486.171875 L 361.886719 486.945312 L 363.308594 487.71875 L 364.734375 488.492188 L 367.578125 490.039062 L 369.003906 490.808594 L 370.425781 491.582031 L 371.851562 492.355469 L 374.695312 493.902344 L 376.121094 494.675781 L 377.542969 495.445312 L 378.96875 496.21875 L 380.390625 496.992188 L 381.816406 497.765625 L 384.660156 499.3125 L 386.085938 500.082031 L 387.507812 500.855469 L 388.933594 501.628906 L 391.777344 503.175781 L 393.203125 503.949219 L 394.625 504.71875 L 396.050781 505.492188 L 397.472656 506.265625 "/>
<path style="fill:none;stroke-width:4.054518;stroke-linecap:butt;stroke-linejoin:round;stroke:rgb(0%,0%,0%);stroke-opacity:1;stroke-miterlimit:1;" d="M 608.863281 429.757812 L 608.863281 506.265625 "/>
<path style="fill:none;stroke-width:4.054518;stroke-linecap:butt;stroke-linejoin:round;stroke:rgb(0%,0%,0%);stroke-opacity:1;stroke-miterlimit:1;" d="M 397.472656 506.265625 L 397.472656 582.773438 "/>
<path style="fill:none;stroke-width:4.054518;stroke-linecap:butt;stroke-linejoin:round;stroke:rgb(0%,0%,0%);stroke-opacity:1;stroke-miterlimit:1;" d="M 397.472656 506.265625 L 398.183594 507.039062 L 398.898438 507.8125 L 399.609375 508.585938 L 400.320312 509.355469 L 401.742188 510.902344 L 402.457031 511.675781 L 403.878906 513.222656 L 404.589844 513.992188 L 405.300781 514.765625 L 406.015625 515.539062 L 408.859375 518.632812 L 409.574219 519.402344 L 412.417969 522.496094 L 413.132812 523.269531 L 413.84375 524.039062 L 415.265625 525.585938 L 415.980469 526.359375 L 417.402344 527.90625 L 418.113281 528.675781 L 418.824219 529.449219 L 419.539062 530.222656 L 421.671875 532.542969 L 422.382812 533.3125 L 423.097656 534.085938 L 425.941406 537.179688 L 426.65625 537.949219 L 429.5 541.042969 L 430.214844 541.816406 L 430.925781 542.585938 L 433.058594 544.90625 L 433.773438 545.679688 L 435.195312 547.226562 L 435.90625 547.996094 L 436.621094 548.769531 L 439.464844 551.863281 L 440.179688 552.632812 L 443.023438 555.726562 L 443.738281 556.5 L 444.449219 557.269531 L 446.582031 559.589844 L 447.296875 560.363281 L 448.007812 561.136719 L 448.71875 561.90625 L 450.140625 563.453125 L 450.855469 564.226562 L 452.277344 565.773438 L 452.988281 566.542969 L 453.703125 567.316406 L 456.546875 570.410156 L 457.261719 571.179688 L 460.105469 574.273438 L 460.820312 575.046875 L 461.53125 575.820312 L 462.242188 576.589844 L 463.664062 578.136719 L 464.378906 578.910156 L 465.800781 580.457031 L 466.511719 581.226562 L 467.222656 582 L 467.9375 582.773438 "/>
<path style="fill:none;stroke-width:4.054518;stroke-linecap:butt;stroke-linejoin:round;stroke:rgb(0%,0%,0%);stroke-opacity:1;stroke-miterlimit:1;" d="M 397.472656 506.265625 L 398.898438 507.039062 L 401.742188 508.585938 L 403.167969 509.355469 L 404.589844 510.128906 L 406.015625 510.902344 L 408.859375 512.449219 L 410.285156 513.222656 L 411.707031 513.992188 L 413.132812 514.765625 L 414.554688 515.539062 L 415.980469 516.3125 L 418.824219 517.859375 L 420.25 518.632812 L 421.671875 519.402344 L 423.097656 520.175781 L 425.941406 521.722656 L 427.367188 522.496094 L 428.789062 523.269531 L 430.214844 524.039062 L 433.058594 525.585938 L 434.484375 526.359375 L 435.90625 527.132812 L 437.332031 527.90625 L 438.753906 528.675781 L 440.179688 529.449219 L 443.023438 530.996094 L 444.449219 531.769531 L 445.871094 532.542969 L 447.296875 533.3125 L 450.140625 534.859375 L 451.566406 535.632812 L 452.988281 536.40625 L 454.414062 537.179688 L 455.835938 537.949219 L 457.261719 538.722656 L 460.105469 540.269531 L 461.53125 541.042969 L 462.953125 541.816406 L 464.378906 542.585938 L 467.222656 544.132812 L 468.648438 544.90625 L 470.070312 545.679688 L 471.496094 546.453125 L 472.917969 547.226562 L 474.34375 547.996094 L 477.1875 549.542969 L 478.613281 550.316406 L 480.035156 551.089844 L 481.460938 551.863281 L 482.882812 552.632812 L 484.304688 553.40625 L 485.730469 554.179688 L 487.152344 554.953125 L 488.578125 555.726562 L 490 556.5 L 491.421875 557.269531 L 492.847656 558.042969 L 494.269531 558.816406 L 495.695312 559.589844 L 497.117188 560.363281 L 498.542969 561.136719 L 499.964844 561.90625 L 501.386719 562.679688 L 502.8125 563.453125 L 504.234375 564.226562 L 505.660156 565 L 507.082031 565.773438 L 508.503906 566.542969 L 509.929688 567.316406 L 511.351562 568.089844 L 512.777344 568.863281 L 514.199219 569.636719 L 515.625 570.410156 L 517.046875 571.179688 L 518.46875 571.953125 L 519.894531 572.726562 L 521.316406 573.5 L 522.742188 574.273438 L 525.585938 575.820312 L 527.011719 576.589844 L 528.433594 577.363281 L 529.859375 578.136719 L 531.28125 578.910156 L 532.707031 579.683594 L 534.128906 580.457031 L 535.550781 581.226562 L 536.976562 582 L 538.398438 582.773438 "/>
<path style="fill:none;stroke-width:4.054518;stroke-linecap:butt;stroke-linejoin:round;stroke:rgb(0%,0%,0%);stroke-opacity:1;stroke-miterlimit:1;" d="M 608.863281 506.265625 L 608.863281 582.773438 "/>
<path style="fill:none;stroke-width:4.054518;stroke-linecap:butt;stroke-linejoin:round;stroke:rgb(0%,0%,0%);stroke-opacity:1;stroke-miterlimit:1;" d="M 397.472656 582.773438 L 396.050781 583.546875 L 394.625 584.320312 L 393.203125 585.09375 L 391.777344 585.863281 L 388.933594 587.410156 L 387.507812 588.183594 L 386.085938 588.957031 L 384.660156 589.730469 L 383.238281 590.5 L 381.816406 591.273438 L 380.390625 592.046875 L 378.96875 592.820312 L 377.542969 593.59375 L 376.121094 594.367188 L 374.695312 595.136719 L 371.851562 596.683594 L 370.425781 597.457031 L 369.003906 598.230469 L 367.578125 599.003906 L 366.15625 599.773438 L 364.734375 600.546875 L 363.308594 601.320312 L 361.886719 602.09375 L 360.460938 602.867188 L 359.039062 603.640625 L 357.613281 604.414062 L 356.191406 605.183594 L 354.769531 605.957031 L 353.34375 606.730469 L 351.921875 607.503906 L 350.496094 608.277344 L 349.074219 609.050781 L 347.652344 609.820312 L 346.226562 610.59375 L 344.804688 611.367188 L 343.378906 612.140625 L 340.535156 613.6875 L 339.109375 614.457031 L 337.6875 615.230469 L 336.261719 616.003906 L 334.839844 616.777344 L 333.414062 617.550781 L 331.992188 618.324219 L 330.570312 619.09375 L 329.144531 619.867188 L 327.722656 620.640625 L 326.296875 621.414062 L 323.453125 622.960938 L 322.027344 623.730469 L 320.605469 624.503906 L 319.179688 625.277344 L 317.757812 626.050781 L 316.332031 626.824219 L 313.488281 628.371094 L 312.0625 629.140625 L 310.640625 629.914062 L 309.214844 630.6875 L 306.371094 632.234375 L 304.945312 633.007812 L 303.523438 633.777344 L 302.097656 634.550781 L 300.675781 635.324219 L 299.25 636.097656 L 296.40625 637.644531 L 294.980469 638.414062 L 293.558594 639.1875 L 292.132812 639.960938 L 289.289062 641.507812 L 287.863281 642.28125 L 286.441406 643.050781 L 285.015625 643.824219 L 282.171875 645.371094 L 280.746094 646.144531 L 279.324219 646.917969 L 277.898438 647.6875 L 276.476562 648.460938 L 275.050781 649.234375 L 272.207031 650.78125 L 270.78125 651.554688 L 269.359375 652.324219 L 267.933594 653.097656 L 265.089844 654.644531 L 263.664062 655.417969 L 262.242188 656.191406 L 260.816406 656.964844 L 259.394531 657.734375 L 257.96875 658.507812 L 256.546875 659.28125 "/>
<path style="fill:none;stroke-width:4.054518;stroke-linecap:butt;stroke-linejoin:round;stroke:rgb(0%,0%,0%);stroke-opacity:1;stroke-miterlimit:1;" d="M 467.9375 582.773438 L 466.511719 583.546875 L 465.089844 584.320312 L 463.664062 585.09375 L 462.242188 585.863281 L 460.820312 586.636719 L 459.394531 587.410156 L 457.972656 588.183594 L 456.546875 588.957031 L 455.125 589.730469 L 453.703125 590.5 L 452.277344 591.273438 L 450.855469 592.046875 L 449.429688 592.820312 L 448.007812 593.59375 L 446.582031 594.367188 L 445.160156 595.136719 L 443.738281 595.910156 L 442.3125 596.683594 L 440.890625 597.457031 L 439.464844 598.230469 L 438.042969 599.003906 L 436.621094 599.773438 L 435.195312 600.546875 L 433.773438 601.320312 L 432.347656 602.09375 L 430.925781 602.867188 L 429.5 603.640625 L 428.078125 604.414062 L 426.65625 605.183594 L 425.230469 605.957031 L 423.808594 606.730469 L 422.382812 607.503906 L 419.539062 609.050781 L 418.113281 609.820312 L 416.691406 610.59375 L 415.265625 611.367188 L 413.84375 612.140625 L 412.417969 612.914062 L 410.996094 613.6875 L 409.574219 614.457031 L 408.148438 615.230469 L 406.726562 616.003906 L 405.300781 616.777344 L 402.457031 618.324219 L 401.03125 619.09375 L 399.609375 619.867188 L 398.183594 620.640625 L 396.761719 621.414062 L 395.335938 622.1875 L 393.914062 622.960938 L 392.492188 623.730469 L 391.066406 624.503906 L 389.644531 625.277344 L 388.21875 626.050781 L 385.375 627.597656 L 383.949219 628.371094 L 382.527344 629.140625 L 381.101562 629.914062 L 378.257812 631.460938 L 376.832031 632.234375 L 375.410156 633.007812 L 373.984375 633.777344 L 372.5625 634.550781 L 371.136719 635.324219 L 368.292969 636.871094 L 366.867188 637.644531 L 365.445312 638.414062 L 364.019531 639.1875 L 361.175781 640.734375 L 359.75 641.507812 L 358.328125 642.28125 L 356.902344 643.050781 L 355.480469 643.824219 L 354.054688 644.597656 L 351.210938 646.144531 L 349.785156 646.917969 L 348.363281 647.6875 L 346.9375 648.460938 L 344.09375 650.007812 L 342.667969 650.78125 L 341.246094 651.554688 L 339.820312 652.324219 L 338.398438 653.097656 L 336.972656 653.871094 L 334.128906 655.417969 L 332.703125 656.191406 L 331.28125 656.964844 L 329.855469 657.734375 L 327.011719 659.28125 "/>
<path style="fill:none;stroke-width:4.054518;stroke-linecap:butt;stroke-linejoin:round;stroke:rgb(0%,0%,0%);stroke-opacity:1;stroke-miterlimit:1;" d="M 538.398438 582.773438 L 536.265625 585.09375 L 535.550781 585.863281 L 532.707031 588.957031 L 531.992188 589.730469 L 531.28125 590.5 L 529.859375 592.046875 L 529.144531 592.820312 L 527.722656 594.367188 L 527.011719 595.136719 L 526.300781 595.910156 L 525.585938 596.683594 L 523.453125 599.003906 L 522.742188 599.773438 L 522.027344 600.546875 L 519.183594 603.640625 L 518.46875 604.414062 L 517.757812 605.183594 L 515.625 607.503906 L 514.910156 608.277344 L 514.199219 609.050781 L 513.488281 609.820312 L 512.066406 611.367188 L 511.351562 612.140625 L 509.929688 613.6875 L 509.21875 614.457031 L 508.503906 615.230469 L 505.660156 618.324219 L 504.945312 619.09375 L 502.101562 622.1875 L 501.386719 622.960938 L 500.675781 623.730469 L 498.542969 626.050781 L 497.828125 626.824219 L 496.40625 628.371094 L 495.695312 629.140625 L 494.984375 629.914062 L 494.269531 630.6875 L 492.136719 633.007812 L 491.421875 633.777344 L 488.578125 636.871094 L 487.863281 637.644531 L 487.152344 638.414062 L 485.019531 640.734375 L 484.304688 641.507812 L 483.59375 642.28125 L 482.882812 643.050781 L 481.460938 644.597656 L 480.746094 645.371094 L 479.324219 646.917969 L 478.613281 647.6875 L 477.902344 648.460938 L 477.1875 649.234375 L 475.054688 651.554688 L 474.34375 652.324219 L 473.628906 653.097656 L 471.496094 655.417969 L 470.78125 656.191406 L 470.070312 656.964844 L 469.359375 657.734375 L 467.9375 659.28125 "/>
<path style="fill:none;stroke-width:4.054518;stroke-linecap:butt;stroke-linejoin:round;stroke:rgb(0%,0%,0%);stroke-opacity:1;stroke-miterlimit:1;" d="M 538.398438 582.773438 L 539.109375 583.546875 L 539.824219 584.320312 L 540.535156 585.09375 L 541.246094 585.863281 L 542.667969 587.410156 L 543.382812 588.183594 L 544.804688 589.730469 L 545.515625 590.5 L 546.226562 591.273438 L 546.941406 592.046875 L 549.074219 594.367188 L 549.789062 595.136719 L 552.632812 598.230469 L 553.347656 599.003906 L 554.058594 599.773438 L 556.191406 602.09375 L 556.90625 602.867188 L 558.328125 604.414062 L 559.039062 605.183594 L 559.75 605.957031 L 560.464844 606.730469 L 562.597656 609.050781 L 563.308594 609.820312 L 564.023438 610.59375 L 566.867188 613.6875 L 567.582031 614.457031 L 569.714844 616.777344 L 570.429688 617.550781 L 571.140625 618.324219 L 571.851562 619.09375 L 573.273438 620.640625 L 573.988281 621.414062 L 575.410156 622.960938 L 576.121094 623.730469 L 576.832031 624.503906 L 577.546875 625.277344 L 580.390625 628.371094 L 581.105469 629.140625 L 583.949219 632.234375 L 584.664062 633.007812 L 585.375 633.777344 L 586.796875 635.324219 L 587.511719 636.097656 L 588.933594 637.644531 L 589.644531 638.414062 L 590.355469 639.1875 L 591.070312 639.960938 L 593.203125 642.28125 L 593.914062 643.050781 L 594.628906 643.824219 L 597.472656 646.917969 L 598.1875 647.6875 L 601.03125 650.78125 L 601.746094 651.554688 L 602.457031 652.324219 L 604.589844 654.644531 L 605.304688 655.417969 L 606.726562 656.964844 L 607.4375 657.734375 L 608.152344 658.507812 L 608.863281 659.28125 "/>
<path style="fill:none;stroke-width:4.054518;stroke-linecap:butt;stroke-linejoin:round;stroke:rgb(0%,0%,0%);stroke-opacity:1;stroke-miterlimit:1;" d="M 608.863281 582.773438 L 610.996094 585.09375 L 611.710938 585.863281 L 614.554688 588.957031 L 615.269531 589.730469 L 615.980469 590.5 L 618.113281 592.820312 L 618.828125 593.59375 L 619.539062 594.367188 L 620.25 595.136719 L 621.671875 596.683594 L 622.386719 597.457031 L 623.808594 599.003906 L 624.519531 599.773438 L 625.230469 600.546875 L 625.945312 601.320312 L 628.078125 603.640625 L 628.792969 604.414062 L 629.503906 605.183594 L 631.636719 607.503906 L 632.351562 608.277344 L 633.0625 609.050781 L 633.773438 609.820312 L 635.195312 611.367188 L 635.910156 612.140625 L 637.332031 613.6875 L 638.042969 614.457031 L 638.753906 615.230469 L 639.46875 616.003906 L 641.601562 618.324219 L 642.3125 619.09375 L 643.027344 619.867188 L 645.160156 622.1875 L 645.875 622.960938 L 646.585938 623.730469 L 648.71875 626.050781 L 649.433594 626.824219 L 650.855469 628.371094 L 651.566406 629.140625 L 652.277344 629.914062 L 652.992188 630.6875 L 655.125 633.007812 L 655.835938 633.777344 L 656.550781 634.550781 L 659.394531 637.644531 L 660.109375 638.414062 L 662.953125 641.507812 L 663.667969 642.28125 L 664.378906 643.050781 L 665.800781 644.597656 L 666.515625 645.371094 L 667.9375 646.917969 L 668.648438 647.6875 L 669.359375 648.460938 L 670.074219 649.234375 L 672.207031 651.554688 L 672.917969 652.324219 L 673.632812 653.097656 L 676.476562 656.191406 L 677.191406 656.964844 L 677.902344 657.734375 L 679.324219 659.28125 "/>
<path style="fill:none;stroke-width:4.054518;stroke-linecap:butt;stroke-linejoin:round;stroke:rgb(0%,0%,0%);stroke-opacity:1;stroke-miterlimit:1;" d="M 256.546875 659.28125 L 255.125 660.054688 L 253.699219 660.828125 L 252.277344 661.601562 L 250.851562 662.371094 L 248.007812 663.917969 L 246.582031 664.691406 L 245.160156 665.464844 L 243.734375 666.238281 L 242.3125 667.007812 L 240.886719 667.78125 L 238.042969 669.328125 L 236.617188 670.101562 L 235.195312 670.875 L 233.769531 671.644531 L 230.925781 673.191406 L 229.5 673.964844 L 228.078125 674.738281 L 226.652344 675.511719 L 225.230469 676.28125 L 223.804688 677.054688 L 220.960938 678.601562 L 219.535156 679.375 L 218.113281 680.148438 L 216.6875 680.917969 L 213.84375 682.464844 L 212.417969 683.238281 L 210.996094 684.011719 L 209.570312 684.785156 L 208.148438 685.558594 L 206.726562 686.328125 L 205.300781 687.101562 L 203.878906 687.875 L 202.453125 688.648438 L 201.03125 689.421875 L 199.605469 690.195312 L 198.183594 690.964844 L 196.761719 691.738281 L 195.335938 692.511719 L 193.914062 693.285156 L 192.488281 694.058594 L 191.066406 694.832031 L 189.644531 695.601562 L 188.21875 696.375 L 186.796875 697.148438 L 185.371094 697.921875 L 183.949219 698.695312 L 182.523438 699.46875 L 181.101562 700.238281 L 179.679688 701.011719 L 178.253906 701.785156 L 176.832031 702.558594 L 175.40625 703.332031 L 173.984375 704.105469 L 172.5625 704.875 L 171.136719 705.648438 L 169.714844 706.421875 L 168.289062 707.195312 L 166.867188 707.96875 L 165.441406 708.742188 L 164.019531 709.511719 L 162.597656 710.285156 L 161.171875 711.058594 L 159.75 711.832031 L 158.324219 712.605469 L 155.480469 714.152344 L 154.054688 714.921875 L 152.632812 715.695312 L 151.207031 716.46875 L 148.363281 718.015625 L 146.9375 718.789062 L 145.515625 719.558594 L 144.089844 720.332031 L 142.667969 721.105469 L 141.242188 721.878906 L 138.398438 723.425781 L 136.972656 724.195312 L 135.550781 724.96875 L 134.125 725.742188 L 131.28125 727.289062 L 129.855469 728.0625 L 128.433594 728.832031 L 127.007812 729.605469 L 125.585938 730.378906 L 124.160156 731.152344 L 121.316406 732.699219 L 119.890625 733.46875 L 118.46875 734.242188 L 117.042969 735.015625 L 115.621094 735.789062 "/>
<path style="fill:none;stroke-width:4.054518;stroke-linecap:butt;stroke-linejoin:round;stroke:rgb(0%,0%,0%);stroke-opacity:1;stroke-miterlimit:1;" d="M 327.011719 659.28125 L 325.585938 660.054688 L 324.164062 660.828125 L 322.738281 661.601562 L 321.316406 662.371094 L 319.894531 663.144531 L 318.46875 663.917969 L 317.046875 664.691406 L 315.621094 665.464844 L 314.199219 666.238281 L 312.773438 667.007812 L 309.929688 668.554688 L 308.503906 669.328125 L 307.082031 670.101562 L 305.65625 670.875 L 304.234375 671.644531 L 302.8125 672.417969 L 301.386719 673.191406 L 299.964844 673.964844 L 298.539062 674.738281 L 297.117188 675.511719 L 295.691406 676.28125 L 292.847656 677.828125 L 291.421875 678.601562 L 290 679.375 L 288.574219 680.148438 L 287.152344 680.917969 L 285.730469 681.691406 L 284.304688 682.464844 L 282.882812 683.238281 L 281.457031 684.011719 L 280.035156 684.785156 L 278.609375 685.558594 L 277.1875 686.328125 L 275.765625 687.101562 L 274.339844 687.875 L 272.917969 688.648438 L 271.492188 689.421875 L 270.070312 690.195312 L 268.648438 690.964844 L 267.222656 691.738281 L 265.800781 692.511719 L 264.375 693.285156 L 262.953125 694.058594 L 261.527344 694.832031 L 260.105469 695.601562 L 258.683594 696.375 L 257.257812 697.148438 L 255.835938 697.921875 L 254.410156 698.695312 L 252.988281 699.46875 L 251.566406 700.238281 L 250.140625 701.011719 L 248.71875 701.785156 L 247.292969 702.558594 L 244.449219 704.105469 L 243.023438 704.875 L 241.601562 705.648438 L 240.175781 706.421875 L 238.753906 707.195312 L 237.328125 707.96875 L 235.90625 708.742188 L 234.484375 709.511719 L 233.058594 710.285156 L 231.636719 711.058594 L 230.210938 711.832031 L 227.367188 713.378906 L 225.941406 714.152344 L 224.519531 714.921875 L 223.09375 715.695312 L 221.671875 716.46875 L 220.246094 717.242188 L 217.402344 718.789062 L 215.976562 719.558594 L 214.554688 720.332031 L 213.128906 721.105469 L 210.285156 722.652344 L 208.859375 723.425781 L 207.4375 724.195312 L 206.011719 724.96875 L 204.589844 725.742188 L 203.164062 726.515625 L 200.320312 728.0625 L 198.894531 728.832031 L 197.472656 729.605469 L 196.046875 730.378906 L 193.203125 731.925781 L 191.777344 732.699219 L 190.355469 733.46875 L 188.929688 734.242188 L 186.085938 735.789062 "/>
<path style="fill:none;stroke-width:4.054518;stroke-linecap:butt;stroke-linejoin:round;stroke:rgb(0%,0%,0%);stroke-opacity:1;stroke-miterlimit:1;" d="M 327.011719 659.28125 L 326.296875 660.054688 L 324.875 661.601562 L 324.164062 662.371094 L 323.453125 663.144531 L 322.738281 663.917969 L 320.605469 666.238281 L 319.894531 667.007812 L 319.179688 667.78125 L 317.046875 670.101562 L 316.332031 670.875 L 315.621094 671.644531 L 313.488281 673.964844 L 312.773438 674.738281 L 312.0625 675.511719 L 311.351562 676.28125 L 309.929688 677.828125 L 309.214844 678.601562 L 307.792969 680.148438 L 307.082031 680.917969 L 306.371094 681.691406 L 305.65625 682.464844 L 302.8125 685.558594 L 302.097656 686.328125 L 299.964844 688.648438 L 299.25 689.421875 L 298.539062 690.195312 L 297.828125 690.964844 L 296.40625 692.511719 L 295.691406 693.285156 L 294.269531 694.832031 L 293.558594 695.601562 L 292.847656 696.375 L 292.132812 697.148438 L 290 699.46875 L 289.289062 700.238281 L 288.574219 701.011719 L 285.730469 704.105469 L 285.015625 704.875 L 282.171875 707.96875 L 281.457031 708.742188 L 280.746094 709.511719 L 279.324219 711.058594 L 278.609375 711.832031 L 276.476562 714.152344 L 275.765625 714.921875 L 275.050781 715.695312 L 272.207031 718.789062 L 271.492188 719.558594 L 268.648438 722.652344 L 267.933594 723.425781 L 267.222656 724.195312 L 265.089844 726.515625 L 264.375 727.289062 L 263.664062 728.0625 L 262.953125 728.832031 L 262.242188 729.605469 L 261.527344 730.378906 L 259.394531 732.699219 L 258.683594 733.46875 L 257.96875 734.242188 L 256.546875 735.789062 "/>
<path style="fill:none;stroke-width:4.054518;stroke-linecap:butt;stroke-linejoin:round;stroke:rgb(0%,0%,0%);stroke-opacity:1;stroke-miterlimit:1;" d="M 467.9375 659.28125 L 467.222656 660.054688 L 465.800781 661.601562 L 465.089844 662.371094 L 464.378906 663.144531 L 463.664062 663.917969 L 461.53125 666.238281 L 460.820312 667.007812 L 460.105469 667.78125 L 457.261719 670.875 L 456.546875 671.644531 L 453.703125 674.738281 L 452.988281 675.511719 L 452.277344 676.28125 L 450.855469 677.828125 L 450.140625 678.601562 L 448.71875 680.148438 L 448.007812 680.917969 L 447.296875 681.691406 L 446.582031 682.464844 L 443.738281 685.558594 L 443.023438 686.328125 L 440.179688 689.421875 L 439.464844 690.195312 L 438.753906 690.964844 L 436.621094 693.285156 L 435.90625 694.058594 L 435.195312 694.832031 L 434.484375 695.601562 L 433.773438 696.375 L 433.058594 697.148438 L 430.925781 699.46875 L 430.214844 700.238281 L 429.5 701.011719 L 426.65625 704.105469 L 425.941406 704.875 L 423.097656 707.96875 L 422.382812 708.742188 L 421.671875 709.511719 L 419.539062 711.832031 L 418.824219 712.605469 L 417.402344 714.152344 L 416.691406 714.921875 L 415.980469 715.695312 L 415.265625 716.46875 L 413.132812 718.789062 L 412.417969 719.558594 L 409.574219 722.652344 L 408.859375 723.425781 L 408.148438 724.195312 L 406.015625 726.515625 L 405.300781 727.289062 L 404.589844 728.0625 L 403.878906 728.832031 L 402.457031 730.378906 L 401.742188 731.152344 L 400.320312 732.699219 L 399.609375 733.46875 L 398.898438 734.242188 L 398.183594 735.015625 L 397.472656 735.789062 "/>
<path style="fill:none;stroke-width:4.054518;stroke-linecap:butt;stroke-linejoin:round;stroke:rgb(0%,0%,0%);stroke-opacity:1;stroke-miterlimit:1;" d="M 608.863281 659.28125 L 608.152344 660.054688 L 607.4375 660.828125 L 606.726562 661.601562 L 606.015625 662.371094 L 605.304688 663.144531 L 604.589844 663.917969 L 602.457031 666.238281 L 601.746094 667.007812 L 601.03125 667.78125 L 598.1875 670.875 L 597.472656 671.644531 L 594.628906 674.738281 L 593.914062 675.511719 L 593.203125 676.28125 L 591.070312 678.601562 L 590.355469 679.375 L 589.644531 680.148438 L 588.933594 680.917969 L 587.511719 682.464844 L 586.796875 683.238281 L 584.664062 685.558594 L 583.949219 686.328125 L 581.105469 689.421875 L 580.390625 690.195312 L 579.679688 690.964844 L 577.546875 693.285156 L 576.832031 694.058594 L 576.121094 694.832031 L 575.410156 695.601562 L 573.988281 697.148438 L 573.273438 697.921875 L 571.851562 699.46875 L 571.140625 700.238281 L 570.429688 701.011719 L 569.714844 701.785156 L 567.582031 704.105469 L 566.867188 704.875 L 564.023438 707.96875 L 563.308594 708.742188 L 562.597656 709.511719 L 560.464844 711.832031 L 559.75 712.605469 L 558.328125 714.152344 L 557.617188 714.921875 L 556.90625 715.695312 L 556.191406 716.46875 L 554.058594 718.789062 L 553.347656 719.558594 L 552.632812 720.332031 L 549.789062 723.425781 L 549.074219 724.195312 L 546.941406 726.515625 L 546.226562 727.289062 L 545.515625 728.0625 L 544.804688 728.832031 L 543.382812 730.378906 L 542.667969 731.152344 L 541.246094 732.699219 L 540.535156 733.46875 L 539.824219 734.242188 L 539.109375 735.015625 L 538.398438 735.789062 "/>
<path style="fill:none;stroke-width:4.054518;stroke-linecap:butt;stroke-linejoin:round;stroke:rgb(0%,0%,0%);stroke-opacity:1;stroke-miterlimit:1;" d="M 679.324219 659.28125 L 677.191406 661.601562 L 676.476562 662.371094 L 673.632812 665.464844 L 672.917969 666.238281 L 672.207031 667.007812 L 670.074219 669.328125 L 669.359375 670.101562 L 668.648438 670.875 L 667.9375 671.644531 L 666.515625 673.191406 L 665.800781 673.964844 L 664.378906 675.511719 L 663.667969 676.28125 L 662.953125 677.054688 L 660.109375 680.148438 L 659.394531 680.917969 L 656.550781 684.011719 L 655.835938 684.785156 L 655.125 685.558594 L 654.414062 686.328125 L 652.992188 687.875 L 652.277344 688.648438 L 650.855469 690.195312 L 650.144531 690.964844 L 649.433594 691.738281 L 648.71875 692.511719 L 646.585938 694.832031 L 645.875 695.601562 L 645.160156 696.375 L 643.027344 698.695312 L 642.3125 699.46875 L 641.601562 700.238281 L 639.46875 702.558594 L 638.753906 703.332031 L 638.042969 704.105469 L 637.332031 704.875 L 635.910156 706.421875 L 635.195312 707.195312 L 633.773438 708.742188 L 633.0625 709.511719 L 632.351562 710.285156 L 631.636719 711.058594 L 628.792969 714.152344 L 628.078125 714.921875 L 625.945312 717.242188 L 625.230469 718.015625 L 624.519531 718.789062 L 623.808594 719.558594 L 622.386719 721.105469 L 621.671875 721.878906 L 620.25 723.425781 L 619.539062 724.195312 L 618.828125 724.96875 L 618.113281 725.742188 L 615.980469 728.0625 L 615.269531 728.832031 L 614.554688 729.605469 L 611.710938 732.699219 L 610.996094 733.46875 L 608.863281 735.789062 "/>
<path style="fill:none;stroke-width:4.054518;stroke-linecap:butt;stroke-linejoin:round;stroke:rgb(0%,0%,0%);stroke-opacity:1;stroke-miterlimit:1;" d="M 679.324219 659.28125 L 679.324219 735.789062 "/>
<path style="fill:none;stroke-width:4.054518;stroke-linecap:butt;stroke-linejoin:round;stroke:rgb(0%,0%,0%);stroke-opacity:1;stroke-miterlimit:1;" d="M 115.621094 735.789062 L 114.199219 737.335938 L 113.484375 738.105469 L 110.640625 741.199219 L 109.925781 741.972656 L 109.214844 742.746094 L 108.503906 743.515625 L 107.792969 744.289062 L 107.078125 745.0625 L 104.945312 747.382812 L 104.234375 748.152344 L 103.519531 748.925781 L 100.675781 752.019531 L 99.960938 752.789062 L 97.117188 755.882812 L 96.402344 756.65625 L 95.691406 757.425781 L 93.558594 759.746094 L 92.84375 760.519531 L 92.132812 761.292969 L 91.421875 762.0625 L 90.710938 762.835938 L 89.996094 763.609375 L 87.863281 765.929688 L 87.152344 766.699219 L 86.4375 767.472656 L 83.59375 770.566406 L 82.878906 771.339844 L 82.167969 772.109375 L 80.035156 774.429688 L 79.320312 775.203125 L 78.609375 775.976562 L 77.898438 776.746094 L 76.476562 778.292969 L 75.761719 779.066406 L 74.339844 780.613281 L 73.628906 781.382812 L 72.917969 782.15625 L 72.203125 782.929688 L 70.070312 785.25 L 69.355469 786.019531 L 66.511719 789.113281 L 65.796875 789.886719 L 65.085938 790.65625 L 62.953125 792.976562 L 62.238281 793.75 L 61.527344 794.523438 L 60.816406 795.292969 L 59.394531 796.839844 L 58.679688 797.613281 L 56.546875 799.933594 L 55.835938 800.703125 L 55.121094 801.476562 L 52.277344 804.570312 L 51.5625 805.339844 L 49.429688 807.660156 L 48.714844 808.433594 L 48.003906 809.207031 L 47.292969 809.976562 L 45.871094 811.523438 L 45.15625 812.296875 "/>
<path style="fill:none;stroke-width:4.054518;stroke-linecap:butt;stroke-linejoin:round;stroke:rgb(0%,0%,0%);stroke-opacity:1;stroke-miterlimit:1;" d="M 186.085938 735.789062 L 185.371094 736.5625 L 184.660156 737.335938 L 183.949219 738.105469 L 183.238281 738.878906 L 182.523438 739.652344 L 179.679688 742.746094 L 178.964844 743.515625 L 176.121094 746.609375 L 175.40625 747.382812 L 174.695312 748.152344 L 172.5625 750.472656 L 171.847656 751.246094 L 171.136719 752.019531 L 170.425781 752.789062 L 169.003906 754.335938 L 168.289062 755.109375 L 166.867188 756.65625 L 166.15625 757.425781 L 165.441406 758.199219 L 162.597656 761.292969 L 161.882812 762.0625 L 159.039062 765.15625 L 158.324219 765.929688 L 157.613281 766.699219 L 155.480469 769.019531 L 154.765625 769.792969 L 153.34375 771.339844 L 152.632812 772.109375 L 151.921875 772.882812 L 151.207031 773.65625 L 149.074219 775.976562 L 148.363281 776.746094 L 147.648438 777.519531 L 145.515625 779.839844 L 144.800781 780.613281 L 144.089844 781.382812 L 141.957031 783.703125 L 141.242188 784.476562 L 140.53125 785.25 L 139.820312 786.019531 L 138.398438 787.566406 L 137.683594 788.339844 L 136.261719 789.886719 L 135.550781 790.65625 L 134.839844 791.429688 L 134.125 792.203125 L 131.992188 794.523438 L 131.28125 795.292969 L 130.566406 796.066406 L 128.433594 798.386719 L 127.71875 799.160156 L 127.007812 799.933594 L 126.296875 800.703125 L 124.875 802.25 L 124.160156 803.023438 L 122.738281 804.570312 L 122.027344 805.339844 L 121.316406 806.113281 L 120.601562 806.886719 L 118.46875 809.207031 L 117.757812 809.976562 L 117.042969 810.75 L 115.621094 812.296875 "/>
<path style="fill:none;stroke-width:4.054518;stroke-linecap:butt;stroke-linejoin:round;stroke:rgb(0%,0%,0%);stroke-opacity:1;stroke-miterlimit:1;" d="M 256.546875 735.789062 L 255.125 737.335938 L 254.410156 738.105469 L 251.566406 741.199219 L 250.851562 741.972656 L 250.140625 742.746094 L 249.429688 743.515625 L 248.007812 745.0625 L 247.292969 745.835938 L 245.871094 747.382812 L 245.160156 748.152344 L 244.449219 748.925781 L 243.734375 749.699219 L 241.601562 752.019531 L 240.886719 752.789062 L 238.042969 755.882812 L 237.328125 756.65625 L 236.617188 757.425781 L 234.484375 759.746094 L 233.769531 760.519531 L 233.058594 761.292969 L 232.347656 762.0625 L 230.925781 763.609375 L 230.210938 764.382812 L 228.789062 765.929688 L 228.078125 766.699219 L 227.367188 767.472656 L 226.652344 768.246094 L 224.519531 770.566406 L 223.804688 771.339844 L 223.09375 772.109375 L 220.960938 774.429688 L 220.246094 775.203125 L 219.535156 775.976562 L 218.824219 776.746094 L 217.402344 778.292969 L 216.6875 779.066406 L 215.265625 780.613281 L 214.554688 781.382812 L 213.84375 782.15625 L 213.128906 782.929688 L 210.996094 785.25 L 210.285156 786.019531 L 209.570312 786.792969 L 206.726562 789.886719 L 206.011719 790.65625 L 203.878906 792.976562 L 203.164062 793.75 L 202.453125 794.523438 L 201.742188 795.292969 L 200.320312 796.839844 L 199.605469 797.613281 L 197.472656 799.933594 L 196.761719 800.703125 L 196.046875 801.476562 L 193.203125 804.570312 L 192.488281 805.339844 L 189.644531 808.433594 L 188.929688 809.207031 L 188.21875 809.976562 L 186.085938 812.296875 "/>
<path style="fill:none;stroke-width:4.054518;stroke-linecap:butt;stroke-linejoin:round;stroke:rgb(0%,0%,0%);stroke-opacity:1;stroke-miterlimit:1;" d="M 256.546875 735.789062 L 256.546875 812.296875 "/>
<path style="fill:none;stroke-width:4.054518;stroke-linecap:butt;stroke-linejoin:round;stroke:rgb(0%,0%,0%);stroke-opacity:1;stroke-miterlimit:1;" d="M 397.472656 735.789062 L 396.050781 737.335938 L 395.335938 738.105469 L 392.492188 741.199219 L 391.777344 741.972656 L 391.066406 742.746094 L 390.355469 743.515625 L 388.933594 745.0625 L 388.21875 745.835938 L 386.796875 747.382812 L 386.085938 748.152344 L 385.375 748.925781 L 384.660156 749.699219 L 382.527344 752.019531 L 381.816406 752.789062 L 381.101562 753.5625 L 378.257812 756.65625 L 377.542969 757.425781 L 375.410156 759.746094 L 374.695312 760.519531 L 373.984375 761.292969 L 373.273438 762.0625 L 371.851562 763.609375 L 371.136719 764.382812 L 369.714844 765.929688 L 369.003906 766.699219 L 368.292969 767.472656 L 367.578125 768.246094 L 364.734375 771.339844 L 364.019531 772.109375 L 361.175781 775.203125 L 360.460938 775.976562 L 359.75 776.746094 L 358.328125 778.292969 L 357.613281 779.066406 L 356.191406 780.613281 L 355.480469 781.382812 L 354.769531 782.15625 L 354.054688 782.929688 L 351.921875 785.25 L 351.210938 786.019531 L 350.496094 786.792969 L 347.652344 789.886719 L 346.9375 790.65625 L 344.09375 793.75 L 343.378906 794.523438 L 342.667969 795.292969 L 340.535156 797.613281 L 339.820312 798.386719 L 338.398438 799.933594 L 337.6875 800.703125 L 336.972656 801.476562 L 334.128906 804.570312 L 333.414062 805.339844 L 330.570312 808.433594 L 329.855469 809.207031 L 329.144531 809.976562 L 327.011719 812.296875 "/>
<path style="fill:none;stroke-width:4.054518;stroke-linecap:butt;stroke-linejoin:round;stroke:rgb(0%,0%,0%);stroke-opacity:1;stroke-miterlimit:1;" d="M 538.398438 735.789062 L 536.976562 736.5625 L 535.550781 737.335938 L 534.128906 738.105469 L 532.707031 738.878906 L 531.28125 739.652344 L 529.859375 740.425781 L 528.433594 741.199219 L 527.011719 741.972656 L 525.585938 742.746094 L 524.164062 743.515625 L 522.742188 744.289062 L 521.316406 745.0625 L 519.894531 745.835938 L 518.46875 746.609375 L 517.046875 747.382812 L 515.625 748.152344 L 514.199219 748.925781 L 512.777344 749.699219 L 511.351562 750.472656 L 509.929688 751.246094 L 508.503906 752.019531 L 507.082031 752.789062 L 505.660156 753.5625 L 504.234375 754.335938 L 502.8125 755.109375 L 501.386719 755.882812 L 499.964844 756.65625 L 498.542969 757.425781 L 497.117188 758.199219 L 495.695312 758.972656 L 494.269531 759.746094 L 492.847656 760.519531 L 491.421875 761.292969 L 490 762.0625 L 488.578125 762.835938 L 487.152344 763.609375 L 485.730469 764.382812 L 484.304688 765.15625 L 482.882812 765.929688 L 481.460938 766.699219 L 480.035156 767.472656 L 478.613281 768.246094 L 477.1875 769.019531 L 474.34375 770.566406 L 472.917969 771.339844 L 471.496094 772.109375 L 470.070312 772.882812 L 468.648438 773.65625 L 467.222656 774.429688 L 464.378906 775.976562 L 462.953125 776.746094 L 461.53125 777.519531 L 460.105469 778.292969 L 457.261719 779.839844 L 455.835938 780.613281 L 454.414062 781.382812 L 452.988281 782.15625 L 451.566406 782.929688 L 450.140625 783.703125 L 447.296875 785.25 L 445.871094 786.019531 L 444.449219 786.792969 L 443.023438 787.566406 L 440.179688 789.113281 L 438.753906 789.886719 L 437.332031 790.65625 L 435.90625 791.429688 L 434.484375 792.203125 L 433.058594 792.976562 L 430.214844 794.523438 L 428.789062 795.292969 L 427.367188 796.066406 L 425.941406 796.839844 L 423.097656 798.386719 L 421.671875 799.160156 L 420.25 799.933594 L 418.824219 800.703125 L 415.980469 802.25 L 414.554688 803.023438 L 413.132812 803.796875 L 411.707031 804.570312 L 410.285156 805.339844 L 408.859375 806.113281 L 406.015625 807.660156 L 404.589844 808.433594 L 403.167969 809.207031 L 401.742188 809.976562 L 398.898438 811.523438 L 397.472656 812.296875 "/>
<path style="fill:none;stroke-width:4.054518;stroke-linecap:butt;stroke-linejoin:round;stroke:rgb(0%,0%,0%);stroke-opacity:1;stroke-miterlimit:1;" d="M 608.863281 735.789062 L 607.4375 736.5625 L 606.015625 737.335938 L 604.589844 738.105469 L 601.746094 739.652344 L 600.320312 740.425781 L 598.898438 741.199219 L 597.472656 741.972656 L 596.050781 742.746094 L 594.628906 743.515625 L 593.203125 744.289062 L 591.78125 745.0625 L 590.355469 745.835938 L 587.511719 747.382812 L 586.085938 748.152344 L 584.664062 748.925781 L 583.238281 749.699219 L 581.816406 750.472656 L 580.390625 751.246094 L 578.96875 752.019531 L 577.546875 752.789062 L 576.121094 753.5625 L 574.699219 754.335938 L 573.273438 755.109375 L 570.429688 756.65625 L 569.003906 757.425781 L 567.582031 758.199219 L 566.15625 758.972656 L 564.734375 759.746094 L 563.308594 760.519531 L 561.886719 761.292969 L 560.464844 762.0625 L 559.039062 762.835938 L 557.617188 763.609375 L 556.191406 764.382812 L 553.347656 765.929688 L 551.921875 766.699219 L 550.5 767.472656 L 549.074219 768.246094 L 547.652344 769.019531 L 546.226562 769.792969 L 543.382812 771.339844 L 541.957031 772.109375 L 540.535156 772.882812 L 539.109375 773.65625 L 536.265625 775.203125 L 534.839844 775.976562 L 533.417969 776.746094 L 531.992188 777.519531 L 530.570312 778.292969 L 529.144531 779.066406 L 526.300781 780.613281 L 524.875 781.382812 L 523.453125 782.15625 L 522.027344 782.929688 L 519.183594 784.476562 L 517.757812 785.25 L 516.335938 786.019531 L 514.910156 786.792969 L 512.066406 788.339844 L 510.640625 789.113281 L 509.21875 789.886719 L 507.792969 790.65625 L 506.371094 791.429688 L 504.945312 792.203125 L 502.101562 793.75 L 500.675781 794.523438 L 499.253906 795.292969 L 497.828125 796.066406 L 494.984375 797.613281 L 493.558594 798.386719 L 492.136719 799.160156 L 490.710938 799.933594 L 489.289062 800.703125 L 487.863281 801.476562 L 485.019531 803.023438 L 483.59375 803.796875 L 482.171875 804.570312 L 480.746094 805.339844 L 477.902344 806.886719 L 476.476562 807.660156 L 475.054688 808.433594 L 473.628906 809.207031 L 472.207031 809.976562 L 470.78125 810.75 L 467.9375 812.296875 "/>
<path style="fill:none;stroke-width:4.054518;stroke-linecap:butt;stroke-linejoin:round;stroke:rgb(0%,0%,0%);stroke-opacity:1;stroke-miterlimit:1;" d="M 608.863281 735.789062 L 608.152344 736.5625 L 607.4375 737.335938 L 606.726562 738.105469 L 605.304688 739.652344 L 604.589844 740.425781 L 602.457031 742.746094 L 601.746094 743.515625 L 601.03125 744.289062 L 598.1875 747.382812 L 597.472656 748.152344 L 594.628906 751.246094 L 593.914062 752.019531 L 593.203125 752.789062 L 591.070312 755.109375 L 590.355469 755.882812 L 589.644531 756.65625 L 588.933594 757.425781 L 587.511719 758.972656 L 586.796875 759.746094 L 585.375 761.292969 L 584.664062 762.0625 L 583.949219 762.835938 L 581.105469 765.929688 L 580.390625 766.699219 L 577.546875 769.792969 L 576.832031 770.566406 L 576.121094 771.339844 L 575.410156 772.109375 L 573.988281 773.65625 L 573.273438 774.429688 L 571.851562 775.976562 L 571.140625 776.746094 L 570.429688 777.519531 L 569.714844 778.292969 L 567.582031 780.613281 L 566.867188 781.382812 L 564.023438 784.476562 L 563.308594 785.25 L 562.597656 786.019531 L 560.464844 788.339844 L 559.75 789.113281 L 559.039062 789.886719 L 558.328125 790.65625 L 556.90625 792.203125 L 556.191406 792.976562 L 554.769531 794.523438 L 554.058594 795.292969 L 553.347656 796.066406 L 552.632812 796.839844 L 549.789062 799.933594 L 549.074219 800.703125 L 546.941406 803.023438 L 546.226562 803.796875 L 545.515625 804.570312 L 544.804688 805.339844 L 543.382812 806.886719 L 542.667969 807.660156 L 541.246094 809.207031 L 540.535156 809.976562 L 539.824219 810.75 L 539.109375 811.523438 L 538.398438 812.296875 "/>
<path style="fill:none;stroke-width:4.054518;stroke-linecap:butt;stroke-linejoin:round;stroke:rgb(0%,0%,0%);stroke-opacity:1;stroke-miterlimit:1;" d="M 679.324219 735.789062 L 677.902344 737.335938 L 677.191406 738.105469 L 676.476562 738.878906 L 673.632812 741.972656 L 672.917969 742.746094 L 672.207031 743.515625 L 670.074219 745.835938 L 669.359375 746.609375 L 668.648438 747.382812 L 667.9375 748.152344 L 666.515625 749.699219 L 665.800781 750.472656 L 664.378906 752.019531 L 663.667969 752.789062 L 662.953125 753.5625 L 660.109375 756.65625 L 659.394531 757.425781 L 656.550781 760.519531 L 655.835938 761.292969 L 655.125 762.0625 L 652.992188 764.382812 L 652.277344 765.15625 L 651.566406 765.929688 L 650.855469 766.699219 L 649.433594 768.246094 L 648.71875 769.019531 L 646.585938 771.339844 L 645.875 772.109375 L 645.160156 772.882812 L 643.027344 775.203125 L 642.3125 775.976562 L 641.601562 776.746094 L 639.46875 779.066406 L 638.753906 779.839844 L 638.042969 780.613281 L 637.332031 781.382812 L 635.910156 782.929688 L 635.195312 783.703125 L 633.773438 785.25 L 633.0625 786.019531 L 632.351562 786.792969 L 631.636719 787.566406 L 629.503906 789.886719 L 628.792969 790.65625 L 628.078125 791.429688 L 625.945312 793.75 L 625.230469 794.523438 L 624.519531 795.292969 L 622.386719 797.613281 L 621.671875 798.386719 L 620.25 799.933594 L 619.539062 800.703125 L 618.828125 801.476562 L 618.113281 802.25 L 615.980469 804.570312 L 615.269531 805.339844 L 614.554688 806.113281 L 611.710938 809.207031 L 610.996094 809.976562 L 608.863281 812.296875 "/>
<path style="fill-rule:nonzero;fill:rgb(0%,0%,0%);fill-opacity:1;stroke-width:0.708661;stroke-linecap:round;stroke-linejoin:round;stroke:rgb(0%,0%,0%);stroke-opacity:1;stroke-miterlimit:10;" d="M 48.714844 47.21875 C 48.714844 51.960938 41.601562 51.960938 41.601562 47.21875 C 41.601562 42.480469 48.714844 42.480469 48.714844 47.21875 "/>
<path style="fill-rule:nonzero;fill:rgb(0%,0%,0%);fill-opacity:1;stroke-width:0.708661;stroke-linecap:round;stroke-linejoin:round;stroke:rgb(0%,0%,0%);stroke-opacity:1;stroke-miterlimit:10;" d="M 119.175781 47.21875 C 119.175781 51.960938 112.066406 51.960938 112.066406 47.21875 C 112.066406 42.480469 119.175781 42.480469 119.175781 47.21875 "/>
<path style="fill-rule:nonzero;fill:rgb(0%,0%,0%);fill-opacity:1;stroke-width:0.708661;stroke-linecap:round;stroke-linejoin:round;stroke:rgb(0%,0%,0%);stroke-opacity:1;stroke-miterlimit:10;" d="M 189.640625 47.21875 C 189.640625 51.960938 182.527344 51.960938 182.527344 47.21875 C 182.527344 42.480469 189.640625 42.480469 189.640625 47.21875 "/>
<path style="fill-rule:nonzero;fill:rgb(0%,0%,0%);fill-opacity:1;stroke-width:0.708661;stroke-linecap:round;stroke-linejoin:round;stroke:rgb(0%,0%,0%);stroke-opacity:1;stroke-miterlimit:10;" d="M 260.101562 47.21875 C 260.101562 51.960938 252.992188 51.960938 252.992188 47.21875 C 252.992188 42.480469 260.101562 42.480469 260.101562 47.21875 "/>
<path style="fill-rule:nonzero;fill:rgb(0%,0%,0%);fill-opacity:1;stroke-width:0.708661;stroke-linecap:round;stroke-linejoin:round;stroke:rgb(0%,0%,0%);stroke-opacity:1;stroke-miterlimit:10;" d="M 330.566406 47.21875 C 330.566406 51.960938 323.453125 51.960938 323.453125 47.21875 C 323.453125 42.480469 330.566406 42.480469 330.566406 47.21875 "/>
<path style="fill-rule:nonzero;fill:rgb(0%,0%,0%);fill-opacity:1;stroke-width:0.708661;stroke-linecap:round;stroke-linejoin:round;stroke:rgb(0%,0%,0%);stroke-opacity:1;stroke-miterlimit:10;" d="M 401.027344 47.21875 C 401.027344 51.960938 393.917969 51.960938 393.917969 47.21875 C 393.917969 42.480469 401.027344 42.480469 401.027344 47.21875 "/>
<path style="fill-rule:nonzero;fill:rgb(0%,0%,0%);fill-opacity:1;stroke-width:0.708661;stroke-linecap:round;stroke-linejoin:round;stroke:rgb(0%,0%,0%);stroke-opacity:1;stroke-miterlimit:10;" d="M 471.492188 47.21875 C 471.492188 51.960938 464.382812 51.960938 464.382812 47.21875 C 464.382812 42.480469 471.492188 42.480469 471.492188 47.21875 "/>
<path style="fill-rule:nonzero;fill:rgb(0%,0%,0%);fill-opacity:1;stroke-width:0.708661;stroke-linecap:round;stroke-linejoin:round;stroke:rgb(0%,0%,0%);stroke-opacity:1;stroke-miterlimit:10;" d="M 541.953125 47.21875 C 541.953125 51.960938 534.84375 51.960938 534.84375 47.21875 C 534.84375 42.480469 541.953125 42.480469 541.953125 47.21875 "/>
<path style="fill-rule:nonzero;fill:rgb(0%,0%,0%);fill-opacity:1;stroke-width:0.708661;stroke-linecap:round;stroke-linejoin:round;stroke:rgb(0%,0%,0%);stroke-opacity:1;stroke-miterlimit:10;" d="M 612.417969 47.21875 C 612.417969 51.960938 605.308594 51.960938 605.308594 47.21875 C 605.308594 42.480469 612.417969 42.480469 612.417969 47.21875 "/>
<path style="fill-rule:nonzero;fill:rgb(0%,0%,0%);fill-opacity:1;stroke-width:0.708661;stroke-linecap:round;stroke-linejoin:round;stroke:rgb(0%,0%,0%);stroke-opacity:1;stroke-miterlimit:10;" d="M 682.878906 47.21875 C 682.878906 51.960938 675.769531 51.960938 675.769531 47.21875 C 675.769531 42.480469 682.878906 42.480469 682.878906 47.21875 "/>
<path style="fill-rule:nonzero;fill:rgb(0%,0%,0%);fill-opacity:1;stroke-width:0.708661;stroke-linecap:round;stroke-linejoin:round;stroke:rgb(0%,0%,0%);stroke-opacity:1;stroke-miterlimit:10;" d="M 48.714844 123.726562 C 48.714844 128.46875 41.601562 128.46875 41.601562 123.726562 C 41.601562 118.988281 48.714844 118.988281 48.714844 123.726562 "/>
<path style="fill-rule:nonzero;fill:rgb(0%,0%,0%);fill-opacity:1;stroke-width:0.708661;stroke-linecap:round;stroke-linejoin:round;stroke:rgb(0%,0%,0%);stroke-opacity:1;stroke-miterlimit:10;" d="M 119.175781 123.726562 C 119.175781 128.46875 112.066406 128.46875 112.066406 123.726562 C 112.066406 118.988281 119.175781 118.988281 119.175781 123.726562 "/>
<path style="fill-rule:nonzero;fill:rgb(0%,0%,0%);fill-opacity:1;stroke-width:0.708661;stroke-linecap:round;stroke-linejoin:round;stroke:rgb(0%,0%,0%);stroke-opacity:1;stroke-miterlimit:10;" d="M 189.640625 123.726562 C 189.640625 128.46875 182.527344 128.46875 182.527344 123.726562 C 182.527344 118.988281 189.640625 118.988281 189.640625 123.726562 "/>
<path style="fill-rule:nonzero;fill:rgb(0%,0%,0%);fill-opacity:1;stroke-width:0.708661;stroke-linecap:round;stroke-linejoin:round;stroke:rgb(0%,0%,0%);stroke-opacity:1;stroke-miterlimit:10;" d="M 260.101562 123.726562 C 260.101562 128.46875 252.992188 128.46875 252.992188 123.726562 C 252.992188 118.988281 260.101562 118.988281 260.101562 123.726562 "/>
<path style="fill-rule:nonzero;fill:rgb(0%,0%,0%);fill-opacity:1;stroke-width:0.708661;stroke-linecap:round;stroke-linejoin:round;stroke:rgb(0%,0%,0%);stroke-opacity:1;stroke-miterlimit:10;" d="M 330.566406 123.726562 C 330.566406 128.46875 323.453125 128.46875 323.453125 123.726562 C 323.453125 118.988281 330.566406 118.988281 330.566406 123.726562 "/>
<path style="fill-rule:nonzero;fill:rgb(0%,0%,0%);fill-opacity:1;stroke-width:0.708661;stroke-linecap:round;stroke-linejoin:round;stroke:rgb(0%,0%,0%);stroke-opacity:1;stroke-miterlimit:10;" d="M 401.027344 123.726562 C 401.027344 128.46875 393.917969 128.46875 393.917969 123.726562 C 393.917969 118.988281 401.027344 118.988281 401.027344 123.726562 "/>
<path style="fill-rule:nonzero;fill:rgb(0%,0%,0%);fill-opacity:1;stroke-width:0.708661;stroke-linecap:round;stroke-linejoin:round;stroke:rgb(0%,0%,0%);stroke-opacity:1;stroke-miterlimit:10;" d="M 471.492188 123.726562 C 471.492188 128.46875 464.382812 128.46875 464.382812 123.726562 C 464.382812 118.988281 471.492188 118.988281 471.492188 123.726562 "/>
<path style="fill-rule:nonzero;fill:rgb(0%,0%,0%);fill-opacity:1;stroke-width:0.708661;stroke-linecap:round;stroke-linejoin:round;stroke:rgb(0%,0%,0%);stroke-opacity:1;stroke-miterlimit:10;" d="M 541.953125 123.726562 C 541.953125 128.46875 534.84375 128.46875 534.84375 123.726562 C 534.84375 118.988281 541.953125 118.988281 541.953125 123.726562 "/>
<path style="fill-rule:nonzero;fill:rgb(0%,0%,0%);fill-opacity:1;stroke-width:0.708661;stroke-linecap:round;stroke-linejoin:round;stroke:rgb(0%,0%,0%);stroke-opacity:1;stroke-miterlimit:10;" d="M 612.417969 123.726562 C 612.417969 128.46875 605.308594 128.46875 605.308594 123.726562 C 605.308594 118.988281 612.417969 118.988281 612.417969 123.726562 "/>
<path style="fill-rule:nonzero;fill:rgb(0%,0%,0%);fill-opacity:1;stroke-width:0.708661;stroke-linecap:round;stroke-linejoin:round;stroke:rgb(0%,0%,0%);stroke-opacity:1;stroke-miterlimit:10;" d="M 682.878906 123.726562 C 682.878906 128.46875 675.769531 128.46875 675.769531 123.726562 C 675.769531 118.988281 682.878906 118.988281 682.878906 123.726562 "/>
<path style="fill-rule:nonzero;fill:rgb(0%,0%,0%);fill-opacity:1;stroke-width:0.708661;stroke-linecap:round;stroke-linejoin:round;stroke:rgb(0%,0%,0%);stroke-opacity:1;stroke-miterlimit:10;" d="M 48.714844 200.234375 C 48.714844 204.976562 41.601562 204.976562 41.601562 200.234375 C 41.601562 195.496094 48.714844 195.496094 48.714844 200.234375 "/>
<path style="fill-rule:nonzero;fill:rgb(0%,0%,0%);fill-opacity:1;stroke-width:0.708661;stroke-linecap:round;stroke-linejoin:round;stroke:rgb(0%,0%,0%);stroke-opacity:1;stroke-miterlimit:10;" d="M 119.175781 200.234375 C 119.175781 204.976562 112.066406 204.976562 112.066406 200.234375 C 112.066406 195.496094 119.175781 195.496094 119.175781 200.234375 "/>
<path style="fill-rule:nonzero;fill:rgb(0%,0%,0%);fill-opacity:1;stroke-width:0.708661;stroke-linecap:round;stroke-linejoin:round;stroke:rgb(0%,0%,0%);stroke-opacity:1;stroke-miterlimit:10;" d="M 189.640625 200.234375 C 189.640625 204.976562 182.527344 204.976562 182.527344 200.234375 C 182.527344 195.496094 189.640625 195.496094 189.640625 200.234375 "/>
<path style="fill-rule:nonzero;fill:rgb(0%,0%,0%);fill-opacity:1;stroke-width:0.708661;stroke-linecap:round;stroke-linejoin:round;stroke:rgb(0%,0%,0%);stroke-opacity:1;stroke-miterlimit:10;" d="M 260.101562 200.234375 C 260.101562 204.976562 252.992188 204.976562 252.992188 200.234375 C 252.992188 195.496094 260.101562 195.496094 260.101562 200.234375 "/>
<path style="fill-rule:nonzero;fill:rgb(0%,0%,0%);fill-opacity:1;stroke-width:0.708661;stroke-linecap:round;stroke-linejoin:round;stroke:rgb(0%,0%,0%);stroke-opacity:1;stroke-miterlimit:10;" d="M 330.566406 200.234375 C 330.566406 204.976562 323.453125 204.976562 323.453125 200.234375 C 323.453125 195.496094 330.566406 195.496094 330.566406 200.234375 "/>
<path style="fill-rule:nonzero;fill:rgb(0%,0%,0%);fill-opacity:1;stroke-width:0.708661;stroke-linecap:round;stroke-linejoin:round;stroke:rgb(0%,0%,0%);stroke-opacity:1;stroke-miterlimit:10;" d="M 401.027344 200.234375 C 401.027344 204.976562 393.917969 204.976562 393.917969 200.234375 C 393.917969 195.496094 401.027344 195.496094 401.027344 200.234375 "/>
<path style="fill-rule:nonzero;fill:rgb(0%,0%,0%);fill-opacity:1;stroke-width:0.708661;stroke-linecap:round;stroke-linejoin:round;stroke:rgb(0%,0%,0%);stroke-opacity:1;stroke-miterlimit:10;" d="M 471.492188 200.234375 C 471.492188 204.976562 464.382812 204.976562 464.382812 200.234375 C 464.382812 195.496094 471.492188 195.496094 471.492188 200.234375 "/>
<path style="fill-rule:nonzero;fill:rgb(0%,0%,0%);fill-opacity:1;stroke-width:0.708661;stroke-linecap:round;stroke-linejoin:round;stroke:rgb(0%,0%,0%);stroke-opacity:1;stroke-miterlimit:10;" d="M 541.953125 200.234375 C 541.953125 204.976562 534.84375 204.976562 534.84375 200.234375 C 534.84375 195.496094 541.953125 195.496094 541.953125 200.234375 "/>
<path style="fill-rule:nonzero;fill:rgb(0%,0%,0%);fill-opacity:1;stroke-width:0.708661;stroke-linecap:round;stroke-linejoin:round;stroke:rgb(0%,0%,0%);stroke-opacity:1;stroke-miterlimit:10;" d="M 612.417969 200.234375 C 612.417969 204.976562 605.308594 204.976562 605.308594 200.234375 C 605.308594 195.496094 612.417969 195.496094 612.417969 200.234375 "/>
<path style="fill-rule:nonzero;fill:rgb(0%,0%,0%);fill-opacity:1;stroke-width:0.708661;stroke-linecap:round;stroke-linejoin:round;stroke:rgb(0%,0%,0%);stroke-opacity:1;stroke-miterlimit:10;" d="M 682.878906 200.234375 C 682.878906 204.976562 675.769531 204.976562 675.769531 200.234375 C 675.769531 195.496094 682.878906 195.496094 682.878906 200.234375 "/>
<path style="fill-rule:nonzero;fill:rgb(0%,0%,0%);fill-opacity:1;stroke-width:0.708661;stroke-linecap:round;stroke-linejoin:round;stroke:rgb(0%,0%,0%);stroke-opacity:1;stroke-miterlimit:10;" d="M 48.714844 276.742188 C 48.714844 281.484375 41.601562 281.484375 41.601562 276.742188 C 41.601562 272.003906 48.714844 272.003906 48.714844 276.742188 "/>
<path style="fill-rule:nonzero;fill:rgb(0%,0%,0%);fill-opacity:1;stroke-width:0.708661;stroke-linecap:round;stroke-linejoin:round;stroke:rgb(0%,0%,0%);stroke-opacity:1;stroke-miterlimit:10;" d="M 119.175781 276.742188 C 119.175781 281.484375 112.066406 281.484375 112.066406 276.742188 C 112.066406 272.003906 119.175781 272.003906 119.175781 276.742188 "/>
<path style="fill-rule:nonzero;fill:rgb(0%,0%,0%);fill-opacity:1;stroke-width:0.708661;stroke-linecap:round;stroke-linejoin:round;stroke:rgb(0%,0%,0%);stroke-opacity:1;stroke-miterlimit:10;" d="M 189.640625 276.742188 C 189.640625 281.484375 182.527344 281.484375 182.527344 276.742188 C 182.527344 272.003906 189.640625 272.003906 189.640625 276.742188 "/>
<path style="fill-rule:nonzero;fill:rgb(0%,0%,0%);fill-opacity:1;stroke-width:0.708661;stroke-linecap:round;stroke-linejoin:round;stroke:rgb(0%,0%,0%);stroke-opacity:1;stroke-miterlimit:10;" d="M 260.101562 276.742188 C 260.101562 281.484375 252.992188 281.484375 252.992188 276.742188 C 252.992188 272.003906 260.101562 272.003906 260.101562 276.742188 "/>
<path style="fill-rule:nonzero;fill:rgb(0%,0%,0%);fill-opacity:1;stroke-width:0.708661;stroke-linecap:round;stroke-linejoin:round;stroke:rgb(0%,0%,0%);stroke-opacity:1;stroke-miterlimit:10;" d="M 330.566406 276.742188 C 330.566406 281.484375 323.453125 281.484375 323.453125 276.742188 C 323.453125 272.003906 330.566406 272.003906 330.566406 276.742188 "/>
<path style="fill-rule:nonzero;fill:rgb(0%,0%,0%);fill-opacity:1;stroke-width:0.708661;stroke-linecap:round;stroke-linejoin:round;stroke:rgb(0%,0%,0%);stroke-opacity:1;stroke-miterlimit:10;" d="M 401.027344 276.742188 C 401.027344 281.484375 393.917969 281.484375 393.917969 276.742188 C 393.917969 272.003906 401.027344 272.003906 401.027344 276.742188 "/>
<path style="fill-rule:nonzero;fill:rgb(0%,0%,0%);fill-opacity:1;stroke-width:0.708661;stroke-linecap:round;stroke-linejoin:round;stroke:rgb(0%,0%,0%);stroke-opacity:1;stroke-miterlimit:10;" d="M 471.492188 276.742188 C 471.492188 281.484375 464.382812 281.484375 464.382812 276.742188 C 464.382812 272.003906 471.492188 272.003906 471.492188 276.742188 "/>
<path style="fill-rule:nonzero;fill:rgb(0%,0%,0%);fill-opacity:1;stroke-width:0.708661;stroke-linecap:round;stroke-linejoin:round;stroke:rgb(0%,0%,0%);stroke-opacity:1;stroke-miterlimit:10;" d="M 541.953125 276.742188 C 541.953125 281.484375 534.84375 281.484375 534.84375 276.742188 C 534.84375 272.003906 541.953125 272.003906 541.953125 276.742188 "/>
<path style="fill-rule:nonzero;fill:rgb(0%,0%,0%);fill-opacity:1;stroke-width:0.708661;stroke-linecap:round;stroke-linejoin:round;stroke:rgb(0%,0%,0%);stroke-opacity:1;stroke-miterlimit:10;" d="M 612.417969 276.742188 C 612.417969 281.484375 605.308594 281.484375 605.308594 276.742188 C 605.308594 272.003906 612.417969 272.003906 612.417969 276.742188 "/>
<path style="fill-rule:nonzero;fill:rgb(0%,0%,0%);fill-opacity:1;stroke-width:0.708661;stroke-linecap:round;stroke-linejoin:round;stroke:rgb(0%,0%,0%);stroke-opacity:1;stroke-miterlimit:10;" d="M 682.878906 276.742188 C 682.878906 281.484375 675.769531 281.484375 675.769531 276.742188 C 675.769531 272.003906 682.878906 272.003906 682.878906 276.742188 "/>
<path style="fill-rule:nonzero;fill:rgb(0%,0%,0%);fill-opacity:1;stroke-width:0.708661;stroke-linecap:round;stroke-linejoin:round;stroke:rgb(0%,0%,0%);stroke-opacity:1;stroke-miterlimit:10;" d="M 48.714844 353.25 C 48.714844 357.992188 41.601562 357.992188 41.601562 353.25 C 41.601562 348.511719 48.714844 348.511719 48.714844 353.25 "/>
<path style="fill-rule:nonzero;fill:rgb(0%,0%,0%);fill-opacity:1;stroke-width:0.708661;stroke-linecap:round;stroke-linejoin:round;stroke:rgb(0%,0%,0%);stroke-opacity:1;stroke-miterlimit:10;" d="M 119.175781 353.25 C 119.175781 357.992188 112.066406 357.992188 112.066406 353.25 C 112.066406 348.511719 119.175781 348.511719 119.175781 353.25 "/>
<path style="fill-rule:nonzero;fill:rgb(0%,0%,0%);fill-opacity:1;stroke-width:0.708661;stroke-linecap:round;stroke-linejoin:round;stroke:rgb(0%,0%,0%);stroke-opacity:1;stroke-miterlimit:10;" d="M 189.640625 353.25 C 189.640625 357.992188 182.527344 357.992188 182.527344 353.25 C 182.527344 348.511719 189.640625 348.511719 189.640625 353.25 "/>
<path style="fill-rule:nonzero;fill:rgb(0%,0%,0%);fill-opacity:1;stroke-width:0.708661;stroke-linecap:round;stroke-linejoin:round;stroke:rgb(0%,0%,0%);stroke-opacity:1;stroke-miterlimit:10;" d="M 260.101562 353.25 C 260.101562 357.992188 252.992188 357.992188 252.992188 353.25 C 252.992188 348.511719 260.101562 348.511719 260.101562 353.25 "/>
<path style="fill-rule:nonzero;fill:rgb(0%,0%,0%);fill-opacity:1;stroke-width:0.708661;stroke-linecap:round;stroke-linejoin:round;stroke:rgb(0%,0%,0%);stroke-opacity:1;stroke-miterlimit:10;" d="M 330.566406 353.25 C 330.566406 357.992188 323.453125 357.992188 323.453125 353.25 C 323.453125 348.511719 330.566406 348.511719 330.566406 353.25 "/>
<path style="fill-rule:nonzero;fill:rgb(0%,0%,0%);fill-opacity:1;stroke-width:0.708661;stroke-linecap:round;stroke-linejoin:round;stroke:rgb(0%,0%,0%);stroke-opacity:1;stroke-miterlimit:10;" d="M 401.027344 353.25 C 401.027344 357.992188 393.917969 357.992188 393.917969 353.25 C 393.917969 348.511719 401.027344 348.511719 401.027344 353.25 "/>
<path style="fill-rule:nonzero;fill:rgb(0%,0%,0%);fill-opacity:1;stroke-width:0.708661;stroke-linecap:round;stroke-linejoin:round;stroke:rgb(0%,0%,0%);stroke-opacity:1;stroke-miterlimit:10;" d="M 471.492188 353.25 C 471.492188 357.992188 464.382812 357.992188 464.382812 353.25 C 464.382812 348.511719 471.492188 348.511719 471.492188 353.25 "/>
<path style="fill-rule:nonzero;fill:rgb(0%,0%,0%);fill-opacity:1;stroke-width:0.708661;stroke-linecap:round;stroke-linejoin:round;stroke:rgb(0%,0%,0%);stroke-opacity:1;stroke-miterlimit:10;" d="M 541.953125 353.25 C 541.953125 357.992188 534.84375 357.992188 534.84375 353.25 C 534.84375 348.511719 541.953125 348.511719 541.953125 353.25 "/>
<path style="fill-rule:nonzero;fill:rgb(0%,0%,0%);fill-opacity:1;stroke-width:0.708661;stroke-linecap:round;stroke-linejoin:round;stroke:rgb(0%,0%,0%);stroke-opacity:1;stroke-miterlimit:10;" d="M 612.417969 353.25 C 612.417969 357.992188 605.308594 357.992188 605.308594 353.25 C 605.308594 348.511719 612.417969 348.511719 612.417969 353.25 "/>
<path style="fill-rule:nonzero;fill:rgb(0%,0%,0%);fill-opacity:1;stroke-width:0.708661;stroke-linecap:round;stroke-linejoin:round;stroke:rgb(0%,0%,0%);stroke-opacity:1;stroke-miterlimit:10;" d="M 682.878906 353.25 C 682.878906 357.992188 675.769531 357.992188 675.769531 353.25 C 675.769531 348.511719 682.878906 348.511719 682.878906 353.25 "/>
<path style="fill-rule:nonzero;fill:rgb(0%,0%,0%);fill-opacity:1;stroke-width:0.708661;stroke-linecap:round;stroke-linejoin:round;stroke:rgb(0%,0%,0%);stroke-opacity:1;stroke-miterlimit:10;" d="M 48.714844 429.757812 C 48.714844 434.5 41.601562 434.5 41.601562 429.757812 C 41.601562 425.019531 48.714844 425.019531 48.714844 429.757812 "/>
<path style="fill-rule:nonzero;fill:rgb(0%,0%,0%);fill-opacity:1;stroke-width:0.708661;stroke-linecap:round;stroke-linejoin:round;stroke:rgb(0%,0%,0%);stroke-opacity:1;stroke-miterlimit:10;" d="M 119.175781 429.757812 C 119.175781 434.5 112.066406 434.5 112.066406 429.757812 C 112.066406 425.019531 119.175781 425.019531 119.175781 429.757812 "/>
<path style="fill-rule:nonzero;fill:rgb(0%,0%,0%);fill-opacity:1;stroke-width:0.708661;stroke-linecap:round;stroke-linejoin:round;stroke:rgb(0%,0%,0%);stroke-opacity:1;stroke-miterlimit:10;" d="M 189.640625 429.757812 C 189.640625 434.5 182.527344 434.5 182.527344 429.757812 C 182.527344 425.019531 189.640625 425.019531 189.640625 429.757812 "/>
<path style="fill-rule:nonzero;fill:rgb(0%,0%,0%);fill-opacity:1;stroke-width:0.708661;stroke-linecap:round;stroke-linejoin:round;stroke:rgb(0%,0%,0%);stroke-opacity:1;stroke-miterlimit:10;" d="M 260.101562 429.757812 C 260.101562 434.5 252.992188 434.5 252.992188 429.757812 C 252.992188 425.019531 260.101562 425.019531 260.101562 429.757812 "/>
<path style="fill-rule:nonzero;fill:rgb(0%,0%,0%);fill-opacity:1;stroke-width:0.708661;stroke-linecap:round;stroke-linejoin:round;stroke:rgb(0%,0%,0%);stroke-opacity:1;stroke-miterlimit:10;" d="M 330.566406 429.757812 C 330.566406 434.5 323.453125 434.5 323.453125 429.757812 C 323.453125 425.019531 330.566406 425.019531 330.566406 429.757812 "/>
<path style="fill-rule:nonzero;fill:rgb(0%,0%,0%);fill-opacity:1;stroke-width:0.708661;stroke-linecap:round;stroke-linejoin:round;stroke:rgb(0%,0%,0%);stroke-opacity:1;stroke-miterlimit:10;" d="M 401.027344 429.757812 C 401.027344 434.5 393.917969 434.5 393.917969 429.757812 C 393.917969 425.019531 401.027344 425.019531 401.027344 429.757812 "/>
<path style="fill-rule:nonzero;fill:rgb(0%,0%,0%);fill-opacity:1;stroke-width:0.708661;stroke-linecap:round;stroke-linejoin:round;stroke:rgb(0%,0%,0%);stroke-opacity:1;stroke-miterlimit:10;" d="M 471.492188 429.757812 C 471.492188 434.5 464.382812 434.5 464.382812 429.757812 C 464.382812 425.019531 471.492188 425.019531 471.492188 429.757812 "/>
<path style="fill-rule:nonzero;fill:rgb(0%,0%,0%);fill-opacity:1;stroke-width:0.708661;stroke-linecap:round;stroke-linejoin:round;stroke:rgb(0%,0%,0%);stroke-opacity:1;stroke-miterlimit:10;" d="M 541.953125 429.757812 C 541.953125 434.5 534.84375 434.5 534.84375 429.757812 C 534.84375 425.019531 541.953125 425.019531 541.953125 429.757812 "/>
<path style="fill-rule:nonzero;fill:rgb(0%,0%,0%);fill-opacity:1;stroke-width:0.708661;stroke-linecap:round;stroke-linejoin:round;stroke:rgb(0%,0%,0%);stroke-opacity:1;stroke-miterlimit:10;" d="M 612.417969 429.757812 C 612.417969 434.5 605.308594 434.5 605.308594 429.757812 C 605.308594 425.019531 612.417969 425.019531 612.417969 429.757812 "/>
<path style="fill-rule:nonzero;fill:rgb(0%,0%,0%);fill-opacity:1;stroke-width:0.708661;stroke-linecap:round;stroke-linejoin:round;stroke:rgb(0%,0%,0%);stroke-opacity:1;stroke-miterlimit:10;" d="M 682.878906 429.757812 C 682.878906 434.5 675.769531 434.5 675.769531 429.757812 C 675.769531 425.019531 682.878906 425.019531 682.878906 429.757812 "/>
<path style="fill-rule:nonzero;fill:rgb(0%,0%,0%);fill-opacity:1;stroke-width:0.708661;stroke-linecap:round;stroke-linejoin:round;stroke:rgb(0%,0%,0%);stroke-opacity:1;stroke-miterlimit:10;" d="M 48.714844 506.265625 C 48.714844 511.007812 41.601562 511.007812 41.601562 506.265625 C 41.601562 501.527344 48.714844 501.527344 48.714844 506.265625 "/>
<path style="fill-rule:nonzero;fill:rgb(0%,0%,0%);fill-opacity:1;stroke-width:0.708661;stroke-linecap:round;stroke-linejoin:round;stroke:rgb(0%,0%,0%);stroke-opacity:1;stroke-miterlimit:10;" d="M 119.175781 506.265625 C 119.175781 511.007812 112.066406 511.007812 112.066406 506.265625 C 112.066406 501.527344 119.175781 501.527344 119.175781 506.265625 "/>
<path style="fill-rule:nonzero;fill:rgb(0%,0%,0%);fill-opacity:1;stroke-width:0.708661;stroke-linecap:round;stroke-linejoin:round;stroke:rgb(0%,0%,0%);stroke-opacity:1;stroke-miterlimit:10;" d="M 189.640625 506.265625 C 189.640625 511.007812 182.527344 511.007812 182.527344 506.265625 C 182.527344 501.527344 189.640625 501.527344 189.640625 506.265625 "/>
<path style="fill-rule:nonzero;fill:rgb(0%,0%,0%);fill-opacity:1;stroke-width:0.708661;stroke-linecap:round;stroke-linejoin:round;stroke:rgb(0%,0%,0%);stroke-opacity:1;stroke-miterlimit:10;" d="M 260.101562 506.265625 C 260.101562 511.007812 252.992188 511.007812 252.992188 506.265625 C 252.992188 501.527344 260.101562 501.527344 260.101562 506.265625 "/>
<path style="fill-rule:nonzero;fill:rgb(0%,0%,0%);fill-opacity:1;stroke-width:0.708661;stroke-linecap:round;stroke-linejoin:round;stroke:rgb(0%,0%,0%);stroke-opacity:1;stroke-miterlimit:10;" d="M 330.566406 506.265625 C 330.566406 511.007812 323.453125 511.007812 323.453125 506.265625 C 323.453125 501.527344 330.566406 501.527344 330.566406 506.265625 "/>
<path style="fill-rule:nonzero;fill:rgb(0%,0%,0%);fill-opacity:1;stroke-width:0.708661;stroke-linecap:round;stroke-linejoin:round;stroke:rgb(0%,0%,0%);stroke-opacity:1;stroke-miterlimit:10;" d="M 401.027344 506.265625 C 401.027344 511.007812 393.917969 511.007812 393.917969 506.265625 C 393.917969 501.527344 401.027344 501.527344 401.027344 506.265625 "/>
<path style="fill-rule:nonzero;fill:rgb(0%,0%,0%);fill-opacity:1;stroke-width:0.708661;stroke-linecap:round;stroke-linejoin:round;stroke:rgb(0%,0%,0%);stroke-opacity:1;stroke-miterlimit:10;" d="M 471.492188 506.265625 C 471.492188 511.007812 464.382812 511.007812 464.382812 506.265625 C 464.382812 501.527344 471.492188 501.527344 471.492188 506.265625 "/>
<path style="fill-rule:nonzero;fill:rgb(0%,0%,0%);fill-opacity:1;stroke-width:0.708661;stroke-linecap:round;stroke-linejoin:round;stroke:rgb(0%,0%,0%);stroke-opacity:1;stroke-miterlimit:10;" d="M 541.953125 506.265625 C 541.953125 511.007812 534.84375 511.007812 534.84375 506.265625 C 534.84375 501.527344 541.953125 501.527344 541.953125 506.265625 "/>
<path style="fill-rule:nonzero;fill:rgb(0%,0%,0%);fill-opacity:1;stroke-width:0.708661;stroke-linecap:round;stroke-linejoin:round;stroke:rgb(0%,0%,0%);stroke-opacity:1;stroke-miterlimit:10;" d="M 612.417969 506.265625 C 612.417969 511.007812 605.308594 511.007812 605.308594 506.265625 C 605.308594 501.527344 612.417969 501.527344 612.417969 506.265625 "/>
<path style="fill-rule:nonzero;fill:rgb(0%,0%,0%);fill-opacity:1;stroke-width:0.708661;stroke-linecap:round;stroke-linejoin:round;stroke:rgb(0%,0%,0%);stroke-opacity:1;stroke-miterlimit:10;" d="M 682.878906 506.265625 C 682.878906 511.007812 675.769531 511.007812 675.769531 506.265625 C 675.769531 501.527344 682.878906 501.527344 682.878906 506.265625 "/>
<path style="fill-rule:nonzero;fill:rgb(0%,0%,0%);fill-opacity:1;stroke-width:0.708661;stroke-linecap:round;stroke-linejoin:round;stroke:rgb(0%,0%,0%);stroke-opacity:1;stroke-miterlimit:10;" d="M 48.714844 582.773438 C 48.714844 587.515625 41.601562 587.515625 41.601562 582.773438 C 41.601562 578.035156 48.714844 578.035156 48.714844 582.773438 "/>
<path style="fill-rule:nonzero;fill:rgb(0%,0%,0%);fill-opacity:1;stroke-width:0.708661;stroke-linecap:round;stroke-linejoin:round;stroke:rgb(0%,0%,0%);stroke-opacity:1;stroke-miterlimit:10;" d="M 119.175781 582.773438 C 119.175781 587.515625 112.066406 587.515625 112.066406 582.773438 C 112.066406 578.035156 119.175781 578.035156 119.175781 582.773438 "/>
<path style="fill-rule:nonzero;fill:rgb(0%,0%,0%);fill-opacity:1;stroke-width:0.708661;stroke-linecap:round;stroke-linejoin:round;stroke:rgb(0%,0%,0%);stroke-opacity:1;stroke-miterlimit:10;" d="M 189.640625 582.773438 C 189.640625 587.515625 182.527344 587.515625 182.527344 582.773438 C 182.527344 578.035156 189.640625 578.035156 189.640625 582.773438 "/>
<path style="fill-rule:nonzero;fill:rgb(0%,0%,0%);fill-opacity:1;stroke-width:0.708661;stroke-linecap:round;stroke-linejoin:round;stroke:rgb(0%,0%,0%);stroke-opacity:1;stroke-miterlimit:10;" d="M 260.101562 582.773438 C 260.101562 587.515625 252.992188 587.515625 252.992188 582.773438 C 252.992188 578.035156 260.101562 578.035156 260.101562 582.773438 "/>
<path style="fill-rule:nonzero;fill:rgb(0%,0%,0%);fill-opacity:1;stroke-width:0.708661;stroke-linecap:round;stroke-linejoin:round;stroke:rgb(0%,0%,0%);stroke-opacity:1;stroke-miterlimit:10;" d="M 330.566406 582.773438 C 330.566406 587.515625 323.453125 587.515625 323.453125 582.773438 C 323.453125 578.035156 330.566406 578.035156 330.566406 582.773438 "/>
<path style="fill-rule:nonzero;fill:rgb(0%,0%,0%);fill-opacity:1;stroke-width:0.708661;stroke-linecap:round;stroke-linejoin:round;stroke:rgb(0%,0%,0%);stroke-opacity:1;stroke-miterlimit:10;" d="M 401.027344 582.773438 C 401.027344 587.515625 393.917969 587.515625 393.917969 582.773438 C 393.917969 578.035156 401.027344 578.035156 401.027344 582.773438 "/>
<path style="fill-rule:nonzero;fill:rgb(0%,0%,0%);fill-opacity:1;stroke-width:0.708661;stroke-linecap:round;stroke-linejoin:round;stroke:rgb(0%,0%,0%);stroke-opacity:1;stroke-miterlimit:10;" d="M 471.492188 582.773438 C 471.492188 587.515625 464.382812 587.515625 464.382812 582.773438 C 464.382812 578.035156 471.492188 578.035156 471.492188 582.773438 "/>
<path style="fill-rule:nonzero;fill:rgb(0%,0%,0%);fill-opacity:1;stroke-width:0.708661;stroke-linecap:round;stroke-linejoin:round;stroke:rgb(0%,0%,0%);stroke-opacity:1;stroke-miterlimit:10;" d="M 541.953125 582.773438 C 541.953125 587.515625 534.84375 587.515625 534.84375 582.773438 C 534.84375 578.035156 541.953125 578.035156 541.953125 582.773438 "/>
<path style="fill-rule:nonzero;fill:rgb(0%,0%,0%);fill-opacity:1;stroke-width:0.708661;stroke-linecap:round;stroke-linejoin:round;stroke:rgb(0%,0%,0%);stroke-opacity:1;stroke-miterlimit:10;" d="M 612.417969 582.773438 C 612.417969 587.515625 605.308594 587.515625 605.308594 582.773438 C 605.308594 578.035156 612.417969 578.035156 612.417969 582.773438 "/>
<path style="fill-rule:nonzero;fill:rgb(0%,0%,0%);fill-opacity:1;stroke-width:0.708661;stroke-linecap:round;stroke-linejoin:round;stroke:rgb(0%,0%,0%);stroke-opacity:1;stroke-miterlimit:10;" d="M 682.878906 582.773438 C 682.878906 587.515625 675.769531 587.515625 675.769531 582.773438 C 675.769531 578.035156 682.878906 578.035156 682.878906 582.773438 "/>
<path style="fill-rule:nonzero;fill:rgb(0%,0%,0%);fill-opacity:1;stroke-width:0.708661;stroke-linecap:round;stroke-linejoin:round;stroke:rgb(0%,0%,0%);stroke-opacity:1;stroke-miterlimit:10;" d="M 48.714844 659.28125 C 48.714844 664.023438 41.601562 664.023438 41.601562 659.28125 C 41.601562 654.539062 48.714844 654.539062 48.714844 659.28125 "/>
<path style="fill-rule:nonzero;fill:rgb(0%,0%,0%);fill-opacity:1;stroke-width:0.708661;stroke-linecap:round;stroke-linejoin:round;stroke:rgb(0%,0%,0%);stroke-opacity:1;stroke-miterlimit:10;" d="M 119.175781 659.28125 C 119.175781 664.023438 112.066406 664.023438 112.066406 659.28125 C 112.066406 654.539062 119.175781 654.539062 119.175781 659.28125 "/>
<path style="fill-rule:nonzero;fill:rgb(0%,0%,0%);fill-opacity:1;stroke-width:0.708661;stroke-linecap:round;stroke-linejoin:round;stroke:rgb(0%,0%,0%);stroke-opacity:1;stroke-miterlimit:10;" d="M 189.640625 659.28125 C 189.640625 664.023438 182.527344 664.023438 182.527344 659.28125 C 182.527344 654.539062 189.640625 654.539062 189.640625 659.28125 "/>
<path style="fill-rule:nonzero;fill:rgb(0%,0%,0%);fill-opacity:1;stroke-width:0.708661;stroke-linecap:round;stroke-linejoin:round;stroke:rgb(0%,0%,0%);stroke-opacity:1;stroke-miterlimit:10;" d="M 260.101562 659.28125 C 260.101562 664.023438 252.992188 664.023438 252.992188 659.28125 C 252.992188 654.539062 260.101562 654.539062 260.101562 659.28125 "/>
<path style="fill-rule:nonzero;fill:rgb(0%,0%,0%);fill-opacity:1;stroke-width:0.708661;stroke-linecap:round;stroke-linejoin:round;stroke:rgb(0%,0%,0%);stroke-opacity:1;stroke-miterlimit:10;" d="M 330.566406 659.28125 C 330.566406 664.023438 323.453125 664.023438 323.453125 659.28125 C 323.453125 654.539062 330.566406 654.539062 330.566406 659.28125 "/>
<path style="fill-rule:nonzero;fill:rgb(0%,0%,0%);fill-opacity:1;stroke-width:0.708661;stroke-linecap:round;stroke-linejoin:round;stroke:rgb(0%,0%,0%);stroke-opacity:1;stroke-miterlimit:10;" d="M 401.027344 659.28125 C 401.027344 664.023438 393.917969 664.023438 393.917969 659.28125 C 393.917969 654.539062 401.027344 654.539062 401.027344 659.28125 "/>
<path style="fill-rule:nonzero;fill:rgb(0%,0%,0%);fill-opacity:1;stroke-width:0.708661;stroke-linecap:round;stroke-linejoin:round;stroke:rgb(0%,0%,0%);stroke-opacity:1;stroke-miterlimit:10;" d="M 471.492188 659.28125 C 471.492188 664.023438 464.382812 664.023438 464.382812 659.28125 C 464.382812 654.539062 471.492188 654.539062 471.492188 659.28125 "/>
<path style="fill-rule:nonzero;fill:rgb(0%,0%,0%);fill-opacity:1;stroke-width:0.708661;stroke-linecap:round;stroke-linejoin:round;stroke:rgb(0%,0%,0%);stroke-opacity:1;stroke-miterlimit:10;" d="M 541.953125 659.28125 C 541.953125 664.023438 534.84375 664.023438 534.84375 659.28125 C 534.84375 654.539062 541.953125 654.539062 541.953125 659.28125 "/>
<path style="fill-rule:nonzero;fill:rgb(0%,0%,0%);fill-opacity:1;stroke-width:0.708661;stroke-linecap:round;stroke-linejoin:round;stroke:rgb(0%,0%,0%);stroke-opacity:1;stroke-miterlimit:10;" d="M 612.417969 659.28125 C 612.417969 664.023438 605.308594 664.023438 605.308594 659.28125 C 605.308594 654.539062 612.417969 654.539062 612.417969 659.28125 "/>
<path style="fill-rule:nonzero;fill:rgb(0%,0%,0%);fill-opacity:1;stroke-width:0.708661;stroke-linecap:round;stroke-linejoin:round;stroke:rgb(0%,0%,0%);stroke-opacity:1;stroke-miterlimit:10;" d="M 682.878906 659.28125 C 682.878906 664.023438 675.769531 664.023438 675.769531 659.28125 C 675.769531 654.539062 682.878906 654.539062 682.878906 659.28125 "/>
<path style="fill-rule:nonzero;fill:rgb(0%,0%,0%);fill-opacity:1;stroke-width:0.708661;stroke-linecap:round;stroke-linejoin:round;stroke:rgb(0%,0%,0%);stroke-opacity:1;stroke-miterlimit:10;" d="M 48.714844 735.789062 C 48.714844 740.53125 41.601562 740.53125 41.601562 735.789062 C 41.601562 731.046875 48.714844 731.046875 48.714844 735.789062 "/>
<path style="fill-rule:nonzero;fill:rgb(0%,0%,0%);fill-opacity:1;stroke-width:0.708661;stroke-linecap:round;stroke-linejoin:round;stroke:rgb(0%,0%,0%);stroke-opacity:1;stroke-miterlimit:10;" d="M 119.175781 735.789062 C 119.175781 740.53125 112.066406 740.53125 112.066406 735.789062 C 112.066406 731.046875 119.175781 731.046875 119.175781 735.789062 "/>
<path style="fill-rule:nonzero;fill:rgb(0%,0%,0%);fill-opacity:1;stroke-width:0.708661;stroke-linecap:round;stroke-linejoin:round;stroke:rgb(0%,0%,0%);stroke-opacity:1;stroke-miterlimit:10;" d="M 189.640625 735.789062 C 189.640625 740.53125 182.527344 740.53125 182.527344 735.789062 C 182.527344 731.046875 189.640625 731.046875 189.640625 735.789062 "/>
<path style="fill-rule:nonzero;fill:rgb(0%,0%,0%);fill-opacity:1;stroke-width:0.708661;stroke-linecap:round;stroke-linejoin:round;stroke:rgb(0%,0%,0%);stroke-opacity:1;stroke-miterlimit:10;" d="M 260.101562 735.789062 C 260.101562 740.53125 252.992188 740.53125 252.992188 735.789062 C 252.992188 731.046875 260.101562 731.046875 260.101562 735.789062 "/>
<path style="fill-rule:nonzero;fill:rgb(0%,0%,0%);fill-opacity:1;stroke-width:0.708661;stroke-linecap:round;stroke-linejoin:round;stroke:rgb(0%,0%,0%);stroke-opacity:1;stroke-miterlimit:10;" d="M 330.566406 735.789062 C 330.566406 740.53125 323.453125 740.53125 323.453125 735.789062 C 323.453125 731.046875 330.566406 731.046875 330.566406 735.789062 "/>
<path style="fill-rule:nonzero;fill:rgb(0%,0%,0%);fill-opacity:1;stroke-width:0.708661;stroke-linecap:round;stroke-linejoin:round;stroke:rgb(0%,0%,0%);stroke-opacity:1;stroke-miterlimit:10;" d="M 401.027344 735.789062 C 401.027344 740.53125 393.917969 740.53125 393.917969 735.789062 C 393.917969 731.046875 401.027344 731.046875 401.027344 735.789062 "/>
<path style="fill-rule:nonzero;fill:rgb(0%,0%,0%);fill-opacity:1;stroke-width:0.708661;stroke-linecap:round;stroke-linejoin:round;stroke:rgb(0%,0%,0%);stroke-opacity:1;stroke-miterlimit:10;" d="M 471.492188 735.789062 C 471.492188 740.53125 464.382812 740.53125 464.382812 735.789062 C 464.382812 731.046875 471.492188 731.046875 471.492188 735.789062 "/>
<path style="fill-rule:nonzero;fill:rgb(0%,0%,0%);fill-opacity:1;stroke-width:0.708661;stroke-linecap:round;stroke-linejoin:round;stroke:rgb(0%,0%,0%);stroke-opacity:1;stroke-miterlimit:10;" d="M 541.953125 735.789062 C 541.953125 740.53125 534.84375 740.53125 534.84375 735.789062 C 534.84375 731.046875 541.953125 731.046875 541.953125 735.789062 "/>
<path style="fill-rule:nonzero;fill:rgb(0%,0%,0%);fill-opacity:1;stroke-width:0.708661;stroke-linecap:round;stroke-linejoin:round;stroke:rgb(0%,0%,0%);stroke-opacity:1;stroke-miterlimit:10;" d="M 612.417969 735.789062 C 612.417969 740.53125 605.308594 740.53125 605.308594 735.789062 C 605.308594 731.046875 612.417969 731.046875 612.417969 735.789062 "/>
<path style="fill-rule:nonzero;fill:rgb(0%,0%,0%);fill-opacity:1;stroke-width:0.708661;stroke-linecap:round;stroke-linejoin:round;stroke:rgb(0%,0%,0%);stroke-opacity:1;stroke-miterlimit:10;" d="M 682.878906 735.789062 C 682.878906 740.53125 675.769531 740.53125 675.769531 735.789062 C 675.769531 731.046875 682.878906 731.046875 682.878906 735.789062 "/>
<path style="fill-rule:nonzero;fill:rgb(0%,0%,0%);fill-opacity:1;stroke-width:0.708661;stroke-linecap:round;stroke-linejoin:round;stroke:rgb(0%,0%,0%);stroke-opacity:1;stroke-miterlimit:10;" d="M 48.714844 812.296875 C 48.714844 817.035156 41.601562 817.035156 41.601562 812.296875 C 41.601562 807.554688 48.714844 807.554688 48.714844 812.296875 "/>
<path style="fill-rule:nonzero;fill:rgb(0%,0%,0%);fill-opacity:1;stroke-width:0.708661;stroke-linecap:round;stroke-linejoin:round;stroke:rgb(0%,0%,0%);stroke-opacity:1;stroke-miterlimit:10;" d="M 119.175781 812.296875 C 119.175781 817.035156 112.066406 817.035156 112.066406 812.296875 C 112.066406 807.554688 119.175781 807.554688 119.175781 812.296875 "/>
<path style="fill-rule:nonzero;fill:rgb(0%,0%,0%);fill-opacity:1;stroke-width:0.708661;stroke-linecap:round;stroke-linejoin:round;stroke:rgb(0%,0%,0%);stroke-opacity:1;stroke-miterlimit:10;" d="M 189.640625 812.296875 C 189.640625 817.035156 182.527344 817.035156 182.527344 812.296875 C 182.527344 807.554688 189.640625 807.554688 189.640625 812.296875 "/>
<path style="fill-rule:nonzero;fill:rgb(0%,0%,0%);fill-opacity:1;stroke-width:0.708661;stroke-linecap:round;stroke-linejoin:round;stroke:rgb(0%,0%,0%);stroke-opacity:1;stroke-miterlimit:10;" d="M 260.101562 812.296875 C 260.101562 817.035156 252.992188 817.035156 252.992188 812.296875 C 252.992188 807.554688 260.101562 807.554688 260.101562 812.296875 "/>
<path style="fill-rule:nonzero;fill:rgb(0%,0%,0%);fill-opacity:1;stroke-width:0.708661;stroke-linecap:round;stroke-linejoin:round;stroke:rgb(0%,0%,0%);stroke-opacity:1;stroke-miterlimit:10;" d="M 330.566406 812.296875 C 330.566406 817.035156 323.453125 817.035156 323.453125 812.296875 C 323.453125 807.554688 330.566406 807.554688 330.566406 812.296875 "/>
<path style="fill-rule:nonzero;fill:rgb(0%,0%,0%);fill-opacity:1;stroke-width:0.708661;stroke-linecap:round;stroke-linejoin:round;stroke:rgb(0%,0%,0%);stroke-opacity:1;stroke-miterlimit:10;" d="M 401.027344 812.296875 C 401.027344 817.035156 393.917969 817.035156 393.917969 812.296875 C 393.917969 807.554688 401.027344 807.554688 401.027344 812.296875 "/>
<path style="fill-rule:nonzero;fill:rgb(0%,0%,0%);fill-opacity:1;stroke-width:0.708661;stroke-linecap:round;stroke-linejoin:round;stroke:rgb(0%,0%,0%);stroke-opacity:1;stroke-miterlimit:10;" d="M 471.492188 812.296875 C 471.492188 817.035156 464.382812 817.035156 464.382812 812.296875 C 464.382812 807.554688 471.492188 807.554688 471.492188 812.296875 "/>
<path style="fill-rule:nonzero;fill:rgb(0%,0%,0%);fill-opacity:1;stroke-width:0.708661;stroke-linecap:round;stroke-linejoin:round;stroke:rgb(0%,0%,0%);stroke-opacity:1;stroke-miterlimit:10;" d="M 541.953125 812.296875 C 541.953125 817.035156 534.84375 817.035156 534.84375 812.296875 C 534.84375 807.554688 541.953125 807.554688 541.953125 812.296875 "/>
<path style="fill-rule:nonzero;fill:rgb(0%,0%,0%);fill-opacity:1;stroke-width:0.708661;stroke-linecap:round;stroke-linejoin:round;stroke:rgb(0%,0%,0%);stroke-opacity:1;stroke-miterlimit:10;" d="M 612.417969 812.296875 C 612.417969 817.035156 605.308594 817.035156 605.308594 812.296875 C 605.308594 807.554688 612.417969 807.554688 612.417969 812.296875 "/>
<path style="fill-rule:nonzero;fill:rgb(0%,0%,0%);fill-opacity:1;stroke-width:0.708661;stroke-linecap:round;stroke-linejoin:round;stroke:rgb(0%,0%,0%);stroke-opacity:1;stroke-miterlimit:10;" d="M 682.878906 812.296875 C 682.878906 817.035156 675.769531 817.035156 675.769531 812.296875 C 675.769531 807.554688 682.878906 807.554688 682.878906 812.296875 "/>
<g clip-path="url(#clip2)" clip-rule="nonzero">
<path style="fill:none;stroke-width:1.745965;stroke-linecap:round;stroke-linejoin:round;stroke:rgb(20%,20%,20%);stroke-opacity:1;stroke-miterlimit:10;" d="M 13.449219 850.550781 L 711.035156 850.550781 L 711.035156 8.964844 L 13.449219 8.964844 Z M 13.449219 850.550781 "/>
</g>
</g>
</svg>
