<?xml version="1.0" encoding="UTF-8"?>
<svg xmlns="http://www.w3.org/2000/svg" xmlns:xlink="http://www.w3.org/1999/xlink" width="720pt" height="864pt" viewBox="0 0 720 864" version="1.1">
<defs>
<clipPath id="clip1">
  <path d="M 17.933594 11.957031 L 708.046875 11.957031 L 708.046875 846.070312 L 17.933594 846.070312 Z M 17.933594 11.957031 "/>
</clipPath>
<clipPath id="clip2">
  <path d="M 17.933594 11.957031 L 708.046875 11.957031 L 708.046875 846.070312 L 17.933594 846.070312 Z M 17.933594 11.957031 "/>
</clipPath>
</defs>
<g id="surface135">
<rect x="0" y="0" width="720" height="864" style="fill:rgb(100%,100%,100%);fill-opacity:1;stroke:none;"/>
<rect x="0" y="0" width="720" height="864" style="fill:rgb(100%,100%,100%);fill-opacity:1;stroke:none;"/>
<path style="fill:none;stroke-width:2.327953;stroke-linecap:round;stroke-linejoin:round;stroke:rgb(100%,100%,100%);stroke-opacity:1;stroke-miterlimit:10;" d="M 0 864 L 720 864 L 720 0 L 0 0 Z M 0 864 "/>
<g clip-path="url(#clip1)" clip-rule="nonzero">
<path style=" stroke:none;fill-rule:nonzero;fill:rgb(100%,100%,100%);fill-opacity:1;" d="M 17.933594 846.066406 L 708.046875 846.066406 L 708.046875 11.953125 L 17.933594 11.953125 Z M 17.933594 846.066406 "/>
</g>
<path style="fill:none;stroke-width:4.054518;stroke-linecap:butt;stroke-linejoin:round;stroke:rgb(0%,0%,0%);stroke-opacity:1;stroke-miterlimit:1;" d="M 49.300781 49.871094 L 49.300781 201.527344 "/>
<path style="fill:none;stroke-width:4.054518;stroke-linecap:butt;stroke-linejoin:round;stroke:rgb(0%,0%,0%);stroke-opacity:1;stroke-miterlimit:1;" d="M 676.675781 49.871094 L 676.675781 201.527344 "/>
<path style="fill:none;stroke-width:4.054518;stroke-linecap:butt;stroke-linejoin:round;stroke:rgb(0%,0%,0%);stroke-opacity:1;stroke-miterlimit:1;" d="M 49.300781 201.527344 L 49.300781 353.183594 "/>
<path style="fill:none;stroke-width:4.054518;stroke-linecap:butt;stroke-linejoin:round;stroke:rgb(0%,0%,0%);stroke-opacity:1;stroke-miterlimit:1;" d="M 119.011719 201.527344 L 119.011719 353.183594 "/>
<path style="fill:none;stroke-width:4.054518;stroke-linecap:butt;stroke-linejoin:round;stroke:rgb(0%,0%,0%);stroke-opacity:1;stroke-miterlimit:1;" d="M 119.011719 201.527344 L 121.121094 206.121094 L 121.828125 207.652344 L 122.53125 209.183594 L 123.234375 210.71875 L 123.9375 212.25 L 124.644531 213.78125 L 126.753906 218.375 L 127.460938 219.910156 L 129.570312 224.503906 L 130.277344 226.035156 L 130.980469 227.566406 L 131.683594 229.101562 L 132.386719 230.632812 L 133.09375 232.164062 L 135.203125 236.757812 L 135.910156 238.292969 L 138.019531 242.886719 L 138.726562 244.417969 L 139.429688 245.949219 L 140.132812 247.484375 L 140.835938 249.015625 L 141.542969 250.546875 L 143.652344 255.140625 L 144.359375 256.675781 L 146.46875 261.269531 L 147.175781 262.800781 L 147.878906 264.332031 L 148.582031 265.867188 L 149.289062 267.398438 L 151.398438 271.992188 L 152.105469 273.523438 L 152.808594 275.054688 L 153.511719 276.589844 L 154.214844 278.121094 L 154.921875 279.652344 L 157.03125 284.246094 L 157.738281 285.78125 L 159.847656 290.375 L 160.554688 291.90625 L 161.257812 293.4375 L 161.960938 294.972656 L 162.664062 296.503906 L 163.371094 298.035156 L 165.480469 302.628906 L 166.1875 304.164062 L 168.296875 308.757812 L 169.003906 310.289062 L 169.707031 311.820312 L 170.410156 313.355469 L 171.113281 314.886719 L 171.820312 316.417969 L 173.929688 321.011719 L 174.636719 322.546875 L 176.746094 327.140625 L 177.453125 328.671875 L 178.15625 330.203125 L 178.859375 331.738281 L 179.5625 333.269531 L 180.269531 334.800781 L 181.675781 337.863281 L 182.382812 339.394531 L 183.085938 340.929688 L 184.492188 343.992188 L 185.199219 345.523438 L 187.308594 350.117188 L 188.015625 351.652344 L 188.71875 353.183594 "/>
<path style="fill:none;stroke-width:4.054518;stroke-linecap:butt;stroke-linejoin:round;stroke:rgb(0%,0%,0%);stroke-opacity:1;stroke-miterlimit:1;" d="M 258.425781 201.527344 L 258.425781 353.183594 "/>
<path style="fill:none;stroke-width:4.054518;stroke-linecap:butt;stroke-linejoin:round;stroke:rgb(0%,0%,0%);stroke-opacity:1;stroke-miterlimit:1;" d="M 258.425781 201.527344 L 259.128906 203.058594 L 259.835938 204.589844 L 261.945312 209.183594 L 262.652344 210.71875 L 264.761719 215.3125 L 265.46875 216.84375 L 266.171875 218.375 L 266.875 219.910156 L 267.578125 221.441406 L 268.285156 222.972656 L 270.394531 227.566406 L 271.101562 229.101562 L 272.507812 232.164062 L 273.214844 233.695312 L 274.621094 236.757812 L 275.324219 238.292969 L 276.03125 239.824219 L 278.140625 244.417969 L 278.847656 245.949219 L 279.550781 247.484375 L 280.957031 250.546875 L 281.664062 252.078125 L 283.070312 255.140625 L 283.773438 256.675781 L 284.480469 258.207031 L 286.589844 262.800781 L 287.296875 264.332031 L 288 265.867188 L 289.40625 268.929688 L 290.113281 270.460938 L 292.222656 275.054688 L 292.929688 276.589844 L 295.039062 281.183594 L 295.746094 282.714844 L 296.449219 284.246094 L 297.152344 285.78125 L 297.855469 287.3125 L 298.5625 288.84375 L 300.671875 293.4375 L 301.378906 294.972656 L 302.785156 298.035156 L 303.492188 299.566406 L 304.898438 302.628906 L 305.601562 304.164062 L 306.308594 305.695312 L 308.417969 310.289062 L 309.125 311.820312 L 309.828125 313.355469 L 311.234375 316.417969 L 311.941406 317.949219 L 313.347656 321.011719 L 314.050781 322.546875 L 314.757812 324.078125 L 316.867188 328.671875 L 317.574219 330.203125 L 318.277344 331.738281 L 319.683594 334.800781 L 320.390625 336.332031 L 321.796875 339.394531 L 322.5 340.929688 L 323.207031 342.460938 L 325.316406 347.054688 L 326.023438 348.585938 L 326.726562 350.117188 L 327.429688 351.652344 L 328.132812 353.183594 "/>
<path style="fill:none;stroke-width:4.054518;stroke-linecap:butt;stroke-linejoin:round;stroke:rgb(0%,0%,0%);stroke-opacity:1;stroke-miterlimit:1;" d="M 328.132812 201.527344 L 328.839844 203.058594 L 330.949219 207.652344 L 331.65625 209.183594 L 332.359375 210.71875 L 333.0625 212.25 L 333.769531 213.78125 L 335.878906 218.375 L 336.585938 219.910156 L 338.695312 224.503906 L 339.402344 226.035156 L 340.105469 227.566406 L 340.808594 229.101562 L 341.511719 230.632812 L 342.21875 232.164062 L 344.328125 236.757812 L 345.035156 238.292969 L 347.144531 242.886719 L 347.851562 244.417969 L 348.554688 245.949219 L 349.257812 247.484375 L 349.960938 249.015625 L 350.667969 250.546875 L 352.777344 255.140625 L 353.484375 256.675781 L 355.59375 261.269531 L 356.300781 262.800781 L 357.003906 264.332031 L 357.707031 265.867188 L 358.410156 267.398438 L 359.117188 268.929688 L 361.226562 273.523438 L 361.933594 275.054688 L 362.636719 276.589844 L 363.339844 278.121094 L 364.046875 279.652344 L 366.15625 284.246094 L 366.863281 285.78125 L 368.972656 290.375 L 369.679688 291.90625 L 370.382812 293.4375 L 371.085938 294.972656 L 371.789062 296.503906 L 372.496094 298.035156 L 374.605469 302.628906 L 375.3125 304.164062 L 377.421875 308.757812 L 378.128906 310.289062 L 378.832031 311.820312 L 379.535156 313.355469 L 380.238281 314.886719 L 380.945312 316.417969 L 383.054688 321.011719 L 383.761719 322.546875 L 385.871094 327.140625 L 386.578125 328.671875 L 387.28125 330.203125 L 387.984375 331.738281 L 388.6875 333.269531 L 389.394531 334.800781 L 391.503906 339.394531 L 392.210938 340.929688 L 393.617188 343.992188 L 394.324219 345.523438 L 396.433594 350.117188 L 397.140625 351.652344 L 397.84375 353.183594 "/>
<path style="fill:none;stroke-width:4.054518;stroke-linecap:butt;stroke-linejoin:round;stroke:rgb(0%,0%,0%);stroke-opacity:1;stroke-miterlimit:1;" d="M 397.84375 201.527344 L 399.25 204.589844 L 399.957031 206.121094 L 401.363281 209.183594 L 402.066406 210.71875 L 402.773438 212.25 L 404.882812 216.84375 L 405.589844 218.375 L 406.292969 219.910156 L 407.699219 222.972656 L 408.40625 224.503906 L 409.8125 227.566406 L 410.515625 229.101562 L 411.222656 230.632812 L 413.332031 235.226562 L 414.039062 236.757812 L 414.742188 238.292969 L 416.148438 241.355469 L 416.855469 242.886719 L 418.261719 245.949219 L 418.964844 247.484375 L 419.671875 249.015625 L 421.78125 253.609375 L 422.488281 255.140625 L 423.191406 256.675781 L 423.894531 258.207031 L 424.601562 259.738281 L 426.710938 264.332031 L 427.417969 265.867188 L 429.527344 270.460938 L 430.234375 271.992188 L 431.640625 275.054688 L 432.34375 276.589844 L 433.050781 278.121094 L 435.160156 282.714844 L 435.867188 284.246094 L 436.570312 285.78125 L 437.976562 288.84375 L 438.683594 290.375 L 440.089844 293.4375 L 440.792969 294.972656 L 441.5 296.503906 L 443.609375 301.097656 L 444.316406 302.628906 L 445.019531 304.164062 L 446.425781 307.226562 L 447.132812 308.757812 L 448.539062 311.820312 L 449.242188 313.355469 L 449.949219 314.886719 L 452.058594 319.480469 L 452.765625 321.011719 L 453.46875 322.546875 L 454.171875 324.078125 L 454.878906 325.609375 L 456.988281 330.203125 L 457.695312 331.738281 L 459.804688 336.332031 L 460.511719 337.863281 L 461.214844 339.394531 L 461.917969 340.929688 L 462.621094 342.460938 L 463.328125 343.992188 L 465.4375 348.585938 L 466.144531 350.117188 L 466.847656 351.652344 L 467.550781 353.183594 "/>
<path style="fill:none;stroke-width:4.054518;stroke-linecap:butt;stroke-linejoin:round;stroke:rgb(0%,0%,0%);stroke-opacity:1;stroke-miterlimit:1;" d="M 467.550781 201.527344 L 468.253906 203.058594 L 468.960938 204.589844 L 471.070312 209.183594 L 471.777344 210.71875 L 473.886719 215.3125 L 474.59375 216.84375 L 475.296875 218.375 L 476 219.910156 L 476.703125 221.441406 L 477.410156 222.972656 L 479.519531 227.566406 L 480.226562 229.101562 L 482.335938 233.695312 L 483.042969 235.226562 L 483.746094 236.757812 L 484.449219 238.292969 L 485.15625 239.824219 L 487.265625 244.417969 L 487.972656 245.949219 L 488.675781 247.484375 L 490.082031 250.546875 L 490.789062 252.078125 L 492.195312 255.140625 L 492.898438 256.675781 L 493.605469 258.207031 L 495.714844 262.800781 L 496.421875 264.332031 L 497.125 265.867188 L 498.53125 268.929688 L 499.238281 270.460938 L 501.347656 275.054688 L 502.054688 276.589844 L 504.164062 281.183594 L 504.871094 282.714844 L 505.574219 284.246094 L 506.277344 285.78125 L 506.980469 287.3125 L 507.6875 288.84375 L 509.796875 293.4375 L 510.503906 294.972656 L 512.613281 299.566406 L 513.320312 301.097656 L 514.023438 302.628906 L 514.726562 304.164062 L 515.433594 305.695312 L 517.542969 310.289062 L 518.25 311.820312 L 518.953125 313.355469 L 520.359375 316.417969 L 521.066406 317.949219 L 522.472656 321.011719 L 523.175781 322.546875 L 523.882812 324.078125 L 525.992188 328.671875 L 526.699219 330.203125 L 527.402344 331.738281 L 528.808594 334.800781 L 529.515625 336.332031 L 530.921875 339.394531 L 531.625 340.929688 L 532.332031 342.460938 L 534.441406 347.054688 L 535.148438 348.585938 L 535.851562 350.117188 L 536.554688 351.652344 L 537.257812 353.183594 "/>
<path style="fill:none;stroke-width:4.054518;stroke-linecap:butt;stroke-linejoin:round;stroke:rgb(0%,0%,0%);stroke-opacity:1;stroke-miterlimit:1;" d="M 537.257812 201.527344 L 537.964844 203.058594 L 540.074219 207.652344 L 540.78125 209.183594 L 541.484375 210.71875 L 542.890625 213.78125 L 543.597656 215.3125 L 545.003906 218.375 L 545.710938 219.910156 L 547.820312 224.503906 L 548.527344 226.035156 L 549.230469 227.566406 L 549.933594 229.101562 L 550.636719 230.632812 L 551.34375 232.164062 L 553.453125 236.757812 L 554.160156 238.292969 L 556.269531 242.886719 L 556.976562 244.417969 L 557.679688 245.949219 L 558.382812 247.484375 L 559.085938 249.015625 L 559.792969 250.546875 L 561.902344 255.140625 L 562.609375 256.675781 L 564.71875 261.269531 L 565.425781 262.800781 L 566.128906 264.332031 L 566.832031 265.867188 L 567.535156 267.398438 L 568.242188 268.929688 L 570.351562 273.523438 L 571.058594 275.054688 L 571.761719 276.589844 L 573.167969 279.652344 L 573.875 281.183594 L 575.28125 284.246094 L 575.988281 285.78125 L 578.097656 290.375 L 578.804688 291.90625 L 579.507812 293.4375 L 580.210938 294.972656 L 580.914062 296.503906 L 581.621094 298.035156 L 583.730469 302.628906 L 584.4375 304.164062 L 586.546875 308.757812 L 587.253906 310.289062 L 587.957031 311.820312 L 588.660156 313.355469 L 589.363281 314.886719 L 590.070312 316.417969 L 592.179688 321.011719 L 592.886719 322.546875 L 594.996094 327.140625 L 595.703125 328.671875 L 596.40625 330.203125 L 597.109375 331.738281 L 597.8125 333.269531 L 598.519531 334.800781 L 600.628906 339.394531 L 601.335938 340.929688 L 603.445312 345.523438 L 604.152344 347.054688 L 605.558594 350.117188 L 606.265625 351.652344 L 606.96875 353.183594 "/>
<path style="fill:none;stroke-width:4.054518;stroke-linecap:butt;stroke-linejoin:round;stroke:rgb(0%,0%,0%);stroke-opacity:1;stroke-miterlimit:1;" d="M 119.011719 49.871094 L 119.011719 201.527344 "/>
<path style="fill:none;stroke-width:4.054518;stroke-linecap:butt;stroke-linejoin:round;stroke:rgb(0%,0%,0%);stroke-opacity:1;stroke-miterlimit:1;" d="M 606.96875 201.527344 L 608.375 204.589844 L 609.082031 206.121094 L 610.488281 209.183594 L 611.191406 210.71875 L 611.898438 212.25 L 614.007812 216.84375 L 614.714844 218.375 L 615.417969 219.910156 L 616.824219 222.972656 L 617.53125 224.503906 L 618.9375 227.566406 L 619.640625 229.101562 L 620.347656 230.632812 L 622.457031 235.226562 L 623.164062 236.757812 L 623.867188 238.292969 L 625.273438 241.355469 L 625.980469 242.886719 L 627.386719 245.949219 L 628.089844 247.484375 L 628.796875 249.015625 L 630.90625 253.609375 L 631.613281 255.140625 L 632.316406 256.675781 L 633.722656 259.738281 L 634.429688 261.269531 L 635.835938 264.332031 L 636.542969 265.867188 L 638.652344 270.460938 L 639.359375 271.992188 L 640.765625 275.054688 L 641.46875 276.589844 L 642.175781 278.121094 L 644.285156 282.714844 L 644.992188 284.246094 L 645.695312 285.78125 L 647.101562 288.84375 L 647.808594 290.375 L 649.214844 293.4375 L 649.917969 294.972656 L 650.625 296.503906 L 652.734375 301.097656 L 653.441406 302.628906 L 654.144531 304.164062 L 655.550781 307.226562 L 656.257812 308.757812 L 657.664062 311.820312 L 658.367188 313.355469 L 659.074219 314.886719 L 661.183594 319.480469 L 661.890625 321.011719 L 662.59375 322.546875 L 664 325.609375 L 664.707031 327.140625 L 666.113281 330.203125 L 666.820312 331.738281 L 668.929688 336.332031 L 669.636719 337.863281 L 670.339844 339.394531 L 671.042969 340.929688 L 671.746094 342.460938 L 672.453125 343.992188 L 674.5625 348.585938 L 675.269531 350.117188 L 675.972656 351.652344 L 676.675781 353.183594 "/>
<path style="fill:none;stroke-width:4.054518;stroke-linecap:butt;stroke-linejoin:round;stroke:rgb(0%,0%,0%);stroke-opacity:1;stroke-miterlimit:1;" d="M 119.011719 353.183594 L 118.304688 354.714844 L 116.898438 357.777344 L 116.191406 359.308594 L 115.488281 360.84375 L 114.082031 363.90625 L 113.375 365.4375 L 111.96875 368.5 L 111.265625 370.035156 L 110.558594 371.566406 L 108.449219 376.160156 L 107.742188 377.691406 L 107.039062 379.226562 L 105.632812 382.289062 L 104.925781 383.820312 L 103.519531 386.882812 L 102.816406 388.417969 L 102.109375 389.949219 L 100 394.542969 L 99.292969 396.074219 L 98.589844 397.609375 L 97.183594 400.671875 L 96.476562 402.203125 L 95.070312 405.265625 L 94.367188 406.800781 L 93.660156 408.332031 L 91.550781 412.925781 L 90.84375 414.457031 L 90.140625 415.988281 L 89.4375 417.523438 L 88.734375 419.054688 L 88.027344 420.585938 L 86.621094 423.648438 L 85.914062 425.179688 L 85.210938 426.714844 L 83.804688 429.777344 L 83.097656 431.308594 L 81.691406 434.371094 L 80.988281 435.90625 L 80.28125 437.4375 L 78.171875 442.03125 L 77.464844 443.5625 L 76.761719 445.097656 L 75.355469 448.160156 L 74.648438 449.691406 L 73.242188 452.753906 L 72.539062 454.289062 L 71.832031 455.820312 L 69.722656 460.414062 L 69.015625 461.945312 L 68.3125 463.480469 L 66.90625 466.542969 L 66.199219 468.074219 L 64.792969 471.136719 L 64.089844 472.671875 L 63.382812 474.203125 L 61.273438 478.796875 L 60.566406 480.328125 L 59.863281 481.859375 L 59.160156 483.394531 L 58.457031 484.925781 L 57.75 486.457031 L 56.34375 489.519531 L 55.636719 491.050781 L 54.933594 492.585938 L 53.527344 495.648438 L 52.820312 497.179688 L 51.414062 500.242188 L 50.710938 501.777344 L 50.003906 503.308594 L 49.300781 504.839844 "/>
<path style="fill:none;stroke-width:4.054518;stroke-linecap:butt;stroke-linejoin:round;stroke:rgb(0%,0%,0%);stroke-opacity:1;stroke-miterlimit:1;" d="M 258.425781 353.183594 L 257.019531 354.714844 L 255.609375 356.246094 L 254.203125 357.777344 L 252.792969 359.308594 L 251.386719 360.84375 L 249.976562 362.375 L 248.570312 363.90625 L 247.160156 365.4375 L 245.753906 366.96875 L 244.34375 368.5 L 242.9375 370.035156 L 240.117188 373.097656 L 238.710938 374.628906 L 237.300781 376.160156 L 235.894531 377.691406 L 234.484375 379.226562 L 233.078125 380.757812 L 231.667969 382.289062 L 230.261719 383.820312 L 228.851562 385.351562 L 227.445312 386.882812 L 226.035156 388.417969 L 224.628906 389.949219 L 223.21875 391.480469 L 221.8125 393.011719 L 220.402344 394.542969 L 218.996094 396.074219 L 217.585938 397.609375 L 216.179688 399.140625 L 214.769531 400.671875 L 213.363281 402.203125 L 211.953125 403.734375 L 210.546875 405.265625 L 209.136719 406.800781 L 207.730469 408.332031 L 206.320312 409.863281 L 204.914062 411.394531 L 203.503906 412.925781 L 202.097656 414.457031 L 200.6875 415.988281 L 199.28125 417.523438 L 197.871094 419.054688 L 196.464844 420.585938 L 195.054688 422.117188 L 193.648438 423.648438 L 192.238281 425.179688 L 190.832031 426.714844 L 189.421875 428.246094 L 188.015625 429.777344 L 186.605469 431.308594 L 185.199219 432.839844 L 183.789062 434.371094 L 182.382812 435.90625 L 179.5625 438.96875 L 178.15625 440.5 L 176.746094 442.03125 L 175.339844 443.5625 L 173.929688 445.097656 L 172.523438 446.628906 L 171.113281 448.160156 L 169.707031 449.691406 L 168.296875 451.222656 L 166.890625 452.753906 L 165.480469 454.289062 L 164.074219 455.820312 L 162.664062 457.351562 L 161.257812 458.882812 L 159.847656 460.414062 L 158.441406 461.945312 L 157.03125 463.480469 L 155.625 465.011719 L 154.214844 466.542969 L 152.808594 468.074219 L 151.398438 469.605469 L 149.992188 471.136719 L 148.582031 472.671875 L 147.175781 474.203125 L 145.765625 475.734375 L 144.359375 477.265625 L 142.949219 478.796875 L 141.542969 480.328125 L 140.132812 481.859375 L 138.726562 483.394531 L 137.316406 484.925781 L 135.910156 486.457031 L 134.5 487.988281 L 133.09375 489.519531 L 131.683594 491.050781 L 130.277344 492.585938 L 128.867188 494.117188 L 127.460938 495.648438 L 126.050781 497.179688 L 124.644531 498.710938 L 123.234375 500.242188 L 121.828125 501.777344 L 120.417969 503.308594 L 119.011719 504.839844 "/>
<path style="fill:none;stroke-width:4.054518;stroke-linecap:butt;stroke-linejoin:round;stroke:rgb(0%,0%,0%);stroke-opacity:1;stroke-miterlimit:1;" d="M 258.425781 353.183594 L 257.019531 356.246094 L 256.3125 357.777344 L 255.609375 359.308594 L 254.90625 360.84375 L 254.203125 362.375 L 253.496094 363.90625 L 251.386719 368.5 L 250.679688 370.035156 L 248.570312 374.628906 L 247.863281 376.160156 L 247.160156 377.691406 L 246.457031 379.226562 L 245.753906 380.757812 L 245.046875 382.289062 L 242.9375 386.882812 L 242.230469 388.417969 L 240.824219 391.480469 L 240.117188 393.011719 L 238.710938 396.074219 L 238.007812 397.609375 L 237.300781 399.140625 L 235.191406 403.734375 L 234.484375 405.265625 L 233.78125 406.800781 L 232.375 409.863281 L 231.667969 411.394531 L 229.558594 415.988281 L 228.851562 417.523438 L 226.742188 422.117188 L 226.035156 423.648438 L 225.332031 425.179688 L 224.628906 426.714844 L 223.925781 428.246094 L 223.21875 429.777344 L 221.109375 434.371094 L 220.402344 435.90625 L 218.292969 440.5 L 217.585938 442.03125 L 216.882812 443.5625 L 216.179688 445.097656 L 215.476562 446.628906 L 214.769531 448.160156 L 212.660156 452.753906 L 211.953125 454.289062 L 210.546875 457.351562 L 209.839844 458.882812 L 208.433594 461.945312 L 207.730469 463.480469 L 207.023438 465.011719 L 204.914062 469.605469 L 204.207031 471.136719 L 203.503906 472.671875 L 202.097656 475.734375 L 201.390625 477.265625 L 199.28125 481.859375 L 198.574219 483.394531 L 196.464844 487.988281 L 195.757812 489.519531 L 195.054688 491.050781 L 194.351562 492.585938 L 193.648438 494.117188 L 192.941406 495.648438 L 190.832031 500.242188 L 190.125 501.777344 L 188.71875 504.839844 "/>
<path style="fill:none;stroke-width:4.054518;stroke-linecap:butt;stroke-linejoin:round;stroke:rgb(0%,0%,0%);stroke-opacity:1;stroke-miterlimit:1;" d="M 328.132812 353.183594 L 326.023438 357.777344 L 325.316406 359.308594 L 324.613281 360.84375 L 323.207031 363.90625 L 322.5 365.4375 L 321.09375 368.5 L 320.390625 370.035156 L 319.683594 371.566406 L 317.574219 376.160156 L 316.867188 377.691406 L 316.164062 379.226562 L 314.757812 382.289062 L 314.050781 383.820312 L 312.644531 386.882812 L 311.941406 388.417969 L 311.234375 389.949219 L 309.125 394.542969 L 308.417969 396.074219 L 307.714844 397.609375 L 306.308594 400.671875 L 305.601562 402.203125 L 304.195312 405.265625 L 303.492188 406.800781 L 302.785156 408.332031 L 301.378906 411.394531 L 300.671875 412.925781 L 299.265625 415.988281 L 298.5625 417.523438 L 297.855469 419.054688 L 295.746094 423.648438 L 295.039062 425.179688 L 294.335938 426.714844 L 292.929688 429.777344 L 292.222656 431.308594 L 290.816406 434.371094 L 290.113281 435.90625 L 289.40625 437.4375 L 287.296875 442.03125 L 286.589844 443.5625 L 285.886719 445.097656 L 284.480469 448.160156 L 283.773438 449.691406 L 282.367188 452.753906 L 281.664062 454.289062 L 280.957031 455.820312 L 278.847656 460.414062 L 278.140625 461.945312 L 277.4375 463.480469 L 276.03125 466.542969 L 275.324219 468.074219 L 273.917969 471.136719 L 273.214844 472.671875 L 272.507812 474.203125 L 271.101562 477.265625 L 270.394531 478.796875 L 268.988281 481.859375 L 268.285156 483.394531 L 267.578125 484.925781 L 265.46875 489.519531 L 264.761719 491.050781 L 264.058594 492.585938 L 262.652344 495.648438 L 261.945312 497.179688 L 260.539062 500.242188 L 259.835938 501.777344 L 259.128906 503.308594 L 258.425781 504.839844 "/>
<path style="fill:none;stroke-width:4.054518;stroke-linecap:butt;stroke-linejoin:round;stroke:rgb(0%,0%,0%);stroke-opacity:1;stroke-miterlimit:1;" d="M 467.550781 353.183594 L 466.144531 354.714844 L 464.734375 356.246094 L 463.328125 357.777344 L 461.917969 359.308594 L 460.511719 360.84375 L 459.101562 362.375 L 457.695312 363.90625 L 456.285156 365.4375 L 454.878906 366.96875 L 453.46875 368.5 L 452.058594 370.035156 L 450.652344 371.566406 L 449.242188 373.097656 L 447.835938 374.628906 L 446.425781 376.160156 L 445.019531 377.691406 L 443.609375 379.226562 L 442.203125 380.757812 L 440.792969 382.289062 L 439.386719 383.820312 L 437.976562 385.351562 L 436.570312 386.882812 L 435.160156 388.417969 L 433.753906 389.949219 L 432.34375 391.480469 L 430.9375 393.011719 L 429.527344 394.542969 L 428.121094 396.074219 L 426.710938 397.609375 L 425.304688 399.140625 L 423.894531 400.671875 L 422.488281 402.203125 L 421.078125 403.734375 L 419.671875 405.265625 L 418.261719 406.800781 L 416.855469 408.332031 L 415.445312 409.863281 L 414.039062 411.394531 L 412.628906 412.925781 L 411.222656 414.457031 L 409.8125 415.988281 L 408.40625 417.523438 L 406.996094 419.054688 L 405.589844 420.585938 L 404.179688 422.117188 L 402.773438 423.648438 L 401.363281 425.179688 L 399.957031 426.714844 L 398.546875 428.246094 L 397.140625 429.777344 L 395.730469 431.308594 L 394.324219 432.839844 L 392.914062 434.371094 L 391.503906 435.90625 L 390.097656 437.4375 L 388.6875 438.96875 L 387.28125 440.5 L 385.871094 442.03125 L 384.464844 443.5625 L 383.054688 445.097656 L 381.648438 446.628906 L 380.238281 448.160156 L 378.832031 449.691406 L 377.421875 451.222656 L 376.015625 452.753906 L 374.605469 454.289062 L 373.199219 455.820312 L 371.789062 457.351562 L 370.382812 458.882812 L 368.972656 460.414062 L 367.566406 461.945312 L 366.15625 463.480469 L 364.75 465.011719 L 363.339844 466.542969 L 361.933594 468.074219 L 360.523438 469.605469 L 359.117188 471.136719 L 357.707031 472.671875 L 356.300781 474.203125 L 354.890625 475.734375 L 353.484375 477.265625 L 352.074219 478.796875 L 350.667969 480.328125 L 349.257812 481.859375 L 347.851562 483.394531 L 346.441406 484.925781 L 345.035156 486.457031 L 343.625 487.988281 L 342.21875 489.519531 L 340.808594 491.050781 L 339.402344 492.585938 L 337.992188 494.117188 L 336.585938 495.648438 L 335.175781 497.179688 L 333.769531 498.710938 L 332.359375 500.242188 L 330.949219 501.777344 L 329.542969 503.308594 L 328.132812 504.839844 "/>
<path style="fill:none;stroke-width:4.054518;stroke-linecap:butt;stroke-linejoin:round;stroke:rgb(0%,0%,0%);stroke-opacity:1;stroke-miterlimit:1;" d="M 467.550781 353.183594 L 466.144531 356.246094 L 465.4375 357.777344 L 464.734375 359.308594 L 464.03125 360.84375 L 463.328125 362.375 L 462.621094 363.90625 L 460.511719 368.5 L 459.804688 370.035156 L 457.695312 374.628906 L 456.988281 376.160156 L 456.285156 377.691406 L 455.582031 379.226562 L 454.878906 380.757812 L 454.171875 382.289062 L 452.765625 385.351562 L 452.058594 386.882812 L 451.355469 388.417969 L 449.949219 391.480469 L 449.242188 393.011719 L 447.835938 396.074219 L 447.132812 397.609375 L 446.425781 399.140625 L 444.316406 403.734375 L 443.609375 405.265625 L 442.90625 406.800781 L 441.5 409.863281 L 440.792969 411.394531 L 438.683594 415.988281 L 437.976562 417.523438 L 435.867188 422.117188 L 435.160156 423.648438 L 434.457031 425.179688 L 433.753906 426.714844 L 433.050781 428.246094 L 432.34375 429.777344 L 430.234375 434.371094 L 429.527344 435.90625 L 427.417969 440.5 L 426.710938 442.03125 L 426.007812 443.5625 L 425.304688 445.097656 L 424.601562 446.628906 L 423.894531 448.160156 L 422.488281 451.222656 L 421.78125 452.753906 L 421.078125 454.289062 L 419.671875 457.351562 L 418.964844 458.882812 L 417.558594 461.945312 L 416.855469 463.480469 L 416.148438 465.011719 L 414.039062 469.605469 L 413.332031 471.136719 L 412.628906 472.671875 L 411.222656 475.734375 L 410.515625 477.265625 L 408.40625 481.859375 L 407.699219 483.394531 L 405.589844 487.988281 L 404.882812 489.519531 L 404.179688 491.050781 L 403.476562 492.585938 L 402.773438 494.117188 L 402.066406 495.648438 L 399.957031 500.242188 L 399.25 501.777344 L 397.84375 504.839844 "/>
<path style="fill:none;stroke-width:4.054518;stroke-linecap:butt;stroke-linejoin:round;stroke:rgb(0%,0%,0%);stroke-opacity:1;stroke-miterlimit:1;" d="M 606.96875 353.183594 L 605.558594 354.714844 L 604.152344 356.246094 L 602.742188 357.777344 L 601.335938 359.308594 L 599.925781 360.84375 L 598.519531 362.375 L 597.109375 363.90625 L 595.703125 365.4375 L 594.292969 366.96875 L 592.886719 368.5 L 591.476562 370.035156 L 590.070312 371.566406 L 588.660156 373.097656 L 587.253906 374.628906 L 585.84375 376.160156 L 584.4375 377.691406 L 583.027344 379.226562 L 581.621094 380.757812 L 580.210938 382.289062 L 578.804688 383.820312 L 577.394531 385.351562 L 575.988281 386.882812 L 574.578125 388.417969 L 573.167969 389.949219 L 571.761719 391.480469 L 570.351562 393.011719 L 568.945312 394.542969 L 567.535156 396.074219 L 566.128906 397.609375 L 564.71875 399.140625 L 563.3125 400.671875 L 561.902344 402.203125 L 560.496094 403.734375 L 559.085938 405.265625 L 557.679688 406.800781 L 556.269531 408.332031 L 554.863281 409.863281 L 553.453125 411.394531 L 552.046875 412.925781 L 550.636719 414.457031 L 549.230469 415.988281 L 547.820312 417.523438 L 546.414062 419.054688 L 545.003906 420.585938 L 543.597656 422.117188 L 542.1875 423.648438 L 540.78125 425.179688 L 539.371094 426.714844 L 537.964844 428.246094 L 536.554688 429.777344 L 535.148438 431.308594 L 533.738281 432.839844 L 532.332031 434.371094 L 530.921875 435.90625 L 529.515625 437.4375 L 528.105469 438.96875 L 526.699219 440.5 L 525.289062 442.03125 L 523.882812 443.5625 L 522.472656 445.097656 L 521.066406 446.628906 L 519.65625 448.160156 L 518.25 449.691406 L 516.839844 451.222656 L 515.433594 452.753906 L 514.023438 454.289062 L 512.613281 455.820312 L 511.207031 457.351562 L 509.796875 458.882812 L 508.390625 460.414062 L 506.980469 461.945312 L 505.574219 463.480469 L 504.164062 465.011719 L 502.757812 466.542969 L 501.347656 468.074219 L 499.941406 469.605469 L 498.53125 471.136719 L 497.125 472.671875 L 495.714844 474.203125 L 494.308594 475.734375 L 492.898438 477.265625 L 491.492188 478.796875 L 490.082031 480.328125 L 488.675781 481.859375 L 487.265625 483.394531 L 485.859375 484.925781 L 484.449219 486.457031 L 483.042969 487.988281 L 481.632812 489.519531 L 480.226562 491.050781 L 478.816406 492.585938 L 477.410156 494.117188 L 476 495.648438 L 474.59375 497.179688 L 473.183594 498.710938 L 471.777344 500.242188 L 470.367188 501.777344 L 468.960938 503.308594 L 467.550781 504.839844 "/>
<path style="fill:none;stroke-width:4.054518;stroke-linecap:butt;stroke-linejoin:round;stroke:rgb(0%,0%,0%);stroke-opacity:1;stroke-miterlimit:1;" d="M 606.96875 353.183594 L 606.265625 354.714844 L 605.558594 356.246094 L 604.152344 359.308594 L 603.445312 360.84375 L 601.335938 365.4375 L 600.628906 366.96875 L 599.925781 368.5 L 599.222656 370.035156 L 598.519531 371.566406 L 597.8125 373.097656 L 595.703125 377.691406 L 594.996094 379.226562 L 592.886719 383.820312 L 592.179688 385.351562 L 591.476562 386.882812 L 590.773438 388.417969 L 590.070312 389.949219 L 589.363281 391.480469 L 587.253906 396.074219 L 586.546875 397.609375 L 584.4375 402.203125 L 583.730469 403.734375 L 583.027344 405.265625 L 582.324219 406.800781 L 581.621094 408.332031 L 580.914062 409.863281 L 578.804688 414.457031 L 578.097656 415.988281 L 577.394531 417.523438 L 575.988281 420.585938 L 575.28125 422.117188 L 573.875 425.179688 L 573.167969 426.714844 L 571.058594 431.308594 L 570.351562 432.839844 L 569.648438 434.371094 L 568.945312 435.90625 L 568.242188 437.4375 L 567.535156 438.96875 L 565.425781 443.5625 L 564.71875 445.097656 L 562.609375 449.691406 L 561.902344 451.222656 L 561.199219 452.753906 L 560.496094 454.289062 L 559.792969 455.820312 L 559.085938 457.351562 L 556.976562 461.945312 L 556.269531 463.480469 L 554.160156 468.074219 L 553.453125 469.605469 L 552.75 471.136719 L 552.046875 472.671875 L 551.34375 474.203125 L 550.636719 475.734375 L 548.527344 480.328125 L 547.820312 481.859375 L 547.117188 483.394531 L 545.710938 486.457031 L 545.003906 487.988281 L 543.597656 491.050781 L 542.890625 492.585938 L 540.78125 497.179688 L 540.074219 498.710938 L 539.371094 500.242188 L 538.667969 501.777344 L 537.964844 503.308594 L 537.257812 504.839844 "/>
<path style="fill:none;stroke-width:4.054518;stroke-linecap:butt;stroke-linejoin:round;stroke:rgb(0%,0%,0%);stroke-opacity:1;stroke-miterlimit:1;" d="M 676.675781 353.183594 L 675.269531 356.246094 L 674.5625 357.777344 L 673.859375 359.308594 L 673.15625 360.84375 L 672.453125 362.375 L 671.746094 363.90625 L 669.636719 368.5 L 668.929688 370.035156 L 666.820312 374.628906 L 666.113281 376.160156 L 665.410156 377.691406 L 664.707031 379.226562 L 664 380.757812 L 661.890625 385.351562 L 661.183594 386.882812 L 660.480469 388.417969 L 659.074219 391.480469 L 658.367188 393.011719 L 656.960938 396.074219 L 656.257812 397.609375 L 655.550781 399.140625 L 653.441406 403.734375 L 652.734375 405.265625 L 652.03125 406.800781 L 650.625 409.863281 L 649.917969 411.394531 L 647.808594 415.988281 L 647.101562 417.523438 L 644.992188 422.117188 L 644.285156 423.648438 L 643.582031 425.179688 L 642.878906 426.714844 L 642.175781 428.246094 L 641.46875 429.777344 L 639.359375 434.371094 L 638.652344 435.90625 L 636.542969 440.5 L 635.835938 442.03125 L 635.132812 443.5625 L 634.429688 445.097656 L 633.722656 446.628906 L 631.613281 451.222656 L 630.90625 452.753906 L 630.203125 454.289062 L 628.796875 457.351562 L 628.089844 458.882812 L 626.683594 461.945312 L 625.980469 463.480469 L 625.273438 465.011719 L 623.164062 469.605469 L 622.457031 471.136719 L 621.753906 472.671875 L 620.347656 475.734375 L 619.640625 477.265625 L 617.53125 481.859375 L 616.824219 483.394531 L 614.714844 487.988281 L 614.007812 489.519531 L 613.304688 491.050781 L 612.601562 492.585938 L 611.898438 494.117188 L 611.191406 495.648438 L 609.082031 500.242188 L 608.375 501.777344 L 606.96875 504.839844 "/>
<path style="fill:none;stroke-width:4.054518;stroke-linecap:butt;stroke-linejoin:round;stroke:rgb(0%,0%,0%);stroke-opacity:1;stroke-miterlimit:1;" d="M 119.011719 49.871094 L 121.121094 54.464844 L 121.828125 55.996094 L 122.53125 57.527344 L 123.234375 59.0625 L 123.9375 60.59375 L 124.644531 62.125 L 126.753906 66.71875 L 127.460938 68.253906 L 129.570312 72.847656 L 130.277344 74.378906 L 131.683594 77.441406 L 132.386719 78.976562 L 133.09375 80.507812 L 135.203125 85.101562 L 135.910156 86.632812 L 136.613281 88.167969 L 138.019531 91.230469 L 138.726562 92.761719 L 140.132812 95.824219 L 140.835938 97.359375 L 141.542969 98.890625 L 143.652344 103.484375 L 144.359375 105.015625 L 145.0625 106.550781 L 146.46875 109.613281 L 147.175781 111.144531 L 148.582031 114.207031 L 149.289062 115.742188 L 151.398438 120.335938 L 152.105469 121.867188 L 152.808594 123.398438 L 153.511719 124.933594 L 154.214844 126.464844 L 154.921875 127.996094 L 157.03125 132.589844 L 157.738281 134.125 L 159.847656 138.71875 L 160.554688 140.25 L 161.960938 143.3125 L 162.664062 144.847656 L 163.371094 146.378906 L 165.480469 150.972656 L 166.1875 152.503906 L 166.890625 154.039062 L 168.296875 157.101562 L 169.003906 158.632812 L 170.410156 161.695312 L 171.113281 163.230469 L 171.820312 164.761719 L 173.929688 169.355469 L 174.636719 170.886719 L 175.339844 172.421875 L 176.746094 175.484375 L 177.453125 177.015625 L 178.859375 180.078125 L 179.5625 181.613281 L 180.269531 183.144531 L 181.675781 186.207031 L 182.382812 187.738281 L 183.085938 189.269531 L 183.789062 190.804688 L 184.492188 192.335938 L 185.199219 193.867188 L 187.308594 198.460938 L 188.015625 199.996094 L 188.71875 201.527344 "/>
<path style="fill:none;stroke-width:4.054518;stroke-linecap:butt;stroke-linejoin:round;stroke:rgb(0%,0%,0%);stroke-opacity:1;stroke-miterlimit:1;" d="M 676.675781 353.183594 L 676.675781 504.839844 "/>
<path style="fill:none;stroke-width:4.054518;stroke-linecap:butt;stroke-linejoin:round;stroke:rgb(0%,0%,0%);stroke-opacity:1;stroke-miterlimit:1;" d="M 188.71875 504.839844 L 187.308594 506.371094 L 185.902344 507.902344 L 184.492188 509.433594 L 183.085938 510.96875 L 181.675781 512.5 L 180.269531 514.03125 L 178.859375 515.5625 L 177.453125 517.09375 L 176.042969 518.625 L 174.636719 520.160156 L 173.226562 521.691406 L 171.820312 523.222656 L 170.410156 524.753906 L 169.003906 526.285156 L 167.59375 527.816406 L 166.1875 529.351562 L 164.777344 530.882812 L 163.371094 532.414062 L 161.960938 533.945312 L 160.554688 535.476562 L 159.144531 537.007812 L 157.738281 538.542969 L 156.328125 540.074219 L 154.921875 541.605469 L 153.511719 543.136719 L 152.105469 544.667969 L 150.695312 546.199219 L 149.289062 547.730469 L 147.878906 549.265625 L 146.46875 550.796875 L 145.0625 552.328125 L 143.652344 553.859375 L 142.246094 555.390625 L 140.835938 556.921875 L 139.429688 558.457031 L 138.019531 559.988281 L 136.613281 561.519531 L 135.203125 563.050781 L 133.796875 564.582031 L 132.386719 566.113281 L 130.980469 567.648438 L 129.570312 569.179688 L 128.164062 570.710938 L 126.753906 572.242188 L 125.347656 573.773438 L 123.9375 575.304688 L 122.53125 576.839844 L 121.121094 578.371094 L 119.714844 579.902344 L 118.304688 581.433594 L 116.898438 582.964844 L 115.488281 584.496094 L 114.082031 586.03125 L 112.671875 587.5625 L 111.265625 589.09375 L 109.855469 590.625 L 108.449219 592.15625 L 107.039062 593.6875 L 105.632812 595.222656 L 104.222656 596.753906 L 102.816406 598.285156 L 101.40625 599.816406 L 100 601.347656 L 98.589844 602.878906 L 97.183594 604.414062 L 95.773438 605.945312 L 94.367188 607.476562 L 92.957031 609.007812 L 91.550781 610.539062 L 90.140625 612.070312 L 88.734375 613.601562 L 87.324219 615.136719 L 85.914062 616.667969 L 84.507812 618.199219 L 83.097656 619.730469 L 81.691406 621.261719 L 80.28125 622.792969 L 78.875 624.328125 L 77.464844 625.859375 L 76.058594 627.390625 L 74.648438 628.921875 L 73.242188 630.453125 L 71.832031 631.984375 L 70.425781 633.519531 L 69.015625 635.050781 L 67.609375 636.582031 L 66.199219 638.113281 L 64.792969 639.644531 L 63.382812 641.175781 L 61.976562 642.710938 L 60.566406 644.242188 L 59.160156 645.773438 L 57.75 647.304688 L 56.34375 648.835938 L 54.933594 650.367188 L 53.527344 651.902344 L 52.117188 653.433594 L 50.710938 654.964844 L 49.300781 656.496094 "/>
<path style="fill:none;stroke-width:4.054518;stroke-linecap:butt;stroke-linejoin:round;stroke:rgb(0%,0%,0%);stroke-opacity:1;stroke-miterlimit:1;" d="M 188.71875 504.839844 L 188.015625 506.371094 L 187.308594 507.902344 L 186.605469 509.433594 L 185.902344 510.96875 L 185.199219 512.5 L 184.492188 514.03125 L 182.382812 518.625 L 181.675781 520.160156 L 180.269531 523.222656 L 179.5625 524.753906 L 178.15625 527.816406 L 177.453125 529.351562 L 176.746094 530.882812 L 174.636719 535.476562 L 173.929688 537.007812 L 173.226562 538.542969 L 171.820312 541.605469 L 171.113281 543.136719 L 169.003906 547.730469 L 168.296875 549.265625 L 166.1875 553.859375 L 165.480469 555.390625 L 164.777344 556.921875 L 164.074219 558.457031 L 163.371094 559.988281 L 162.664062 561.519531 L 160.554688 566.113281 L 159.847656 567.648438 L 157.738281 572.242188 L 157.03125 573.773438 L 156.328125 575.304688 L 155.625 576.839844 L 154.921875 578.371094 L 154.214844 579.902344 L 152.105469 584.496094 L 151.398438 586.03125 L 149.289062 590.625 L 148.582031 592.15625 L 147.878906 593.6875 L 147.175781 595.222656 L 146.46875 596.753906 L 144.359375 601.347656 L 143.652344 602.878906 L 142.949219 604.414062 L 141.542969 607.476562 L 140.835938 609.007812 L 138.726562 613.601562 L 138.019531 615.136719 L 135.910156 619.730469 L 135.203125 621.261719 L 134.5 622.792969 L 133.796875 624.328125 L 133.09375 625.859375 L 132.386719 627.390625 L 130.277344 631.984375 L 129.570312 633.519531 L 127.460938 638.113281 L 126.753906 639.644531 L 126.050781 641.175781 L 125.347656 642.710938 L 124.644531 644.242188 L 123.9375 645.773438 L 121.828125 650.367188 L 121.121094 651.902344 L 119.011719 656.496094 "/>
<path style="fill:none;stroke-width:4.054518;stroke-linecap:butt;stroke-linejoin:round;stroke:rgb(0%,0%,0%);stroke-opacity:1;stroke-miterlimit:1;" d="M 258.425781 504.839844 L 257.019531 507.902344 L 256.3125 509.433594 L 255.609375 510.96875 L 254.203125 514.03125 L 253.496094 515.5625 L 252.089844 518.625 L 251.386719 520.160156 L 250.679688 521.691406 L 248.570312 526.285156 L 247.863281 527.816406 L 247.160156 529.351562 L 245.753906 532.414062 L 245.046875 533.945312 L 243.640625 537.007812 L 242.9375 538.542969 L 242.230469 540.074219 L 240.824219 543.136719 L 240.117188 544.667969 L 238.710938 547.730469 L 238.007812 549.265625 L 237.300781 550.796875 L 235.191406 555.390625 L 234.484375 556.921875 L 233.78125 558.457031 L 232.375 561.519531 L 231.667969 563.050781 L 230.261719 566.113281 L 229.558594 567.648438 L 228.851562 569.179688 L 226.742188 573.773438 L 226.035156 575.304688 L 225.332031 576.839844 L 223.925781 579.902344 L 223.21875 581.433594 L 221.8125 584.496094 L 221.109375 586.03125 L 220.402344 587.5625 L 218.292969 592.15625 L 217.585938 593.6875 L 216.882812 595.222656 L 215.476562 598.285156 L 214.769531 599.816406 L 213.363281 602.878906 L 212.660156 604.414062 L 211.953125 605.945312 L 210.546875 609.007812 L 209.839844 610.539062 L 208.433594 613.601562 L 207.730469 615.136719 L 207.023438 616.667969 L 204.914062 621.261719 L 204.207031 622.792969 L 203.503906 624.328125 L 202.097656 627.390625 L 201.390625 628.921875 L 199.984375 631.984375 L 199.28125 633.519531 L 198.574219 635.050781 L 196.464844 639.644531 L 195.757812 641.175781 L 195.054688 642.710938 L 193.648438 645.773438 L 192.941406 647.304688 L 191.535156 650.367188 L 190.832031 651.902344 L 190.125 653.433594 L 188.71875 656.496094 "/>
<path style="fill:none;stroke-width:4.054518;stroke-linecap:butt;stroke-linejoin:round;stroke:rgb(0%,0%,0%);stroke-opacity:1;stroke-miterlimit:1;" d="M 258.425781 504.839844 L 258.425781 656.496094 "/>
<path style="fill:none;stroke-width:4.054518;stroke-linecap:butt;stroke-linejoin:round;stroke:rgb(0%,0%,0%);stroke-opacity:1;stroke-miterlimit:1;" d="M 328.132812 504.839844 L 328.132812 656.496094 "/>
<path style="fill:none;stroke-width:4.054518;stroke-linecap:butt;stroke-linejoin:round;stroke:rgb(0%,0%,0%);stroke-opacity:1;stroke-miterlimit:1;" d="M 328.132812 504.839844 L 328.839844 506.371094 L 330.246094 509.433594 L 330.949219 510.96875 L 331.65625 512.5 L 333.0625 515.5625 L 333.769531 517.09375 L 334.472656 518.625 L 335.175781 520.160156 L 335.878906 521.691406 L 336.585938 523.222656 L 338.695312 527.816406 L 339.402344 529.351562 L 341.511719 533.945312 L 342.21875 535.476562 L 342.921875 537.007812 L 343.625 538.542969 L 344.328125 540.074219 L 345.035156 541.605469 L 347.144531 546.199219 L 347.851562 547.730469 L 348.554688 549.265625 L 349.960938 552.328125 L 350.667969 553.859375 L 352.074219 556.921875 L 352.777344 558.457031 L 353.484375 559.988281 L 355.59375 564.582031 L 356.300781 566.113281 L 357.003906 567.648438 L 358.410156 570.710938 L 359.117188 572.242188 L 360.523438 575.304688 L 361.226562 576.839844 L 361.933594 578.371094 L 363.339844 581.433594 L 364.046875 582.964844 L 364.75 584.496094 L 365.453125 586.03125 L 366.15625 587.5625 L 366.863281 589.09375 L 368.972656 593.6875 L 369.679688 595.222656 L 371.789062 599.816406 L 372.496094 601.347656 L 373.199219 602.878906 L 373.902344 604.414062 L 374.605469 605.945312 L 375.3125 607.476562 L 377.421875 612.070312 L 378.128906 613.601562 L 378.832031 615.136719 L 380.238281 618.199219 L 380.945312 619.730469 L 382.351562 622.792969 L 383.054688 624.328125 L 383.761719 625.859375 L 385.871094 630.453125 L 386.578125 631.984375 L 387.28125 633.519531 L 388.6875 636.582031 L 389.394531 638.113281 L 390.800781 641.175781 L 391.503906 642.710938 L 392.210938 644.242188 L 393.617188 647.304688 L 394.324219 648.835938 L 395.027344 650.367188 L 395.730469 651.902344 L 396.433594 653.433594 L 397.140625 654.964844 L 397.84375 656.496094 "/>
<path style="fill:none;stroke-width:4.054518;stroke-linecap:butt;stroke-linejoin:round;stroke:rgb(0%,0%,0%);stroke-opacity:1;stroke-miterlimit:1;" d="M 467.550781 504.839844 L 467.550781 656.496094 "/>
<path style="fill:none;stroke-width:4.054518;stroke-linecap:butt;stroke-linejoin:round;stroke:rgb(0%,0%,0%);stroke-opacity:1;stroke-miterlimit:1;" d="M 537.257812 504.839844 L 537.257812 656.496094 "/>
<path style="fill:none;stroke-width:4.054518;stroke-linecap:butt;stroke-linejoin:round;stroke:rgb(0%,0%,0%);stroke-opacity:1;stroke-miterlimit:1;" d="M 606.96875 504.839844 L 606.96875 656.496094 "/>
<path style="fill:none;stroke-width:4.054518;stroke-linecap:butt;stroke-linejoin:round;stroke:rgb(0%,0%,0%);stroke-opacity:1;stroke-miterlimit:1;" d="M 188.71875 49.871094 L 190.125 52.933594 L 190.832031 54.464844 L 192.238281 57.527344 L 192.941406 59.0625 L 193.648438 60.59375 L 195.757812 65.1875 L 196.464844 66.71875 L 197.167969 68.253906 L 198.574219 71.316406 L 199.28125 72.847656 L 201.390625 77.441406 L 202.097656 78.976562 L 204.207031 83.570312 L 204.914062 85.101562 L 205.617188 86.632812 L 206.320312 88.167969 L 207.023438 89.699219 L 207.730469 91.230469 L 209.839844 95.824219 L 210.546875 97.359375 L 211.953125 100.421875 L 212.660156 101.953125 L 214.066406 105.015625 L 214.769531 106.550781 L 215.476562 108.082031 L 217.585938 112.675781 L 218.292969 114.207031 L 218.996094 115.742188 L 220.402344 118.804688 L 221.109375 120.335938 L 222.515625 123.398438 L 223.21875 124.933594 L 223.925781 126.464844 L 226.035156 131.058594 L 226.742188 132.589844 L 227.445312 134.125 L 228.851562 137.1875 L 229.558594 138.71875 L 231.667969 143.3125 L 232.375 144.847656 L 234.484375 149.441406 L 235.191406 150.972656 L 235.894531 152.503906 L 236.597656 154.039062 L 237.300781 155.570312 L 238.007812 157.101562 L 240.117188 161.695312 L 240.824219 163.230469 L 242.230469 166.292969 L 242.9375 167.824219 L 244.34375 170.886719 L 245.046875 172.421875 L 245.753906 173.953125 L 247.863281 178.546875 L 248.570312 180.078125 L 249.273438 181.613281 L 250.679688 184.675781 L 251.386719 186.207031 L 252.792969 189.269531 L 253.496094 190.804688 L 254.203125 192.335938 L 256.3125 196.929688 L 257.019531 198.460938 L 257.722656 199.996094 L 258.425781 201.527344 "/>
<path style="fill:none;stroke-width:4.054518;stroke-linecap:butt;stroke-linejoin:round;stroke:rgb(0%,0%,0%);stroke-opacity:1;stroke-miterlimit:1;" d="M 606.96875 504.839844 L 608.375 507.902344 L 609.082031 509.433594 L 609.785156 510.96875 L 611.191406 514.03125 L 611.898438 515.5625 L 613.304688 518.625 L 614.007812 520.160156 L 614.714844 521.691406 L 616.824219 526.285156 L 617.53125 527.816406 L 618.234375 529.351562 L 619.640625 532.414062 L 620.347656 533.945312 L 621.753906 537.007812 L 622.457031 538.542969 L 623.164062 540.074219 L 625.273438 544.667969 L 625.980469 546.199219 L 626.683594 547.730469 L 627.386719 549.265625 L 628.089844 550.796875 L 628.796875 552.328125 L 630.90625 556.921875 L 631.613281 558.457031 L 633.722656 563.050781 L 634.429688 564.582031 L 635.132812 566.113281 L 635.835938 567.648438 L 636.542969 569.179688 L 638.652344 573.773438 L 639.359375 575.304688 L 640.0625 576.839844 L 641.46875 579.902344 L 642.175781 581.433594 L 643.582031 584.496094 L 644.285156 586.03125 L 644.992188 587.5625 L 647.101562 592.15625 L 647.808594 593.6875 L 648.511719 595.222656 L 649.917969 598.285156 L 650.625 599.816406 L 652.03125 602.878906 L 652.734375 604.414062 L 653.441406 605.945312 L 655.550781 610.539062 L 656.257812 612.070312 L 656.960938 613.601562 L 657.664062 615.136719 L 658.367188 616.667969 L 659.074219 618.199219 L 661.183594 622.792969 L 661.890625 624.328125 L 664 628.921875 L 664.707031 630.453125 L 665.410156 631.984375 L 666.113281 633.519531 L 666.820312 635.050781 L 668.929688 639.644531 L 669.636719 641.175781 L 670.339844 642.710938 L 671.746094 645.773438 L 672.453125 647.304688 L 673.859375 650.367188 L 674.5625 651.902344 L 675.269531 653.433594 L 676.675781 656.496094 "/>
<path style="fill:none;stroke-width:4.054518;stroke-linecap:butt;stroke-linejoin:round;stroke:rgb(0%,0%,0%);stroke-opacity:1;stroke-miterlimit:1;" d="M 49.300781 656.496094 L 49.300781 808.152344 "/>
<path style="fill:none;stroke-width:4.054518;stroke-linecap:butt;stroke-linejoin:round;stroke:rgb(0%,0%,0%);stroke-opacity:1;stroke-miterlimit:1;" d="M 49.300781 656.496094 L 50.003906 658.027344 L 50.710938 659.558594 L 51.414062 661.09375 L 52.820312 664.15625 L 53.527344 665.6875 L 54.933594 668.75 L 55.636719 670.285156 L 56.34375 671.816406 L 57.75 674.878906 L 58.457031 676.410156 L 59.160156 677.941406 L 59.863281 679.476562 L 60.566406 681.007812 L 61.273438 682.539062 L 63.382812 687.132812 L 64.089844 688.664062 L 64.792969 690.199219 L 66.199219 693.261719 L 66.90625 694.792969 L 68.3125 697.855469 L 69.015625 699.390625 L 69.722656 700.921875 L 71.832031 705.515625 L 72.539062 707.046875 L 73.242188 708.582031 L 74.648438 711.644531 L 75.355469 713.175781 L 76.761719 716.238281 L 77.464844 717.773438 L 78.171875 719.304688 L 80.28125 723.898438 L 80.988281 725.429688 L 81.691406 726.964844 L 83.097656 730.027344 L 83.804688 731.558594 L 85.210938 734.621094 L 85.914062 736.15625 L 86.621094 737.6875 L 88.027344 740.75 L 88.734375 742.28125 L 89.4375 743.8125 L 90.140625 745.347656 L 90.84375 746.878906 L 91.550781 748.410156 L 93.660156 753.003906 L 94.367188 754.535156 L 95.070312 756.070312 L 96.476562 759.132812 L 97.183594 760.664062 L 98.589844 763.726562 L 99.292969 765.261719 L 100 766.792969 L 102.109375 771.386719 L 102.816406 772.917969 L 103.519531 774.453125 L 104.925781 777.515625 L 105.632812 779.046875 L 107.039062 782.109375 L 107.742188 783.644531 L 108.449219 785.175781 L 110.558594 789.769531 L 111.265625 791.300781 L 111.96875 792.835938 L 113.375 795.898438 L 114.082031 797.429688 L 115.488281 800.492188 L 116.191406 802.027344 L 116.898438 803.558594 L 118.304688 806.621094 L 119.011719 808.152344 "/>
<path style="fill:none;stroke-width:4.054518;stroke-linecap:butt;stroke-linejoin:round;stroke:rgb(0%,0%,0%);stroke-opacity:1;stroke-miterlimit:1;" d="M 119.011719 656.496094 L 120.417969 659.558594 L 121.121094 661.09375 L 121.828125 662.625 L 123.9375 667.21875 L 124.644531 668.75 L 125.347656 670.285156 L 126.753906 673.347656 L 127.460938 674.878906 L 128.867188 677.941406 L 129.570312 679.476562 L 130.277344 681.007812 L 132.386719 685.601562 L 133.09375 687.132812 L 133.796875 688.664062 L 134.5 690.199219 L 135.203125 691.730469 L 135.910156 693.261719 L 138.019531 697.855469 L 138.726562 699.390625 L 140.835938 703.984375 L 141.542969 705.515625 L 142.246094 707.046875 L 142.949219 708.582031 L 143.652344 710.113281 L 144.359375 711.644531 L 146.46875 716.238281 L 147.175781 717.773438 L 148.582031 720.835938 L 149.289062 722.367188 L 150.695312 725.429688 L 151.398438 726.964844 L 152.105469 728.496094 L 154.214844 733.089844 L 154.921875 734.621094 L 155.625 736.15625 L 157.03125 739.21875 L 157.738281 740.75 L 159.144531 743.8125 L 159.847656 745.347656 L 160.554688 746.878906 L 162.664062 751.472656 L 163.371094 753.003906 L 164.074219 754.535156 L 164.777344 756.070312 L 165.480469 757.601562 L 166.1875 759.132812 L 168.296875 763.726562 L 169.003906 765.261719 L 171.113281 769.855469 L 171.820312 771.386719 L 172.523438 772.917969 L 173.226562 774.453125 L 173.929688 775.984375 L 174.636719 777.515625 L 176.746094 782.109375 L 177.453125 783.644531 L 179.5625 788.238281 L 180.269531 789.769531 L 180.972656 791.300781 L 181.675781 792.835938 L 182.382812 794.367188 L 184.492188 798.960938 L 185.199219 800.492188 L 185.902344 802.027344 L 187.308594 805.089844 L 188.015625 806.621094 L 188.71875 808.152344 "/>
<path style="fill:none;stroke-width:4.054518;stroke-linecap:butt;stroke-linejoin:round;stroke:rgb(0%,0%,0%);stroke-opacity:1;stroke-miterlimit:1;" d="M 328.132812 656.496094 L 326.726562 659.558594 L 326.023438 661.09375 L 325.316406 662.625 L 323.207031 667.21875 L 322.5 668.75 L 321.796875 670.285156 L 320.390625 673.347656 L 319.683594 674.878906 L 318.277344 677.941406 L 317.574219 679.476562 L 316.867188 681.007812 L 314.757812 685.601562 L 314.050781 687.132812 L 313.347656 688.664062 L 312.644531 690.199219 L 311.941406 691.730469 L 311.234375 693.261719 L 309.125 697.855469 L 308.417969 699.390625 L 306.308594 703.984375 L 305.601562 705.515625 L 304.898438 707.046875 L 304.195312 708.582031 L 303.492188 710.113281 L 302.785156 711.644531 L 301.378906 714.707031 L 300.671875 716.238281 L 299.96875 717.773438 L 298.5625 720.835938 L 297.855469 722.367188 L 296.449219 725.429688 L 295.746094 726.964844 L 295.039062 728.496094 L 292.929688 733.089844 L 292.222656 734.621094 L 291.519531 736.15625 L 290.113281 739.21875 L 289.40625 740.75 L 288 743.8125 L 287.296875 745.347656 L 286.589844 746.878906 L 284.480469 751.472656 L 283.773438 753.003906 L 283.070312 754.535156 L 282.367188 756.070312 L 281.664062 757.601562 L 280.957031 759.132812 L 278.847656 763.726562 L 278.140625 765.261719 L 276.03125 769.855469 L 275.324219 771.386719 L 274.621094 772.917969 L 273.917969 774.453125 L 273.214844 775.984375 L 272.507812 777.515625 L 271.101562 780.578125 L 270.394531 782.109375 L 269.691406 783.644531 L 268.285156 786.707031 L 267.578125 788.238281 L 266.171875 791.300781 L 265.46875 792.835938 L 264.761719 794.367188 L 262.652344 798.960938 L 261.945312 800.492188 L 261.242188 802.027344 L 259.835938 805.089844 L 259.128906 806.621094 L 258.425781 808.152344 "/>
<path style="fill:none;stroke-width:4.054518;stroke-linecap:butt;stroke-linejoin:round;stroke:rgb(0%,0%,0%);stroke-opacity:1;stroke-miterlimit:1;" d="M 328.132812 656.496094 L 328.132812 808.152344 "/>
<path style="fill:none;stroke-width:4.054518;stroke-linecap:butt;stroke-linejoin:round;stroke:rgb(0%,0%,0%);stroke-opacity:1;stroke-miterlimit:1;" d="M 397.84375 656.496094 L 397.84375 808.152344 "/>
<path style="fill:none;stroke-width:4.054518;stroke-linecap:butt;stroke-linejoin:round;stroke:rgb(0%,0%,0%);stroke-opacity:1;stroke-miterlimit:1;" d="M 467.550781 656.496094 L 467.550781 808.152344 "/>
<path style="fill:none;stroke-width:4.054518;stroke-linecap:butt;stroke-linejoin:round;stroke:rgb(0%,0%,0%);stroke-opacity:1;stroke-miterlimit:1;" d="M 537.257812 656.496094 L 537.257812 808.152344 "/>
<path style="fill:none;stroke-width:4.054518;stroke-linecap:butt;stroke-linejoin:round;stroke:rgb(0%,0%,0%);stroke-opacity:1;stroke-miterlimit:1;" d="M 676.675781 656.496094 L 675.269531 659.558594 L 674.5625 661.09375 L 672.453125 665.6875 L 671.746094 667.21875 L 671.042969 668.75 L 670.339844 670.285156 L 669.636719 671.816406 L 668.929688 673.347656 L 666.820312 677.941406 L 666.113281 679.476562 L 664.707031 682.539062 L 664 684.070312 L 661.890625 688.664062 L 661.183594 690.199219 L 659.074219 694.792969 L 658.367188 696.324219 L 657.664062 697.855469 L 656.960938 699.390625 L 656.257812 700.921875 L 655.550781 702.453125 L 653.441406 707.046875 L 652.734375 708.582031 L 650.625 713.175781 L 649.917969 714.707031 L 649.214844 716.238281 L 648.511719 717.773438 L 647.808594 719.304688 L 647.101562 720.835938 L 644.992188 725.429688 L 644.285156 726.964844 L 642.175781 731.558594 L 641.46875 733.089844 L 640.765625 734.621094 L 640.0625 736.15625 L 639.359375 737.6875 L 638.652344 739.21875 L 636.542969 743.8125 L 635.835938 745.347656 L 634.429688 748.410156 L 633.722656 749.941406 L 631.613281 754.535156 L 630.90625 756.070312 L 628.796875 760.664062 L 628.089844 762.195312 L 627.386719 763.726562 L 626.683594 765.261719 L 625.980469 766.792969 L 625.273438 768.324219 L 623.164062 772.917969 L 622.457031 774.453125 L 620.347656 779.046875 L 619.640625 780.578125 L 618.9375 782.109375 L 618.234375 783.644531 L 617.53125 785.175781 L 616.824219 786.707031 L 614.714844 791.300781 L 614.007812 792.835938 L 611.898438 797.429688 L 611.191406 798.960938 L 610.488281 800.492188 L 609.785156 802.027344 L 609.082031 803.558594 L 608.375 805.089844 L 606.96875 808.152344 "/>
<path style="fill:none;stroke-width:4.054518;stroke-linecap:butt;stroke-linejoin:round;stroke:rgb(0%,0%,0%);stroke-opacity:1;stroke-miterlimit:1;" d="M 188.71875 49.871094 L 190.125 51.402344 L 191.535156 52.933594 L 192.941406 54.464844 L 194.351562 55.996094 L 195.757812 57.527344 L 197.167969 59.0625 L 198.574219 60.59375 L 199.984375 62.125 L 201.390625 63.65625 L 202.800781 65.1875 L 204.207031 66.71875 L 205.617188 68.253906 L 207.023438 69.785156 L 208.433594 71.316406 L 209.839844 72.847656 L 212.660156 75.910156 L 214.066406 77.441406 L 215.476562 78.976562 L 216.882812 80.507812 L 218.292969 82.039062 L 219.699219 83.570312 L 221.109375 85.101562 L 222.515625 86.632812 L 223.925781 88.167969 L 225.332031 89.699219 L 226.742188 91.230469 L 228.148438 92.761719 L 229.558594 94.292969 L 230.964844 95.824219 L 232.375 97.359375 L 233.78125 98.890625 L 235.191406 100.421875 L 236.597656 101.953125 L 238.007812 103.484375 L 239.414062 105.015625 L 240.824219 106.550781 L 242.230469 108.082031 L 243.640625 109.613281 L 245.046875 111.144531 L 246.457031 112.675781 L 247.863281 114.207031 L 249.273438 115.742188 L 250.679688 117.273438 L 252.089844 118.804688 L 253.496094 120.335938 L 254.90625 121.867188 L 256.3125 123.398438 L 257.722656 124.933594 L 259.128906 126.464844 L 260.539062 127.996094 L 261.945312 129.527344 L 263.355469 131.058594 L 264.761719 132.589844 L 266.171875 134.125 L 267.578125 135.65625 L 268.988281 137.1875 L 270.394531 138.71875 L 273.214844 141.78125 L 274.621094 143.3125 L 276.03125 144.847656 L 277.4375 146.378906 L 278.847656 147.910156 L 280.253906 149.441406 L 281.664062 150.972656 L 283.070312 152.503906 L 284.480469 154.039062 L 285.886719 155.570312 L 287.296875 157.101562 L 288.703125 158.632812 L 290.113281 160.164062 L 291.519531 161.695312 L 292.929688 163.230469 L 294.335938 164.761719 L 295.746094 166.292969 L 297.152344 167.824219 L 298.5625 169.355469 L 299.96875 170.886719 L 301.378906 172.421875 L 302.785156 173.953125 L 304.195312 175.484375 L 305.601562 177.015625 L 307.011719 178.546875 L 308.417969 180.078125 L 309.828125 181.613281 L 311.234375 183.144531 L 312.644531 184.675781 L 314.050781 186.207031 L 315.460938 187.738281 L 316.867188 189.269531 L 318.277344 190.804688 L 319.683594 192.335938 L 321.09375 193.867188 L 322.5 195.398438 L 323.910156 196.929688 L 325.316406 198.460938 L 326.726562 199.996094 L 328.132812 201.527344 "/>
<path style="fill:none;stroke-width:4.054518;stroke-linecap:butt;stroke-linejoin:round;stroke:rgb(0%,0%,0%);stroke-opacity:1;stroke-miterlimit:1;" d="M 676.675781 656.496094 L 676.675781 808.152344 "/>
<path style="fill:none;stroke-width:4.054518;stroke-linecap:butt;stroke-linejoin:round;stroke:rgb(0%,0%,0%);stroke-opacity:1;stroke-miterlimit:1;" d="M 188.71875 49.871094 L 190.832031 51.402344 L 192.941406 52.933594 L 199.28125 57.527344 L 201.390625 59.0625 L 207.730469 63.65625 L 209.839844 65.1875 L 211.953125 66.71875 L 214.066406 68.253906 L 218.292969 71.316406 L 220.402344 72.847656 L 226.742188 77.441406 L 228.851562 78.976562 L 235.191406 83.570312 L 237.300781 85.101562 L 239.414062 86.632812 L 241.527344 88.167969 L 245.753906 91.230469 L 247.863281 92.761719 L 252.089844 95.824219 L 254.203125 97.359375 L 256.3125 98.890625 L 262.652344 103.484375 L 264.761719 105.015625 L 266.875 106.550781 L 273.214844 111.144531 L 275.324219 112.675781 L 277.4375 114.207031 L 279.550781 115.742188 L 281.664062 117.273438 L 283.773438 118.804688 L 290.113281 123.398438 L 292.222656 124.933594 L 298.5625 129.527344 L 300.671875 131.058594 L 302.785156 132.589844 L 304.898438 134.125 L 309.125 137.1875 L 311.234375 138.71875 L 317.574219 143.3125 L 319.683594 144.847656 L 326.023438 149.441406 L 328.132812 150.972656 L 330.246094 152.503906 L 332.359375 154.039062 L 336.585938 157.101562 L 338.695312 158.632812 L 342.921875 161.695312 L 345.035156 163.230469 L 347.144531 164.761719 L 353.484375 169.355469 L 355.59375 170.886719 L 357.707031 172.421875 L 364.046875 177.015625 L 366.15625 178.546875 L 368.269531 180.078125 L 370.382812 181.613281 L 372.496094 183.144531 L 374.605469 184.675781 L 380.945312 189.269531 L 383.054688 190.804688 L 389.394531 195.398438 L 391.503906 196.929688 L 393.617188 198.460938 L 395.730469 199.996094 L 397.84375 201.527344 "/>
<path style="fill:none;stroke-width:4.054518;stroke-linecap:butt;stroke-linejoin:round;stroke:rgb(0%,0%,0%);stroke-opacity:1;stroke-miterlimit:1;" d="M 467.550781 49.871094 L 467.550781 201.527344 "/>
<path style="fill:none;stroke-width:4.054518;stroke-linecap:butt;stroke-linejoin:round;stroke:rgb(0%,0%,0%);stroke-opacity:1;stroke-miterlimit:1;" d="M 537.257812 49.871094 L 537.257812 201.527344 "/>
<path style="fill:none;stroke-width:4.054518;stroke-linecap:butt;stroke-linejoin:round;stroke:rgb(0%,0%,0%);stroke-opacity:1;stroke-miterlimit:1;" d="M 606.96875 49.871094 L 606.96875 201.527344 "/>
<path style="fill-rule:nonzero;fill:rgb(0%,0%,0%);fill-opacity:1;stroke-width:0.708661;stroke-linecap:round;stroke-linejoin:round;stroke:rgb(0%,0%,0%);stroke-opacity:1;stroke-miterlimit:10;" d="M 52.855469 49.871094 C 52.855469 54.609375 45.746094 54.609375 45.746094 49.871094 C 45.746094 45.128906 52.855469 45.128906 52.855469 49.871094 "/>
<path style="fill-rule:nonzero;fill:rgb(0%,0%,0%);fill-opacity:1;stroke-width:0.708661;stroke-linecap:round;stroke-linejoin:round;stroke:rgb(0%,0%,0%);stroke-opacity:1;stroke-miterlimit:10;" d="M 122.566406 49.871094 C 122.566406 54.609375 115.453125 54.609375 115.453125 49.871094 C 115.453125 45.128906 122.566406 45.128906 122.566406 49.871094 "/>
<path style="fill-rule:nonzero;fill:rgb(0%,0%,0%);fill-opacity:1;stroke-width:0.708661;stroke-linecap:round;stroke-linejoin:round;stroke:rgb(0%,0%,0%);stroke-opacity:1;stroke-miterlimit:10;" d="M 192.273438 49.871094 C 192.273438 54.609375 185.164062 54.609375 185.164062 49.871094 C 185.164062 45.128906 192.273438 45.128906 192.273438 49.871094 "/>
<path style="fill-rule:nonzero;fill:rgb(0%,0%,0%);fill-opacity:1;stroke-width:0.708661;stroke-linecap:round;stroke-linejoin:round;stroke:rgb(0%,0%,0%);stroke-opacity:1;stroke-miterlimit:10;" d="M 261.980469 49.871094 C 261.980469 54.609375 254.871094 54.609375 254.871094 49.871094 C 254.871094 45.128906 261.980469 45.128906 261.980469 49.871094 "/>
<path style="fill-rule:nonzero;fill:rgb(0%,0%,0%);fill-opacity:1;stroke-width:0.708661;stroke-linecap:round;stroke-linejoin:round;stroke:rgb(0%,0%,0%);stroke-opacity:1;stroke-miterlimit:10;" d="M 331.691406 49.871094 C 331.691406 54.609375 324.578125 54.609375 324.578125 49.871094 C 324.578125 45.128906 331.691406 45.128906 331.691406 49.871094 "/>
<path style="fill-rule:nonzero;fill:rgb(0%,0%,0%);fill-opacity:1;stroke-width:0.708661;stroke-linecap:round;stroke-linejoin:round;stroke:rgb(0%,0%,0%);stroke-opacity:1;stroke-miterlimit:10;" d="M 401.398438 49.871094 C 401.398438 54.609375 394.289062 54.609375 394.289062 49.871094 C 394.289062 45.128906 401.398438 45.128906 401.398438 49.871094 "/>
<path style="fill-rule:nonzero;fill:rgb(0%,0%,0%);fill-opacity:1;stroke-width:0.708661;stroke-linecap:round;stroke-linejoin:round;stroke:rgb(0%,0%,0%);stroke-opacity:1;stroke-miterlimit:10;" d="M 471.105469 49.871094 C 471.105469 54.609375 463.996094 54.609375 463.996094 49.871094 C 463.996094 45.128906 471.105469 45.128906 471.105469 49.871094 "/>
<path style="fill-rule:nonzero;fill:rgb(0%,0%,0%);fill-opacity:1;stroke-width:0.708661;stroke-linecap:round;stroke-linejoin:round;stroke:rgb(0%,0%,0%);stroke-opacity:1;stroke-miterlimit:10;" d="M 540.816406 49.871094 C 540.816406 54.609375 533.703125 54.609375 533.703125 49.871094 C 533.703125 45.128906 540.816406 45.128906 540.816406 49.871094 "/>
<path style="fill-rule:nonzero;fill:rgb(0%,0%,0%);fill-opacity:1;stroke-width:0.708661;stroke-linecap:round;stroke-linejoin:round;stroke:rgb(0%,0%,0%);stroke-opacity:1;stroke-miterlimit:10;" d="M 610.523438 49.871094 C 610.523438 54.609375 603.414062 54.609375 603.414062 49.871094 C 603.414062 45.128906 610.523438 45.128906 610.523438 49.871094 "/>
<path style="fill-rule:nonzero;fill:rgb(0%,0%,0%);fill-opacity:1;stroke-width:0.708661;stroke-linecap:round;stroke-linejoin:round;stroke:rgb(0%,0%,0%);stroke-opacity:1;stroke-miterlimit:10;" d="M 680.230469 49.871094 C 680.230469 54.609375 673.121094 54.609375 673.121094 49.871094 C 673.121094 45.128906 680.230469 45.128906 680.230469 49.871094 "/>
<path style="fill-rule:nonzero;fill:rgb(0%,0%,0%);fill-opacity:1;stroke-width:0.708661;stroke-linecap:round;stroke-linejoin:round;stroke:rgb(0%,0%,0%);stroke-opacity:1;stroke-miterlimit:10;" d="M 52.855469 201.527344 C 52.855469 206.265625 45.746094 206.265625 45.746094 201.527344 C 45.746094 196.785156 52.855469 196.785156 52.855469 201.527344 "/>
<path style="fill-rule:nonzero;fill:rgb(0%,0%,0%);fill-opacity:1;stroke-width:0.708661;stroke-linecap:round;stroke-linejoin:round;stroke:rgb(0%,0%,0%);stroke-opacity:1;stroke-miterlimit:10;" d="M 122.566406 201.527344 C 122.566406 206.265625 115.453125 206.265625 115.453125 201.527344 C 115.453125 196.785156 122.566406 196.785156 122.566406 201.527344 "/>
<path style="fill-rule:nonzero;fill:rgb(0%,0%,0%);fill-opacity:1;stroke-width:0.708661;stroke-linecap:round;stroke-linejoin:round;stroke:rgb(0%,0%,0%);stroke-opacity:1;stroke-miterlimit:10;" d="M 192.273438 201.527344 C 192.273438 206.265625 185.164062 206.265625 185.164062 201.527344 C 185.164062 196.785156 192.273438 196.785156 192.273438 201.527344 "/>
<path style="fill-rule:nonzero;fill:rgb(0%,0%,0%);fill-opacity:1;stroke-width:0.708661;stroke-linecap:round;stroke-linejoin:round;stroke:rgb(0%,0%,0%);stroke-opacity:1;stroke-miterlimit:10;" d="M 261.980469 201.527344 C 261.980469 206.265625 254.871094 206.265625 254.871094 201.527344 C 254.871094 196.785156 261.980469 196.785156 261.980469 201.527344 "/>
<path style="fill-rule:nonzero;fill:rgb(0%,0%,0%);fill-opacity:1;stroke-width:0.708661;stroke-linecap:round;stroke-linejoin:round;stroke:rgb(0%,0%,0%);stroke-opacity:1;stroke-miterlimit:10;" d="M 331.691406 201.527344 C 331.691406 206.265625 324.578125 206.265625 324.578125 201.527344 C 324.578125 196.785156 331.691406 196.785156 331.691406 201.527344 "/>
<path style="fill-rule:nonzero;fill:rgb(0%,0%,0%);fill-opacity:1;stroke-width:0.708661;stroke-linecap:round;stroke-linejoin:round;stroke:rgb(0%,0%,0%);stroke-opacity:1;stroke-miterlimit:10;" d="M 401.398438 201.527344 C 401.398438 206.265625 394.289062 206.265625 394.289062 201.527344 C 394.289062 196.785156 401.398438 196.785156 401.398438 201.527344 "/>
<path style="fill-rule:nonzero;fill:rgb(0%,0%,0%);fill-opacity:1;stroke-width:0.708661;stroke-linecap:round;stroke-linejoin:round;stroke:rgb(0%,0%,0%);stroke-opacity:1;stroke-miterlimit:10;" d="M 471.105469 201.527344 C 471.105469 206.265625 463.996094 206.265625 463.996094 201.527344 C 463.996094 196.785156 471.105469 196.785156 471.105469 201.527344 "/>
<path style="fill-rule:nonzero;fill:rgb(0%,0%,0%);fill-opacity:1;stroke-width:0.708661;stroke-linecap:round;stroke-linejoin:round;stroke:rgb(0%,0%,0%);stroke-opacity:1;stroke-miterlimit:10;" d="M 540.816406 201.527344 C 540.816406 206.265625 533.703125 206.265625 533.703125 201.527344 C 533.703125 196.785156 540.816406 196.785156 540.816406 201.527344 "/>
<path style="fill-rule:nonzero;fill:rgb(0%,0%,0%);fill-opacity:1;stroke-width:0.708661;stroke-linecap:round;stroke-linejoin:round;stroke:rgb(0%,0%,0%);stroke-opacity:1;stroke-miterlimit:10;" d="M 610.523438 201.527344 C 610.523438 206.265625 603.414062 206.265625 603.414062 201.527344 C 603.414062 196.785156 610.523438 196.785156 610.523438 201.527344 "/>
<path style="fill-rule:nonzero;fill:rgb(0%,0%,0%);fill-opacity:1;stroke-width:0.708661;stroke-linecap:round;stroke-linejoin:round;stroke:rgb(0%,0%,0%);stroke-opacity:1;stroke-miterlimit:10;" d="M 680.230469 201.527344 C 680.230469 206.265625 673.121094 206.265625 673.121094 201.527344 C 673.121094 196.785156 680.230469 196.785156 680.230469 201.527344 "/>
<path style="fill-rule:nonzero;fill:rgb(0%,0%,0%);fill-opacity:1;stroke-width:0.708661;stroke-linecap:round;stroke-linejoin:round;stroke:rgb(0%,0%,0%);stroke-opacity:1;stroke-miterlimit:10;" d="M 52.855469 353.183594 C 52.855469 357.921875 45.746094 357.921875 45.746094 353.183594 C 45.746094 348.441406 52.855469 348.441406 52.855469 353.183594 "/>
<path style="fill-rule:nonzero;fill:rgb(0%,0%,0%);fill-opacity:1;stroke-width:0.708661;stroke-linecap:round;stroke-linejoin:round;stroke:rgb(0%,0%,0%);stroke-opacity:1;stroke-miterlimit:10;" d="M 122.566406 353.183594 C 122.566406 357.921875 115.453125 357.921875 115.453125 353.183594 C 115.453125 348.441406 122.566406 348.441406 122.566406 353.183594 "/>
<path style="fill-rule:nonzero;fill:rgb(0%,0%,0%);fill-opacity:1;stroke-width:0.708661;stroke-linecap:round;stroke-linejoin:round;stroke:rgb(0%,0%,0%);stroke-opacity:1;stroke-miterlimit:10;" d="M 192.273438 353.183594 C 192.273438 357.921875 185.164062 357.921875 185.164062 353.183594 C 185.164062 348.441406 192.273438 348.441406 192.273438 353.183594 "/>
<path style="fill-rule:nonzero;fill:rgb(0%,0%,0%);fill-opacity:1;stroke-width:0.708661;stroke-linecap:round;stroke-linejoin:round;stroke:rgb(0%,0%,0%);stroke-opacity:1;stroke-miterlimit:10;" d="M 261.980469 353.183594 C 261.980469 357.921875 254.871094 357.921875 254.871094 353.183594 C 254.871094 348.441406 261.980469 348.441406 261.980469 353.183594 "/>
<path style="fill-rule:nonzero;fill:rgb(0%,0%,0%);fill-opacity:1;stroke-width:0.708661;stroke-linecap:round;stroke-linejoin:round;stroke:rgb(0%,0%,0%);stroke-opacity:1;stroke-miterlimit:10;" d="M 331.691406 353.183594 C 331.691406 357.921875 324.578125 357.921875 324.578125 353.183594 C 324.578125 348.441406 331.691406 348.441406 331.691406 353.183594 "/>
<path style="fill-rule:nonzero;fill:rgb(0%,0%,0%);fill-opacity:1;stroke-width:0.708661;stroke-linecap:round;stroke-linejoin:round;stroke:rgb(0%,0%,0%);stroke-opacity:1;stroke-miterlimit:10;" d="M 401.398438 353.183594 C 401.398438 357.921875 394.289062 357.921875 394.289062 353.183594 C 394.289062 348.441406 401.398438 348.441406 401.398438 353.183594 "/>
<path style="fill-rule:nonzero;fill:rgb(0%,0%,0%);fill-opacity:1;stroke-width:0.708661;stroke-linecap:round;stroke-linejoin:round;stroke:rgb(0%,0%,0%);stroke-opacity:1;stroke-miterlimit:10;" d="M 471.105469 353.183594 C 471.105469 357.921875 463.996094 357.921875 463.996094 353.183594 C 463.996094 348.441406 471.105469 348.441406 471.105469 353.183594 "/>
<path style="fill-rule:nonzero;fill:rgb(0%,0%,0%);fill-opacity:1;stroke-width:0.708661;stroke-linecap:round;stroke-linejoin:round;stroke:rgb(0%,0%,0%);stroke-opacity:1;stroke-miterlimit:10;" d="M 540.816406 353.183594 C 540.816406 357.921875 533.703125 357.921875 533.703125 353.183594 C 533.703125 348.441406 540.816406 348.441406 540.816406 353.183594 "/>
<path style="fill-rule:nonzero;fill:rgb(0%,0%,0%);fill-opacity:1;stroke-width:0.708661;stroke-linecap:round;stroke-linejoin:round;stroke:rgb(0%,0%,0%);stroke-opacity:1;stroke-miterlimit:10;" d="M 610.523438 353.183594 C 610.523438 357.921875 603.414062 357.921875 603.414062 353.183594 C 603.414062 348.441406 610.523438 348.441406 610.523438 353.183594 "/>
<path style="fill-rule:nonzero;fill:rgb(0%,0%,0%);fill-opacity:1;stroke-width:0.708661;stroke-linecap:round;stroke-linejoin:round;stroke:rgb(0%,0%,0%);stroke-opacity:1;stroke-miterlimit:10;" d="M 680.230469 353.183594 C 680.230469 357.921875 673.121094 357.921875 673.121094 353.183594 C 673.121094 348.441406 680.230469 348.441406 680.230469 353.183594 "/>
<path style="fill-rule:nonzero;fill:rgb(0%,0%,0%);fill-opacity:1;stroke-width:0.708661;stroke-linecap:round;stroke-linejoin:round;stroke:rgb(0%,0%,0%);stroke-opacity:1;stroke-miterlimit:10;" d="M 52.855469 504.839844 C 52.855469 509.578125 45.746094 509.578125 45.746094 504.839844 C 45.746094 500.097656 52.855469 500.097656 52.855469 504.839844 "/>
<path style="fill-rule:nonzero;fill:rgb(0%,0%,0%);fill-opacity:1;stroke-width:0.708661;stroke-linecap:round;stroke-linejoin:round;stroke:rgb(0%,0%,0%);stroke-opacity:1;stroke-miterlimit:10;" d="M 122.566406 504.839844 C 122.566406 509.578125 115.453125 509.578125 115.453125 504.839844 C 115.453125 500.097656 122.566406 500.097656 122.566406 504.839844 "/>
<path style="fill-rule:nonzero;fill:rgb(0%,0%,0%);fill-opacity:1;stroke-width:0.708661;stroke-linecap:round;stroke-linejoin:round;stroke:rgb(0%,0%,0%);stroke-opacity:1;stroke-miterlimit:10;" d="M 192.273438 504.839844 C 192.273438 509.578125 185.164062 509.578125 185.164062 504.839844 C 185.164062 500.097656 192.273438 500.097656 192.273438 504.839844 "/>
<path style="fill-rule:nonzero;fill:rgb(0%,0%,0%);fill-opacity:1;stroke-width:0.708661;stroke-linecap:round;stroke-linejoin:round;stroke:rgb(0%,0%,0%);stroke-opacity:1;stroke-miterlimit:10;" d="M 261.980469 504.839844 C 261.980469 509.578125 254.871094 509.578125 254.871094 504.839844 C 254.871094 500.097656 261.980469 500.097656 261.980469 504.839844 "/>
<path style="fill-rule:nonzero;fill:rgb(0%,0%,0%);fill-opacity:1;stroke-width:0.708661;stroke-linecap:round;stroke-linejoin:round;stroke:rgb(0%,0%,0%);stroke-opacity:1;stroke-miterlimit:10;" d="M 331.691406 504.839844 C 331.691406 509.578125 324.578125 509.578125 324.578125 504.839844 C 324.578125 500.097656 331.691406 500.097656 331.691406 504.839844 "/>
<path style="fill-rule:nonzero;fill:rgb(0%,0%,0%);fill-opacity:1;stroke-width:0.708661;stroke-linecap:round;stroke-linejoin:round;stroke:rgb(0%,0%,0%);stroke-opacity:1;stroke-miterlimit:10;" d="M 401.398438 504.839844 C 401.398438 509.578125 394.289062 509.578125 394.289062 504.839844 C 394.289062 500.097656 401.398438 500.097656 401.398438 504.839844 "/>
<path style="fill-rule:nonzero;fill:rgb(0%,0%,0%);fill-opacity:1;stroke-width:0.708661;stroke-linecap:round;stroke-linejoin:round;stroke:rgb(0%,0%,0%);stroke-opacity:1;stroke-miterlimit:10;" d="M 471.105469 504.839844 C 471.105469 509.578125 463.996094 509.578125 463.996094 504.839844 C 463.996094 500.097656 471.105469 500.097656 471.105469 504.839844 "/>
<path style="fill-rule:nonzero;fill:rgb(0%,0%,0%);fill-opacity:1;stroke-width:0.708661;stroke-linecap:round;stroke-linejoin:round;stroke:rgb(0%,0%,0%);stroke-opacity:1;stroke-miterlimit:10;" d="M 540.816406 504.839844 C 540.816406 509.578125 533.703125 509.578125 533.703125 504.839844 C 533.703125 500.097656 540.816406 500.097656 540.816406 504.839844 "/>
<path style="fill-rule:nonzero;fill:rgb(0%,0%,0%);fill-opacity:1;stroke-width:0.708661;stroke-linecap:round;stroke-linejoin:round;stroke:rgb(0%,0%,0%);stroke-opacity:1;stroke-miterlimit:10;" d="M 610.523438 504.839844 C 610.523438 509.578125 603.414062 509.578125 603.414062 504.839844 C 603.414062 500.097656 610.523438 500.097656 610.523438 504.839844 "/>
<path style="fill-rule:nonzero;fill:rgb(0%,0%,0%);fill-opacity:1;stroke-width:0.708661;stroke-linecap:round;stroke-linejoin:round;stroke:rgb(0%,0%,0%);stroke-opacity:1;stroke-miterlimit:10;" d="M 680.230469 504.839844 C 680.230469 509.578125 673.121094 509.578125 673.121094 504.839844 C 673.121094 500.097656 680.230469 500.097656 680.230469 504.839844 "/>
<path style="fill-rule:nonzero;fill:rgb(0%,0%,0%);fill-opacity:1;stroke-width:0.708661;stroke-linecap:round;stroke-linejoin:round;stroke:rgb(0%,0%,0%);stroke-opacity:1;stroke-miterlimit:10;" d="M 52.855469 656.496094 C 52.855469 661.238281 45.746094 661.238281 45.746094 656.496094 C 45.746094 651.757812 52.855469 651.757812 52.855469 656.496094 "/>
<path style="fill-rule:nonzero;fill:rgb(0%,0%,0%);fill-opacity:1;stroke-width:0.708661;stroke-linecap:round;stroke-linejoin:round;stroke:rgb(0%,0%,0%);stroke-opacity:1;stroke-miterlimit:10;" d="M 122.566406 656.496094 C 122.566406 661.238281 115.453125 661.238281 115.453125 656.496094 C 115.453125 651.757812 122.566406 651.757812 122.566406 656.496094 "/>
<path style="fill-rule:nonzero;fill:rgb(0%,0%,0%);fill-opacity:1;stroke-width:0.708661;stroke-linecap:round;stroke-linejoin:round;stroke:rgb(0%,0%,0%);stroke-opacity:1;stroke-miterlimit:10;" d="M 192.273438 656.496094 C 192.273438 661.238281 185.164062 661.238281 185.164062 656.496094 C 185.164062 651.757812 192.273438 651.757812 192.273438 656.496094 "/>
<path style="fill-rule:nonzero;fill:rgb(0%,0%,0%);fill-opacity:1;stroke-width:0.708661;stroke-linecap:round;stroke-linejoin:round;stroke:rgb(0%,0%,0%);stroke-opacity:1;stroke-miterlimit:10;" d="M 261.980469 656.496094 C 261.980469 661.238281 254.871094 661.238281 254.871094 656.496094 C 254.871094 651.757812 261.980469 651.757812 261.980469 656.496094 "/>
<path style="fill-rule:nonzero;fill:rgb(0%,0%,0%);fill-opacity:1;stroke-width:0.708661;stroke-linecap:round;stroke-linejoin:round;stroke:rgb(0%,0%,0%);stroke-opacity:1;stroke-miterlimit:10;" d="M 331.691406 656.496094 C 331.691406 661.238281 324.578125 661.238281 324.578125 656.496094 C 324.578125 651.757812 331.691406 651.757812 331.691406 656.496094 "/>
<path style="fill-rule:nonzero;fill:rgb(0%,0%,0%);fill-opacity:1;stroke-width:0.708661;stroke-linecap:round;stroke-linejoin:round;stroke:rgb(0%,0%,0%);stroke-opacity:1;stroke-miterlimit:10;" d="M 401.398438 656.496094 C 401.398438 661.238281 394.289062 661.238281 394.289062 656.496094 C 394.289062 651.757812 401.398438 651.757812 401.398438 656.496094 "/>
<path style="fill-rule:nonzero;fill:rgb(0%,0%,0%);fill-opacity:1;stroke-width:0.708661;stroke-linecap:round;stroke-linejoin:round;stroke:rgb(0%,0%,0%);stroke-opacity:1;stroke-miterlimit:10;" d="M 471.105469 656.496094 C 471.105469 661.238281 463.996094 661.238281 463.996094 656.496094 C 463.996094 651.757812 471.105469 651.757812 471.105469 656.496094 "/>
<path style="fill-rule:nonzero;fill:rgb(0%,0%,0%);fill-opacity:1;stroke-width:0.708661;stroke-linecap:round;stroke-linejoin:round;stroke:rgb(0%,0%,0%);stroke-opacity:1;stroke-miterlimit:10;" d="M 540.816406 656.496094 C 540.816406 661.238281 533.703125 661.238281 533.703125 656.496094 C 533.703125 651.757812 540.816406 651.757812 540.816406 656.496094 "/>
<path style="fill-rule:nonzero;fill:rgb(0%,0%,0%);fill-opacity:1;stroke-width:0.708661;stroke-linecap:round;stroke-linejoin:round;stroke:rgb(0%,0%,0%);stroke-opacity:1;stroke-miterlimit:10;" d="M 610.523438 656.496094 C 610.523438 661.238281 603.414062 661.238281 603.414062 656.496094 C 603.414062 651.757812 610.523438 651.757812 610.523438 656.496094 "/>
<path style="fill-rule:nonzero;fill:rgb(0%,0%,0%);fill-opacity:1;stroke-width:0.708661;stroke-linecap:round;stroke-linejoin:round;stroke:rgb(0%,0%,0%);stroke-opacity:1;stroke-miterlimit:10;" d="M 680.230469 656.496094 C 680.230469 661.238281 673.121094 661.238281 673.121094 656.496094 C 673.121094 651.757812 680.230469 651.757812 680.230469 656.496094 "/>
<path style="fill-rule:nonzero;fill:rgb(0%,0%,0%);fill-opacity:1;stroke-width:0.708661;stroke-linecap:round;stroke-linejoin:round;stroke:rgb(0%,0%,0%);stroke-opacity:1;stroke-miterlimit:10;" d="M 52.855469 808.152344 C 52.855469 812.894531 45.746094 812.894531 45.746094 808.152344 C 45.746094 803.414062 52.855469 803.414062 52.855469 808.152344 "/>
<path style="fill-rule:nonzero;fill:rgb(0%,0%,0%);fill-opacity:1;stroke-width:0.708661;stroke-linecap:round;stroke-linejoin:round;stroke:rgb(0%,0%,0%);stroke-opacity:1;stroke-miterlimit:10;" d="M 122.566406 808.152344 C 122.566406 812.894531 115.453125 812.894531 115.453125 808.152344 C 115.453125 803.414062 122.566406 803.414062 122.566406 808.152344 "/>
<path style="fill-rule:nonzero;fill:rgb(0%,0%,0%);fill-opacity:1;stroke-width:0.708661;stroke-linecap:round;stroke-linejoin:round;stroke:rgb(0%,0%,0%);stroke-opacity:1;stroke-miterlimit:10;" d="M 192.273438 808.152344 C 192.273438 812.894531 185.164062 812.894531 185.164062 808.152344 C 185.164062 803.414062 192.273438 803.414062 192.273438 808.152344 "/>
<path style="fill-rule:nonzero;fill:rgb(0%,0%,0%);fill-opacity:1;stroke-width:0.708661;stroke-linecap:round;stroke-linejoin:round;stroke:rgb(0%,0%,0%);stroke-opacity:1;stroke-miterlimit:10;" d="M 261.980469 808.152344 C 261.980469 812.894531 254.871094 812.894531 254.871094 808.152344 C 254.871094 803.414062 261.980469 803.414062 261.980469 808.152344 "/>
<path style="fill-rule:nonzero;fill:rgb(0%,0%,0%);fill-opacity:1;stroke-width:0.708661;stroke-linecap:round;stroke-linejoin:round;stroke:rgb(0%,0%,0%);stroke-opacity:1;stroke-miterlimit:10;" d="M 331.691406 808.152344 C 331.691406 812.894531 324.578125 812.894531 324.578125 808.152344 C 324.578125 803.414062 331.691406 803.414062 331.691406 808.152344 "/>
<path style="fill-rule:nonzero;fill:rgb(0%,0%,0%);fill-opacity:1;stroke-width:0.708661;stroke-linecap:round;stroke-linejoin:round;stroke:rgb(0%,0%,0%);stroke-opacity:1;stroke-miterlimit:10;" d="M 401.398438 808.152344 C 401.398438 812.894531 394.289062 812.894531 394.289062 808.152344 C 394.289062 803.414062 401.398438 803.414062 401.398438 808.152344 "/>
<path style="fill-rule:nonzero;fill:rgb(0%,0%,0%);fill-opacity:1;stroke-width:0.708661;stroke-linecap:round;stroke-linejoin:round;stroke:rgb(0%,0%,0%);stroke-opacity:1;stroke-miterlimit:10;" d="M 471.105469 808.152344 C 471.105469 812.894531 463.996094 812.894531 463.996094 808.152344 C 463.996094 803.414062 471.105469 803.414062 471.105469 808.152344 "/>
<path style="fill-rule:nonzero;fill:rgb(0%,0%,0%);fill-opacity:1;stroke-width:0.708661;stroke-linecap:round;stroke-linejoin:round;stroke:rgb(0%,0%,0%);stroke-opacity:1;stroke-miterlimit:10;" d="M 540.816406 808.152344 C 540.816406 812.894531 533.703125 812.894531 533.703125 808.152344 C 533.703125 803.414062 540.816406 803.414062 540.816406 808.152344 "/>
<path style="fill-rule:nonzero;fill:rgb(0%,0%,0%);fill-opacity:1;stroke-width:0.708661;stroke-linecap:round;stroke-linejoin:round;stroke:rgb(0%,0%,0%);stroke-opacity:1;stroke-miterlimit:10;" d="M 610.523438 808.152344 C 610.523438 812.894531 603.414062 812.894531 603.414062 808.152344 C 603.414062 803.414062 610.523438 803.414062 610.523438 808.152344 "/>
<path style="fill-rule:nonzero;fill:rgb(0%,0%,0%);fill-opacity:1;stroke-width:0.708661;stroke-linecap:round;stroke-linejoin:round;stroke:rgb(0%,0%,0%);stroke-opacity:1;stroke-miterlimit:10;" d="M 680.230469 808.152344 C 680.230469 812.894531 673.121094 812.894531 673.121094 808.152344 C 673.121094 803.414062 680.230469 803.414062 680.230469 808.152344 "/>
<g clip-path="url(#clip2)" clip-rule="nonzero">
<path style="fill:none;stroke-width:2.327953;stroke-linecap:round;stroke-linejoin:round;stroke:rgb(20%,20%,20%);stroke-opacity:1;stroke-miterlimit:10;" d="M 17.933594 846.066406 L 708.046875 846.066406 L 708.046875 11.953125 L 17.933594 11.953125 Z M 17.933594 846.066406 "/>
</g>
</g>
</svg>
