<?xml version="1.0" encoding="UTF-8"?>
<svg xmlns="http://www.w3.org/2000/svg" xmlns:xlink="http://www.w3.org/1999/xlink" width="720pt" height="864pt" viewBox="0 0 720 864" version="1.1">
<defs>
<clipPath id="clip1">
  <path d="M 13.449219 8.964844 L 711.035156 8.964844 L 711.035156 850.550781 L 13.449219 850.550781 Z M 13.449219 8.964844 "/>
</clipPath>
<clipPath id="clip2">
  <path d="M 13.449219 8.964844 L 711.035156 8.964844 L 711.035156 850.550781 L 13.449219 850.550781 Z M 13.449219 8.964844 "/>
</clipPath>
</defs>
<g id="surface135">
<rect x="0" y="0" width="720" height="864" style="fill:rgb(100%,100%,100%);fill-opacity:1;stroke:none;"/>
<rect x="0" y="0" width="720" height="864" style="fill:rgb(100%,100%,100%);fill-opacity:1;stroke:none;"/>
<path style="fill:none;stroke-width:1.745965;stroke-linecap:round;stroke-linejoin:round;stroke:rgb(100%,100%,100%);stroke-opacity:1;stroke-miterlimit:10;" d="M 0 864 L 720 864 L 720 0 L 0 0 Z M 0 864 "/>
<g clip-path="url(#clip1)" clip-rule="nonzero">
<path style=" stroke:none;fill-rule:nonzero;fill:rgb(100%,100%,100%);fill-opacity:1;" d="M 13.449219 850.550781 L 711.035156 850.550781 L 711.035156 8.964844 L 13.449219 8.964844 Z M 13.449219 850.550781 "/>
</g>
<path style="fill:none;stroke-width:4.054518;stroke-linecap:butt;stroke-linejoin:round;stroke:rgb(0%,0%,0%);stroke-opacity:1;stroke-miterlimit:1;" d="M 45.15625 47.21875 L 45.15625 200.234375 "/>
<path style="fill:none;stroke-width:4.054518;stroke-linecap:butt;stroke-linejoin:round;stroke:rgb(0%,0%,0%);stroke-opacity:1;stroke-miterlimit:1;" d="M 679.324219 47.21875 L 679.324219 200.234375 "/>
<path style="fill:none;stroke-width:4.054518;stroke-linecap:butt;stroke-linejoin:round;stroke:rgb(0%,0%,0%);stroke-opacity:1;stroke-miterlimit:1;" d="M 45.15625 200.234375 L 45.15625 353.25 "/>
<path style="fill:none;stroke-width:4.054518;stroke-linecap:butt;stroke-linejoin:round;stroke:rgb(0%,0%,0%);stroke-opacity:1;stroke-miterlimit:1;" d="M 115.621094 200.234375 L 115.621094 353.25 "/>
<path style="fill:none;stroke-width:4.054518;stroke-linecap:butt;stroke-linejoin:round;stroke:rgb(0%,0%,0%);stroke-opacity:1;stroke-miterlimit:1;" d="M 115.621094 200.234375 L 117.042969 203.328125 L 117.757812 204.871094 L 119.179688 207.964844 L 119.890625 209.507812 L 120.601562 211.054688 L 121.316406 212.601562 L 122.027344 214.144531 L 123.449219 217.238281 L 124.160156 218.78125 L 124.875 220.328125 L 125.585938 221.875 L 126.296875 223.417969 L 127.71875 226.511719 L 128.433594 228.054688 L 129.855469 231.148438 L 130.566406 232.691406 L 131.28125 234.238281 L 132.703125 237.332031 L 133.414062 238.875 L 134.125 240.421875 L 134.839844 241.96875 L 135.550781 243.511719 L 136.972656 246.605469 L 137.683594 248.148438 L 138.398438 249.695312 L 139.109375 251.242188 L 139.820312 252.785156 L 141.242188 255.878906 L 141.957031 257.421875 L 143.378906 260.515625 L 144.089844 262.058594 L 144.800781 263.605469 L 145.515625 265.152344 L 146.226562 266.695312 L 147.648438 269.789062 L 148.363281 271.332031 L 149.785156 274.425781 L 150.496094 275.96875 L 151.207031 277.515625 L 151.921875 279.0625 L 152.632812 280.605469 L 154.054688 283.699219 L 154.765625 285.242188 L 155.480469 286.789062 L 156.191406 288.335938 L 156.902344 289.878906 L 158.324219 292.972656 L 159.039062 294.519531 L 159.75 296.0625 L 161.171875 299.15625 L 161.882812 300.699219 L 162.597656 302.246094 L 163.308594 303.792969 L 164.019531 305.335938 L 165.441406 308.429688 L 166.15625 309.972656 L 167.578125 313.066406 L 168.289062 314.609375 L 169.003906 316.15625 L 169.714844 317.703125 L 170.425781 319.246094 L 171.847656 322.339844 L 172.5625 323.882812 L 173.984375 326.976562 L 174.695312 328.519531 L 175.40625 330.066406 L 176.121094 331.613281 L 176.832031 333.15625 L 178.253906 336.25 L 178.964844 337.792969 L 179.679688 339.339844 L 180.390625 340.886719 L 181.101562 342.429688 L 182.523438 345.523438 L 183.238281 347.066406 L 185.371094 351.707031 L 186.085938 353.25 "/>
<path style="fill:none;stroke-width:4.054518;stroke-linecap:butt;stroke-linejoin:round;stroke:rgb(0%,0%,0%);stroke-opacity:1;stroke-miterlimit:1;" d="M 256.546875 200.234375 L 256.546875 353.25 "/>
<path style="fill:none;stroke-width:4.054518;stroke-linecap:butt;stroke-linejoin:round;stroke:rgb(0%,0%,0%);stroke-opacity:1;stroke-miterlimit:1;" d="M 256.546875 200.234375 L 257.96875 203.328125 L 258.683594 204.871094 L 260.105469 207.964844 L 260.816406 209.507812 L 261.527344 211.054688 L 262.242188 212.601562 L 262.953125 214.144531 L 264.375 217.238281 L 265.089844 218.78125 L 266.511719 221.875 L 267.222656 223.417969 L 267.933594 224.964844 L 268.648438 226.511719 L 269.359375 228.054688 L 270.78125 231.148438 L 271.492188 232.691406 L 272.207031 234.238281 L 273.628906 237.332031 L 274.339844 238.875 L 275.050781 240.421875 L 275.765625 241.96875 L 276.476562 243.511719 L 277.898438 246.605469 L 278.609375 248.148438 L 279.324219 249.695312 L 280.035156 251.242188 L 280.746094 252.785156 L 281.457031 254.332031 L 282.171875 255.878906 L 282.882812 257.421875 L 284.304688 260.515625 L 285.015625 262.058594 L 285.730469 263.605469 L 286.441406 265.152344 L 287.152344 266.695312 L 288.574219 269.789062 L 289.289062 271.332031 L 290.710938 274.425781 L 291.421875 275.96875 L 292.132812 277.515625 L 292.847656 279.0625 L 293.558594 280.605469 L 294.980469 283.699219 L 295.691406 285.242188 L 296.40625 286.789062 L 297.117188 288.335938 L 297.828125 289.878906 L 299.25 292.972656 L 299.964844 294.519531 L 300.675781 296.0625 L 302.097656 299.15625 L 302.8125 300.699219 L 304.234375 303.792969 L 304.945312 305.335938 L 305.65625 306.882812 L 306.371094 308.429688 L 307.082031 309.972656 L 308.503906 313.066406 L 309.214844 314.609375 L 309.929688 316.15625 L 310.640625 317.703125 L 311.351562 319.246094 L 312.773438 322.339844 L 313.488281 323.882812 L 314.910156 326.976562 L 315.621094 328.519531 L 316.332031 330.066406 L 317.046875 331.613281 L 317.757812 333.15625 L 319.179688 336.25 L 319.894531 337.792969 L 321.316406 340.886719 L 322.027344 342.429688 L 322.738281 343.976562 L 323.453125 345.523438 L 324.164062 347.066406 L 326.296875 351.707031 L 327.011719 353.25 "/>
<path style="fill:none;stroke-width:4.054518;stroke-linecap:butt;stroke-linejoin:round;stroke:rgb(0%,0%,0%);stroke-opacity:1;stroke-miterlimit:1;" d="M 327.011719 200.234375 L 328.433594 203.328125 L 329.144531 204.871094 L 329.855469 206.417969 L 330.570312 207.964844 L 331.28125 209.507812 L 332.703125 212.601562 L 333.414062 214.144531 L 334.128906 215.691406 L 334.839844 217.238281 L 335.550781 218.78125 L 336.972656 221.875 L 337.6875 223.417969 L 339.109375 226.511719 L 339.820312 228.054688 L 340.535156 229.601562 L 341.246094 231.148438 L 341.957031 232.691406 L 343.378906 235.785156 L 344.09375 237.332031 L 344.804688 238.875 L 346.226562 241.96875 L 346.9375 243.511719 L 347.652344 245.058594 L 348.363281 246.605469 L 349.074219 248.148438 L 350.496094 251.242188 L 351.210938 252.785156 L 352.632812 255.878906 L 353.34375 257.421875 L 354.054688 258.96875 L 354.769531 260.515625 L 355.480469 262.058594 L 356.902344 265.152344 L 357.613281 266.695312 L 358.328125 268.242188 L 359.039062 269.789062 L 359.75 271.332031 L 360.460938 272.878906 L 361.175781 274.425781 L 361.886719 275.96875 L 363.308594 279.0625 L 364.019531 280.605469 L 364.734375 282.152344 L 365.445312 283.699219 L 366.15625 285.242188 L 367.578125 288.335938 L 368.292969 289.878906 L 370.425781 294.519531 L 371.136719 296.0625 L 371.851562 297.609375 L 372.5625 299.15625 L 373.273438 300.699219 L 374.695312 303.792969 L 375.410156 305.335938 L 376.832031 308.429688 L 377.542969 309.972656 L 378.257812 311.519531 L 378.96875 313.066406 L 379.679688 314.609375 L 381.101562 317.703125 L 381.816406 319.246094 L 383.238281 322.339844 L 383.949219 323.882812 L 384.660156 325.429688 L 385.375 326.976562 L 386.085938 328.519531 L 387.507812 331.613281 L 388.21875 333.15625 L 388.933594 334.703125 L 389.644531 336.25 L 390.355469 337.792969 L 391.777344 340.886719 L 392.492188 342.429688 L 393.914062 345.523438 L 394.625 347.066406 L 395.335938 348.613281 L 396.050781 350.160156 L 396.761719 351.707031 L 397.472656 353.25 "/>
<path style="fill:none;stroke-width:4.054518;stroke-linecap:butt;stroke-linejoin:round;stroke:rgb(0%,0%,0%);stroke-opacity:1;stroke-miterlimit:1;" d="M 397.472656 200.234375 L 398.183594 201.78125 L 398.898438 203.328125 L 399.609375 204.871094 L 401.03125 207.964844 L 401.742188 209.507812 L 402.457031 211.054688 L 403.167969 212.601562 L 403.878906 214.144531 L 405.300781 217.238281 L 406.015625 218.78125 L 407.4375 221.875 L 408.148438 223.417969 L 408.859375 224.964844 L 409.574219 226.511719 L 410.285156 228.054688 L 411.707031 231.148438 L 412.417969 232.691406 L 413.132812 234.238281 L 414.554688 237.332031 L 415.265625 238.875 L 415.980469 240.421875 L 416.691406 241.96875 L 417.402344 243.511719 L 418.824219 246.605469 L 419.539062 248.148438 L 420.960938 251.242188 L 421.671875 252.785156 L 422.382812 254.332031 L 423.097656 255.878906 L 423.808594 257.421875 L 425.230469 260.515625 L 425.941406 262.058594 L 426.65625 263.605469 L 427.367188 265.152344 L 428.078125 266.695312 L 429.5 269.789062 L 430.214844 271.332031 L 431.636719 274.425781 L 432.347656 275.96875 L 433.058594 277.515625 L 433.773438 279.0625 L 434.484375 280.605469 L 435.90625 283.699219 L 436.621094 285.242188 L 438.042969 288.335938 L 438.753906 289.878906 L 439.464844 291.425781 L 440.179688 292.972656 L 440.890625 294.519531 L 441.601562 296.0625 L 443.023438 299.15625 L 443.738281 300.699219 L 445.160156 303.792969 L 445.871094 305.335938 L 446.582031 306.882812 L 447.296875 308.429688 L 448.007812 309.972656 L 449.429688 313.066406 L 450.140625 314.609375 L 450.855469 316.15625 L 451.566406 317.703125 L 452.277344 319.246094 L 452.988281 320.792969 L 453.703125 322.339844 L 454.414062 323.882812 L 455.835938 326.976562 L 456.546875 328.519531 L 457.261719 330.066406 L 457.972656 331.613281 L 458.683594 333.15625 L 460.105469 336.25 L 460.820312 337.792969 L 462.242188 340.886719 L 462.953125 342.429688 L 463.664062 343.976562 L 464.378906 345.523438 L 465.089844 347.066406 L 467.222656 351.707031 L 467.9375 353.25 "/>
<path style="fill:none;stroke-width:4.054518;stroke-linecap:butt;stroke-linejoin:round;stroke:rgb(0%,0%,0%);stroke-opacity:1;stroke-miterlimit:1;" d="M 467.9375 200.234375 L 469.359375 203.328125 L 470.070312 204.871094 L 470.78125 206.417969 L 471.496094 207.964844 L 472.207031 209.507812 L 473.628906 212.601562 L 474.34375 214.144531 L 475.765625 217.238281 L 476.476562 218.78125 L 477.1875 220.328125 L 477.902344 221.875 L 478.613281 223.417969 L 480.035156 226.511719 L 480.746094 228.054688 L 481.460938 229.601562 L 482.171875 231.148438 L 482.882812 232.691406 L 484.304688 235.785156 L 485.019531 237.332031 L 485.730469 238.875 L 487.152344 241.96875 L 487.863281 243.511719 L 488.578125 245.058594 L 489.289062 246.605469 L 490 248.148438 L 491.421875 251.242188 L 492.136719 252.785156 L 493.558594 255.878906 L 494.269531 257.421875 L 494.984375 258.96875 L 495.695312 260.515625 L 496.40625 262.058594 L 497.828125 265.152344 L 498.542969 266.695312 L 499.964844 269.789062 L 500.675781 271.332031 L 501.386719 272.878906 L 502.101562 274.425781 L 502.8125 275.96875 L 504.234375 279.0625 L 504.945312 280.605469 L 505.660156 282.152344 L 506.371094 283.699219 L 507.082031 285.242188 L 508.503906 288.335938 L 509.21875 289.878906 L 511.351562 294.519531 L 512.066406 296.0625 L 513.488281 299.15625 L 514.199219 300.699219 L 514.910156 302.246094 L 515.625 303.792969 L 516.335938 305.335938 L 517.757812 308.429688 L 518.46875 309.972656 L 519.183594 311.519531 L 519.894531 313.066406 L 520.605469 314.609375 L 522.027344 317.703125 L 522.742188 319.246094 L 524.164062 322.339844 L 524.875 323.882812 L 525.585938 325.429688 L 526.300781 326.976562 L 527.011719 328.519531 L 528.433594 331.613281 L 529.144531 333.15625 L 529.859375 334.703125 L 530.570312 336.25 L 531.28125 337.792969 L 531.992188 339.339844 L 532.707031 340.886719 L 533.417969 342.429688 L 534.839844 345.523438 L 535.550781 347.066406 L 536.265625 348.613281 L 537.6875 351.707031 L 538.398438 353.25 "/>
<path style="fill:none;stroke-width:4.054518;stroke-linecap:butt;stroke-linejoin:round;stroke:rgb(0%,0%,0%);stroke-opacity:1;stroke-miterlimit:1;" d="M 538.398438 200.234375 L 539.109375 201.78125 L 539.824219 203.328125 L 540.535156 204.871094 L 541.957031 207.964844 L 542.667969 209.507812 L 543.382812 211.054688 L 544.09375 212.601562 L 544.804688 214.144531 L 546.226562 217.238281 L 546.941406 218.78125 L 548.363281 221.875 L 549.074219 223.417969 L 549.789062 224.964844 L 550.5 226.511719 L 551.210938 228.054688 L 552.632812 231.148438 L 553.347656 232.691406 L 555.480469 237.332031 L 556.191406 238.875 L 556.90625 240.421875 L 557.617188 241.96875 L 558.328125 243.511719 L 559.75 246.605469 L 560.464844 248.148438 L 561.886719 251.242188 L 562.597656 252.785156 L 563.308594 254.332031 L 564.023438 255.878906 L 564.734375 257.421875 L 566.15625 260.515625 L 566.867188 262.058594 L 567.582031 263.605469 L 568.292969 265.152344 L 569.003906 266.695312 L 569.714844 268.242188 L 570.429688 269.789062 L 571.140625 271.332031 L 572.5625 274.425781 L 573.273438 275.96875 L 573.988281 277.515625 L 574.699219 279.0625 L 575.410156 280.605469 L 576.832031 283.699219 L 577.546875 285.242188 L 578.96875 288.335938 L 579.679688 289.878906 L 580.390625 291.425781 L 581.105469 292.972656 L 581.816406 294.519531 L 582.527344 296.0625 L 583.949219 299.15625 L 584.664062 300.699219 L 586.085938 303.792969 L 586.796875 305.335938 L 587.511719 306.882812 L 588.222656 308.429688 L 588.933594 309.972656 L 590.355469 313.066406 L 591.070312 314.609375 L 592.492188 317.703125 L 593.203125 319.246094 L 593.914062 320.792969 L 594.628906 322.339844 L 595.339844 323.882812 L 596.761719 326.976562 L 597.472656 328.519531 L 598.1875 330.066406 L 598.898438 331.613281 L 599.609375 333.15625 L 601.03125 336.25 L 601.746094 337.792969 L 603.167969 340.886719 L 603.878906 342.429688 L 604.589844 343.976562 L 605.304688 345.523438 L 606.015625 347.066406 L 607.4375 350.160156 L 608.152344 351.707031 L 608.863281 353.25 "/>
<path style="fill:none;stroke-width:4.054518;stroke-linecap:butt;stroke-linejoin:round;stroke:rgb(0%,0%,0%);stroke-opacity:1;stroke-miterlimit:1;" d="M 115.621094 47.21875 L 115.621094 200.234375 "/>
<path style="fill:none;stroke-width:4.054518;stroke-linecap:butt;stroke-linejoin:round;stroke:rgb(0%,0%,0%);stroke-opacity:1;stroke-miterlimit:1;" d="M 608.863281 200.234375 L 610.285156 203.328125 L 610.996094 204.871094 L 611.710938 206.417969 L 612.421875 207.964844 L 613.132812 209.507812 L 614.554688 212.601562 L 615.269531 214.144531 L 616.691406 217.238281 L 617.402344 218.78125 L 618.113281 220.328125 L 618.828125 221.875 L 619.539062 223.417969 L 620.960938 226.511719 L 621.671875 228.054688 L 622.386719 229.601562 L 623.097656 231.148438 L 623.808594 232.691406 L 625.230469 235.785156 L 625.945312 237.332031 L 626.65625 238.875 L 628.078125 241.96875 L 628.792969 243.511719 L 630.214844 246.605469 L 630.925781 248.148438 L 631.636719 249.695312 L 632.351562 251.242188 L 633.0625 252.785156 L 634.484375 255.878906 L 635.195312 257.421875 L 635.910156 258.96875 L 636.621094 260.515625 L 637.332031 262.058594 L 638.753906 265.152344 L 639.46875 266.695312 L 640.890625 269.789062 L 641.601562 271.332031 L 642.3125 272.878906 L 643.027344 274.425781 L 643.738281 275.96875 L 645.160156 279.0625 L 645.875 280.605469 L 647.296875 283.699219 L 648.007812 285.242188 L 648.71875 286.789062 L 649.433594 288.335938 L 650.144531 289.878906 L 652.277344 294.519531 L 652.992188 296.0625 L 654.414062 299.15625 L 655.125 300.699219 L 655.835938 302.246094 L 656.550781 303.792969 L 657.261719 305.335938 L 658.683594 308.429688 L 659.394531 309.972656 L 660.109375 311.519531 L 660.820312 313.066406 L 661.53125 314.609375 L 662.953125 317.703125 L 663.667969 319.246094 L 665.089844 322.339844 L 665.800781 323.882812 L 666.515625 325.429688 L 667.226562 326.976562 L 667.9375 328.519531 L 669.359375 331.613281 L 670.074219 333.15625 L 671.496094 336.25 L 672.207031 337.792969 L 672.917969 339.339844 L 673.632812 340.886719 L 674.34375 342.429688 L 675.765625 345.523438 L 676.476562 347.066406 L 677.191406 348.613281 L 678.613281 351.707031 L 679.324219 353.25 "/>
<path style="fill:none;stroke-width:4.054518;stroke-linecap:butt;stroke-linejoin:round;stroke:rgb(0%,0%,0%);stroke-opacity:1;stroke-miterlimit:1;" d="M 115.621094 353.25 L 114.199219 356.34375 L 113.484375 357.886719 L 112.0625 360.980469 L 111.351562 362.523438 L 110.640625 364.070312 L 109.925781 365.617188 L 109.214844 367.160156 L 107.792969 370.253906 L 107.078125 371.796875 L 105.65625 374.890625 L 104.945312 376.433594 L 104.234375 377.980469 L 103.519531 379.527344 L 102.808594 381.070312 L 101.386719 384.164062 L 100.675781 385.707031 L 99.960938 387.253906 L 99.25 388.800781 L 98.539062 390.34375 L 97.117188 393.4375 L 96.402344 394.980469 L 94.980469 398.074219 L 94.269531 399.617188 L 93.558594 401.164062 L 92.84375 402.710938 L 92.132812 404.253906 L 90.710938 407.347656 L 89.996094 408.894531 L 89.285156 410.4375 L 87.863281 413.53125 L 87.152344 415.074219 L 86.4375 416.621094 L 85.726562 418.167969 L 85.015625 419.710938 L 83.59375 422.804688 L 82.878906 424.347656 L 81.457031 427.441406 L 80.746094 428.984375 L 80.035156 430.53125 L 79.320312 432.078125 L 78.609375 433.621094 L 77.1875 436.714844 L 76.476562 438.257812 L 75.761719 439.804688 L 75.050781 441.351562 L 74.339844 442.894531 L 72.917969 445.988281 L 72.203125 447.53125 L 70.78125 450.625 L 70.070312 452.167969 L 69.355469 453.714844 L 68.644531 455.261719 L 67.933594 456.804688 L 66.511719 459.898438 L 65.796875 461.445312 L 65.085938 462.988281 L 63.664062 466.082031 L 62.953125 467.625 L 62.238281 469.171875 L 61.527344 470.71875 L 60.816406 472.261719 L 59.394531 475.355469 L 58.679688 476.898438 L 57.257812 479.992188 L 56.546875 481.535156 L 55.835938 483.082031 L 55.121094 484.628906 L 54.410156 486.171875 L 52.988281 489.265625 L 52.277344 490.808594 L 51.5625 492.355469 L 50.851562 493.902344 L 50.140625 495.445312 L 49.429688 496.992188 L 48.714844 498.539062 L 48.003906 500.082031 L 46.582031 503.175781 L 45.871094 504.71875 L 45.15625 506.265625 "/>
<path style="fill:none;stroke-width:4.054518;stroke-linecap:butt;stroke-linejoin:round;stroke:rgb(0%,0%,0%);stroke-opacity:1;stroke-miterlimit:1;" d="M 256.546875 353.25 L 255.125 354.796875 L 253.699219 356.34375 L 252.277344 357.886719 L 250.851562 359.433594 L 249.429688 360.980469 L 248.007812 362.523438 L 246.582031 364.070312 L 245.160156 365.617188 L 243.734375 367.160156 L 242.3125 368.707031 L 240.886719 370.253906 L 239.464844 371.796875 L 238.042969 373.34375 L 236.617188 374.890625 L 235.195312 376.433594 L 233.769531 377.980469 L 232.347656 379.527344 L 230.925781 381.070312 L 229.5 382.617188 L 228.078125 384.164062 L 226.652344 385.707031 L 225.230469 387.253906 L 223.804688 388.800781 L 222.382812 390.34375 L 220.960938 391.890625 L 219.535156 393.4375 L 218.113281 394.980469 L 216.6875 396.527344 L 215.265625 398.074219 L 213.84375 399.617188 L 212.417969 401.164062 L 210.996094 402.710938 L 209.570312 404.253906 L 206.726562 407.347656 L 205.300781 408.894531 L 203.878906 410.4375 L 202.453125 411.984375 L 201.03125 413.53125 L 199.605469 415.074219 L 196.761719 418.167969 L 195.335938 419.710938 L 193.914062 421.257812 L 192.488281 422.804688 L 191.066406 424.347656 L 189.644531 425.894531 L 188.21875 427.441406 L 186.796875 428.984375 L 185.371094 430.53125 L 183.949219 432.078125 L 182.523438 433.621094 L 179.679688 436.714844 L 178.253906 438.257812 L 176.832031 439.804688 L 175.40625 441.351562 L 173.984375 442.894531 L 172.5625 444.441406 L 171.136719 445.988281 L 169.714844 447.53125 L 168.289062 449.078125 L 166.867188 450.625 L 165.441406 452.167969 L 162.597656 455.261719 L 161.171875 456.804688 L 159.75 458.351562 L 158.324219 459.898438 L 156.902344 461.445312 L 155.480469 462.988281 L 154.054688 464.535156 L 152.632812 466.082031 L 151.207031 467.625 L 148.363281 470.71875 L 146.9375 472.261719 L 145.515625 473.808594 L 144.089844 475.355469 L 142.667969 476.898438 L 141.242188 478.445312 L 139.820312 479.992188 L 138.398438 481.535156 L 136.972656 483.082031 L 135.550781 484.628906 L 134.125 486.171875 L 131.28125 489.265625 L 129.855469 490.808594 L 128.433594 492.355469 L 127.007812 493.902344 L 125.585938 495.445312 L 124.160156 496.992188 L 122.738281 498.539062 L 121.316406 500.082031 L 119.890625 501.628906 L 118.46875 503.175781 L 117.042969 504.71875 L 115.621094 506.265625 "/>
<path style="fill:none;stroke-width:4.054518;stroke-linecap:butt;stroke-linejoin:round;stroke:rgb(0%,0%,0%);stroke-opacity:1;stroke-miterlimit:1;" d="M 256.546875 353.25 L 255.125 356.34375 L 254.410156 357.886719 L 252.988281 360.980469 L 252.277344 362.523438 L 251.566406 364.070312 L 250.851562 365.617188 L 250.140625 367.160156 L 248.71875 370.253906 L 248.007812 371.796875 L 247.292969 373.34375 L 246.582031 374.890625 L 245.871094 376.433594 L 244.449219 379.527344 L 243.734375 381.070312 L 242.3125 384.164062 L 241.601562 385.707031 L 240.886719 387.253906 L 240.175781 388.800781 L 239.464844 390.34375 L 238.042969 393.4375 L 237.328125 394.980469 L 235.90625 398.074219 L 235.195312 399.617188 L 234.484375 401.164062 L 233.769531 402.710938 L 233.058594 404.253906 L 230.925781 408.894531 L 230.210938 410.4375 L 228.789062 413.53125 L 228.078125 415.074219 L 227.367188 416.621094 L 226.652344 418.167969 L 225.941406 419.710938 L 224.519531 422.804688 L 223.804688 424.347656 L 222.382812 427.441406 L 221.671875 428.984375 L 220.960938 430.53125 L 220.246094 432.078125 L 219.535156 433.621094 L 218.113281 436.714844 L 217.402344 438.257812 L 216.6875 439.804688 L 215.976562 441.351562 L 215.265625 442.894531 L 213.84375 445.988281 L 213.128906 447.53125 L 211.707031 450.625 L 210.996094 452.167969 L 210.285156 453.714844 L 209.570312 455.261719 L 208.859375 456.804688 L 206.726562 461.445312 L 206.011719 462.988281 L 204.589844 466.082031 L 203.878906 467.625 L 203.164062 469.171875 L 202.453125 470.71875 L 201.742188 472.261719 L 200.320312 475.355469 L 199.605469 476.898438 L 198.183594 479.992188 L 197.472656 481.535156 L 196.761719 483.082031 L 196.046875 484.628906 L 195.335938 486.171875 L 193.914062 489.265625 L 193.203125 490.808594 L 192.488281 492.355469 L 191.777344 493.902344 L 191.066406 495.445312 L 189.644531 498.539062 L 188.929688 500.082031 L 187.507812 503.175781 L 186.796875 504.71875 L 186.085938 506.265625 "/>
<path style="fill:none;stroke-width:4.054518;stroke-linecap:butt;stroke-linejoin:round;stroke:rgb(0%,0%,0%);stroke-opacity:1;stroke-miterlimit:1;" d="M 327.011719 353.25 L 326.296875 354.796875 L 325.585938 356.34375 L 324.875 357.886719 L 323.453125 360.980469 L 322.738281 362.523438 L 321.316406 365.617188 L 320.605469 367.160156 L 319.894531 368.707031 L 319.179688 370.253906 L 318.46875 371.796875 L 317.046875 374.890625 L 316.332031 376.433594 L 314.910156 379.527344 L 314.199219 381.070312 L 313.488281 382.617188 L 312.773438 384.164062 L 312.0625 385.707031 L 310.640625 388.800781 L 309.929688 390.34375 L 309.214844 391.890625 L 308.503906 393.4375 L 307.792969 394.980469 L 306.371094 398.074219 L 305.65625 399.617188 L 304.234375 402.710938 L 303.523438 404.253906 L 302.8125 405.800781 L 302.097656 407.347656 L 301.386719 408.894531 L 300.675781 410.4375 L 299.964844 411.984375 L 299.25 413.53125 L 298.539062 415.074219 L 297.117188 418.167969 L 296.40625 419.710938 L 295.691406 421.257812 L 294.980469 422.804688 L 294.269531 424.347656 L 292.847656 427.441406 L 292.132812 428.984375 L 290.710938 432.078125 L 290 433.621094 L 289.289062 435.167969 L 288.574219 436.714844 L 287.863281 438.257812 L 286.441406 441.351562 L 285.730469 442.894531 L 285.015625 444.441406 L 284.304688 445.988281 L 283.59375 447.53125 L 282.171875 450.625 L 281.457031 452.167969 L 280.035156 455.261719 L 279.324219 456.804688 L 278.609375 458.351562 L 277.1875 461.445312 L 276.476562 462.988281 L 275.765625 464.535156 L 275.050781 466.082031 L 274.339844 467.625 L 272.917969 470.71875 L 272.207031 472.261719 L 271.492188 473.808594 L 270.78125 475.355469 L 270.070312 476.898438 L 268.648438 479.992188 L 267.933594 481.535156 L 266.511719 484.628906 L 265.800781 486.171875 L 265.089844 487.71875 L 264.375 489.265625 L 263.664062 490.808594 L 262.242188 493.902344 L 261.527344 495.445312 L 260.105469 498.539062 L 259.394531 500.082031 L 258.683594 501.628906 L 257.96875 503.175781 L 257.257812 504.71875 L 256.546875 506.265625 "/>
<path style="fill:none;stroke-width:4.054518;stroke-linecap:butt;stroke-linejoin:round;stroke:rgb(0%,0%,0%);stroke-opacity:1;stroke-miterlimit:1;" d="M 467.9375 353.25 L 466.511719 354.796875 L 465.089844 356.34375 L 463.664062 357.886719 L 460.820312 360.980469 L 459.394531 362.523438 L 457.972656 364.070312 L 456.546875 365.617188 L 455.125 367.160156 L 453.703125 368.707031 L 452.277344 370.253906 L 450.855469 371.796875 L 449.429688 373.34375 L 448.007812 374.890625 L 446.582031 376.433594 L 443.738281 379.527344 L 442.3125 381.070312 L 440.890625 382.617188 L 439.464844 384.164062 L 438.042969 385.707031 L 436.621094 387.253906 L 435.195312 388.800781 L 433.773438 390.34375 L 432.347656 391.890625 L 430.925781 393.4375 L 429.5 394.980469 L 426.65625 398.074219 L 425.230469 399.617188 L 423.808594 401.164062 L 422.382812 402.710938 L 420.960938 404.253906 L 419.539062 405.800781 L 418.113281 407.347656 L 416.691406 408.894531 L 415.265625 410.4375 L 413.84375 411.984375 L 412.417969 413.53125 L 410.996094 415.074219 L 409.574219 416.621094 L 408.148438 418.167969 L 406.726562 419.710938 L 405.300781 421.257812 L 403.878906 422.804688 L 402.457031 424.347656 L 401.03125 425.894531 L 399.609375 427.441406 L 398.183594 428.984375 L 396.761719 430.53125 L 395.335938 432.078125 L 393.914062 433.621094 L 392.492188 435.167969 L 391.066406 436.714844 L 389.644531 438.257812 L 388.21875 439.804688 L 386.796875 441.351562 L 385.375 442.894531 L 383.949219 444.441406 L 382.527344 445.988281 L 381.101562 447.53125 L 378.257812 450.625 L 376.832031 452.167969 L 375.410156 453.714844 L 373.984375 455.261719 L 372.5625 456.804688 L 371.136719 458.351562 L 368.292969 461.445312 L 366.867188 462.988281 L 365.445312 464.535156 L 364.019531 466.082031 L 362.597656 467.625 L 361.175781 469.171875 L 359.75 470.71875 L 358.328125 472.261719 L 356.902344 473.808594 L 355.480469 475.355469 L 354.054688 476.898438 L 351.210938 479.992188 L 349.785156 481.535156 L 348.363281 483.082031 L 346.9375 484.628906 L 345.515625 486.171875 L 344.09375 487.71875 L 342.667969 489.265625 L 341.246094 490.808594 L 339.820312 492.355469 L 338.398438 493.902344 L 336.972656 495.445312 L 334.128906 498.539062 L 332.703125 500.082031 L 331.28125 501.628906 L 329.855469 503.175781 L 328.433594 504.71875 L 327.011719 506.265625 "/>
<path style="fill:none;stroke-width:4.054518;stroke-linecap:butt;stroke-linejoin:round;stroke:rgb(0%,0%,0%);stroke-opacity:1;stroke-miterlimit:1;" d="M 467.9375 353.25 L 467.222656 354.796875 L 466.511719 356.34375 L 465.800781 357.886719 L 464.378906 360.980469 L 463.664062 362.523438 L 462.242188 365.617188 L 461.53125 367.160156 L 460.820312 368.707031 L 460.105469 370.253906 L 459.394531 371.796875 L 457.972656 374.890625 L 457.261719 376.433594 L 456.546875 377.980469 L 455.835938 379.527344 L 455.125 381.070312 L 453.703125 384.164062 L 452.988281 385.707031 L 451.566406 388.800781 L 450.855469 390.34375 L 450.140625 391.890625 L 449.429688 393.4375 L 448.71875 394.980469 L 447.296875 398.074219 L 446.582031 399.617188 L 445.160156 402.710938 L 444.449219 404.253906 L 443.738281 405.800781 L 443.023438 407.347656 L 442.3125 408.894531 L 441.601562 410.4375 L 440.179688 413.53125 L 439.464844 415.074219 L 438.042969 418.167969 L 437.332031 419.710938 L 436.621094 421.257812 L 435.90625 422.804688 L 435.195312 424.347656 L 433.773438 427.441406 L 433.058594 428.984375 L 431.636719 432.078125 L 430.925781 433.621094 L 430.214844 435.167969 L 429.5 436.714844 L 428.789062 438.257812 L 427.367188 441.351562 L 426.65625 442.894531 L 425.941406 444.441406 L 425.230469 445.988281 L 424.519531 447.53125 L 423.097656 450.625 L 422.382812 452.167969 L 420.960938 455.261719 L 420.25 456.804688 L 419.539062 458.351562 L 418.824219 459.898438 L 418.113281 461.445312 L 417.402344 462.988281 L 415.980469 466.082031 L 415.265625 467.625 L 413.84375 470.71875 L 413.132812 472.261719 L 412.417969 473.808594 L 411.707031 475.355469 L 410.996094 476.898438 L 409.574219 479.992188 L 408.859375 481.535156 L 407.4375 484.628906 L 406.726562 486.171875 L 406.015625 487.71875 L 405.300781 489.265625 L 404.589844 490.808594 L 403.167969 493.902344 L 402.457031 495.445312 L 401.742188 496.992188 L 401.03125 498.539062 L 400.320312 500.082031 L 398.898438 503.175781 L 398.183594 504.71875 L 397.472656 506.265625 "/>
<path style="fill:none;stroke-width:4.054518;stroke-linecap:butt;stroke-linejoin:round;stroke:rgb(0%,0%,0%);stroke-opacity:1;stroke-miterlimit:1;" d="M 608.863281 353.25 L 607.4375 354.796875 L 606.015625 356.34375 L 604.589844 357.886719 L 601.746094 360.980469 L 600.320312 362.523438 L 598.898438 364.070312 L 597.472656 365.617188 L 596.050781 367.160156 L 594.628906 368.707031 L 593.203125 370.253906 L 591.78125 371.796875 L 590.355469 373.34375 L 588.933594 374.890625 L 587.511719 376.433594 L 586.085938 377.980469 L 584.664062 379.527344 L 583.238281 381.070312 L 581.816406 382.617188 L 580.390625 384.164062 L 578.96875 385.707031 L 577.546875 387.253906 L 576.121094 388.800781 L 574.699219 390.34375 L 573.273438 391.890625 L 571.851562 393.4375 L 570.429688 394.980469 L 569.003906 396.527344 L 567.582031 398.074219 L 566.15625 399.617188 L 564.734375 401.164062 L 563.308594 402.710938 L 561.886719 404.253906 L 560.464844 405.800781 L 559.039062 407.347656 L 557.617188 408.894531 L 556.191406 410.4375 L 553.347656 413.53125 L 551.921875 415.074219 L 550.5 416.621094 L 549.074219 418.167969 L 547.652344 419.710938 L 546.226562 421.257812 L 544.804688 422.804688 L 543.382812 424.347656 L 541.957031 425.894531 L 540.535156 427.441406 L 539.109375 428.984375 L 536.265625 432.078125 L 534.839844 433.621094 L 533.417969 435.167969 L 531.992188 436.714844 L 530.570312 438.257812 L 529.144531 439.804688 L 527.722656 441.351562 L 526.300781 442.894531 L 524.875 444.441406 L 523.453125 445.988281 L 522.027344 447.53125 L 519.183594 450.625 L 517.757812 452.167969 L 516.335938 453.714844 L 514.910156 455.261719 L 513.488281 456.804688 L 512.066406 458.351562 L 510.640625 459.898438 L 509.21875 461.445312 L 507.792969 462.988281 L 506.371094 464.535156 L 504.945312 466.082031 L 503.523438 467.625 L 502.101562 469.171875 L 500.675781 470.71875 L 499.253906 472.261719 L 497.828125 473.808594 L 496.40625 475.355469 L 494.984375 476.898438 L 493.558594 478.445312 L 492.136719 479.992188 L 490.710938 481.535156 L 489.289062 483.082031 L 487.863281 484.628906 L 486.441406 486.171875 L 485.019531 487.71875 L 483.59375 489.265625 L 482.171875 490.808594 L 480.746094 492.355469 L 479.324219 493.902344 L 477.902344 495.445312 L 476.476562 496.992188 L 475.054688 498.539062 L 473.628906 500.082031 L 472.207031 501.628906 L 470.78125 503.175781 L 469.359375 504.71875 L 467.9375 506.265625 "/>
<path style="fill:none;stroke-width:4.054518;stroke-linecap:butt;stroke-linejoin:round;stroke:rgb(0%,0%,0%);stroke-opacity:1;stroke-miterlimit:1;" d="M 608.863281 353.25 L 608.152344 354.796875 L 607.4375 356.34375 L 606.726562 357.886719 L 605.304688 360.980469 L 604.589844 362.523438 L 603.167969 365.617188 L 602.457031 367.160156 L 601.746094 368.707031 L 601.03125 370.253906 L 600.320312 371.796875 L 598.898438 374.890625 L 598.1875 376.433594 L 597.472656 377.980469 L 596.761719 379.527344 L 596.050781 381.070312 L 594.628906 384.164062 L 593.914062 385.707031 L 592.492188 388.800781 L 591.78125 390.34375 L 591.070312 391.890625 L 590.355469 393.4375 L 589.644531 394.980469 L 588.222656 398.074219 L 587.511719 399.617188 L 586.796875 401.164062 L 586.085938 402.710938 L 585.375 404.253906 L 584.664062 405.800781 L 583.949219 407.347656 L 583.238281 408.894531 L 582.527344 410.4375 L 581.105469 413.53125 L 580.390625 415.074219 L 578.96875 418.167969 L 578.257812 419.710938 L 577.546875 421.257812 L 576.832031 422.804688 L 576.121094 424.347656 L 574.699219 427.441406 L 573.988281 428.984375 L 573.273438 430.53125 L 572.5625 432.078125 L 571.851562 433.621094 L 570.429688 436.714844 L 569.714844 438.257812 L 568.292969 441.351562 L 567.582031 442.894531 L 566.867188 444.441406 L 566.15625 445.988281 L 565.445312 447.53125 L 564.023438 450.625 L 563.308594 452.167969 L 561.886719 455.261719 L 561.175781 456.804688 L 560.464844 458.351562 L 559.75 459.898438 L 559.039062 461.445312 L 558.328125 462.988281 L 556.90625 466.082031 L 556.191406 467.625 L 554.769531 470.71875 L 554.058594 472.261719 L 553.347656 473.808594 L 552.632812 475.355469 L 551.921875 476.898438 L 550.5 479.992188 L 549.789062 481.535156 L 549.074219 483.082031 L 548.363281 484.628906 L 547.652344 486.171875 L 546.941406 487.71875 L 546.226562 489.265625 L 545.515625 490.808594 L 544.09375 493.902344 L 543.382812 495.445312 L 542.667969 496.992188 L 541.957031 498.539062 L 541.246094 500.082031 L 539.824219 503.175781 L 539.109375 504.71875 L 538.398438 506.265625 "/>
<path style="fill:none;stroke-width:4.054518;stroke-linecap:butt;stroke-linejoin:round;stroke:rgb(0%,0%,0%);stroke-opacity:1;stroke-miterlimit:1;" d="M 679.324219 353.25 L 677.902344 356.34375 L 677.191406 357.886719 L 676.476562 359.433594 L 675.765625 360.980469 L 675.054688 362.523438 L 673.632812 365.617188 L 672.917969 367.160156 L 671.496094 370.253906 L 670.785156 371.796875 L 670.074219 373.34375 L 669.359375 374.890625 L 668.648438 376.433594 L 667.226562 379.527344 L 666.515625 381.070312 L 665.800781 382.617188 L 665.089844 384.164062 L 664.378906 385.707031 L 663.667969 387.253906 L 662.953125 388.800781 L 662.242188 390.34375 L 660.820312 393.4375 L 660.109375 394.980469 L 659.394531 396.527344 L 658.683594 398.074219 L 657.972656 399.617188 L 656.550781 402.710938 L 655.835938 404.253906 L 653.703125 408.894531 L 652.992188 410.4375 L 652.277344 411.984375 L 651.566406 413.53125 L 650.855469 415.074219 L 649.433594 418.167969 L 648.71875 419.710938 L 647.296875 422.804688 L 646.585938 424.347656 L 645.875 425.894531 L 645.160156 427.441406 L 644.449219 428.984375 L 643.027344 432.078125 L 642.3125 433.621094 L 640.890625 436.714844 L 640.179688 438.257812 L 639.46875 439.804688 L 638.753906 441.351562 L 638.042969 442.894531 L 636.621094 445.988281 L 635.910156 447.53125 L 635.195312 449.078125 L 634.484375 450.625 L 633.773438 452.167969 L 632.351562 455.261719 L 631.636719 456.804688 L 629.503906 461.445312 L 628.792969 462.988281 L 628.078125 464.535156 L 627.367188 466.082031 L 626.65625 467.625 L 625.945312 469.171875 L 625.230469 470.71875 L 624.519531 472.261719 L 623.097656 475.355469 L 622.386719 476.898438 L 621.671875 478.445312 L 620.960938 479.992188 L 620.25 481.535156 L 618.828125 484.628906 L 618.113281 486.171875 L 616.691406 489.265625 L 615.980469 490.808594 L 615.269531 492.355469 L 614.554688 493.902344 L 613.84375 495.445312 L 612.421875 498.539062 L 611.710938 500.082031 L 610.996094 501.628906 L 610.285156 503.175781 L 609.574219 504.71875 L 608.863281 506.265625 "/>
<path style="fill:none;stroke-width:4.054518;stroke-linecap:butt;stroke-linejoin:round;stroke:rgb(0%,0%,0%);stroke-opacity:1;stroke-miterlimit:1;" d="M 115.621094 47.21875 L 117.042969 50.3125 L 117.757812 51.855469 L 119.179688 54.949219 L 119.890625 56.492188 L 120.601562 58.039062 L 121.316406 59.585938 L 122.027344 61.128906 L 123.449219 64.222656 L 124.160156 65.765625 L 124.875 67.3125 L 126.296875 70.40625 L 127.007812 71.949219 L 127.71875 73.496094 L 128.433594 75.042969 L 129.144531 76.585938 L 130.566406 79.679688 L 131.28125 81.222656 L 132.703125 84.316406 L 133.414062 85.859375 L 134.125 87.40625 L 134.839844 88.953125 L 135.550781 90.496094 L 136.972656 93.589844 L 137.683594 95.132812 L 138.398438 96.679688 L 139.109375 98.226562 L 139.820312 99.769531 L 141.242188 102.863281 L 141.957031 104.40625 L 143.378906 107.5 L 144.089844 109.042969 L 144.800781 110.589844 L 145.515625 112.136719 L 146.226562 113.679688 L 147.648438 116.773438 L 148.363281 118.316406 L 149.785156 121.410156 L 150.496094 122.953125 L 151.207031 124.5 L 151.921875 126.046875 L 152.632812 127.59375 L 153.34375 129.136719 L 154.765625 132.230469 L 155.480469 133.773438 L 156.902344 136.867188 L 157.613281 138.410156 L 158.324219 139.957031 L 159.039062 141.503906 L 159.75 143.046875 L 161.171875 146.140625 L 161.882812 147.683594 L 162.597656 149.230469 L 163.308594 150.777344 L 164.019531 152.320312 L 165.441406 155.414062 L 166.15625 156.957031 L 167.578125 160.050781 L 168.289062 161.59375 L 169.003906 163.140625 L 169.714844 164.6875 L 170.425781 166.230469 L 171.847656 169.324219 L 172.5625 170.867188 L 173.984375 173.960938 L 174.695312 175.503906 L 175.40625 177.050781 L 176.121094 178.597656 L 176.832031 180.140625 L 178.964844 184.78125 L 179.679688 186.324219 L 181.101562 189.417969 L 181.8125 190.960938 L 182.523438 192.507812 L 183.238281 194.054688 L 183.949219 195.597656 L 185.371094 198.691406 L 186.085938 200.234375 "/>
<path style="fill:none;stroke-width:4.054518;stroke-linecap:butt;stroke-linejoin:round;stroke:rgb(0%,0%,0%);stroke-opacity:1;stroke-miterlimit:1;" d="M 679.324219 353.25 L 679.324219 506.265625 "/>
<path style="fill:none;stroke-width:4.054518;stroke-linecap:butt;stroke-linejoin:round;stroke:rgb(0%,0%,0%);stroke-opacity:1;stroke-miterlimit:1;" d="M 186.085938 506.265625 L 184.660156 507.8125 L 183.238281 509.355469 L 181.8125 510.902344 L 180.390625 512.449219 L 178.964844 513.992188 L 176.121094 517.085938 L 174.695312 518.632812 L 173.273438 520.175781 L 171.847656 521.722656 L 170.425781 523.269531 L 169.003906 524.8125 L 167.578125 526.359375 L 166.15625 527.90625 L 164.730469 529.449219 L 163.308594 530.996094 L 161.882812 532.542969 L 160.460938 534.085938 L 159.039062 535.632812 L 157.613281 537.179688 L 156.191406 538.722656 L 154.765625 540.269531 L 153.34375 541.816406 L 151.921875 543.359375 L 150.496094 544.90625 L 149.074219 546.453125 L 147.648438 547.996094 L 146.226562 549.542969 L 144.800781 551.089844 L 143.378906 552.632812 L 141.957031 554.179688 L 140.53125 555.726562 L 139.109375 557.269531 L 137.683594 558.816406 L 136.261719 560.363281 L 134.839844 561.90625 L 133.414062 563.453125 L 131.992188 565 L 130.566406 566.542969 L 129.144531 568.089844 L 127.71875 569.636719 L 126.296875 571.179688 L 124.875 572.726562 L 123.449219 574.273438 L 122.027344 575.820312 L 120.601562 577.363281 L 117.757812 580.457031 L 116.332031 582 L 114.910156 583.546875 L 113.484375 585.09375 L 112.0625 586.636719 L 110.640625 588.183594 L 109.214844 589.730469 L 107.792969 591.273438 L 106.367188 592.820312 L 104.945312 594.367188 L 103.519531 595.910156 L 100.675781 599.003906 L 99.25 600.546875 L 97.828125 602.09375 L 96.402344 603.640625 L 94.980469 605.183594 L 93.558594 606.730469 L 92.132812 608.277344 L 90.710938 609.820312 L 89.285156 611.367188 L 87.863281 612.914062 L 86.4375 614.457031 L 83.59375 617.550781 L 82.167969 619.09375 L 80.746094 620.640625 L 79.320312 622.1875 L 77.898438 623.730469 L 76.476562 625.277344 L 75.050781 626.824219 L 73.628906 628.371094 L 72.203125 629.914062 L 70.78125 631.460938 L 69.355469 633.007812 L 67.933594 634.550781 L 66.511719 636.097656 L 65.085938 637.644531 L 63.664062 639.1875 L 62.238281 640.734375 L 60.816406 642.28125 L 59.394531 643.824219 L 57.96875 645.371094 L 56.546875 646.917969 L 55.121094 648.460938 L 52.277344 651.554688 L 50.851562 653.097656 L 49.429688 654.644531 L 48.003906 656.191406 L 46.582031 657.734375 L 45.15625 659.28125 "/>
<path style="fill:none;stroke-width:4.054518;stroke-linecap:butt;stroke-linejoin:round;stroke:rgb(0%,0%,0%);stroke-opacity:1;stroke-miterlimit:1;" d="M 186.085938 506.265625 L 185.371094 507.8125 L 184.660156 509.355469 L 183.238281 512.449219 L 182.523438 513.992188 L 180.390625 518.632812 L 179.679688 520.175781 L 178.964844 521.722656 L 178.253906 523.269531 L 177.542969 524.8125 L 176.121094 527.90625 L 175.40625 529.449219 L 173.984375 532.542969 L 173.273438 534.085938 L 172.5625 535.632812 L 171.847656 537.179688 L 171.136719 538.722656 L 169.714844 541.816406 L 169.003906 543.359375 L 168.289062 544.90625 L 167.578125 546.453125 L 166.867188 547.996094 L 166.15625 549.542969 L 165.441406 551.089844 L 164.730469 552.632812 L 163.308594 555.726562 L 162.597656 557.269531 L 161.882812 558.816406 L 161.171875 560.363281 L 160.460938 561.90625 L 159.039062 565 L 158.324219 566.542969 L 156.902344 569.636719 L 156.191406 571.179688 L 155.480469 572.726562 L 154.765625 574.273438 L 154.054688 575.820312 L 153.34375 577.363281 L 151.921875 580.457031 L 151.207031 582 L 149.785156 585.09375 L 149.074219 586.636719 L 148.363281 588.183594 L 147.648438 589.730469 L 146.9375 591.273438 L 145.515625 594.367188 L 144.800781 595.910156 L 143.378906 599.003906 L 142.667969 600.546875 L 141.957031 602.09375 L 141.242188 603.640625 L 140.53125 605.183594 L 139.109375 608.277344 L 138.398438 609.820312 L 137.683594 611.367188 L 136.972656 612.914062 L 136.261719 614.457031 L 134.839844 617.550781 L 134.125 619.09375 L 132.703125 622.1875 L 131.992188 623.730469 L 131.28125 625.277344 L 130.566406 626.824219 L 129.855469 628.371094 L 129.144531 629.914062 L 128.433594 631.460938 L 127.71875 633.007812 L 127.007812 634.550781 L 125.585938 637.644531 L 124.875 639.1875 L 124.160156 640.734375 L 123.449219 642.28125 L 122.738281 643.824219 L 121.316406 646.917969 L 120.601562 648.460938 L 119.179688 651.554688 L 118.46875 653.097656 L 117.757812 654.644531 L 117.042969 656.191406 L 116.332031 657.734375 L 115.621094 659.28125 "/>
<path style="fill:none;stroke-width:4.054518;stroke-linecap:butt;stroke-linejoin:round;stroke:rgb(0%,0%,0%);stroke-opacity:1;stroke-miterlimit:1;" d="M 256.546875 506.265625 L 255.835938 507.8125 L 255.125 509.355469 L 254.410156 510.902344 L 253.699219 512.449219 L 252.988281 513.992188 L 251.566406 517.085938 L 250.851562 518.632812 L 250.140625 520.175781 L 248.71875 523.269531 L 248.007812 524.8125 L 247.292969 526.359375 L 246.582031 527.90625 L 245.871094 529.449219 L 244.449219 532.542969 L 243.734375 534.085938 L 242.3125 537.179688 L 241.601562 538.722656 L 240.886719 540.269531 L 240.175781 541.816406 L 239.464844 543.359375 L 238.042969 546.453125 L 237.328125 547.996094 L 235.90625 551.089844 L 235.195312 552.632812 L 234.484375 554.179688 L 233.769531 555.726562 L 233.058594 557.269531 L 231.636719 560.363281 L 230.925781 561.90625 L 230.210938 563.453125 L 229.5 565 L 228.789062 566.542969 L 227.367188 569.636719 L 226.652344 571.179688 L 224.519531 575.820312 L 223.804688 577.363281 L 222.382812 580.457031 L 221.671875 582 L 220.960938 583.546875 L 220.246094 585.09375 L 219.535156 586.636719 L 218.113281 589.730469 L 217.402344 591.273438 L 216.6875 592.820312 L 215.976562 594.367188 L 215.265625 595.910156 L 213.84375 599.003906 L 213.128906 600.546875 L 211.707031 603.640625 L 210.996094 605.183594 L 210.285156 606.730469 L 209.570312 608.277344 L 208.859375 609.820312 L 207.4375 612.914062 L 206.726562 614.457031 L 206.011719 616.003906 L 205.300781 617.550781 L 204.589844 619.09375 L 203.878906 620.640625 L 203.164062 622.1875 L 202.453125 623.730469 L 200.320312 628.371094 L 199.605469 629.914062 L 198.183594 633.007812 L 197.472656 634.550781 L 196.761719 636.097656 L 196.046875 637.644531 L 195.335938 639.1875 L 193.914062 642.28125 L 193.203125 643.824219 L 192.488281 645.371094 L 191.777344 646.917969 L 191.066406 648.460938 L 189.644531 651.554688 L 188.929688 653.097656 L 187.507812 656.191406 L 186.796875 657.734375 L 186.085938 659.28125 "/>
<path style="fill:none;stroke-width:4.054518;stroke-linecap:butt;stroke-linejoin:round;stroke:rgb(0%,0%,0%);stroke-opacity:1;stroke-miterlimit:1;" d="M 256.546875 506.265625 L 256.546875 659.28125 "/>
<path style="fill:none;stroke-width:4.054518;stroke-linecap:butt;stroke-linejoin:round;stroke:rgb(0%,0%,0%);stroke-opacity:1;stroke-miterlimit:1;" d="M 327.011719 506.265625 L 327.011719 659.28125 "/>
<path style="fill:none;stroke-width:4.054518;stroke-linecap:butt;stroke-linejoin:round;stroke:rgb(0%,0%,0%);stroke-opacity:1;stroke-miterlimit:1;" d="M 327.011719 506.265625 L 327.722656 507.8125 L 328.433594 509.355469 L 329.855469 512.449219 L 330.570312 513.992188 L 332.703125 518.632812 L 333.414062 520.175781 L 334.128906 521.722656 L 334.839844 523.269531 L 335.550781 524.8125 L 336.972656 527.90625 L 337.6875 529.449219 L 339.109375 532.542969 L 339.820312 534.085938 L 340.535156 535.632812 L 341.246094 537.179688 L 341.957031 538.722656 L 343.378906 541.816406 L 344.09375 543.359375 L 345.515625 546.453125 L 346.226562 547.996094 L 346.9375 549.542969 L 347.652344 551.089844 L 348.363281 552.632812 L 349.785156 555.726562 L 350.496094 557.269531 L 351.210938 558.816406 L 351.921875 560.363281 L 352.632812 561.90625 L 354.054688 565 L 354.769531 566.542969 L 356.191406 569.636719 L 356.902344 571.179688 L 357.613281 572.726562 L 358.328125 574.273438 L 359.039062 575.820312 L 359.75 577.363281 L 360.460938 578.910156 L 361.175781 580.457031 L 361.886719 582 L 363.308594 585.09375 L 364.019531 586.636719 L 364.734375 588.183594 L 365.445312 589.730469 L 366.15625 591.273438 L 367.578125 594.367188 L 368.292969 595.910156 L 369.714844 599.003906 L 370.425781 600.546875 L 371.136719 602.09375 L 371.851562 603.640625 L 372.5625 605.183594 L 373.984375 608.277344 L 374.695312 609.820312 L 375.410156 611.367188 L 376.121094 612.914062 L 376.832031 614.457031 L 377.542969 616.003906 L 378.257812 617.550781 L 378.96875 619.09375 L 380.390625 622.1875 L 381.101562 623.730469 L 381.816406 625.277344 L 383.238281 628.371094 L 383.949219 629.914062 L 384.660156 631.460938 L 385.375 633.007812 L 386.085938 634.550781 L 387.507812 637.644531 L 388.21875 639.1875 L 388.933594 640.734375 L 389.644531 642.28125 L 390.355469 643.824219 L 391.777344 646.917969 L 392.492188 648.460938 L 393.914062 651.554688 L 394.625 653.097656 L 395.335938 654.644531 L 396.050781 656.191406 L 396.761719 657.734375 L 397.472656 659.28125 "/>
<path style="fill:none;stroke-width:4.054518;stroke-linecap:butt;stroke-linejoin:round;stroke:rgb(0%,0%,0%);stroke-opacity:1;stroke-miterlimit:1;" d="M 467.9375 506.265625 L 467.9375 659.28125 "/>
<path style="fill:none;stroke-width:4.054518;stroke-linecap:butt;stroke-linejoin:round;stroke:rgb(0%,0%,0%);stroke-opacity:1;stroke-miterlimit:1;" d="M 538.398438 506.265625 L 538.398438 659.28125 "/>
<path style="fill:none;stroke-width:4.054518;stroke-linecap:butt;stroke-linejoin:round;stroke:rgb(0%,0%,0%);stroke-opacity:1;stroke-miterlimit:1;" d="M 608.863281 506.265625 L 608.863281 659.28125 "/>
<path style="fill:none;stroke-width:4.054518;stroke-linecap:butt;stroke-linejoin:round;stroke:rgb(0%,0%,0%);stroke-opacity:1;stroke-miterlimit:1;" d="M 186.085938 47.21875 L 187.507812 50.3125 L 188.21875 51.855469 L 188.929688 53.402344 L 189.644531 54.949219 L 190.355469 56.492188 L 191.777344 59.585938 L 192.488281 61.128906 L 193.203125 62.675781 L 193.914062 64.222656 L 194.625 65.765625 L 196.046875 68.859375 L 196.761719 70.40625 L 197.472656 71.949219 L 198.894531 75.042969 L 199.605469 76.585938 L 200.320312 78.132812 L 201.03125 79.679688 L 201.742188 81.222656 L 203.164062 84.316406 L 203.878906 85.859375 L 205.300781 88.953125 L 206.011719 90.496094 L 206.726562 92.042969 L 207.4375 93.589844 L 208.148438 95.132812 L 209.570312 98.226562 L 210.285156 99.769531 L 211.707031 102.863281 L 212.417969 104.40625 L 213.128906 105.953125 L 213.84375 107.5 L 214.554688 109.042969 L 215.976562 112.136719 L 216.6875 113.679688 L 217.402344 115.226562 L 218.113281 116.773438 L 218.824219 118.316406 L 220.246094 121.410156 L 220.960938 122.953125 L 223.09375 127.59375 L 223.804688 129.136719 L 224.519531 130.683594 L 225.230469 132.230469 L 225.941406 133.773438 L 226.652344 135.320312 L 227.367188 136.867188 L 228.078125 138.410156 L 229.5 141.503906 L 230.210938 143.046875 L 230.925781 144.59375 L 231.636719 146.140625 L 232.347656 147.683594 L 233.769531 150.777344 L 234.484375 152.320312 L 235.90625 155.414062 L 236.617188 156.957031 L 237.328125 158.503906 L 238.042969 160.050781 L 238.753906 161.59375 L 240.175781 164.6875 L 240.886719 166.230469 L 241.601562 167.777344 L 242.3125 169.324219 L 243.023438 170.867188 L 243.734375 172.414062 L 244.449219 173.960938 L 245.160156 175.503906 L 246.582031 178.597656 L 247.292969 180.140625 L 248.007812 181.6875 L 249.429688 184.78125 L 250.140625 186.324219 L 250.851562 187.871094 L 251.566406 189.417969 L 252.277344 190.960938 L 253.699219 194.054688 L 254.410156 195.597656 L 255.125 197.144531 L 255.835938 198.691406 L 256.546875 200.234375 "/>
<path style="fill:none;stroke-width:4.054518;stroke-linecap:butt;stroke-linejoin:round;stroke:rgb(0%,0%,0%);stroke-opacity:1;stroke-miterlimit:1;" d="M 608.863281 506.265625 L 609.574219 507.8125 L 610.285156 509.355469 L 610.996094 510.902344 L 611.710938 512.449219 L 612.421875 513.992188 L 614.554688 518.632812 L 615.269531 520.175781 L 616.691406 523.269531 L 617.402344 524.8125 L 618.113281 526.359375 L 618.828125 527.90625 L 619.539062 529.449219 L 620.960938 532.542969 L 621.671875 534.085938 L 622.386719 535.632812 L 623.097656 537.179688 L 623.808594 538.722656 L 625.230469 541.816406 L 625.945312 543.359375 L 627.367188 546.453125 L 628.078125 547.996094 L 628.792969 549.542969 L 629.503906 551.089844 L 630.214844 552.632812 L 631.636719 555.726562 L 632.351562 557.269531 L 633.773438 560.363281 L 634.484375 561.90625 L 635.195312 563.453125 L 635.910156 565 L 636.621094 566.542969 L 638.042969 569.636719 L 638.753906 571.179688 L 639.46875 572.726562 L 640.890625 575.820312 L 641.601562 577.363281 L 642.3125 578.910156 L 643.027344 580.457031 L 643.738281 582 L 645.160156 585.09375 L 645.875 586.636719 L 647.296875 589.730469 L 648.007812 591.273438 L 648.71875 592.820312 L 649.433594 594.367188 L 650.144531 595.910156 L 651.566406 599.003906 L 652.277344 600.546875 L 652.992188 602.09375 L 653.703125 603.640625 L 654.414062 605.183594 L 655.835938 608.277344 L 656.550781 609.820312 L 657.972656 612.914062 L 658.683594 614.457031 L 659.394531 616.003906 L 660.109375 617.550781 L 660.820312 619.09375 L 662.242188 622.1875 L 662.953125 623.730469 L 663.667969 625.277344 L 665.089844 628.371094 L 665.800781 629.914062 L 666.515625 631.460938 L 667.226562 633.007812 L 667.9375 634.550781 L 669.359375 637.644531 L 670.074219 639.1875 L 671.496094 642.28125 L 672.207031 643.824219 L 672.917969 645.371094 L 673.632812 646.917969 L 674.34375 648.460938 L 675.765625 651.554688 L 676.476562 653.097656 L 677.191406 654.644531 L 677.902344 656.191406 L 678.613281 657.734375 L 679.324219 659.28125 "/>
<path style="fill:none;stroke-width:4.054518;stroke-linecap:butt;stroke-linejoin:round;stroke:rgb(0%,0%,0%);stroke-opacity:1;stroke-miterlimit:1;" d="M 45.15625 659.28125 L 45.15625 812.296875 "/>
<path style="fill:none;stroke-width:4.054518;stroke-linecap:butt;stroke-linejoin:round;stroke:rgb(0%,0%,0%);stroke-opacity:1;stroke-miterlimit:1;" d="M 45.15625 659.28125 L 45.871094 660.828125 L 46.582031 662.371094 L 48.003906 665.464844 L 48.714844 667.007812 L 49.429688 668.554688 L 50.140625 670.101562 L 50.851562 671.644531 L 51.5625 673.191406 L 52.277344 674.738281 L 52.988281 676.28125 L 54.410156 679.375 L 55.121094 680.917969 L 55.835938 682.464844 L 57.257812 685.558594 L 57.96875 687.101562 L 58.679688 688.648438 L 59.394531 690.195312 L 60.105469 691.738281 L 61.527344 694.832031 L 62.238281 696.375 L 62.953125 697.921875 L 63.664062 699.46875 L 64.375 701.011719 L 65.796875 704.105469 L 66.511719 705.648438 L 67.933594 708.742188 L 68.644531 710.285156 L 69.355469 711.832031 L 70.070312 713.378906 L 70.78125 714.921875 L 72.203125 718.015625 L 72.917969 719.558594 L 74.339844 722.652344 L 75.050781 724.195312 L 75.761719 725.742188 L 76.476562 727.289062 L 77.1875 728.832031 L 78.609375 731.925781 L 79.320312 733.46875 L 80.035156 735.015625 L 80.746094 736.5625 L 81.457031 738.105469 L 82.878906 741.199219 L 83.59375 742.746094 L 84.304688 744.289062 L 85.726562 747.382812 L 86.4375 748.925781 L 87.152344 750.472656 L 87.863281 752.019531 L 88.574219 753.5625 L 89.996094 756.65625 L 90.710938 758.199219 L 92.132812 761.292969 L 92.84375 762.835938 L 93.558594 764.382812 L 94.269531 765.929688 L 94.980469 767.472656 L 96.402344 770.566406 L 97.117188 772.109375 L 98.539062 775.203125 L 99.25 776.746094 L 99.960938 778.292969 L 100.675781 779.839844 L 101.386719 781.382812 L 102.808594 784.476562 L 103.519531 786.019531 L 104.234375 787.566406 L 104.945312 789.113281 L 105.65625 790.65625 L 107.078125 793.75 L 107.792969 795.292969 L 109.925781 799.933594 L 110.640625 801.476562 L 112.0625 804.570312 L 112.773438 806.113281 L 113.484375 807.660156 L 114.199219 809.207031 L 114.910156 810.75 L 115.621094 812.296875 "/>
<path style="fill:none;stroke-width:4.054518;stroke-linecap:butt;stroke-linejoin:round;stroke:rgb(0%,0%,0%);stroke-opacity:1;stroke-miterlimit:1;" d="M 115.621094 659.28125 L 116.332031 660.828125 L 117.042969 662.371094 L 117.757812 663.917969 L 118.46875 665.464844 L 119.179688 667.007812 L 120.601562 670.101562 L 121.316406 671.644531 L 122.738281 674.738281 L 123.449219 676.28125 L 124.160156 677.828125 L 124.875 679.375 L 125.585938 680.917969 L 127.71875 685.558594 L 128.433594 687.101562 L 129.855469 690.195312 L 130.566406 691.738281 L 131.28125 693.285156 L 131.992188 694.832031 L 132.703125 696.375 L 134.125 699.46875 L 134.839844 701.011719 L 136.261719 704.105469 L 136.972656 705.648438 L 137.683594 707.195312 L 138.398438 708.742188 L 139.109375 710.285156 L 140.53125 713.378906 L 141.242188 714.921875 L 141.957031 716.46875 L 142.667969 718.015625 L 143.378906 719.558594 L 144.800781 722.652344 L 145.515625 724.195312 L 146.9375 727.289062 L 147.648438 728.832031 L 148.363281 730.378906 L 149.074219 731.925781 L 149.785156 733.46875 L 151.207031 736.5625 L 151.921875 738.105469 L 154.054688 742.746094 L 154.765625 744.289062 L 155.480469 745.835938 L 156.191406 747.382812 L 156.902344 748.925781 L 158.324219 752.019531 L 159.039062 753.5625 L 160.460938 756.65625 L 161.171875 758.199219 L 161.882812 759.746094 L 162.597656 761.292969 L 163.308594 762.835938 L 164.730469 765.929688 L 165.441406 767.472656 L 166.15625 769.019531 L 166.867188 770.566406 L 167.578125 772.109375 L 168.289062 773.65625 L 169.003906 775.203125 L 169.714844 776.746094 L 171.136719 779.839844 L 171.847656 781.382812 L 172.5625 782.929688 L 173.273438 784.476562 L 173.984375 786.019531 L 175.40625 789.113281 L 176.121094 790.65625 L 177.542969 793.75 L 178.253906 795.292969 L 178.964844 796.839844 L 179.679688 798.386719 L 180.390625 799.933594 L 181.101562 801.476562 L 182.523438 804.570312 L 183.238281 806.113281 L 184.660156 809.207031 L 185.371094 810.75 L 186.085938 812.296875 "/>
<path style="fill:none;stroke-width:4.054518;stroke-linecap:butt;stroke-linejoin:round;stroke:rgb(0%,0%,0%);stroke-opacity:1;stroke-miterlimit:1;" d="M 327.011719 659.28125 L 326.296875 660.828125 L 325.585938 662.371094 L 324.164062 665.464844 L 323.453125 667.007812 L 322.738281 668.554688 L 322.027344 670.101562 L 321.316406 671.644531 L 319.894531 674.738281 L 319.179688 676.28125 L 317.757812 679.375 L 317.046875 680.917969 L 316.332031 682.464844 L 314.910156 685.558594 L 314.199219 687.101562 L 313.488281 688.648438 L 312.773438 690.195312 L 312.0625 691.738281 L 310.640625 694.832031 L 309.929688 696.375 L 309.214844 697.921875 L 308.503906 699.46875 L 307.792969 701.011719 L 306.371094 704.105469 L 305.65625 705.648438 L 304.234375 708.742188 L 303.523438 710.285156 L 302.8125 711.832031 L 302.097656 713.378906 L 301.386719 714.921875 L 299.964844 718.015625 L 299.25 719.558594 L 297.828125 722.652344 L 297.117188 724.195312 L 296.40625 725.742188 L 295.691406 727.289062 L 294.980469 728.832031 L 293.558594 731.925781 L 292.847656 733.46875 L 292.132812 735.015625 L 291.421875 736.5625 L 290.710938 738.105469 L 289.289062 741.199219 L 288.574219 742.746094 L 287.863281 744.289062 L 286.441406 747.382812 L 285.730469 748.925781 L 285.015625 750.472656 L 284.304688 752.019531 L 283.59375 753.5625 L 282.171875 756.65625 L 281.457031 758.199219 L 280.035156 761.292969 L 279.324219 762.835938 L 278.609375 764.382812 L 277.898438 765.929688 L 277.1875 767.472656 L 275.765625 770.566406 L 275.050781 772.109375 L 273.628906 775.203125 L 272.917969 776.746094 L 272.207031 778.292969 L 271.492188 779.839844 L 270.78125 781.382812 L 269.359375 784.476562 L 268.648438 786.019531 L 267.933594 787.566406 L 267.222656 789.113281 L 266.511719 790.65625 L 265.089844 793.75 L 264.375 795.292969 L 262.242188 799.933594 L 261.527344 801.476562 L 260.105469 804.570312 L 259.394531 806.113281 L 258.683594 807.660156 L 257.96875 809.207031 L 257.257812 810.75 L 256.546875 812.296875 "/>
<path style="fill:none;stroke-width:4.054518;stroke-linecap:butt;stroke-linejoin:round;stroke:rgb(0%,0%,0%);stroke-opacity:1;stroke-miterlimit:1;" d="M 327.011719 659.28125 L 327.011719 812.296875 "/>
<path style="fill:none;stroke-width:4.054518;stroke-linecap:butt;stroke-linejoin:round;stroke:rgb(0%,0%,0%);stroke-opacity:1;stroke-miterlimit:1;" d="M 397.472656 659.28125 L 397.472656 812.296875 "/>
<path style="fill:none;stroke-width:4.054518;stroke-linecap:butt;stroke-linejoin:round;stroke:rgb(0%,0%,0%);stroke-opacity:1;stroke-miterlimit:1;" d="M 467.9375 659.28125 L 467.9375 812.296875 "/>
<path style="fill:none;stroke-width:4.054518;stroke-linecap:butt;stroke-linejoin:round;stroke:rgb(0%,0%,0%);stroke-opacity:1;stroke-miterlimit:1;" d="M 538.398438 659.28125 L 538.398438 812.296875 "/>
<path style="fill:none;stroke-width:4.054518;stroke-linecap:butt;stroke-linejoin:round;stroke:rgb(0%,0%,0%);stroke-opacity:1;stroke-miterlimit:1;" d="M 679.324219 659.28125 L 678.613281 660.828125 L 677.902344 662.371094 L 677.191406 663.917969 L 676.476562 665.464844 L 675.765625 667.007812 L 674.34375 670.101562 L 673.632812 671.644531 L 672.917969 673.191406 L 672.207031 674.738281 L 671.496094 676.28125 L 670.074219 679.375 L 669.359375 680.917969 L 667.226562 685.558594 L 666.515625 687.101562 L 665.800781 688.648438 L 665.089844 690.195312 L 664.378906 691.738281 L 663.667969 693.285156 L 662.953125 694.832031 L 662.242188 696.375 L 660.820312 699.46875 L 660.109375 701.011719 L 659.394531 702.558594 L 658.683594 704.105469 L 657.972656 705.648438 L 656.550781 708.742188 L 655.835938 710.285156 L 654.414062 713.378906 L 653.703125 714.921875 L 652.992188 716.46875 L 652.277344 718.015625 L 651.566406 719.558594 L 650.144531 722.652344 L 649.433594 724.195312 L 648.71875 725.742188 L 648.007812 727.289062 L 647.296875 728.832031 L 645.875 731.925781 L 645.160156 733.46875 L 643.738281 736.5625 L 643.027344 738.105469 L 642.3125 739.652344 L 640.890625 742.746094 L 640.179688 744.289062 L 639.46875 745.835938 L 638.753906 747.382812 L 638.042969 748.925781 L 636.621094 752.019531 L 635.910156 753.5625 L 635.195312 755.109375 L 634.484375 756.65625 L 633.773438 758.199219 L 632.351562 761.292969 L 631.636719 762.835938 L 630.214844 765.929688 L 629.503906 767.472656 L 628.792969 769.019531 L 628.078125 770.566406 L 627.367188 772.109375 L 625.945312 775.203125 L 625.230469 776.746094 L 623.808594 779.839844 L 623.097656 781.382812 L 622.386719 782.929688 L 621.671875 784.476562 L 620.960938 786.019531 L 619.539062 789.113281 L 618.828125 790.65625 L 618.113281 792.203125 L 617.402344 793.75 L 616.691406 795.292969 L 615.269531 798.386719 L 614.554688 799.933594 L 613.84375 801.476562 L 612.421875 804.570312 L 611.710938 806.113281 L 610.996094 807.660156 L 610.285156 809.207031 L 609.574219 810.75 L 608.863281 812.296875 "/>
<path style="fill:none;stroke-width:4.054518;stroke-linecap:butt;stroke-linejoin:round;stroke:rgb(0%,0%,0%);stroke-opacity:1;stroke-miterlimit:1;" d="M 186.085938 47.21875 L 188.929688 50.3125 L 190.355469 51.855469 L 191.777344 53.402344 L 193.203125 54.949219 L 194.625 56.492188 L 196.046875 58.039062 L 197.472656 59.585938 L 198.894531 61.128906 L 200.320312 62.675781 L 201.742188 64.222656 L 203.164062 65.765625 L 204.589844 67.3125 L 206.011719 68.859375 L 207.4375 70.40625 L 208.859375 71.949219 L 210.285156 73.496094 L 211.707031 75.042969 L 213.128906 76.585938 L 214.554688 78.132812 L 215.976562 79.679688 L 217.402344 81.222656 L 220.246094 84.316406 L 221.671875 85.859375 L 223.09375 87.40625 L 224.519531 88.953125 L 225.941406 90.496094 L 227.367188 92.042969 L 228.789062 93.589844 L 230.210938 95.132812 L 231.636719 96.679688 L 233.058594 98.226562 L 234.484375 99.769531 L 237.328125 102.863281 L 238.753906 104.40625 L 240.175781 105.953125 L 241.601562 107.5 L 243.023438 109.042969 L 244.449219 110.589844 L 245.871094 112.136719 L 247.292969 113.679688 L 248.71875 115.226562 L 250.140625 116.773438 L 251.566406 118.316406 L 254.410156 121.410156 L 255.835938 122.953125 L 257.257812 124.5 L 258.683594 126.046875 L 260.105469 127.59375 L 261.527344 129.136719 L 262.953125 130.683594 L 264.375 132.230469 L 265.800781 133.773438 L 267.222656 135.320312 L 268.648438 136.867188 L 270.070312 138.410156 L 271.492188 139.957031 L 272.917969 141.503906 L 274.339844 143.046875 L 275.765625 144.59375 L 277.1875 146.140625 L 278.609375 147.683594 L 280.035156 149.230469 L 281.457031 150.777344 L 282.882812 152.320312 L 284.304688 153.867188 L 285.730469 155.414062 L 287.152344 156.957031 L 288.574219 158.503906 L 290 160.050781 L 291.421875 161.59375 L 292.847656 163.140625 L 294.269531 164.6875 L 295.691406 166.230469 L 297.117188 167.777344 L 298.539062 169.324219 L 299.964844 170.867188 L 301.386719 172.414062 L 302.8125 173.960938 L 304.234375 175.503906 L 305.65625 177.050781 L 307.082031 178.597656 L 308.503906 180.140625 L 309.929688 181.6875 L 312.773438 184.78125 L 314.199219 186.324219 L 315.621094 187.871094 L 317.046875 189.417969 L 318.46875 190.960938 L 319.894531 192.507812 L 321.316406 194.054688 L 322.738281 195.597656 L 324.164062 197.144531 L 325.585938 198.691406 L 327.011719 200.234375 "/>
<path style="fill:none;stroke-width:4.054518;stroke-linecap:butt;stroke-linejoin:round;stroke:rgb(0%,0%,0%);stroke-opacity:1;stroke-miterlimit:1;" d="M 679.324219 659.28125 L 679.324219 812.296875 "/>
<path style="fill:none;stroke-width:4.054518;stroke-linecap:butt;stroke-linejoin:round;stroke:rgb(0%,0%,0%);stroke-opacity:1;stroke-miterlimit:1;" d="M 186.085938 47.21875 L 188.21875 48.765625 L 190.355469 50.3125 L 192.488281 51.855469 L 196.761719 54.949219 L 198.894531 56.492188 L 201.03125 58.039062 L 203.164062 59.585938 L 205.300781 61.128906 L 207.4375 62.675781 L 209.570312 64.222656 L 211.707031 65.765625 L 213.84375 67.3125 L 215.976562 68.859375 L 218.113281 70.40625 L 220.246094 71.949219 L 224.519531 75.042969 L 226.652344 76.585938 L 230.925781 79.679688 L 233.058594 81.222656 L 235.195312 82.769531 L 237.328125 84.316406 L 239.464844 85.859375 L 241.601562 87.40625 L 243.734375 88.953125 L 245.871094 90.496094 L 248.007812 92.042969 L 250.140625 93.589844 L 252.277344 95.132812 L 254.410156 96.679688 L 256.546875 98.226562 L 258.683594 99.769531 L 260.816406 101.316406 L 262.953125 102.863281 L 265.089844 104.40625 L 267.222656 105.953125 L 269.359375 107.5 L 271.492188 109.042969 L 275.765625 112.136719 L 277.898438 113.679688 L 282.171875 116.773438 L 284.304688 118.316406 L 286.441406 119.863281 L 288.574219 121.410156 L 290.710938 122.953125 L 292.847656 124.5 L 294.980469 126.046875 L 297.117188 127.59375 L 299.25 129.136719 L 303.523438 132.230469 L 305.65625 133.773438 L 309.929688 136.867188 L 312.0625 138.410156 L 314.199219 139.957031 L 316.332031 141.503906 L 318.46875 143.046875 L 320.605469 144.59375 L 322.738281 146.140625 L 324.875 147.683594 L 327.011719 149.230469 L 329.144531 150.777344 L 331.28125 152.320312 L 333.414062 153.867188 L 335.550781 155.414062 L 337.6875 156.957031 L 339.820312 158.503906 L 341.957031 160.050781 L 344.09375 161.59375 L 346.226562 163.140625 L 348.363281 164.6875 L 350.496094 166.230469 L 354.769531 169.324219 L 356.902344 170.867188 L 361.175781 173.960938 L 363.308594 175.503906 L 365.445312 177.050781 L 367.578125 178.597656 L 369.714844 180.140625 L 371.851562 181.6875 L 373.984375 183.234375 L 376.121094 184.78125 L 378.257812 186.324219 L 380.390625 187.871094 L 382.527344 189.417969 L 384.660156 190.960938 L 388.933594 194.054688 L 391.066406 195.597656 L 393.203125 197.144531 L 395.335938 198.691406 L 397.472656 200.234375 "/>
<path style="fill:none;stroke-width:4.054518;stroke-linecap:butt;stroke-linejoin:round;stroke:rgb(0%,0%,0%);stroke-opacity:1;stroke-miterlimit:1;" d="M 467.9375 47.21875 L 467.9375 200.234375 "/>
<path style="fill:none;stroke-width:4.054518;stroke-linecap:butt;stroke-linejoin:round;stroke:rgb(0%,0%,0%);stroke-opacity:1;stroke-miterlimit:1;" d="M 538.398438 47.21875 L 538.398438 200.234375 "/>
<path style="fill:none;stroke-width:4.054518;stroke-linecap:butt;stroke-linejoin:round;stroke:rgb(0%,0%,0%);stroke-opacity:1;stroke-miterlimit:1;" d="M 608.863281 47.21875 L 608.863281 200.234375 "/>
<path style="fill-rule:nonzero;fill:rgb(0%,0%,0%);fill-opacity:1;stroke-width:0.708661;stroke-linecap:round;stroke-linejoin:round;stroke:rgb(0%,0%,0%);stroke-opacity:1;stroke-miterlimit:10;" d="M 48.714844 47.21875 C 48.714844 51.960938 41.601562 51.960938 41.601562 47.21875 C 41.601562 42.480469 48.714844 42.480469 48.714844 47.21875 "/>
<path style="fill-rule:nonzero;fill:rgb(0%,0%,0%);fill-opacity:1;stroke-width:0.708661;stroke-linecap:round;stroke-linejoin:round;stroke:rgb(0%,0%,0%);stroke-opacity:1;stroke-miterlimit:10;" d="M 119.175781 47.21875 C 119.175781 51.960938 112.066406 51.960938 112.066406 47.21875 C 112.066406 42.480469 119.175781 42.480469 119.175781 47.21875 "/>
<path style="fill-rule:nonzero;fill:rgb(0%,0%,0%);fill-opacity:1;stroke-width:0.708661;stroke-linecap:round;stroke-linejoin:round;stroke:rgb(0%,0%,0%);stroke-opacity:1;stroke-miterlimit:10;" d="M 189.640625 47.21875 C 189.640625 51.960938 182.527344 51.960938 182.527344 47.21875 C 182.527344 42.480469 189.640625 42.480469 189.640625 47.21875 "/>
<path style="fill-rule:nonzero;fill:rgb(0%,0%,0%);fill-opacity:1;stroke-width:0.708661;stroke-linecap:round;stroke-linejoin:round;stroke:rgb(0%,0%,0%);stroke-opacity:1;stroke-miterlimit:10;" d="M 260.101562 47.21875 C 260.101562 51.960938 252.992188 51.960938 252.992188 47.21875 C 252.992188 42.480469 260.101562 42.480469 260.101562 47.21875 "/>
<path style="fill-rule:nonzero;fill:rgb(0%,0%,0%);fill-opacity:1;stroke-width:0.708661;stroke-linecap:round;stroke-linejoin:round;stroke:rgb(0%,0%,0%);stroke-opacity:1;stroke-miterlimit:10;" d="M 330.566406 47.21875 C 330.566406 51.960938 323.453125 51.960938 323.453125 47.21875 C 323.453125 42.480469 330.566406 42.480469 330.566406 47.21875 "/>
<path style="fill-rule:nonzero;fill:rgb(0%,0%,0%);fill-opacity:1;stroke-width:0.708661;stroke-linecap:round;stroke-linejoin:round;stroke:rgb(0%,0%,0%);stroke-opacity:1;stroke-miterlimit:10;" d="M 401.027344 47.21875 C 401.027344 51.960938 393.917969 51.960938 393.917969 47.21875 C 393.917969 42.480469 401.027344 42.480469 401.027344 47.21875 "/>
<path style="fill-rule:nonzero;fill:rgb(0%,0%,0%);fill-opacity:1;stroke-width:0.708661;stroke-linecap:round;stroke-linejoin:round;stroke:rgb(0%,0%,0%);stroke-opacity:1;stroke-miterlimit:10;" d="M 471.492188 47.21875 C 471.492188 51.960938 464.382812 51.960938 464.382812 47.21875 C 464.382812 42.480469 471.492188 42.480469 471.492188 47.21875 "/>
<path style="fill-rule:nonzero;fill:rgb(0%,0%,0%);fill-opacity:1;stroke-width:0.708661;stroke-linecap:round;stroke-linejoin:round;stroke:rgb(0%,0%,0%);stroke-opacity:1;stroke-miterlimit:10;" d="M 541.953125 47.21875 C 541.953125 51.960938 534.84375 51.960938 534.84375 47.21875 C 534.84375 42.480469 541.953125 42.480469 541.953125 47.21875 "/>
<path style="fill-rule:nonzero;fill:rgb(0%,0%,0%);fill-opacity:1;stroke-width:0.708661;stroke-linecap:round;stroke-linejoin:round;stroke:rgb(0%,0%,0%);stroke-opacity:1;stroke-miterlimit:10;" d="M 612.417969 47.21875 C 612.417969 51.960938 605.308594 51.960938 605.308594 47.21875 C 605.308594 42.480469 612.417969 42.480469 612.417969 47.21875 "/>
<path style="fill-rule:nonzero;fill:rgb(0%,0%,0%);fill-opacity:1;stroke-width:0.708661;stroke-linecap:round;stroke-linejoin:round;stroke:rgb(0%,0%,0%);stroke-opacity:1;stroke-miterlimit:10;" d="M 682.878906 47.21875 C 682.878906 51.960938 675.769531 51.960938 675.769531 47.21875 C 675.769531 42.480469 682.878906 42.480469 682.878906 47.21875 "/>
<path style="fill-rule:nonzero;fill:rgb(0%,0%,0%);fill-opacity:1;stroke-width:0.708661;stroke-linecap:round;stroke-linejoin:round;stroke:rgb(0%,0%,0%);stroke-opacity:1;stroke-miterlimit:10;" d="M 48.714844 200.234375 C 48.714844 204.976562 41.601562 204.976562 41.601562 200.234375 C 41.601562 195.496094 48.714844 195.496094 48.714844 200.234375 "/>
<path style="fill-rule:nonzero;fill:rgb(0%,0%,0%);fill-opacity:1;stroke-width:0.708661;stroke-linecap:round;stroke-linejoin:round;stroke:rgb(0%,0%,0%);stroke-opacity:1;stroke-miterlimit:10;" d="M 119.175781 200.234375 C 119.175781 204.976562 112.066406 204.976562 112.066406 200.234375 C 112.066406 195.496094 119.175781 195.496094 119.175781 200.234375 "/>
<path style="fill-rule:nonzero;fill:rgb(0%,0%,0%);fill-opacity:1;stroke-width:0.708661;stroke-linecap:round;stroke-linejoin:round;stroke:rgb(0%,0%,0%);stroke-opacity:1;stroke-miterlimit:10;" d="M 189.640625 200.234375 C 189.640625 204.976562 182.527344 204.976562 182.527344 200.234375 C 182.527344 195.496094 189.640625 195.496094 189.640625 200.234375 "/>
<path style="fill-rule:nonzero;fill:rgb(0%,0%,0%);fill-opacity:1;stroke-width:0.708661;stroke-linecap:round;stroke-linejoin:round;stroke:rgb(0%,0%,0%);stroke-opacity:1;stroke-miterlimit:10;" d="M 260.101562 200.234375 C 260.101562 204.976562 252.992188 204.976562 252.992188 200.234375 C 252.992188 195.496094 260.101562 195.496094 260.101562 200.234375 "/>
<path style="fill-rule:nonzero;fill:rgb(0%,0%,0%);fill-opacity:1;stroke-width:0.708661;stroke-linecap:round;stroke-linejoin:round;stroke:rgb(0%,0%,0%);stroke-opacity:1;stroke-miterlimit:10;" d="M 330.566406 200.234375 C 330.566406 204.976562 323.453125 204.976562 323.453125 200.234375 C 323.453125 195.496094 330.566406 195.496094 330.566406 200.234375 "/>
<path style="fill-rule:nonzero;fill:rgb(0%,0%,0%);fill-opacity:1;stroke-width:0.708661;stroke-linecap:round;stroke-linejoin:round;stroke:rgb(0%,0%,0%);stroke-opacity:1;stroke-miterlimit:10;" d="M 401.027344 200.234375 C 401.027344 204.976562 393.917969 204.976562 393.917969 200.234375 C 393.917969 195.496094 401.027344 195.496094 401.027344 200.234375 "/>
<path style="fill-rule:nonzero;fill:rgb(0%,0%,0%);fill-opacity:1;stroke-width:0.708661;stroke-linecap:round;stroke-linejoin:round;stroke:rgb(0%,0%,0%);stroke-opacity:1;stroke-miterlimit:10;" d="M 471.492188 200.234375 C 471.492188 204.976562 464.382812 204.976562 464.382812 200.234375 C 464.382812 195.496094 471.492188 195.496094 471.492188 200.234375 "/>
<path style="fill-rule:nonzero;fill:rgb(0%,0%,0%);fill-opacity:1;stroke-width:0.708661;stroke-linecap:round;stroke-linejoin:round;stroke:rgb(0%,0%,0%);stroke-opacity:1;stroke-miterlimit:10;" d="M 541.953125 200.234375 C 541.953125 204.976562 534.84375 204.976562 534.84375 200.234375 C 534.84375 195.496094 541.953125 195.496094 541.953125 200.234375 "/>
<path style="fill-rule:nonzero;fill:rgb(0%,0%,0%);fill-opacity:1;stroke-width:0.708661;stroke-linecap:round;stroke-linejoin:round;stroke:rgb(0%,0%,0%);stroke-opacity:1;stroke-miterlimit:10;" d="M 612.417969 200.234375 C 612.417969 204.976562 605.308594 204.976562 605.308594 200.234375 C 605.308594 195.496094 612.417969 195.496094 612.417969 200.234375 "/>
<path style="fill-rule:nonzero;fill:rgb(0%,0%,0%);fill-opacity:1;stroke-width:0.708661;stroke-linecap:round;stroke-linejoin:round;stroke:rgb(0%,0%,0%);stroke-opacity:1;stroke-miterlimit:10;" d="M 682.878906 200.234375 C 682.878906 204.976562 675.769531 204.976562 675.769531 200.234375 C 675.769531 195.496094 682.878906 195.496094 682.878906 200.234375 "/>
<path style="fill-rule:nonzero;fill:rgb(0%,0%,0%);fill-opacity:1;stroke-width:0.708661;stroke-linecap:round;stroke-linejoin:round;stroke:rgb(0%,0%,0%);stroke-opacity:1;stroke-miterlimit:10;" d="M 48.714844 353.25 C 48.714844 357.992188 41.601562 357.992188 41.601562 353.25 C 41.601562 348.511719 48.714844 348.511719 48.714844 353.25 "/>
<path style="fill-rule:nonzero;fill:rgb(0%,0%,0%);fill-opacity:1;stroke-width:0.708661;stroke-linecap:round;stroke-linejoin:round;stroke:rgb(0%,0%,0%);stroke-opacity:1;stroke-miterlimit:10;" d="M 119.175781 353.25 C 119.175781 357.992188 112.066406 357.992188 112.066406 353.25 C 112.066406 348.511719 119.175781 348.511719 119.175781 353.25 "/>
<path style="fill-rule:nonzero;fill:rgb(0%,0%,0%);fill-opacity:1;stroke-width:0.708661;stroke-linecap:round;stroke-linejoin:round;stroke:rgb(0%,0%,0%);stroke-opacity:1;stroke-miterlimit:10;" d="M 189.640625 353.25 C 189.640625 357.992188 182.527344 357.992188 182.527344 353.25 C 182.527344 348.511719 189.640625 348.511719 189.640625 353.25 "/>
<path style="fill-rule:nonzero;fill:rgb(0%,0%,0%);fill-opacity:1;stroke-width:0.708661;stroke-linecap:round;stroke-linejoin:round;stroke:rgb(0%,0%,0%);stroke-opacity:1;stroke-miterlimit:10;" d="M 260.101562 353.25 C 260.101562 357.992188 252.992188 357.992188 252.992188 353.25 C 252.992188 348.511719 260.101562 348.511719 260.101562 353.25 "/>
<path style="fill-rule:nonzero;fill:rgb(0%,0%,0%);fill-opacity:1;stroke-width:0.708661;stroke-linecap:round;stroke-linejoin:round;stroke:rgb(0%,0%,0%);stroke-opacity:1;stroke-miterlimit:10;" d="M 330.566406 353.25 C 330.566406 357.992188 323.453125 357.992188 323.453125 353.25 C 323.453125 348.511719 330.566406 348.511719 330.566406 353.25 "/>
<path style="fill-rule:nonzero;fill:rgb(0%,0%,0%);fill-opacity:1;stroke-width:0.708661;stroke-linecap:round;stroke-linejoin:round;stroke:rgb(0%,0%,0%);stroke-opacity:1;stroke-miterlimit:10;" d="M 401.027344 353.25 C 401.027344 357.992188 393.917969 357.992188 393.917969 353.25 C 393.917969 348.511719 401.027344 348.511719 401.027344 353.25 "/>
<path style="fill-rule:nonzero;fill:rgb(0%,0%,0%);fill-opacity:1;stroke-width:0.708661;stroke-linecap:round;stroke-linejoin:round;stroke:rgb(0%,0%,0%);stroke-opacity:1;stroke-miterlimit:10;" d="M 471.492188 353.25 C 471.492188 357.992188 464.382812 357.992188 464.382812 353.25 C 464.382812 348.511719 471.492188 348.511719 471.492188 353.25 "/>
<path style="fill-rule:nonzero;fill:rgb(0%,0%,0%);fill-opacity:1;stroke-width:0.708661;stroke-linecap:round;stroke-linejoin:round;stroke:rgb(0%,0%,0%);stroke-opacity:1;stroke-miterlimit:10;" d="M 541.953125 353.25 C 541.953125 357.992188 534.84375 357.992188 534.84375 353.25 C 534.84375 348.511719 541.953125 348.511719 541.953125 353.25 "/>
<path style="fill-rule:nonzero;fill:rgb(0%,0%,0%);fill-opacity:1;stroke-width:0.708661;stroke-linecap:round;stroke-linejoin:round;stroke:rgb(0%,0%,0%);stroke-opacity:1;stroke-miterlimit:10;" d="M 612.417969 353.25 C 612.417969 357.992188 605.308594 357.992188 605.308594 353.25 C 605.308594 348.511719 612.417969 348.511719 612.417969 353.25 "/>
<path style="fill-rule:nonzero;fill:rgb(0%,0%,0%);fill-opacity:1;stroke-width:0.708661;stroke-linecap:round;stroke-linejoin:round;stroke:rgb(0%,0%,0%);stroke-opacity:1;stroke-miterlimit:10;" d="M 682.878906 353.25 C 682.878906 357.992188 675.769531 357.992188 675.769531 353.25 C 675.769531 348.511719 682.878906 348.511719 682.878906 353.25 "/>
<path style="fill-rule:nonzero;fill:rgb(0%,0%,0%);fill-opacity:1;stroke-width:0.708661;stroke-linecap:round;stroke-linejoin:round;stroke:rgb(0%,0%,0%);stroke-opacity:1;stroke-miterlimit:10;" d="M 48.714844 506.265625 C 48.714844 511.007812 41.601562 511.007812 41.601562 506.265625 C 41.601562 501.527344 48.714844 501.527344 48.714844 506.265625 "/>
<path style="fill-rule:nonzero;fill:rgb(0%,0%,0%);fill-opacity:1;stroke-width:0.708661;stroke-linecap:round;stroke-linejoin:round;stroke:rgb(0%,0%,0%);stroke-opacity:1;stroke-miterlimit:10;" d="M 119.175781 506.265625 C 119.175781 511.007812 112.066406 511.007812 112.066406 506.265625 C 112.066406 501.527344 119.175781 501.527344 119.175781 506.265625 "/>
<path style="fill-rule:nonzero;fill:rgb(0%,0%,0%);fill-opacity:1;stroke-width:0.708661;stroke-linecap:round;stroke-linejoin:round;stroke:rgb(0%,0%,0%);stroke-opacity:1;stroke-miterlimit:10;" d="M 189.640625 506.265625 C 189.640625 511.007812 182.527344 511.007812 182.527344 506.265625 C 182.527344 501.527344 189.640625 501.527344 189.640625 506.265625 "/>
<path style="fill-rule:nonzero;fill:rgb(0%,0%,0%);fill-opacity:1;stroke-width:0.708661;stroke-linecap:round;stroke-linejoin:round;stroke:rgb(0%,0%,0%);stroke-opacity:1;stroke-miterlimit:10;" d="M 260.101562 506.265625 C 260.101562 511.007812 252.992188 511.007812 252.992188 506.265625 C 252.992188 501.527344 260.101562 501.527344 260.101562 506.265625 "/>
<path style="fill-rule:nonzero;fill:rgb(0%,0%,0%);fill-opacity:1;stroke-width:0.708661;stroke-linecap:round;stroke-linejoin:round;stroke:rgb(0%,0%,0%);stroke-opacity:1;stroke-miterlimit:10;" d="M 330.566406 506.265625 C 330.566406 511.007812 323.453125 511.007812 323.453125 506.265625 C 323.453125 501.527344 330.566406 501.527344 330.566406 506.265625 "/>
<path style="fill-rule:nonzero;fill:rgb(0%,0%,0%);fill-opacity:1;stroke-width:0.708661;stroke-linecap:round;stroke-linejoin:round;stroke:rgb(0%,0%,0%);stroke-opacity:1;stroke-miterlimit:10;" d="M 401.027344 506.265625 C 401.027344 511.007812 393.917969 511.007812 393.917969 506.265625 C 393.917969 501.527344 401.027344 501.527344 401.027344 506.265625 "/>
<path style="fill-rule:nonzero;fill:rgb(0%,0%,0%);fill-opacity:1;stroke-width:0.708661;stroke-linecap:round;stroke-linejoin:round;stroke:rgb(0%,0%,0%);stroke-opacity:1;stroke-miterlimit:10;" d="M 471.492188 506.265625 C 471.492188 511.007812 464.382812 511.007812 464.382812 506.265625 C 464.382812 501.527344 471.492188 501.527344 471.492188 506.265625 "/>
<path style="fill-rule:nonzero;fill:rgb(0%,0%,0%);fill-opacity:1;stroke-width:0.708661;stroke-linecap:round;stroke-linejoin:round;stroke:rgb(0%,0%,0%);stroke-opacity:1;stroke-miterlimit:10;" d="M 541.953125 506.265625 C 541.953125 511.007812 534.84375 511.007812 534.84375 506.265625 C 534.84375 501.527344 541.953125 501.527344 541.953125 506.265625 "/>
<path style="fill-rule:nonzero;fill:rgb(0%,0%,0%);fill-opacity:1;stroke-width:0.708661;stroke-linecap:round;stroke-linejoin:round;stroke:rgb(0%,0%,0%);stroke-opacity:1;stroke-miterlimit:10;" d="M 612.417969 506.265625 C 612.417969 511.007812 605.308594 511.007812 605.308594 506.265625 C 605.308594 501.527344 612.417969 501.527344 612.417969 506.265625 "/>
<path style="fill-rule:nonzero;fill:rgb(0%,0%,0%);fill-opacity:1;stroke-width:0.708661;stroke-linecap:round;stroke-linejoin:round;stroke:rgb(0%,0%,0%);stroke-opacity:1;stroke-miterlimit:10;" d="M 682.878906 506.265625 C 682.878906 511.007812 675.769531 511.007812 675.769531 506.265625 C 675.769531 501.527344 682.878906 501.527344 682.878906 506.265625 "/>
<path style="fill-rule:nonzero;fill:rgb(0%,0%,0%);fill-opacity:1;stroke-width:0.708661;stroke-linecap:round;stroke-linejoin:round;stroke:rgb(0%,0%,0%);stroke-opacity:1;stroke-miterlimit:10;" d="M 48.714844 659.28125 C 48.714844 664.023438 41.601562 664.023438 41.601562 659.28125 C 41.601562 654.539062 48.714844 654.539062 48.714844 659.28125 "/>
<path style="fill-rule:nonzero;fill:rgb(0%,0%,0%);fill-opacity:1;stroke-width:0.708661;stroke-linecap:round;stroke-linejoin:round;stroke:rgb(0%,0%,0%);stroke-opacity:1;stroke-miterlimit:10;" d="M 119.175781 659.28125 C 119.175781 664.023438 112.066406 664.023438 112.066406 659.28125 C 112.066406 654.539062 119.175781 654.539062 119.175781 659.28125 "/>
<path style="fill-rule:nonzero;fill:rgb(0%,0%,0%);fill-opacity:1;stroke-width:0.708661;stroke-linecap:round;stroke-linejoin:round;stroke:rgb(0%,0%,0%);stroke-opacity:1;stroke-miterlimit:10;" d="M 189.640625 659.28125 C 189.640625 664.023438 182.527344 664.023438 182.527344 659.28125 C 182.527344 654.539062 189.640625 654.539062 189.640625 659.28125 "/>
<path style="fill-rule:nonzero;fill:rgb(0%,0%,0%);fill-opacity:1;stroke-width:0.708661;stroke-linecap:round;stroke-linejoin:round;stroke:rgb(0%,0%,0%);stroke-opacity:1;stroke-miterlimit:10;" d="M 260.101562 659.28125 C 260.101562 664.023438 252.992188 664.023438 252.992188 659.28125 C 252.992188 654.539062 260.101562 654.539062 260.101562 659.28125 "/>
<path style="fill-rule:nonzero;fill:rgb(0%,0%,0%);fill-opacity:1;stroke-width:0.708661;stroke-linecap:round;stroke-linejoin:round;stroke:rgb(0%,0%,0%);stroke-opacity:1;stroke-miterlimit:10;" d="M 330.566406 659.28125 C 330.566406 664.023438 323.453125 664.023438 323.453125 659.28125 C 323.453125 654.539062 330.566406 654.539062 330.566406 659.28125 "/>
<path style="fill-rule:nonzero;fill:rgb(0%,0%,0%);fill-opacity:1;stroke-width:0.708661;stroke-linecap:round;stroke-linejoin:round;stroke:rgb(0%,0%,0%);stroke-opacity:1;stroke-miterlimit:10;" d="M 401.027344 659.28125 C 401.027344 664.023438 393.917969 664.023438 393.917969 659.28125 C 393.917969 654.539062 401.027344 654.539062 401.027344 659.28125 "/>
<path style="fill-rule:nonzero;fill:rgb(0%,0%,0%);fill-opacity:1;stroke-width:0.708661;stroke-linecap:round;stroke-linejoin:round;stroke:rgb(0%,0%,0%);stroke-opacity:1;stroke-miterlimit:10;" d="M 471.492188 659.28125 C 471.492188 664.023438 464.382812 664.023438 464.382812 659.28125 C 464.382812 654.539062 471.492188 654.539062 471.492188 659.28125 "/>
<path style="fill-rule:nonzero;fill:rgb(0%,0%,0%);fill-opacity:1;stroke-width:0.708661;stroke-linecap:round;stroke-linejoin:round;stroke:rgb(0%,0%,0%);stroke-opacity:1;stroke-miterlimit:10;" d="M 541.953125 659.28125 C 541.953125 664.023438 534.84375 664.023438 534.84375 659.28125 C 534.84375 654.539062 541.953125 654.539062 541.953125 659.28125 "/>
<path style="fill-rule:nonzero;fill:rgb(0%,0%,0%);fill-opacity:1;stroke-width:0.708661;stroke-linecap:round;stroke-linejoin:round;stroke:rgb(0%,0%,0%);stroke-opacity:1;stroke-miterlimit:10;" d="M 612.417969 659.28125 C 612.417969 664.023438 605.308594 664.023438 605.308594 659.28125 C 605.308594 654.539062 612.417969 654.539062 612.417969 659.28125 "/>
<path style="fill-rule:nonzero;fill:rgb(0%,0%,0%);fill-opacity:1;stroke-width:0.708661;stroke-linecap:round;stroke-linejoin:round;stroke:rgb(0%,0%,0%);stroke-opacity:1;stroke-miterlimit:10;" d="M 682.878906 659.28125 C 682.878906 664.023438 675.769531 664.023438 675.769531 659.28125 C 675.769531 654.539062 682.878906 654.539062 682.878906 659.28125 "/>
<path style="fill-rule:nonzero;fill:rgb(0%,0%,0%);fill-opacity:1;stroke-width:0.708661;stroke-linecap:round;stroke-linejoin:round;stroke:rgb(0%,0%,0%);stroke-opacity:1;stroke-miterlimit:10;" d="M 48.714844 812.296875 C 48.714844 817.035156 41.601562 817.035156 41.601562 812.296875 C 41.601562 807.554688 48.714844 807.554688 48.714844 812.296875 "/>
<path style="fill-rule:nonzero;fill:rgb(0%,0%,0%);fill-opacity:1;stroke-width:0.708661;stroke-linecap:round;stroke-linejoin:round;stroke:rgb(0%,0%,0%);stroke-opacity:1;stroke-miterlimit:10;" d="M 119.175781 812.296875 C 119.175781 817.035156 112.066406 817.035156 112.066406 812.296875 C 112.066406 807.554688 119.175781 807.554688 119.175781 812.296875 "/>
<path style="fill-rule:nonzero;fill:rgb(0%,0%,0%);fill-opacity:1;stroke-width:0.708661;stroke-linecap:round;stroke-linejoin:round;stroke:rgb(0%,0%,0%);stroke-opacity:1;stroke-miterlimit:10;" d="M 189.640625 812.296875 C 189.640625 817.035156 182.527344 817.035156 182.527344 812.296875 C 182.527344 807.554688 189.640625 807.554688 189.640625 812.296875 "/>
<path style="fill-rule:nonzero;fill:rgb(0%,0%,0%);fill-opacity:1;stroke-width:0.708661;stroke-linecap:round;stroke-linejoin:round;stroke:rgb(0%,0%,0%);stroke-opacity:1;stroke-miterlimit:10;" d="M 260.101562 812.296875 C 260.101562 817.035156 252.992188 817.035156 252.992188 812.296875 C 252.992188 807.554688 260.101562 807.554688 260.101562 812.296875 "/>
<path style="fill-rule:nonzero;fill:rgb(0%,0%,0%);fill-opacity:1;stroke-width:0.708661;stroke-linecap:round;stroke-linejoin:round;stroke:rgb(0%,0%,0%);stroke-opacity:1;stroke-miterlimit:10;" d="M 330.566406 812.296875 C 330.566406 817.035156 323.453125 817.035156 323.453125 812.296875 C 323.453125 807.554688 330.566406 807.554688 330.566406 812.296875 "/>
<path style="fill-rule:nonzero;fill:rgb(0%,0%,0%);fill-opacity:1;stroke-width:0.708661;stroke-linecap:round;stroke-linejoin:round;stroke:rgb(0%,0%,0%);stroke-opacity:1;stroke-miterlimit:10;" d="M 401.027344 812.296875 C 401.027344 817.035156 393.917969 817.035156 393.917969 812.296875 C 393.917969 807.554688 401.027344 807.554688 401.027344 812.296875 "/>
<path style="fill-rule:nonzero;fill:rgb(0%,0%,0%);fill-opacity:1;stroke-width:0.708661;stroke-linecap:round;stroke-linejoin:round;stroke:rgb(0%,0%,0%);stroke-opacity:1;stroke-miterlimit:10;" d="M 471.492188 812.296875 C 471.492188 817.035156 464.382812 817.035156 464.382812 812.296875 C 464.382812 807.554688 471.492188 807.554688 471.492188 812.296875 "/>
<path style="fill-rule:nonzero;fill:rgb(0%,0%,0%);fill-opacity:1;stroke-width:0.708661;stroke-linecap:round;stroke-linejoin:round;stroke:rgb(0%,0%,0%);stroke-opacity:1;stroke-miterlimit:10;" d="M 541.953125 812.296875 C 541.953125 817.035156 534.84375 817.035156 534.84375 812.296875 C 534.84375 807.554688 541.953125 807.554688 541.953125 812.296875 "/>
<path style="fill-rule:nonzero;fill:rgb(0%,0%,0%);fill-opacity:1;stroke-width:0.708661;stroke-linecap:round;stroke-linejoin:round;stroke:rgb(0%,0%,0%);stroke-opacity:1;stroke-miterlimit:10;" d="M 612.417969 812.296875 C 612.417969 817.035156 605.308594 817.035156 605.308594 812.296875 C 605.308594 807.554688 612.417969 807.554688 612.417969 812.296875 "/>
<path style="fill-rule:nonzero;fill:rgb(0%,0%,0%);fill-opacity:1;stroke-width:0.708661;stroke-linecap:round;stroke-linejoin:round;stroke:rgb(0%,0%,0%);stroke-opacity:1;stroke-miterlimit:10;" d="M 682.878906 812.296875 C 682.878906 817.035156 675.769531 817.035156 675.769531 812.296875 C 675.769531 807.554688 682.878906 807.554688 682.878906 812.296875 "/>
<g clip-path="url(#clip2)" clip-rule="nonzero">
<path style="fill:none;stroke-width:1.745965;stroke-linecap:round;stroke-linejoin:round;stroke:rgb(20%,20%,20%);stroke-opacity:1;stroke-miterlimit:10;" d="M 13.449219 850.550781 L 711.035156 850.550781 L 711.035156 8.964844 L 13.449219 8.964844 Z M 13.449219 850.550781 "/>
</g>
</g>
</svg>
